/* XPM */
static char *close_prelight_xpm[] = {
"30 38 146 2",
"aa c #000000",
"ab c #F9F8F8",
"ac c #E1DEDB",
"ad c #E1DDDA",
"ae c #E0DDDA",
"af c #DFDCD9",
"ag c #DEDBD8",
"ah c #DAD6D3",
"ai c #D6D1CD",
"aj c #D2CCC8",
"ak c #D0CBC5",
"al c #CEC8C3",
"am c #DEDBD7",
"an c #D3CEC9",
"ao c #D4CFCB",
"ap c #E2DFDC",
"aq c #F1EFEE",
"ar c #F7F6F5",
"as c #FDFDFC",
"at c #D3CECA",
"au c #E0DDD9",
"av c #DFDCD8",
"aw c #DDDBD7",
"ax c #D5D0CC",
"ay c #FEFEFE",
"az c #FCFCFB",
"aA c #FAFAF9",
"aB c #F9F9F8",
"aC c #F8F8F7",
"aD c #F0EFED",
"aE c #D5D1CD",
"aF c #E0DCD9",
"aG c #DFDBD8",
"aH c #DEDAD7",
"aI c #D1CBC7",
"aJ c #E8E5E3",
"aK c #FEFEFD",
"aL c #DDDAD7",
"aM c #F1F0EE",
"aN c #FBFBFA",
"aO c #D1CCC7",
"aP c #F1F0ED",
"aQ c #DCD9D5",
"aR c #DDD9D6",
"aS c #DEDAD6",
"aT c #DDDAD6",
"aU c #DCD8D5",
"aV c #F0EEEC",
"aW c #EFEEEB",
"aX c #DCD9D6",
"aY c #D8D5D1",
"aZ c #DBD8D4",
"a0 c #D4D0CB",
"a1 c #E2DFDB",
"a2 c #565A5B",
"a3 c #515656",
"a4 c #CFCCC9",
"a5 c #CECCC9",
"a6 c #515555",
"a7 c #575C5C",
"a8 c #E2DEDB",
"a9 c #D0CCC7",
"a_ c #EEECEB",
"a? c #555A5B",
"a= c #2E3436",
"a) c #4D5153",
"a( c #CFCBC9",
"a/ c #4C5052",
"a& c #565A5C",
"a% c #CFC9C5",
"a+ c #F3F2F0",
"a^ c #E1E0E0",
"a! c #505557",
"ba c #515657",
"bb c #E1E0DF",
"bc c #D9D5D2",
"bd c #CDC8C3",
"be c #F7F7F5",
"bf c #E3E2E1",
"bg c #525657",
"bh c #4E5355",
"bi c #E0E0DE",
"bj c #F6F6F5",
"bk c #F6F6F4",
"bl c #D1CECB",
"bm c #4D5254",
"bn c #F5F5F4",
"bo c #F2F1EF",
"bp c #CECBC9",
"bq c #D8D4D1",
"br c #EDEBE9",
"bs c #515556",
"bt c #E2E1E0",
"bu c #525656",
"bv c #D0CBC6",
"bw c #E1DEDA",
"bx c #5C6061",
"by c #565B5C",
"bz c #E2E0E0",
"bA c #5D6162",
"bB c #D3CFCA",
"bC c #DAD6D2",
"bD c #D5D1CC",
"bE c #F2F0EF",
"bF c #D9D6D2",
"bG c #D6D3CF",
"bH c #ECEBE8",
"bI c #DAD7D3",
"bJ c #DCD8D4",
"bK c #D6D1CC",
"bL c #DBD7D4",
"bM c #D5D1CE",
"bN c #D5D0CB",
"bO c #E6E3E0",
"bP c #E5E3E0",
"bQ c #D6D2CF",
"bR c #DBD7D3",
"bS c #D8D4D0",
"bT c #EDECE9",
"bU c #D8D3D0",
"bV c #D6D2CE",
"bW c #E9E8E5",
"bX c #D5D2CE",
"bY c #C4BEB7",
"bZ c #C4BEB8",
"b0 c #CAC5BE",
"b1 c #CBC5BE",
"b2 c #E9E7E4",
"b3 c #E8E7E4",
"b4 c #D4D0CE",
"b5 c #D9D5D1",
"b6 c #D3CFCC",
"b7 c #D4D0CC",
"b8 c #C8C2BC",
"b9 c #C8C2BB",
"b_ c #D8D5D0",
"b? c #F4F3F2",
"b= c #D8D4CF",
"b) c #D7D3CF",
"b( c #CFCAC7",
"b/ c #CAC5BF",
"b& c #C6BFB9",
"b% c #C3BCB6",
"b+ c #C0B9B2",
"b^ c #D2CFCB",
"b! c #BFB8B1",
"aaaaaaaaaaaaaaaaaaaaaaaaaaaaaaaaaaaaaaaaaaaaaaaaaaaaaaaaaaaa",
"abababababababababababababababababababababababababababababab",
"acacacacacacacacacacacacacacacacacacacacacacacacacacacacacac",
"adadadadadadadadadadadadadadadadadadadadadadadadadadadadadad",
"aeaeaeaeaeaeaeaeaeafafafagagagagagagafafafaeaeaeaeaeaeaeaeae",
"aeaeaeaeaeaeaeafafagahaiajakalalakajaiahagafafaeaeaeaeaeaeae",
"aeaeaeaeaeafafagamanaoapaqarasasaraqapaoatamagafafaeaeaeaeae",
"auauauauavamawaxaiaqayazaAaBaCaCaBaAazayaDaiaEamamavauauauau",
"aFaFaFaGaHaHaIaJaKaAaCaCaCaCaCaCaCaCaCaCaAaKaJaIaHaHaGaFaFaF",
"afafagaLaLaIaMaNaCaCaCaCaCaCaCaCaCaCaCaCaCaCaNaMaIaLaLagafaf",
"afagaLaLaOaPaAaCaCaCaCaCaCaCaCaCaCaCaCaCaCaCaCaAaPaIaLaLagaf",
"avamaQaxaJaAaCaCaCaCaCaCaCaCaCaCaCaCaCaCaCaCaCaCaAaJaEaQamav",
"aHaRaSaiaNaCaCaCaCaCaCaCaCaCaCaCaCaCaCaCaCaCaCaCaCaNaiaTaRaH",
"aHaUataVaCaCaCaCaCaCaCaCaCaCaCaCaCaCaCaCaCaCaCaCaCaCaWataUaH",
"aXaYaoaAaCaCaCaCaCaCaCaCaCaCaCaCaCaCaCaCaCaCaCaCaCaCaAaoaYaX",
"aZa0a1aCaCaCaCaCaCaCaCa2a3a4aCaCa5a6a7aCaCaCaCaCaCaCaCa8a0aZ",
"aZa9a_aCaCaCaCaCaCaCaCa?a=a)a(a(a/a=a&aCaCaCaCaCaCaCaCa_aIaZ",
"aha%a+aCaCaCaCaCaCaCaCa^a!a=a)a)a=babbaCaCaCaCaCaCaCaCa+a%ah",
"bcbdbeaCaCaCaCaCaCaCaCaCbfbga=a=bhbiaCaCaCaCaCaCaCaCaCbjalbc",
"aYalbkaCaCaCaCaCaCaCaCaTbla3a=a=bma5aTaCaCaCaCaCaCaCaCbnalaY",
"aYa%boaCaCaCaCaCaCaCaCbpa/a=babaa=a/bpaCaCaCaCaCaCaCaCboa%aY",
"bqaIbraCaCaCaCaCaCaCaCbsa=a!btbtbaa=buaCaCaCaCaCaCaCaCbrbvbc",
"bcatbwaCaCaCaCaCaCaCaCbxbybbafafbzbybAaCaCaCaCaCaCaCaCadbBbc",
"bCbDaoaCaCaCaCaCaCaCaCaqbEafaCaCafbEaqaCaCaCaCaCaCaCaCaoaxbC",
"bFbGatbHaCaCaCaCaCaCaCaCaCaCaCaCaCaCaCaCaCaCaCaCaCaCbHatbGbF",
"bIaYbJbKaCaCaCaCaCaCaCaCaCaCaCaCaCaCaCaCaCaCaCaCaCaCbKbLaYbI",
"bLbcbMbNbOaCaCaCaCaCaCaCaCaCaCaCaCaCaCaCaCaCaCaCaCbPbDbQbcbL",
"bRbCbSbSaIbTaCaCaCaCaCaCaCaCaCaCaCaCaCaCaCaCaCaCbTaIbUbSbCbR",
"bJbRbcbVbcbBbWaCaCaCaCaCaCaCaCaCaCaCaCaCaCaCaCbWanbcbVbcbRbJ",
"aZbIbFaYbXbXbYauaCaCaCaCaCaCaCaCaCaCaCaCaCaCavbZbXbXaYbFbIaZ",
"bLbLahbcbqbMbMb0b1b2aCaCaCaCaCaCaCaCaCaCb3b0b0b4bMbqbcahbLbL",
"bRbRbRbCb5bSaEb6b7b8b9b_aJa_b?b?a_aJb=b8b9axb6aEbSb5bCbRbRbR",
"bRbRbRbRbCb5bqb)aEb6b(b/b&b%b+b+b%b&b/b(b6aEb)bqb5bCbRbRbRbR",
"bRbRbRbRbRbCbCb5bSb)aEb7b6b^b^b^b^b6b7aEb)bSb5bCbCbRbRbRbRbR",
"bIbIbIbIbIbIbIbIbIbIbIbIbIbIbIbIbIbIbIbIbIbIbIbIbIbIbIbIbIbI",
"bCbCbCbCbCbCbCbCbCbCbCbCbCbCbCbCbCbCbCbCbCbCbCbCbCbCbCbCbCbC",
"bCbCbCbCbCbCbCbCbCbCbCbCbCbCbCbCbCbCbCbCbCbCbCbCbCbCbCbCbCbC",
"b!b!b!b!b!b!b!b!b!b!b!b!b!b!b!b!b!b!b!b!b!b!b!b!b!b!b!b!b!b!"};