/* XPM */
static char *close_pressed_xpm[] = {
"30 38 117 2",
"aa c #000000",
"ab c #F9F8F8",
"ac c #E1DEDB",
"ad c #E1DDDA",
"ae c #E0DDDA",
"af c #DFDCD9",
"ag c #DEDBD8",
"ah c #DCD9D5",
"ai c #D7D1CE",
"aj c #D2CCC8",
"ak c #D0CBC6",
"al c #CEC8C3",
"am c #D7D2CE",
"an c #D8D3CF",
"ao c #CEC8C4",
"ap c #D1CCC7",
"aq c #D4CECA",
"ar c #D4CFCB",
"as c #D6D1CC",
"at c #D8D3D0",
"au c #E0DDD9",
"av c #DDD9D5",
"aw c #CFCAC5",
"ax c #CFC9C4",
"ay c #D4CFCA",
"az c #D6D1CD",
"aA c #E0DCD9",
"aB c #DAD5D1",
"aC c #D2CDC8",
"aD c #D3CDC8",
"aE c #D9D5D1",
"aF c #DBD9D4",
"aG c #DCD7D6",
"aH c #DFDCD8",
"aI c #D6D2CF",
"aJ c #D2CDC9",
"aK c #D0CAC5",
"aL c #DEDAD7",
"aM c #DFDBD8",
"aN c #D7D3CF",
"aO c #D3CECA",
"aP c #DCD9D6",
"aQ c #DAD7D4",
"aR c #CFC9C3",
"aS c #DAD7D3",
"aT c #DBD8D4",
"aU c #D6D0CC",
"aV c #565A5B",
"aW c #515656",
"aX c #CFCCC9",
"aY c #CECCC9",
"aZ c #515555",
"a0 c #575C5C",
"a1 c #D1CBC7",
"a2 c #D5D1CD",
"a3 c #555A5B",
"a4 c #2E3436",
"a5 c #4D5153",
"a6 c #CFCBC9",
"a7 c #4C5052",
"a8 c #565A5C",
"a9 c #D1CDC7",
"a_ c #DAD6D3",
"a? c #CFC9C5",
"a= c #D5D0CB",
"a) c #E1E0E0",
"a( c #505557",
"a/ c #515657",
"a& c #E1E0DF",
"a% c #D4CFCC",
"a+ c #D9D5D2",
"a^ c #D5D0CD",
"a! c #E3E2E1",
"ba c #525657",
"bb c #4E5355",
"bc c #E0E0DE",
"bd c #D8D5D1",
"be c #DDDAD6",
"bf c #D1CECB",
"bg c #4D5254",
"bh c #CECBC9",
"bi c #D8D4D1",
"bj c #D1CBC8",
"bk c #515556",
"bl c #E2E1E0",
"bm c #525656",
"bn c #D3CFCA",
"bo c #D5D0CC",
"bp c #5C6061",
"bq c #565B5C",
"br c #E2E0E0",
"bs c #5D6162",
"bt c #D2CBC7",
"bu c #DAD6D2",
"bv c #F1EFEE",
"bw c #F2F0EF",
"bx c #CEC9C4",
"by c #DAD5D2",
"bz c #D9D6D2",
"bA c #D6D2CD",
"bB c #DBD7D4",
"bC c #DCD8D5",
"bD c #DBD7D3",
"bE c #DCD8D4",
"bF c #D9D6D1",
"bG c #D7D3CE",
"bH c #D6D3CF",
"bI c #DAD4D1",
"bJ c #CFC9C6",
"bK c #D5CFCB",
"bL c #D9D4D0",
"bM c #CDC7C3",
"bN c #D8D4D0",
"bO c #D4D0CC",
"bP c #D3CFCC",
"bQ c #D2CFCB",
"bR c #BFB8B1",
"aaaaaaaaaaaaaaaaaaaaaaaaaaaaaaaaaaaaaaaaaaaaaaaaaaaaaaaaaaaa",
"abababababababababababababababababababababababababababababab",
"acacacacacacacacacacacacacacacacacacacacacacacacacacacacacac",
"adadadadadadadadadadadadadadadadadadadadadadadadadadadadadad",
"aeaeaeaeaeaeaeaeaeafafafagagagagagagafafafaeaeaeaeaeaeaeaeae",
"aeaeaeaeaeaeaeaeaeaeahaiajakalalakajamahaeaeaeaeaeaeaeaeaeae",
"aeaeaeaeaeaeaeaeanaoaoapaqarasasaraqapaoaoataeaeaeaeaeaeaeae",
"auauauauauauavawaxayazazazazazazazazazazaqaxawavauauauauauau",
"aAaAaAaAaAaBalaCazazazazazazazazazazazazazazaDalaEaAaAaAaAaA",
"afafafafaEalayazazazazazazazazazazazazazazazazaqalaEafafafaf",
"afafafaFalayazazazazazazazazazazazazazazazazazazayalaGafafaf",
"aHaHaHawaDazazazazazaIaIaIaIaIaIazazazazazazazazazaJaKaHaHaH",
"aLaManaxazazazazaIaIaIaIaIaIaIaIaIaIazazazazazazazazaxaNaMaL",
"aLaMaxaqazazazaIaIaIaIaIaIaIaIaIaIaIaIazazazazazazazaOaxaMaL",
"aPaQaRazazazazaIaIaIaIaIaIaIaIaIaIaIaIaIaIazazazazazazaoaSaP",
"aTaUapazazazazaIaIaIaIaVaWaXaIaIaYaZa0aIaIaIazazazazaza1a2aT",
"aTajaqazazazazaIaIaIaIa3a4a5a6a6a7a4a8aIaIaIazazazazazaOa9aT",
"a_a?a=azazazazaIaIaIaIa)a(a4a5a5a4a/a&aIaIaIaIazazazaza%a?a_",
"a+ala^azazazazaIaIaIaIaIa!baa4a4bbbcaIaIaIaIaIazazazaza^ala+",
"bdala^azazazazaIaIaIaIbebfaWa4a4bgaYbeaIaIaIaIazazazaza^albd",
"bda?a=azazazazaIaIaIaIbha7a4a/a/a4a7bhaIaIaIaIazazazaza%aKbd",
"bibjaqazazazazaIaIaIaIbka4a(blbla/a4bmaIaIaIaIazazazazbnapa+",
"a+boapazazazazaIaIaIaIbpbqa&afafbrbqbsaIaIaIaIazazazazbtboa+",
"buaBaRazazazazazaIaIaIbvbwafaIaIafbwbvaIaIaIaIazazazazbxbybu",
"bzahaxaqazazazazazaIaIaIaIaIaIaIaIaIaIaIaIaIaIazazazbnaxahbz",
"aSahazaxazazazazazazazaIaIaIaIaIaIaIaIaIaIaIazazazazbxbAahaS",
"bBbCbCaKaJazazazazazazazazazazazazazazazazazazazazaCaKbCbCbB",
"bDbEbEaBalayazazazazazazazazazazazazazazazazazazaqalbFbEbEbD",
"bEbEbEbEbGalaqazazazazazazazazazazazazazazazazaOalaNbEbEbEbE",
"aTaTaTaTaTbGalaJazazazazazazazazazazazazazazajalbHaTaTaTaTaT",
"bBbBbBbBbBbBbIawaxaOazazazazazazazazazazaOaxbJbdbBbBbBbBbBbB",
"bDbDbDbDbDbDbDbDa^axaoapaOarasa^bKbna1bxaoa^bDbDbDbDbDbDbDbD",
"bDbDbDbDbDbDbDbDbDbDbLara1awbMbMawa1arbLbDbDbDbDbDbDbDbDbDbD",
"bDbDbDbDbDbubuaEbNaNa2bObPbQbQbQbQbPbOa2aNbNaEbububDbDbDbDbD",
"aSaSaSaSaSaSaSaSaSaSaSaSaSaSaSaSaSaSaSaSaSaSaSaSaSaSaSaSaSaS",
"bubububububububububububububububububububububububububububububu",
"bubububububububububububububububububububububububububububububu",
"bRbRbRbRbRbRbRbRbRbRbRbRbRbRbRbRbRbRbRbRbRbRbRbRbRbRbRbRbRbR"};