/* XPM */
static char *close_prelight_xpm[] = {
"30 38 146 2",
"aa c #000000",
"ab c #F9F8F8",
"ac c #E1DEDB",
"ad c #E1DDDA",
"ae c #E0DDDA",
"af c #DFDCD9",
"ag c #DEDBD8",
"ah c #DAD6D3",
"ai c #D6D1CD",
"aj c #D2CCC8",
"ak c #D0CBC5",
"al c #CEC8C3",
"am c #DEDBD7",
"an c #D3CEC9",
"ao c #D4CFCB",
"ap c #E2DFDC",
"aq c #F1EFEE",
"ar c #F7F6F5",
"as c #FDFDFC",
"at c #D3CECA",
"au c #E0DDD9",
"av c #DFDCD8",
"aw c #DDDBD7",
"ax c #D5D0CC",
"ay c #FEFEFE",
"az c #FCFCFB",
"aA c #FAFAF9",
"aB c #F9F9F8",
"aC c #F8F8F7",
"aD c #F0EFED",
"aE c #D5D1CD",
"aF c #E0DCD9",
"aG c #DFDBD8",
"aH c #DEDAD7",
"aI c #D1CBC7",
"aJ c #E8E5E3",
"aK c #FEFEFD",
"aL c #DDDAD7",
"aM c #F1F0EE",
"aN c #FBFBFA",
"aO c #D1CCC7",
"aP c #F1F0ED",
"aQ c #DCD9D5",
"aR c #DDD9D6",
"aS c #DEDAD6",
"aT c #DDDAD6",
"aU c #DCD8D5",
"aV c #F0EEEC",
"aW c #565A5B",
"aX c #515656",
"aY c #CFCCC9",
"aZ c #CECCC9",
"a0 c #515555",
"a1 c #575C5C",
"a2 c #EFEEEB",
"a3 c #DCD9D6",
"a4 c #D8D5D1",
"a5 c #555A5B",
"a6 c #2E3436",
"a7 c #4D5153",
"a8 c #CFCBC9",
"a9 c #4C5052",
"a_ c #565A5C",
"a? c #DBD8D4",
"a= c #D4D0CB",
"a) c #E2DFDB",
"a( c #E1E0E0",
"a/ c #505557",
"a& c #515657",
"a% c #E1E0DF",
"a+ c #E2DEDB",
"a^ c #D0CCC7",
"a! c #EEECEB",
"ba c #E3E2E1",
"bb c #525657",
"bc c #4E5355",
"bd c #E0E0DE",
"be c #CFC9C5",
"bf c #F3F2F0",
"bg c #D1CECB",
"bh c #4D5254",
"bi c #D9D5D2",
"bj c #CDC8C3",
"bk c #F7F7F5",
"bl c #CECBC9",
"bm c #F6F6F5",
"bn c #F6F6F4",
"bo c #515556",
"bp c #E2E1E0",
"bq c #525656",
"br c #F5F5F4",
"bs c #F2F1EF",
"bt c #5C6061",
"bu c #565B5C",
"bv c #E2E0E0",
"bw c #5D6162",
"bx c #D8D4D1",
"by c #EDEBE9",
"bz c #F2F0EF",
"bA c #D0CBC6",
"bB c #E1DEDA",
"bC c #D3CFCA",
"bD c #DAD6D2",
"bE c #D5D1CC",
"bF c #D9D6D2",
"bG c #D6D3CF",
"bH c #ECEBE8",
"bI c #DAD7D3",
"bJ c #DCD8D4",
"bK c #D6D1CC",
"bL c #DBD7D4",
"bM c #D5D1CE",
"bN c #D5D0CB",
"bO c #E6E3E0",
"bP c #E5E3E0",
"bQ c #D6D2CF",
"bR c #DBD7D3",
"bS c #D8D4D0",
"bT c #EDECE9",
"bU c #D8D3D0",
"bV c #D6D2CE",
"bW c #E9E8E5",
"bX c #D5D2CE",
"bY c #C4BEB7",
"bZ c #C4BEB8",
"b0 c #CAC5BE",
"b1 c #CBC5BE",
"b2 c #E9E7E4",
"b3 c #E8E7E4",
"b4 c #D4D0CE",
"b5 c #D9D5D1",
"b6 c #D3CFCC",
"b7 c #D4D0CC",
"b8 c #C8C2BC",
"b9 c #C8C2BB",
"b_ c #D8D5D0",
"b? c #F4F3F2",
"b= c #D8D4CF",
"b) c #D7D3CF",
"b( c #CFCAC7",
"b/ c #CAC5BF",
"b& c #C6BFB9",
"b% c #C3BCB6",
"b+ c #C0B9B2",
"b^ c #D2CFCB",
"b! c #BFB8B1",
"aaaaaaaaaaaaaaaaaaaaaaaaaaaaaaaaaaaaaaaaaaaaaaaaaaaaaaaaaaaa",
"abababababababababababababababababababababababababababababab",
"acacacacacacacacacacacacacacacacacacacacacacacacacacacacacac",
"adadadadadadadadadadadadadadadadadadadadadadadadadadadadadad",
"aeaeaeaeaeaeaeaeaeaeaeaeaeaeaeaeaeaeaeaeaeaeaeaeaeaeaeaeaeae",
"aeaeaeaeaeaeaeaeaeafafafagagagagagagafafafaeaeaeaeaeaeaeaeae",
"aeaeaeaeaeaeaeafafagahaiajakalalakajaiahagafafaeaeaeaeaeaeae",
"aeaeaeaeaeafafagamanaoapaqarasasaraqapaoatamagafafaeaeaeaeae",
"auauauauavamawaxaiaqayazaAaBaCaCaBaAazayaDaiaEamamavauauauau",
"aFaFaFaGaHaHaIaJaKaAaCaCaCaCaCaCaCaCaCaCaAaKaJaIaHaHaGaFaFaF",
"afafagaLaLaIaMaNaCaCaCaCaCaCaCaCaCaCaCaCaCaCaNaMaIaLaLagafaf",
"afagaLaLaOaPaAaCaCaCaCaCaCaCaCaCaCaCaCaCaCaCaCaAaPaIaLaLagaf",
"avamaQaxaJaAaCaCaCaCaCaCaCaCaCaCaCaCaCaCaCaCaCaCaAaJaEaQamav",
"aHaRaSaiaNaCaCaCaCaCaCaCaCaCaCaCaCaCaCaCaCaCaCaCaCaNaiaTaRaH",
"aHaUataVaCaCaCaCaCaCaCaWaXaYaCaCaZa0a1aCaCaCaCaCaCaCa2ataUaH",
"a3a4aoaAaCaCaCaCaCaCaCa5a6a7a8a8a9a6a_aCaCaCaCaCaCaCaAaoa4a3",
"a?a=a)aCaCaCaCaCaCaCaCa(a/a6a7a7a6a&a%aCaCaCaCaCaCaCaCa+a=a?",
"a?a^a!aCaCaCaCaCaCaCaCaCbabba6a6bcbdaCaCaCaCaCaCaCaCaCa!aIa?",
"ahbebfaCaCaCaCaCaCaCaCaTbgaXa6a6bhaZaTaCaCaCaCaCaCaCaCbfbeah",
"bibjbkaCaCaCaCaCaCaCaCbla9a6a&a&a6a9blaCaCaCaCaCaCaCaCbmalbi",
"a4albnaCaCaCaCaCaCaCaCboa6a/bpbpa&a6bqaCaCaCaCaCaCaCaCbrala4",
"a4bebsaCaCaCaCaCaCaCaCbtbua%afafbvbubwaCaCaCaCaCaCaCaCbsbea4",
"bxaIbyaCaCaCaCaCaCaCaCaqbzafaCaCafbzaqaCaCaCaCaCaCaCaCbybAbi",
"biatbBaCaCaCaCaCaCaCaCaCaCaCaCaCaCaCaCaCaCaCaCaCaCaCaCadbCbi",
"bDbEaoaCaCaCaCaCaCaCaCaCaCaCaCaCaCaCaCaCaCaCaCaCaCaCaCaoaxbD",
"bFbGatbHaCaCaCaCaCaCaCaCaCaCaCaCaCaCaCaCaCaCaCaCaCaCbHatbGbF",
"bIa4bJbKaCaCaCaCaCaCaCaCaCaCaCaCaCaCaCaCaCaCaCaCaCaCbKbLa4bI",
"bLbibMbNbOaCaCaCaCaCaCaCaCaCaCaCaCaCaCaCaCaCaCaCaCbPbEbQbibL",
"bRbDbSbSaIbTaCaCaCaCaCaCaCaCaCaCaCaCaCaCaCaCaCaCbTaIbUbSbDbR",
"bJbRbibVbibCbWaCaCaCaCaCaCaCaCaCaCaCaCaCaCaCaCbWanbibVbibRbJ",
"a?bIbFa4bXbXbYauaCaCaCaCaCaCaCaCaCaCaCaCaCaCavbZbXbXa4bFbIa?",
"bLbLahbibxbMbMb0b1b2aCaCaCaCaCaCaCaCaCaCb3b0b0b4bMbxbiahbLbL",
"bRbRbRbDb5bSaEb6b7b8b9b_aJa!b?b?a!aJb=b8b9axb6aEbSb5bDbRbRbR",
"bRbRbRbRbDb5bxb)aEb6b(b/b&b%b+b+b%b&b/b(b6aEb)bxb5bDbRbRbRbR",
"bRbRbRbRbRbDbDb5bSb)aEb7b6b^b^b^b^b6b7aEb)bSb5bDbDbRbRbRbRbR",
"bDbDbDbDbDbDbDbDbDbDbDbDbDbDbDbDbDbDbDbDbDbDbDbDbDbDbDbDbDbD",
"bDbDbDbDbDbDbDbDbDbDbDbDbDbDbDbDbDbDbDbDbDbDbDbDbDbDbDbDbDbD",
"b!b!b!b!b!b!b!b!b!b!b!b!b!b!b!b!b!b!b!b!b!b!b!b!b!b!b!b!b!b!"};