/* XPM */
static char *close_active_xpm[] = {
"30 38 57 1",
"a c #000000",
"b c #F9F8F8",
"c c #E1DEDB",
"d c #E1DDDA",
"e c #E0DDDA",
"f c #E0DDD9",
"g c #E0DCD9",
"h c #DFDCD9",
"i c #DFDCD8",
"j c #DFDBD8",
"k c #DEDBD8",
"l c #565A5B",
"m c #515656",
"n c #CFCCC9",
"o c #CECCC9",
"p c #515555",
"q c #575C5C",
"r c #DEDBD7",
"s c #555A5B",
"t c #2E3436",
"u c #4D5153",
"v c #CFCBC9",
"w c #4C5052",
"x c #565A5C",
"y c #E1E0E0",
"z c #505557",
"A c #515657",
"B c #E1E0DF",
"C c #DEDAD7",
"D c #E3E2E1",
"E c #525657",
"F c #4E5355",
"G c #E0E0DE",
"H c #DDDAD6",
"I c #D1CECB",
"J c #4D5254",
"K c #CECBC9",
"L c #515556",
"M c #E2E1E0",
"N c #525656",
"O c #DDD9D6",
"P c #5C6061",
"Q c #565B5C",
"R c #E2E0E0",
"S c #5D6162",
"T c #F1EFEE",
"U c #F2F0EF",
"V c #DDD9D5",
"W c #DCD9D5",
"X c #DCD8D5",
"Y c #DCD8D4",
"Z c #DBD8D4",
"0 c #DBD7D4",
"1 c #DBD7D3",
"2 c #DAD7D3",
"3 c #DAD6D2",
"4 c #BFB8B1",
"aaaaaaaaaaaaaaaaaaaaaaaaaaaaaa",
"bbbbbbbbbbbbbbbbbbbbbbbbbbbbbb",
"cccccccccccccccccccccccccccccc",
"dddddddddddddddddddddddddddddd",
"eeeeeeeeeeeeeeeeeeeeeeeeeeeeee",
"eeeeeeeeeeeeeeeeeeeeeeeeeeeeee",
"eeeeeeeeeeeeeeeeeeeeeeeeeeeeee",
"ffffffffffffffffffffffffffffff",
"gggggggggggggggggggggggggggggg",
"hhhhhhhhhhhhhhhhhhhhhhhhhhhhhh",
"hhhhhhhhhhhhhhhhhhhhhhhhhhhhhh",
"iiiiiiiiiiiiiiiiiiiiiiiiiiiiii",
"jjjjjjjjjjjjjjjjjjjjjjjjjjjjjj",
"jjjjjjjjjjjjjjjjjjjjjjjjjjjjjj",
"kkkkkkkkkkklmnkkopqkkkkkkkkkkk",
"rrrrrrrrrrrstuvvwtxrrrrrrrrrrr",
"rrrrrrrrrrryztuutABrrrrrrrrrrr",
"CCCCCCCCCCCCDEttFGCCCCCCCCCCCC",
"CCCCCCCCCCCHImttJoHCCCCCCCCCCC",
"HHHHHHHHHHHKwtAAtwKHHHHHHHHHHH",
"HHHHHHHHHHHLtzMMAtNHHHHHHHHHHH",
"OOOOOOOOOOOPQBhhRQSOOOOOOOOOOO",
"OOOOOOOOOOOTUhOOhUTOOOOOOOOOOO",
"VVVVVVVVVVVVVVVVVVVVVVVVVVVVVV",
"WWWWWWWWWWWWWWWWWWWWWWWWWWWWWW",
"WWWWWWWWWWWWWWWWWWWWWWWWWWWWWW",
"XXXXXXXXXXXXXXXXXXXXXXXXXXXXXX",
"YYYYYYYYYYYYYYYYYYYYYYYYYYYYYY",
"YYYYYYYYYYYYYYYYYYYYYYYYYYYYYY",
"ZZZZZZZZZZZZZZZZZZZZZZZZZZZZZZ",
"000000000000000000000000000000",
"111111111111111111111111111111",
"111111111111111111111111111111",
"111111111111111111111111111111",
"222222222222222222222222222222",
"333333333333333333333333333333",
"333333333333333333333333333333",
"444444444444444444444444444444"};