/* XPM */
static char *close_pressed_xpm[] = {
"30 38 117 2",
"aa c #000000",
"ab c #F9F8F8",
"ac c #E1DEDB",
"ad c #E1DDDA",
"ae c #E0DDDA",
"af c #DFDCD9",
"ag c #DEDBD8",
"ah c #DCD9D5",
"ai c #D7D1CE",
"aj c #D2CCC8",
"ak c #D0CBC6",
"al c #CEC8C3",
"am c #D7D2CE",
"an c #D8D3CF",
"ao c #CEC8C4",
"ap c #D1CCC7",
"aq c #D4CECA",
"ar c #D4CFCB",
"as c #D6D1CC",
"at c #D8D3D0",
"au c #E0DDD9",
"av c #DDD9D5",
"aw c #CFCAC5",
"ax c #CFC9C4",
"ay c #D4CFCA",
"az c #D6D1CD",
"aA c #E0DCD9",
"aB c #DAD5D1",
"aC c #D2CDC8",
"aD c #D3CDC8",
"aE c #D9D5D1",
"aF c #DBD9D4",
"aG c #DCD7D6",
"aH c #DFDCD8",
"aI c #D6D2CF",
"aJ c #D2CDC9",
"aK c #D0CAC5",
"aL c #DEDAD7",
"aM c #DFDBD8",
"aN c #D7D3CF",
"aO c #565A5B",
"aP c #515656",
"aQ c #CFCCC9",
"aR c #CECCC9",
"aS c #515555",
"aT c #575C5C",
"aU c #D3CECA",
"aV c #DCD9D6",
"aW c #DAD7D4",
"aX c #CFC9C3",
"aY c #555A5B",
"aZ c #2E3436",
"a0 c #4D5153",
"a1 c #CFCBC9",
"a2 c #4C5052",
"a3 c #565A5C",
"a4 c #DAD7D3",
"a5 c #DBD8D4",
"a6 c #D6D0CC",
"a7 c #E1E0E0",
"a8 c #505557",
"a9 c #515657",
"a_ c #E1E0DF",
"a? c #D1CBC7",
"a= c #D5D1CD",
"a) c #E3E2E1",
"a( c #525657",
"a/ c #4E5355",
"a& c #E0E0DE",
"a% c #D1CDC7",
"a+ c #DAD6D3",
"a^ c #CFC9C5",
"a! c #D5D0CB",
"ba c #DDDAD6",
"bb c #D1CECB",
"bc c #4D5254",
"bd c #D4CFCC",
"be c #D9D5D2",
"bf c #D5D0CD",
"bg c #CECBC9",
"bh c #D8D5D1",
"bi c #515556",
"bj c #E2E1E0",
"bk c #525656",
"bl c #5C6061",
"bm c #565B5C",
"bn c #E2E0E0",
"bo c #5D6162",
"bp c #D8D4D1",
"bq c #D1CBC8",
"br c #F1EFEE",
"bs c #F2F0EF",
"bt c #D3CFCA",
"bu c #D5D0CC",
"bv c #D2CBC7",
"bw c #DAD6D2",
"bx c #CEC9C4",
"by c #DAD5D2",
"bz c #D9D6D2",
"bA c #D6D2CD",
"bB c #DBD7D4",
"bC c #DCD8D5",
"bD c #DBD7D3",
"bE c #DCD8D4",
"bF c #D9D6D1",
"bG c #D7D3CE",
"bH c #D6D3CF",
"bI c #DAD4D1",
"bJ c #CFC9C6",
"bK c #D5CFCB",
"bL c #D9D4D0",
"bM c #CDC7C3",
"bN c #D8D4D0",
"bO c #D4D0CC",
"bP c #D3CFCC",
"bQ c #D2CFCB",
"bR c #BFB8B1",
"aaaaaaaaaaaaaaaaaaaaaaaaaaaaaaaaaaaaaaaaaaaaaaaaaaaaaaaaaaaa",
"abababababababababababababababababababababababababababababab",
"acacacacacacacacacacacacacacacacacacacacacacacacacacacacacac",
"adadadadadadadadadadadadadadadadadadadadadadadadadadadadadad",
"aeaeaeaeaeaeaeaeaeaeaeaeaeaeaeaeaeaeaeaeaeaeaeaeaeaeaeaeaeae",
"aeaeaeaeaeaeaeaeaeafafafagagagagagagafafafaeaeaeaeaeaeaeaeae",
"aeaeaeaeaeaeaeaeaeaeahaiajakalalakajamahaeaeaeaeaeaeaeaeaeae",
"aeaeaeaeaeaeaeaeanaoaoapaqarasasaraqapaoaoataeaeaeaeaeaeaeae",
"auauauauauauavawaxayazazazazazazazazazazaqaxawavauauauauauau",
"aAaAaAaAaAaBalaCazazazazazazazazazazazazazazaDalaEaAaAaAaAaA",
"afafafafaEalayazazazazazazazazazazazazazazazazaqalaEafafafaf",
"afafafaFalayazazazazazazazazazazazazazazazazazazayalaGafafaf",
"aHaHaHawaDazazazazazaIaIaIaIaIaIazazazazazazazazazaJaKaHaHaH",
"aLaManaxazazazazaIaIaIaIaIaIaIaIaIaIazazazazazazazazaxaNaMaL",
"aLaMaxaqazazazaIaIaIaIaOaPaQaIaIaRaSaTazazazazazazazaUaxaMaL",
"aVaWaXazazazazaIaIaIaIaYaZa0a1a1a2aZa3aIaIazazazazazazaoa4aV",
"a5a6apazazazazaIaIaIaIa7a8aZa0a0aZa9a_aIaIaIazazazazaza?a=a5",
"a5ajaqazazazazaIaIaIaIaIa)a(aZaZa/a&aIaIaIaIazazazazazaUa%a5",
"a+a^a!azazazazaIaIaIaIbabbaPaZaZbcaRbaaIaIaIaIazazazazbda^a+",
"bealbfazazazazaIaIaIaIbga2aZa9a9aZa2bgaIaIaIaIazazazazbfalbe",
"bhalbfazazazazaIaIaIaIbiaZa8bjbja9aZbkaIaIaIaIazazazazbfalbh",
"bha^a!azazazazaIaIaIaIblbma_afafbnbmboaIaIaIaIazazazazbdaKbh",
"bpbqaqazazazazaIaIaIaIbrbsafaIaIafbsbraIaIaIaIazazazazbtapbe",
"bebuapazazazazaIaIaIaIaIaIaIaIaIaIaIaIaIaIaIaIazazazazbvbube",
"bwaBaXazazazazazaIaIaIaIaIaIaIaIaIaIaIaIaIaIaIazazazazbxbybw",
"bzahaxaqazazazazazaIaIaIaIaIaIaIaIaIaIaIaIaIaIazazazbtaxahbz",
"a4ahazaxazazazazazazazaIaIaIaIaIaIaIaIaIaIaIazazazazbxbAaha4",
"bBbCbCaKaJazazazazazazazazazazazazazazazazazazazazaCaKbCbCbB",
"bDbEbEaBalayazazazazazazazazazazazazazazazazazazaqalbFbEbEbD",
"bEbEbEbEbGalaqazazazazazazazazazazazazazazazazaUalaNbEbEbEbE",
"a5a5a5a5a5bGalaJazazazazazazazazazazazazazazajalbHa5a5a5a5a5",
"bBbBbBbBbBbBbIawaxaUazazazazazazazazazazaUaxbJbhbBbBbBbBbBbB",
"bDbDbDbDbDbDbDbDbfaxaoapaUarasbfbKbta?bxaobfbDbDbDbDbDbDbDbD",
"bDbDbDbDbDbDbDbDbDbDbLara?awbMbMawa?arbLbDbDbDbDbDbDbDbDbDbD",
"bDbDbDbDbDbwbwaEbNaNa=bObPbQbQbQbQbPbOa=aNbNaEbwbwbDbDbDbDbD",
"bwbwbwbwbwbwbwbwbwbwbwbwbwbwbwbwbwbwbwbwbwbwbwbwbwbwbwbwbwbw",
"bwbwbwbwbwbwbwbwbwbwbwbwbwbwbwbwbwbwbwbwbwbwbwbwbwbwbwbwbwbw",
"bRbRbRbRbRbRbRbRbRbRbRbRbRbRbRbRbRbRbRbRbRbRbRbRbRbRbRbRbRbR"};