/* XPM */
static char *close_inactive_xpm[] = {
"30 38 16 1",
"a c #000000",
"b c #FDFDFD",
"c c #F6F5F4",
"d c #A9ABAB",
"e c #A6A8A8",
"f c #EEEDEC",
"g c #EDECEB",
"h c #A5A8A8",
"i c #AAACAB",
"j c #929595",
"k c #A3A5A5",
"l c #A6A9A9",
"m c #A3A6A6",
"n c #A2A4A4",
"o c #ECECEB",
"p c #D5D0CC",
"aaaaaaaaaaaaaaaaaaaaaaaaaaaaaa",
"bbbbbbbbbbbbbbbbbbbbbbbbbbbbbb",
"cccccccccccccccccccccccccccccc",
"cccccccccccccccccccccccccccccc",
"cccccccccccccccccccccccccccccc",
"cccccccccccccccccccccccccccccc",
"cccccccccccccccccccccccccccccc",
"cccccccccccccccccccccccccccccc",
"cccccccccccccccccccccccccccccc",
"cccccccccccccccccccccccccccccc",
"cccccccccccccccccccccccccccccc",
"cccccccccccccccccccccccccccccc",
"cccccccccccccccccccccccccccccc",
"cccccccccccccccccccccccccccccc",
"cccccccccccdefccghiccccccccccc",
"cccccccccccejkffkjlccccccccccc",
"cccccccccccfkjkkjkfccccccccccc",
"ccccccccccccfmjjngcccccccccccc",
"ccccccccccccfmjjnocccccccccccc",
"cccccccccccfkjkkjkfccccccccccc",
"ccccccccccchjkffkjeccccccccccc",
"ccccccccccciegccfeiccccccccccc",
"cccccccccccccccccccccccccccccc",
"cccccccccccccccccccccccccccccc",
"cccccccccccccccccccccccccccccc",
"cccccccccccccccccccccccccccccc",
"cccccccccccccccccccccccccccccc",
"cccccccccccccccccccccccccccccc",
"cccccccccccccccccccccccccccccc",
"cccccccccccccccccccccccccccccc",
"cccccccccccccccccccccccccccccc",
"cccccccccccccccccccccccccccccc",
"cccccccccccccccccccccccccccccc",
"cccccccccccccccccccccccccccccc",
"cccccccccccccccccccccccccccccc",
"cccccccccccccccccccccccccccccc",
"cccccccccccccccccccccccccccccc",
"pppppppppppppppppppppppppppppp"};