/* XPM */
static char *hide_pressed_xpm[] = {
"30 38 86 2",
"aa c #000000",
"ab c #F9F8F8",
"ac c #E1DEDB",
"ad c #E1DDDA",
"ae c #E0DDDA",
"af c #DFDCD9",
"ag c #DEDBD8",
"ah c #DCD9D5",
"ai c #D7D1CE",
"aj c #D2CCC8",
"ak c #D0CBC6",
"al c #CEC8C3",
"am c #D7D2CE",
"an c #D8D3CF",
"ao c #CEC8C4",
"ap c #D1CCC7",
"aq c #D4CECA",
"ar c #D4CFCB",
"as c #D6D1CC",
"at c #D8D3D0",
"au c #E0DDD9",
"av c #DDD9D5",
"aw c #CFCAC5",
"ax c #CFC9C4",
"ay c #D4CFCA",
"az c #D6D1CD",
"aA c #E0DCD9",
"aB c #DAD5D1",
"aC c #D2CDC8",
"aD c #D3CDC8",
"aE c #D9D5D1",
"aF c #DBD9D4",
"aG c #DCD7D6",
"aH c #DFDCD8",
"aI c #D6D2CF",
"aJ c #D2CDC9",
"aK c #D0CAC5",
"aL c #DEDAD7",
"aM c #DFDBD8",
"aN c #D7D3CF",
"aO c #D3CECA",
"aP c #DCD9D6",
"aQ c #DAD7D4",
"aR c #CFC9C3",
"aS c #DAD7D3",
"aT c #DBD8D4",
"aU c #D6D0CC",
"aV c #D1CBC7",
"aW c #D5D1CD",
"aX c #D1CDC7",
"aY c #DAD6D3",
"aZ c #CFC9C5",
"a0 c #D5D0CB",
"a1 c #D4CFCC",
"a2 c #D9D5D2",
"a3 c #D5D0CD",
"a4 c #D8D5D1",
"a5 c #2E3436",
"a6 c #D8D4D1",
"a7 c #D1CBC8",
"a8 c #FDFDFD",
"a9 c #D3CFCA",
"a_ c #D5D0CC",
"a? c #D2CBC7",
"a= c #DAD6D2",
"a) c #CEC9C4",
"a( c #DAD5D2",
"a/ c #D9D6D2",
"a& c #D6D2CD",
"a% c #DBD7D4",
"a+ c #DCD8D5",
"a^ c #DBD7D3",
"a! c #DCD8D4",
"ba c #D9D6D1",
"bb c #D7D3CE",
"bc c #D6D3CF",
"bd c #DAD4D1",
"be c #CFC9C6",
"bf c #D5CFCB",
"bg c #D9D4D0",
"bh c #CDC7C3",
"bi c #D8D4D0",
"bj c #D4D0CC",
"bk c #D3CFCC",
"bl c #D2CFCB",
"bm c #BFB8B1",
"aaaaaaaaaaaaaaaaaaaaaaaaaaaaaaaaaaaaaaaaaaaaaaaaaaaaaaaaaaaa",
"abababababababababababababababababababababababababababababab",
"acacacacacacacacacacacacacacacacacacacacacacacacacacacacacac",
"adadadadadadadadadadadadadadadadadadadadadadadadadadadadadad",
"aeaeaeaeaeaeaeaeaeaeaeaeaeaeaeaeaeaeaeaeaeaeaeaeaeaeaeaeaeae",
"aeaeaeaeaeaeaeaeaeafafafagagagagagagafafafaeaeaeaeaeaeaeaeae",
"aeaeaeaeaeaeaeaeaeaeahaiajakalalakajamahaeaeaeaeaeaeaeaeaeae",
"aeaeaeaeaeaeaeaeanaoaoapaqarasasaraqapaoaoataeaeaeaeaeaeaeae",
"auauauauauauavawaxayazazazazazazazazazazaqaxawavauauauauauau",
"aAaAaAaAaAaBalaCazazazazazazazazazazazazazazaDalaEaAaAaAaAaA",
"afafafafaEalayazazazazazazazazazazazazazazazazaqalaEafafafaf",
"afafafaFalayazazazazazazazazazazazazazazazazazazayalaGafafaf",
"aHaHaHawaDazazazazazaIaIaIaIaIaIazazazazazazazazazaJaKaHaHaH",
"aLaManaxazazazazaIaIaIaIaIaIaIaIaIaIazazazazazazazazaxaNaMaL",
"aLaMaxaqazazazaIaIaIaIaIaIaIaIaIaIaIaIazazazazazazazaOaxaMaL",
"aPaQaRazazazazaIaIaIaIaIaIaIaIaIaIaIaIaIaIazazazazazazaoaSaP",
"aTaUapazazazazaIaIaIaIaIaIaIaIaIaIaIaIaIaIaIazazazazazaVaWaT",
"aTajaqazazazazaIaIaIaIaIaIaIaIaIaIaIaIaIaIaIazazazazazaOaXaT",
"aYaZa0azazazazaIaIaIaIaIaIaIaIaIaIaIaIaIaIaIaIazazazaza1aZaY",
"a2ala3azazazazaIaIaIaIaIaIaIaIaIaIaIaIaIaIaIaIazazazaza3ala2",
"a4ala3azazazazaIaIaIaIa5a5a5a5a5a5a5a5aIaIaIaIazazazaza3ala4",
"a4aZa0azazazazaIaIaIaIa5a5a5a5a5a5a5a5aIaIaIaIazazazaza1aKa4",
"a6a7aqazazazazaIaIaIaIa8a8a8a8a8a8a8a8aIaIaIaIazazazaza9apa2",
"a2a_apazazazazaIaIaIaIaIaIaIaIaIaIaIaIaIaIaIaIazazazaza?a_a2",
"a=aBaRazazazazazaIaIaIaIaIaIaIaIaIaIaIaIaIaIaIazazazaza)a(a=",
"a/ahaxaqazazazazazaIaIaIaIaIaIaIaIaIaIaIaIaIaIazazaza9axaha/",
"aSahazaxazazazazazazazaIaIaIaIaIaIaIaIaIaIaIazazazaza)a&ahaS",
"a%a+a+aKaJazazazazazazazazazazazazazazazazazazazazaCaKa+a+a%",
"a^a!a!aBalayazazazazazazazazazazazazazazazazazazaqalbaa!a!a^",
"a!a!a!a!bbalaqazazazazazazazazazazazazazazazazaOalaNa!a!a!a!",
"aTaTaTaTaTbbalaJazazazazazazazazazazazazazazajalbcaTaTaTaTaT",
"a%a%a%a%a%a%bdawaxaOazazazazazazazazazazaOaxbea4a%a%a%a%a%a%",
"a^a^a^a^a^a^a^a^a3axaoapaOarasa3bfa9aVa)aoa3a^a^a^a^a^a^a^a^",
"a^a^a^a^a^a^a^a^a^a^bgaraVawbhbhawaVarbga^a^a^a^a^a^a^a^a^a^",
"a^a^a^a^a^a=a=aEbiaNaWbjbkblblblblbkbjaWaNbiaEa=a=a^a^a^a^a^",
"a=a=a=a=a=a=a=a=a=a=a=a=a=a=a=a=a=a=a=a=a=a=a=a=a=a=a=a=a=a=",
"a=a=a=a=a=a=a=a=a=a=a=a=a=a=a=a=a=a=a=a=a=a=a=a=a=a=a=a=a=a=",
"bmbmbmbmbmbmbmbmbmbmbmbmbmbmbmbmbmbmbmbmbmbmbmbmbmbmbmbmbmbm"};