/* XPM */
static char *hide_active_xpm[] = {
"30 38 27 1",
"a c #000000",
"b c #F9F8F8",
"c c #E1DEDB",
"d c #E1DDDA",
"e c #E0DDDA",
"f c #E0DDD9",
"g c #E0DCD9",
"h c #DFDCD9",
"i c #DFDCD8",
"j c #DFDBD8",
"k c #DEDBD8",
"l c #DEDBD7",
"m c #DEDAD7",
"n c #DDDAD6",
"o c #DDD9D6",
"p c #2E3436",
"q c #DDD9D5",
"r c #FDFDFD",
"s c #DCD9D5",
"t c #DCD8D5",
"u c #DCD8D4",
"v c #DBD8D4",
"w c #DBD7D4",
"x c #DBD7D3",
"y c #DAD7D3",
"z c #DAD6D2",
"A c #BFB8B1",
"aaaaaaaaaaaaaaaaaaaaaaaaaaaaaa",
"bbbbbbbbbbbbbbbbbbbbbbbbbbbbbb",
"cccccccccccccccccccccccccccccc",
"dddddddddddddddddddddddddddddd",
"eeeeeeeeeeeeeeeeeeeeeeeeeeeeee",
"eeeeeeeeeeeeeeeeeeeeeeeeeeeeee",
"eeeeeeeeeeeeeeeeeeeeeeeeeeeeee",
"ffffffffffffffffffffffffffffff",
"gggggggggggggggggggggggggggggg",
"hhhhhhhhhhhhhhhhhhhhhhhhhhhhhh",
"hhhhhhhhhhhhhhhhhhhhhhhhhhhhhh",
"iiiiiiiiiiiiiiiiiiiiiiiiiiiiii",
"jjjjjjjjjjjjjjjjjjjjjjjjjjjjjj",
"jjjjjjjjjjjjjjjjjjjjjjjjjjjjjj",
"kkkkkkkkkkkkkkkkkkkkkkkkkkkkkk",
"llllllllllllllllllllllllllllll",
"llllllllllllllllllllllllllllll",
"mmmmmmmmmmmmmmmmmmmmmmmmmmmmmm",
"mmmmmmmmmmmmmmmmmmmmmmmmmmmmmm",
"nnnnnnnnnnnnnnnnnnnnnnnnnnnnnn",
"nnnnnnnnnnnnnnnnnnnnnnnnnnnnnn",
"oooooooooooppppppppooooooooooo",
"oooooooooooppppppppooooooooooo",
"qqqqqqqqqqqrrrrrrrrqqqqqqqqqqq",
"ssssssssssssssssssssssssssssss",
"ssssssssssssssssssssssssssssss",
"tttttttttttttttttttttttttttttt",
"uuuuuuuuuuuuuuuuuuuuuuuuuuuuuu",
"uuuuuuuuuuuuuuuuuuuuuuuuuuuuuu",
"vvvvvvvvvvvvvvvvvvvvvvvvvvvvvv",
"wwwwwwwwwwwwwwwwwwwwwwwwwwwwww",
"xxxxxxxxxxxxxxxxxxxxxxxxxxxxxx",
"xxxxxxxxxxxxxxxxxxxxxxxxxxxxxx",
"xxxxxxxxxxxxxxxxxxxxxxxxxxxxxx",
"yyyyyyyyyyyyyyyyyyyyyyyyyyyyyy",
"zzzzzzzzzzzzzzzzzzzzzzzzzzzzzz",
"zzzzzzzzzzzzzzzzzzzzzzzzzzzzzz",
"AAAAAAAAAAAAAAAAAAAAAAAAAAAAAA"};