/* XPM */
static char *hide_prelight_xpm[] = {
"30 38 117 2",
"aa c #000000",
"ab c #F9F8F8",
"ac c #E1DEDB",
"ad c #E1DDDA",
"ae c #E0DDDA",
"af c #DFDCD9",
"ag c #DEDBD8",
"ah c #DAD6D3",
"ai c #D6D1CD",
"aj c #D2CCC8",
"ak c #D0CBC5",
"al c #CEC8C3",
"am c #DEDBD7",
"an c #D3CEC9",
"ao c #D4CFCB",
"ap c #E2DFDC",
"aq c #F1EFEE",
"ar c #F7F6F5",
"as c #FDFDFC",
"at c #D3CECA",
"au c #E0DDD9",
"av c #DFDCD8",
"aw c #DDDBD7",
"ax c #D5D0CC",
"ay c #FEFEFE",
"az c #FCFCFB",
"aA c #FAFAF9",
"aB c #F9F9F8",
"aC c #F8F8F7",
"aD c #F0EFED",
"aE c #D5D1CD",
"aF c #E0DCD9",
"aG c #DFDBD8",
"aH c #DEDAD7",
"aI c #D1CBC7",
"aJ c #E8E5E3",
"aK c #FEFEFD",
"aL c #DDDAD7",
"aM c #F1F0EE",
"aN c #FBFBFA",
"aO c #D1CCC7",
"aP c #F1F0ED",
"aQ c #DCD9D5",
"aR c #DDD9D6",
"aS c #DEDAD6",
"aT c #DDDAD6",
"aU c #DCD8D5",
"aV c #F0EEEC",
"aW c #EFEEEB",
"aX c #DCD9D6",
"aY c #D8D5D1",
"aZ c #DBD8D4",
"a0 c #D4D0CB",
"a1 c #E2DFDB",
"a2 c #E2DEDB",
"a3 c #D0CCC7",
"a4 c #EEECEB",
"a5 c #CFC9C5",
"a6 c #F3F2F0",
"a7 c #D9D5D2",
"a8 c #CDC8C3",
"a9 c #F7F7F5",
"a_ c #F6F6F5",
"a? c #F6F6F4",
"a= c #F5F5F4",
"a) c #F2F1EF",
"a( c #D8D4D1",
"a/ c #EDEBE9",
"a& c #2E3436",
"a% c #D0CBC6",
"a+ c #E1DEDA",
"a^ c #D3CFCA",
"a! c #DAD6D2",
"ba c #D5D1CC",
"bb c #FDFDFD",
"bc c #D9D6D2",
"bd c #D6D3CF",
"be c #ECEBE8",
"bf c #DAD7D3",
"bg c #DCD8D4",
"bh c #D6D1CC",
"bi c #DBD7D4",
"bj c #D5D1CE",
"bk c #D5D0CB",
"bl c #E6E3E0",
"bm c #E5E3E0",
"bn c #D6D2CF",
"bo c #DBD7D3",
"bp c #D8D4D0",
"bq c #EDECE9",
"br c #D8D3D0",
"bs c #D6D2CE",
"bt c #E9E8E5",
"bu c #D5D2CE",
"bv c #C4BEB7",
"bw c #C4BEB8",
"bx c #CAC5BE",
"by c #CBC5BE",
"bz c #E9E7E4",
"bA c #E8E7E4",
"bB c #D4D0CE",
"bC c #D9D5D1",
"bD c #D3CFCC",
"bE c #D4D0CC",
"bF c #C8C2BC",
"bG c #C8C2BB",
"bH c #D8D5D0",
"bI c #F4F3F2",
"bJ c #D8D4CF",
"bK c #D7D3CF",
"bL c #CFCAC7",
"bM c #CAC5BF",
"bN c #C6BFB9",
"bO c #C3BCB6",
"bP c #C0B9B2",
"bQ c #D2CFCB",
"bR c #BFB8B1",
"aaaaaaaaaaaaaaaaaaaaaaaaaaaaaaaaaaaaaaaaaaaaaaaaaaaaaaaaaaaa",
"abababababababababababababababababababababababababababababab",
"acacacacacacacacacacacacacacacacacacacacacacacacacacacacacac",
"adadadadadadadadadadadadadadadadadadadadadadadadadadadadadad",
"aeaeaeaeaeaeaeaeaeafafafagagagagagagafafafaeaeaeaeaeaeaeaeae",
"aeaeaeaeaeaeaeafafagahaiajakalalakajaiahagafafaeaeaeaeaeaeae",
"aeaeaeaeaeafafagamanaoapaqarasasaraqapaoatamagafafaeaeaeaeae",
"auauauauavamawaxaiaqayazaAaBaCaCaBaAazayaDaiaEamamavauauauau",
"aFaFaFaGaHaHaIaJaKaAaCaCaCaCaCaCaCaCaCaCaAaKaJaIaHaHaGaFaFaF",
"afafagaLaLaIaMaNaCaCaCaCaCaCaCaCaCaCaCaCaCaCaNaMaIaLaLagafaf",
"afagaLaLaOaPaAaCaCaCaCaCaCaCaCaCaCaCaCaCaCaCaCaAaPaIaLaLagaf",
"avamaQaxaJaAaCaCaCaCaCaCaCaCaCaCaCaCaCaCaCaCaCaCaAaJaEaQamav",
"aHaRaSaiaNaCaCaCaCaCaCaCaCaCaCaCaCaCaCaCaCaCaCaCaCaNaiaTaRaH",
"aHaUataVaCaCaCaCaCaCaCaCaCaCaCaCaCaCaCaCaCaCaCaCaCaCaWataUaH",
"aXaYaoaAaCaCaCaCaCaCaCaCaCaCaCaCaCaCaCaCaCaCaCaCaCaCaAaoaYaX",
"aZa0a1aCaCaCaCaCaCaCaCaCaCaCaCaCaCaCaCaCaCaCaCaCaCaCaCa2a0aZ",
"aZa3a4aCaCaCaCaCaCaCaCaCaCaCaCaCaCaCaCaCaCaCaCaCaCaCaCa4aIaZ",
"aha5a6aCaCaCaCaCaCaCaCaCaCaCaCaCaCaCaCaCaCaCaCaCaCaCaCa6a5ah",
"a7a8a9aCaCaCaCaCaCaCaCaCaCaCaCaCaCaCaCaCaCaCaCaCaCaCaCa_ala7",
"aYala?aCaCaCaCaCaCaCaCaCaCaCaCaCaCaCaCaCaCaCaCaCaCaCaCa=alaY",
"aYa5a)aCaCaCaCaCaCaCaCaCaCaCaCaCaCaCaCaCaCaCaCaCaCaCaCa)a5aY",
"a(aIa/aCaCaCaCaCaCaCaCa&a&a&a&a&a&a&a&aCaCaCaCaCaCaCaCa/a%a7",
"a7ata+aCaCaCaCaCaCaCaCa&a&a&a&a&a&a&a&aCaCaCaCaCaCaCaCada^a7",
"a!baaoaCaCaCaCaCaCaCaCbbbbbbbbbbbbbbbbaCaCaCaCaCaCaCaCaoaxa!",
"bcbdatbeaCaCaCaCaCaCaCaCaCaCaCaCaCaCaCaCaCaCaCaCaCaCbeatbdbc",
"bfaYbgbhaCaCaCaCaCaCaCaCaCaCaCaCaCaCaCaCaCaCaCaCaCaCbhbiaYbf",
"bia7bjbkblaCaCaCaCaCaCaCaCaCaCaCaCaCaCaCaCaCaCaCaCbmbabna7bi",
"boa!bpbpaIbqaCaCaCaCaCaCaCaCaCaCaCaCaCaCaCaCaCaCbqaIbrbpa!bo",
"bgboa7bsa7a^btaCaCaCaCaCaCaCaCaCaCaCaCaCaCaCaCbtana7bsa7bobg",
"aZbfbcaYbububvauaCaCaCaCaCaCaCaCaCaCaCaCaCaCavbwbubuaYbcbfaZ",
"bibiaha7a(bjbjbxbybzaCaCaCaCaCaCaCaCaCaCbAbxbxbBbja(a7ahbibi",
"boboboa!bCbpaEbDbEbFbGbHaJa4bIbIa4aJbJbFbGaxbDaEbpbCa!bobobo",
"boboboboa!bCa(bKaEbDbLbMbNbObPbPbObNbMbLbDaEbKa(bCa!bobobobo",
"boboboboboa!a!bCbpbKaEbEbDbQbQbQbQbDbEaEbKbpbCa!a!bobobobobo",
"bfbfbfbfbfbfbfbfbfbfbfbfbfbfbfbfbfbfbfbfbfbfbfbfbfbfbfbfbfbf",
"a!a!a!a!a!a!a!a!a!a!a!a!a!a!a!a!a!a!a!a!a!a!a!a!a!a!a!a!a!a!",
"a!a!a!a!a!a!a!a!a!a!a!a!a!a!a!a!a!a!a!a!a!a!a!a!a!a!a!a!a!a!",
"bRbRbRbRbRbRbRbRbRbRbRbRbRbRbRbRbRbRbRbRbRbRbRbRbRbRbRbRbRbR"};