/* XPM */
static char *maximize_pressed_xpm[] = {
"30 38 95 2",
"aa c #000000",
"ab c #F9F8F8",
"ac c #E1DEDB",
"ad c #E1DDDA",
"ae c #E0DDDA",
"af c #DFDCD9",
"ag c #DEDBD8",
"ah c #DCD9D5",
"ai c #D7D1CE",
"aj c #D2CCC8",
"ak c #D0CBC6",
"al c #CEC8C3",
"am c #D7D2CE",
"an c #D8D3CF",
"ao c #CEC8C4",
"ap c #D1CCC7",
"aq c #D4CECA",
"ar c #D4CFCB",
"as c #D6D1CC",
"at c #D8D3D0",
"au c #E0DDD9",
"av c #DDD9D5",
"aw c #CFCAC5",
"ax c #CFC9C4",
"ay c #D4CFCA",
"az c #D6D1CD",
"aA c #E0DCD9",
"aB c #DAD5D1",
"aC c #D2CDC8",
"aD c #D3CDC8",
"aE c #D9D5D1",
"aF c #DBD9D4",
"aG c #DCD7D6",
"aH c #DFDCD8",
"aI c #D6D2CF",
"aJ c #D2CDC9",
"aK c #D0CAC5",
"aL c #DEDAD7",
"aM c #DFDBD8",
"aN c #D7D3CF",
"aO c #565A5B",
"aP c #2E3436",
"aQ c #565B5C",
"aR c #D3CECA",
"aS c #DCD9D6",
"aT c #DAD7D4",
"aU c #CFC9C3",
"aV c #DAD7D3",
"aW c #DBD8D4",
"aX c #D6D0CC",
"aY c #E9E9E9",
"aZ c #F7F6F6",
"a0 c #E8E8E8",
"a1 c #D1CBC7",
"a2 c #D5D1CD",
"a3 c #D1CDC7",
"a4 c #DAD6D3",
"a5 c #CFC9C5",
"a6 c #D5D0CB",
"a7 c #DDDAD6",
"a8 c #D4CFCC",
"a9 c #D9D5D2",
"a_ c #D5D0CD",
"a? c #D0CECA",
"a= c #D8D5D1",
"a) c #5C6163",
"a( c #5D6263",
"a/ c #D8D4D1",
"a& c #D1CBC8",
"a% c #F1EFEE",
"a+ c #D3CFCA",
"a^ c #D5D0CC",
"a! c #D2CBC7",
"ba c #DAD6D2",
"bb c #CEC9C4",
"bc c #DAD5D2",
"bd c #D9D6D2",
"be c #D6D2CD",
"bf c #DBD7D4",
"bg c #DCD8D5",
"bh c #DBD7D3",
"bi c #DCD8D4",
"bj c #D9D6D1",
"bk c #D7D3CE",
"bl c #D6D3CF",
"bm c #DAD4D1",
"bn c #CFC9C6",
"bo c #D5CFCB",
"bp c #D9D4D0",
"bq c #CDC7C3",
"br c #D8D4D0",
"bs c #D4D0CC",
"bt c #D3CFCC",
"bu c #D2CFCB",
"bv c #BFB8B1",
"aaaaaaaaaaaaaaaaaaaaaaaaaaaaaaaaaaaaaaaaaaaaaaaaaaaaaaaaaaaa",
"abababababababababababababababababababababababababababababab",
"acacacacacacacacacacacacacacacacacacacacacacacacacacacacacac",
"adadadadadadadadadadadadadadadadadadadadadadadadadadadadadad",
"aeaeaeaeaeaeaeaeaeaeaeaeaeaeaeaeaeaeaeaeaeaeaeaeaeaeaeaeaeae",
"aeaeaeaeaeaeaeaeaeafafafagagagagagagafafafaeaeaeaeaeaeaeaeae",
"aeaeaeaeaeaeaeaeaeaeahaiajakalalakajamahaeaeaeaeaeaeaeaeaeae",
"aeaeaeaeaeaeaeaeanaoaoapaqarasasaraqapaoaoataeaeaeaeaeaeaeae",
"auauauauauauavawaxayazazazazazazazazazazaqaxawavauauauauauau",
"aAaAaAaAaAaBalaCazazazazazazazazazazazazazazaDalaEaAaAaAaAaA",
"afafafafaEalayazazazazazazazazazazazazazazazazaqalaEafafafaf",
"afafafaFalayazazazazazazazazazazazazazazazazazazayalaGafafaf",
"aHaHaHawaDazazazazazaIaIaIaIaIaIazazazazazazazazazaJaKaHaHaH",
"aLaManaxazazazazaIaIaIaIaIaIaIaIaIaIazazazazazazazazaxaNaMaL",
"aLaMaxaqazazazaIaIaIaIaOaPaPaPaPaPaPaQazazazazazazazaRaxaMaL",
"aSaTaUazazazazaIaIaIaIaPaPaPaPaPaPaPaPaIaIazazazazazazaoaVaS",
"aWaXapazazazazaIaIaIaIaPaPaYaZaZa0aPaPaIaIaIazazazazaza1a2aW",
"aWajaqazazazazaIaIaIaIaPaPaIaIaIaIaPaPaIaIaIazazazazazaRa3aW",
"a4a5a6azazazazaIaIaIaIaPaPa7aIaIa7aPaPaIaIaIaIazazazaza8a5a4",
"a9ala_azazazazaIaIaIaIaPaPa?a7a7a?aPaPaIaIaIaIazazazaza_ala9",
"a=ala_azazazazaIaIaIaIaPaPaPaPaPaPaPaPaIaIaIaIazazazaza_ala=",
"a=a5a6azazazazaIaIaIaIa)aPaPaPaPaPaPa(aIaIaIaIazazazaza8aKa=",
"a/a&aqazazazazaIaIaIaIa%aZaZaZaZaZaZa%aIaIaIaIazazazaza+apa9",
"a9a^apazazazazaIaIaIaIaIaIaIaIaIaIaIaIaIaIaIaIazazazaza!a^a9",
"baaBaUazazazazazaIaIaIaIaIaIaIaIaIaIaIaIaIaIaIazazazazbbbcba",
"bdahaxaqazazazazazaIaIaIaIaIaIaIaIaIaIaIaIaIaIazazaza+axahbd",
"aVahazaxazazazazazazazaIaIaIaIaIaIaIaIaIaIaIazazazazbbbeahaV",
"bfbgbgaKaJazazazazazazazazazazazazazazazazazazazazaCaKbgbgbf",
"bhbibiaBalayazazazazazazazazazazazazazazazazazazaqalbjbibibh",
"bibibibibkalaqazazazazazazazazazazazazazazazazaRalaNbibibibi",
"aWaWaWaWaWbkalaJazazazazazazazazazazazazazazajalblaWaWaWaWaW",
"bfbfbfbfbfbfbmawaxaRazazazazazazazazazazaRaxbna=bfbfbfbfbfbf",
"bhbhbhbhbhbhbhbha_axaoapaRarasa_boa+a1bbaoa_bhbhbhbhbhbhbhbh",
"bhbhbhbhbhbhbhbhbhbhbpara1awbqbqawa1arbpbhbhbhbhbhbhbhbhbhbh",
"bhbhbhbhbhbabaaEbraNa2bsbtbububububtbsa2aNbraEbababhbhbhbhbh",
"babababababababababababababababababababababababababababababa",
"babababababababababababababababababababababababababababababa",
"bvbvbvbvbvbvbvbvbvbvbvbvbvbvbvbvbvbvbvbvbvbvbvbvbvbvbvbvbvbv"};