/* XPM */
static char *maximize_toggled_inactive_xpm[] = {
"30 38 10 1",
"a c #000000",
"b c #FDFDFD",
"c c #F6F5F4",
"d c #A9ABAB",
"e c #929595",
"f c #A9ACAB",
"g c #EFEFEE",
"h c #EFEEED",
"i c #AAACAB",
"j c #D5D0CC",
"aaaaaaaaaaaaaaaaaaaaaaaaaaaaaa",
"bbbbbbbbbbbbbbbbbbbbbbbbbbbbbb",
"cccccccccccccccccccccccccccccc",
"cccccccccccccccccccccccccccccc",
"cccccccccccccccccccccccccccccc",
"cccccccccccccccccccccccccccccc",
"cccccccccccccccccccccccccccccc",
"cccccccccccccccccccccccccccccc",
"cccccccccccccccccccccccccccccc",
"cccccccccccccccccccccccccccccc",
"cccccccccccccccccccccccccccccc",
"cccccccccccccccccccccccccccccc",
"cccccccccccccccccccccccccccccc",
"cccccccccccccccccccccccccccccc",
"cccccccccccdeeeeeefccccccccccc",
"ccccccccccceeeeeeeeccccccccccc",
"ccccccccccceeeeeeeeccccccccccc",
"ccccccccccceegccheeccccccccccc",
"ccccccccccceecccceeccccccccccc",
"ccccccccccceehccheeccccccccccc",
"ccccccccccceeeeeeeeccccccccccc",
"cccccccccccfeeeeeeiccccccccccc",
"cccccccccccccccccccccccccccccc",
"cccccccccccccccccccccccccccccc",
"cccccccccccccccccccccccccccccc",
"cccccccccccccccccccccccccccccc",
"cccccccccccccccccccccccccccccc",
"cccccccccccccccccccccccccccccc",
"cccccccccccccccccccccccccccccc",
"cccccccccccccccccccccccccccccc",
"cccccccccccccccccccccccccccccc",
"cccccccccccccccccccccccccccccc",
"cccccccccccccccccccccccccccccc",
"cccccccccccccccccccccccccccccc",
"cccccccccccccccccccccccccccccc",
"cccccccccccccccccccccccccccccc",
"cccccccccccccccccccccccccccccc",
"jjjjjjjjjjjjjjjjjjjjjjjjjjjjjj"};