/* XPM */
static char *maximize_active_xpm[] = {
"30 38 35 1",
"a c #000000",
"b c #F9F8F8",
"c c #E1DEDB",
"d c #E1DDDA",
"e c #E0DDDA",
"f c #E0DDD9",
"g c #E0DCD9",
"h c #DFDCD9",
"i c #DFDCD8",
"j c #DFDBD8",
"k c #DEDBD8",
"l c #DEDBD7",
"m c #565A5B",
"n c #2E3436",
"o c #565B5C",
"p c #DEDAD7",
"q c #E9E9E9",
"r c #F7F6F6",
"s c #E8E8E8",
"t c #DDDAD6",
"u c #D0CECA",
"v c #DDD9D6",
"w c #5C6163",
"x c #5D6263",
"y c #DDD9D5",
"z c #F1EFEE",
"A c #DCD9D5",
"B c #DCD8D5",
"C c #DCD8D4",
"D c #DBD8D4",
"E c #DBD7D4",
"F c #DBD7D3",
"G c #DAD7D3",
"H c #DAD6D2",
"I c #BFB8B1",
"aaaaaaaaaaaaaaaaaaaaaaaaaaaaaa",
"bbbbbbbbbbbbbbbbbbbbbbbbbbbbbb",
"cccccccccccccccccccccccccccccc",
"dddddddddddddddddddddddddddddd",
"eeeeeeeeeeeeeeeeeeeeeeeeeeeeee",
"eeeeeeeeeeeeeeeeeeeeeeeeeeeeee",
"eeeeeeeeeeeeeeeeeeeeeeeeeeeeee",
"ffffffffffffffffffffffffffffff",
"gggggggggggggggggggggggggggggg",
"hhhhhhhhhhhhhhhhhhhhhhhhhhhhhh",
"hhhhhhhhhhhhhhhhhhhhhhhhhhhhhh",
"iiiiiiiiiiiiiiiiiiiiiiiiiiiiii",
"jjjjjjjjjjjjjjjjjjjjjjjjjjjjjj",
"jjjjjjjjjjjjjjjjjjjjjjjjjjjjjj",
"kkkkkkkkkkkkkkkkkkkkkkkkkkkkkk",
"lllllllllllmnnnnnnolllllllllll",
"lllllllllllnnnnnnnnlllllllllll",
"pppppppppppnnqrrsnnppppppppppp",
"pppppppppppnnppppnnppppppppppp",
"tttttttttttnnttttnnttttttttttt",
"tttttttttttnnuttunnttttttttttt",
"vvvvvvvvvvvnnnnnnnnvvvvvvvvvvv",
"vvvvvvvvvvvwnnnnnnxvvvvvvvvvvv",
"yyyyyyyyyyyzrrrrrrzyyyyyyyyyyy",
"AAAAAAAAAAAAAAAAAAAAAAAAAAAAAA",
"AAAAAAAAAAAAAAAAAAAAAAAAAAAAAA",
"BBBBBBBBBBBBBBBBBBBBBBBBBBBBBB",
"CCCCCCCCCCCCCCCCCCCCCCCCCCCCCC",
"CCCCCCCCCCCCCCCCCCCCCCCCCCCCCC",
"DDDDDDDDDDDDDDDDDDDDDDDDDDDDDD",
"EEEEEEEEEEEEEEEEEEEEEEEEEEEEEE",
"FFFFFFFFFFFFFFFFFFFFFFFFFFFFFF",
"FFFFFFFFFFFFFFFFFFFFFFFFFFFFFF",
"FFFFFFFFFFFFFFFFFFFFFFFFFFFFFF",
"GGGGGGGGGGGGGGGGGGGGGGGGGGGGGG",
"HHHHHHHHHHHHHHHHHHHHHHHHHHHHHH",
"HHHHHHHHHHHHHHHHHHHHHHHHHHHHHH",
"IIIIIIIIIIIIIIIIIIIIIIIIIIIIII"};