/* XPM */
static char *maximize_pressed_xpm[] = {
"30 38 95 2",
"aa c #000000",
"ab c #F9F8F8",
"ac c #E1DEDB",
"ad c #E1DDDA",
"ae c #E0DDDA",
"af c #DFDCD9",
"ag c #DEDBD8",
"ah c #DCD9D5",
"ai c #D7D1CE",
"aj c #D2CCC8",
"ak c #D0CBC6",
"al c #CEC8C3",
"am c #D7D2CE",
"an c #D8D3CF",
"ao c #CEC8C4",
"ap c #D1CCC7",
"aq c #D4CECA",
"ar c #D4CFCB",
"as c #D6D1CC",
"at c #D8D3D0",
"au c #E0DDD9",
"av c #DDD9D5",
"aw c #CFCAC5",
"ax c #CFC9C4",
"ay c #D4CFCA",
"az c #D6D1CD",
"aA c #E0DCD9",
"aB c #DAD5D1",
"aC c #D2CDC8",
"aD c #D3CDC8",
"aE c #D9D5D1",
"aF c #DBD9D4",
"aG c #DCD7D6",
"aH c #DFDCD8",
"aI c #D6D2CF",
"aJ c #D2CDC9",
"aK c #D0CAC5",
"aL c #DEDAD7",
"aM c #DFDBD8",
"aN c #D7D3CF",
"aO c #D3CECA",
"aP c #DCD9D6",
"aQ c #DAD7D4",
"aR c #CFC9C3",
"aS c #DAD7D3",
"aT c #DBD8D4",
"aU c #D6D0CC",
"aV c #565A5B",
"aW c #2E3436",
"aX c #565B5C",
"aY c #D1CBC7",
"aZ c #D5D1CD",
"a0 c #D1CDC7",
"a1 c #DAD6D3",
"a2 c #CFC9C5",
"a3 c #D5D0CB",
"a4 c #E9E9E9",
"a5 c #F7F6F6",
"a6 c #E8E8E8",
"a7 c #D4CFCC",
"a8 c #D9D5D2",
"a9 c #D5D0CD",
"a_ c #D8D5D1",
"a? c #DDDAD6",
"a= c #D0CECA",
"a) c #D8D4D1",
"a( c #D1CBC8",
"a/ c #D3CFCA",
"a& c #D5D0CC",
"a% c #5C6163",
"a+ c #5D6263",
"a^ c #D2CBC7",
"a! c #DAD6D2",
"ba c #F1EFEE",
"bb c #CEC9C4",
"bc c #DAD5D2",
"bd c #D9D6D2",
"be c #D6D2CD",
"bf c #DBD7D4",
"bg c #DCD8D5",
"bh c #DBD7D3",
"bi c #DCD8D4",
"bj c #D9D6D1",
"bk c #D7D3CE",
"bl c #D6D3CF",
"bm c #DAD4D1",
"bn c #CFC9C6",
"bo c #D5CFCB",
"bp c #D9D4D0",
"bq c #CDC7C3",
"br c #D8D4D0",
"bs c #D4D0CC",
"bt c #D3CFCC",
"bu c #D2CFCB",
"bv c #BFB8B1",
"aaaaaaaaaaaaaaaaaaaaaaaaaaaaaaaaaaaaaaaaaaaaaaaaaaaaaaaaaaaa",
"abababababababababababababababababababababababababababababab",
"acacacacacacacacacacacacacacacacacacacacacacacacacacacacacac",
"adadadadadadadadadadadadadadadadadadadadadadadadadadadadadad",
"aeaeaeaeaeaeaeaeaeafafafagagagagagagafafafaeaeaeaeaeaeaeaeae",
"aeaeaeaeaeaeaeaeaeaeahaiajakalalakajamahaeaeaeaeaeaeaeaeaeae",
"aeaeaeaeaeaeaeaeanaoaoapaqarasasaraqapaoaoataeaeaeaeaeaeaeae",
"auauauauauauavawaxayazazazazazazazazazazaqaxawavauauauauauau",
"aAaAaAaAaAaBalaCazazazazazazazazazazazazazazaDalaEaAaAaAaAaA",
"afafafafaEalayazazazazazazazazazazazazazazazazaqalaEafafafaf",
"afafafaFalayazazazazazazazazazazazazazazazazazazayalaGafafaf",
"aHaHaHawaDazazazazazaIaIaIaIaIaIazazazazazazazazazaJaKaHaHaH",
"aLaManaxazazazazaIaIaIaIaIaIaIaIaIaIazazazazazazazazaxaNaMaL",
"aLaMaxaqazazazaIaIaIaIaIaIaIaIaIaIaIaIazazazazazazazaOaxaMaL",
"aPaQaRazazazazaIaIaIaIaIaIaIaIaIaIaIaIaIaIazazazazazazaoaSaP",
"aTaUapazazazazaIaIaIaIaVaWaWaWaWaWaWaXaIaIaIazazazazazaYaZaT",
"aTajaqazazazazaIaIaIaIaWaWaWaWaWaWaWaWaIaIaIazazazazazaOa0aT",
"a1a2a3azazazazaIaIaIaIaWaWa4a5a5a6aWaWaIaIaIaIazazazaza7a2a1",
"a8ala9azazazazaIaIaIaIaWaWaIaIaIaIaWaWaIaIaIaIazazazaza9ala8",
"a_ala9azazazazaIaIaIaIaWaWa?aIaIa?aWaWaIaIaIaIazazazaza9ala_",
"a_a2a3azazazazaIaIaIaIaWaWa=a?a?a=aWaWaIaIaIaIazazazaza7aKa_",
"a)a(aqazazazazaIaIaIaIaWaWaWaWaWaWaWaWaIaIaIaIazazazaza/apa8",
"a8a&apazazazazaIaIaIaIa%aWaWaWaWaWaWa+aIaIaIaIazazazaza^a&a8",
"a!aBaRazazazazazaIaIaIbaa5a5a5a5a5a5baaIaIaIaIazazazazbbbca!",
"bdahaxaqazazazazazaIaIaIaIaIaIaIaIaIaIaIaIaIaIazazaza/axahbd",
"aSahazaxazazazazazazazaIaIaIaIaIaIaIaIaIaIaIazazazazbbbeahaS",
"bfbgbgaKaJazazazazazazazazazazazazazazazazazazazazaCaKbgbgbf",
"bhbibiaBalayazazazazazazazazazazazazazazazazazazaqalbjbibibh",
"bibibibibkalaqazazazazazazazazazazazazazazazazaOalaNbibibibi",
"aTaTaTaTaTbkalaJazazazazazazazazazazazazazazajalblaTaTaTaTaT",
"bfbfbfbfbfbfbmawaxaOazazazazazazazazazazaOaxbna_bfbfbfbfbfbf",
"bhbhbhbhbhbhbhbha9axaoapaOarasa9boa/aYbbaoa9bhbhbhbhbhbhbhbh",
"bhbhbhbhbhbhbhbhbhbhbparaYawbqbqawaYarbpbhbhbhbhbhbhbhbhbhbh",
"bhbhbhbhbha!a!aEbraNaZbsbtbububububtbsaZaNbraEa!a!bhbhbhbhbh",
"aSaSaSaSaSaSaSaSaSaSaSaSaSaSaSaSaSaSaSaSaSaSaSaSaSaSaSaSaSaS",
"a!a!a!a!a!a!a!a!a!a!a!a!a!a!a!a!a!a!a!a!a!a!a!a!a!a!a!a!a!a!",
"a!a!a!a!a!a!a!a!a!a!a!a!a!a!a!a!a!a!a!a!a!a!a!a!a!a!a!a!a!a!",
"bvbvbvbvbvbvbvbvbvbvbvbvbvbvbvbvbvbvbvbvbvbvbvbvbvbvbvbvbvbv"};