/* XPM */
static char *menu_inactive_xpm[] = {
"30 38 11 1",
"a c #000000",
"b c #FDFDFD",
"c c #F6F5F4",
"d c #B8B8B8",
"e c #949696",
"f c #808080",
"g c #CACACA",
"h c #A9A9A9",
"i c #C4C4C4",
"j c #AFAFAF",
"k c #D5D0CC",
"aaaaaaaaaaaaaaaaaaaaaaaaaaaaaa",
"bbbbbbbbbbbbbbbbbbbbbbbbbbbbbb",
"cccccccccccccccccccccccccccccc",
"cccccccccccccccccccccccccccccc",
"cccccccccccccccccccccccccccccc",
"cccccccccccccccccccccccccccccc",
"cccccccccccccccccccccccccccccc",
"cccccccccccccccccccccccccccccc",
"cccccccccccccccccccccccccccccc",
"cccccccccccccccccccccccccccccc",
"cccccccccccccccccccccccccccccc",
"cccccccccccccccccccccccccccccc",
"cccccccccccccccccccccccccccccc",
"cccccccccccccccccccccccccccccc",
"cccccccccccccccccccccccccccccc",
"ccccccccccddddddddddcccccccccc",
"ccccccccccdeeeeeeeedcccccccccc",
"ccccccccccdeeeeeeeedcccccccccc",
"cccccccccccfeeeeeefccccccccccc",
"cccccccccccgfeeeefgccccccccccc",
"ccccccccccccheeeehcccccccccccc",
"cccccccccccccheehccccccccccccc",
"cccccccccccccieeiccccccccccccc",
"ccccccccccccccjjcccccccccccccc",
"cccccccccccccccccccccccccccccc",
"cccccccccccccccccccccccccccccc",
"cccccccccccccccccccccccccccccc",
"cccccccccccccccccccccccccccccc",
"cccccccccccccccccccccccccccccc",
"cccccccccccccccccccccccccccccc",
"cccccccccccccccccccccccccccccc",
"cccccccccccccccccccccccccccccc",
"cccccccccccccccccccccccccccccc",
"cccccccccccccccccccccccccccccc",
"cccccccccccccccccccccccccccccc",
"cccccccccccccccccccccccccccccc",
"cccccccccccccccccccccccccccccc",
"kkkkkkkkkkkkkkkkkkkkkkkkkkkkkk"};