/* XPM */
static char *menu_active_xpm[] = {
"30 38 36 1",
"a c #000000",
"b c #F9F8F8",
"c c #E1DEDB",
"d c #E1DDDA",
"e c #E0DDDA",
"f c #E0DDD9",
"g c #E0DCD9",
"h c #DFDCD9",
"i c #DFDCD8",
"j c #DFDBD8",
"k c #DEDBD8",
"l c #DEDBD7",
"m c #575757",
"n c #2B3132",
"o c #DEDAD7",
"p c #B8B8B8",
"q c #808080",
"r c #DDDAD6",
"s c #CACACA",
"t c #454545",
"u c #A9A9A9",
"v c #DDD9D6",
"w c #6D6D6D",
"x c #C4C4C4",
"y c #333435",
"z c #DDD9D5",
"A c #969696",
"B c #DCD9D5",
"C c #DCD8D5",
"D c #DCD8D4",
"E c #DBD8D4",
"F c #DBD7D4",
"G c #DBD7D3",
"H c #DAD7D3",
"I c #DAD6D2",
"J c #BFB8B1",
"aaaaaaaaaaaaaaaaaaaaaaaaaaaaaa",
"bbbbbbbbbbbbbbbbbbbbbbbbbbbbbb",
"cccccccccccccccccccccccccccccc",
"dddddddddddddddddddddddddddddd",
"eeeeeeeeeeeeeeeeeeeeeeeeeeeeee",
"eeeeeeeeeeeeeeeeeeeeeeeeeeeeee",
"eeeeeeeeeeeeeeeeeeeeeeeeeeeeee",
"ffffffffffffffffffffffffffffff",
"gggggggggggggggggggggggggggggg",
"hhhhhhhhhhhhhhhhhhhhhhhhhhhhhh",
"hhhhhhhhhhhhhhhhhhhhhhhhhhhhhh",
"iiiiiiiiiiiiiiiiiiiiiiiiiiiiii",
"jjjjjjjjjjjjjjjjjjjjjjjjjjjjjj",
"jjjjjjjjjjjjjjjjjjjjjjjjjjjjjj",
"kkkkkkkkkkkkkkkkkkkkkkkkkkkkkk",
"llllllllllmmmmmmmmmmllllllllll",
"llllllllllmnnnnnnnnmllllllllll",
"oooooooooopnnnnnnnnpoooooooooo",
"oooooooooooqnnnnnnqooooooooooo",
"rrrrrrrrrrrstnnnntsrrrrrrrrrrr",
"rrrrrrrrrrrrunnnnurrrrrrrrrrrr",
"vvvvvvvvvvvvvwnnwvvvvvvvvvvvvv",
"vvvvvvvvvvvvvxyyxvvvvvvvvvvvvv",
"zzzzzzzzzzzzzzAAzzzzzzzzzzzzzz",
"BBBBBBBBBBBBBBBBBBBBBBBBBBBBBB",
"BBBBBBBBBBBBBBBBBBBBBBBBBBBBBB",
"CCCCCCCCCCCCCCCCCCCCCCCCCCCCCC",
"DDDDDDDDDDDDDDDDDDDDDDDDDDDDDD",
"DDDDDDDDDDDDDDDDDDDDDDDDDDDDDD",
"EEEEEEEEEEEEEEEEEEEEEEEEEEEEEE",
"FFFFFFFFFFFFFFFFFFFFFFFFFFFFFF",
"GGGGGGGGGGGGGGGGGGGGGGGGGGGGGG",
"GGGGGGGGGGGGGGGGGGGGGGGGGGGGGG",
"GGGGGGGGGGGGGGGGGGGGGGGGGGGGGG",
"HHHHHHHHHHHHHHHHHHHHHHHHHHHHHH",
"IIIIIIIIIIIIIIIIIIIIIIIIIIIIII",
"IIIIIIIIIIIIIIIIIIIIIIIIIIIIII",
"JJJJJJJJJJJJJJJJJJJJJJJJJJJJJJ"};