/* XPM */
static char *menu_prelight_xpm[] = {
"30 38 126 2",
"aa c #000000",
"ab c #F9F8F8",
"ac c #E1DEDB",
"ad c #E1DDDA",
"ae c #E0DDDA",
"af c #DFDCD9",
"ag c #DEDBD8",
"ah c #DAD6D3",
"ai c #D6D1CD",
"aj c #D2CCC8",
"ak c #D0CBC5",
"al c #CEC8C3",
"am c #DEDBD7",
"an c #D3CEC9",
"ao c #D4CFCB",
"ap c #E2DFDC",
"aq c #F1EFEE",
"ar c #F7F6F5",
"as c #FDFDFC",
"at c #D3CECA",
"au c #E0DDD9",
"av c #DFDCD8",
"aw c #DDDBD7",
"ax c #D5D0CC",
"ay c #FEFEFE",
"az c #FCFCFB",
"aA c #FAFAF9",
"aB c #F9F9F8",
"aC c #F8F8F7",
"aD c #F0EFED",
"aE c #D5D1CD",
"aF c #E0DCD9",
"aG c #DFDBD8",
"aH c #DEDAD7",
"aI c #D1CBC7",
"aJ c #E8E5E3",
"aK c #FEFEFD",
"aL c #DDDAD7",
"aM c #F1F0EE",
"aN c #FBFBFA",
"aO c #D1CCC7",
"aP c #F1F0ED",
"aQ c #DCD9D5",
"aR c #DDD9D6",
"aS c #DEDAD6",
"aT c #DDDAD6",
"aU c #DCD8D5",
"aV c #F0EEEC",
"aW c #EFEEEB",
"aX c #DCD9D6",
"aY c #D8D5D1",
"aZ c #DBD8D4",
"a0 c #D4D0CB",
"a1 c #E2DFDB",
"a2 c #575757",
"a3 c #E2DEDB",
"a4 c #D0CCC7",
"a5 c #EEECEB",
"a6 c #2B3132",
"a7 c #CFC9C5",
"a8 c #F3F2F0",
"a9 c #B8B8B8",
"a_ c #D9D5D2",
"a? c #CDC8C3",
"a= c #F7F7F5",
"a) c #808080",
"a( c #F6F6F5",
"a/ c #F6F6F4",
"a& c #CACACA",
"a% c #454545",
"a+ c #F5F5F4",
"a^ c #F2F1EF",
"a! c #A9A9A9",
"ba c #D8D4D1",
"bb c #EDEBE9",
"bc c #6D6D6D",
"bd c #D0CBC6",
"be c #E1DEDA",
"bf c #C4C4C4",
"bg c #333435",
"bh c #D3CFCA",
"bi c #DAD6D2",
"bj c #D5D1CC",
"bk c #969696",
"bl c #D9D6D2",
"bm c #D6D3CF",
"bn c #ECEBE8",
"bo c #DAD7D3",
"bp c #DCD8D4",
"bq c #D6D1CC",
"br c #DBD7D4",
"bs c #D5D1CE",
"bt c #D5D0CB",
"bu c #E6E3E0",
"bv c #E5E3E0",
"bw c #D6D2CF",
"bx c #DBD7D3",
"by c #D8D4D0",
"bz c #EDECE9",
"bA c #D8D3D0",
"bB c #D6D2CE",
"bC c #E9E8E5",
"bD c #D5D2CE",
"bE c #C4BEB7",
"bF c #C4BEB8",
"bG c #CAC5BE",
"bH c #CBC5BE",
"bI c #E9E7E4",
"bJ c #E8E7E4",
"bK c #D4D0CE",
"bL c #D9D5D1",
"bM c #D3CFCC",
"bN c #D4D0CC",
"bO c #C8C2BC",
"bP c #C8C2BB",
"bQ c #D8D5D0",
"bR c #F4F3F2",
"bS c #D8D4CF",
"bT c #D7D3CF",
"bU c #CFCAC7",
"bV c #CAC5BF",
"bW c #C6BFB9",
"bX c #C3BCB6",
"bY c #C0B9B2",
"bZ c #D2CFCB",
"b0 c #BFB8B1",
"aaaaaaaaaaaaaaaaaaaaaaaaaaaaaaaaaaaaaaaaaaaaaaaaaaaaaaaaaaaa",
"abababababababababababababababababababababababababababababab",
"acacacacacacacacacacacacacacacacacacacacacacacacacacacacacac",
"adadadadadadadadadadadadadadadadadadadadadadadadadadadadadad",
"aeaeaeaeaeaeaeaeaeafafafagagagagagagafafafaeaeaeaeaeaeaeaeae",
"aeaeaeaeaeaeaeafafagahaiajakalalakajaiahagafafaeaeaeaeaeaeae",
"aeaeaeaeaeafafagamanaoapaqarasasaraqapaoatamagafafaeaeaeaeae",
"auauauauavamawaxaiaqayazaAaBaCaCaBaAazayaDaiaEamamavauauauau",
"aFaFaFaGaHaHaIaJaKaAaCaCaCaCaCaCaCaCaCaCaAaKaJaIaHaHaGaFaFaF",
"afafagaLaLaIaMaNaCaCaCaCaCaCaCaCaCaCaCaCaCaCaNaMaIaLaLagafaf",
"afagaLaLaOaPaAaCaCaCaCaCaCaCaCaCaCaCaCaCaCaCaCaAaPaIaLaLagaf",
"avamaQaxaJaAaCaCaCaCaCaCaCaCaCaCaCaCaCaCaCaCaCaCaAaJaEaQamav",
"aHaRaSaiaNaCaCaCaCaCaCaCaCaCaCaCaCaCaCaCaCaCaCaCaCaNaiaTaRaH",
"aHaUataVaCaCaCaCaCaCaCaCaCaCaCaCaCaCaCaCaCaCaCaCaCaCaWataUaH",
"aXaYaoaAaCaCaCaCaCaCaCaCaCaCaCaCaCaCaCaCaCaCaCaCaCaCaAaoaYaX",
"aZa0a1aCaCaCaCaCaCaCa2a2a2a2a2a2a2a2a2a2aCaCaCaCaCaCaCa3a0aZ",
"aZa4a5aCaCaCaCaCaCaCa2a6a6a6a6a6a6a6a6a2aCaCaCaCaCaCaCa5aIaZ",
"aha7a8aCaCaCaCaCaCaCa9a6a6a6a6a6a6a6a6a9aCaCaCaCaCaCaCa8a7ah",
"a_a?a=aCaCaCaCaCaCaCaCa)a6a6a6a6a6a6a)aCaCaCaCaCaCaCaCa(ala_",
"aYala/aCaCaCaCaCaCaCaCa&a%a6a6a6a6a%a&aCaCaCaCaCaCaCaCa+alaY",
"aYa7a^aCaCaCaCaCaCaCaCaCa!a6a6a6a6a!aCaCaCaCaCaCaCaCaCa^a7aY",
"baaIbbaCaCaCaCaCaCaCaCaCaCbca6a6bcaCaCaCaCaCaCaCaCaCaCbbbda_",
"a_atbeaCaCaCaCaCaCaCaCaCaCbfbgbgbfaCaCaCaCaCaCaCaCaCaCadbha_",
"bibjaoaCaCaCaCaCaCaCaCaCaCaCbkbkaCaCaCaCaCaCaCaCaCaCaCaoaxbi",
"blbmatbnaCaCaCaCaCaCaCaCaCaCaCaCaCaCaCaCaCaCaCaCaCaCbnatbmbl",
"boaYbpbqaCaCaCaCaCaCaCaCaCaCaCaCaCaCaCaCaCaCaCaCaCaCbqbraYbo",
"bra_bsbtbuaCaCaCaCaCaCaCaCaCaCaCaCaCaCaCaCaCaCaCaCbvbjbwa_br",
"bxbibybyaIbzaCaCaCaCaCaCaCaCaCaCaCaCaCaCaCaCaCaCbzaIbAbybibx",
"bpbxa_bBa_bhbCaCaCaCaCaCaCaCaCaCaCaCaCaCaCaCaCbCana_bBa_bxbp",
"aZboblaYbDbDbEauaCaCaCaCaCaCaCaCaCaCaCaCaCaCavbFbDbDaYblboaZ",
"brbraha_babsbsbGbHbIaCaCaCaCaCaCaCaCaCaCbJbGbGbKbsbaa_ahbrbr",
"bxbxbxbibLbyaEbMbNbObPbQaJa5bRbRa5aJbSbObPaxbMaEbybLbibxbxbx",
"bxbxbxbxbibLbabTaEbMbUbVbWbXbYbYbXbWbVbUbMaEbTbabLbibxbxbxbx",
"bxbxbxbxbxbibibLbybTaEbNbMbZbZbZbZbMbNaEbTbybLbibibxbxbxbxbx",
"bobobobobobobobobobobobobobobobobobobobobobobobobobobobobobo",
"bibibibibibibibibibibibibibibibibibibibibibibibibibibibibibi",
"bibibibibibibibibibibibibibibibibibibibibibibibibibibibibibi",
"b0b0b0b0b0b0b0b0b0b0b0b0b0b0b0b0b0b0b0b0b0b0b0b0b0b0b0b0b0b0"};