/* XPM */
static char *shade_active_xpm[] = {
"30 38 45 1",
"a c #000000",
"b c #F9F8F8",
"c c #E1DEDB",
"d c #E1DDDA",
"e c #E0DDDA",
"f c #E0DDD9",
"g c #E0DCD9",
"h c #DFDCD9",
"i c #DFDCD8",
"j c #DFDBD8",
"k c #DEDBD8",
"l c #DEDBD7",
"m c #E6E6E6",
"n c #848484",
"o c #7C7C7C",
"p c #E5E5E5",
"q c #6C6C6C",
"r c #2B3132",
"s c #666666",
"t c #DEDAD7",
"u c #E1E1E1",
"v c #5C5C5C",
"w c #575757",
"x c #DEDEDE",
"y c #545454",
"z c #303233",
"A c #555555",
"B c #DDDAD6",
"C c #AFAFAF",
"D c #434343",
"E c #B4B4B4",
"F c #B7B7B7",
"G c #444444",
"H c #ACACAC",
"I c #DDD9D6",
"J c #DDD9D5",
"K c #DCD9D5",
"L c #DCD8D5",
"M c #DCD8D4",
"N c #DBD8D4",
"O c #DBD7D4",
"P c #DBD7D3",
"Q c #DAD7D3",
"R c #DAD6D2",
"S c #BFB8B1",
"aaaaaaaaaaaaaaaaaaaaaaaaaaaaaa",
"bbbbbbbbbbbbbbbbbbbbbbbbbbbbbb",
"cccccccccccccccccccccccccccccc",
"dddddddddddddddddddddddddddddd",
"eeeeeeeeeeeeeeeeeeeeeeeeeeeeee",
"eeeeeeeeeeeeeeeeeeeeeeeeeeeeee",
"eeeeeeeeeeeeeeeeeeeeeeeeeeeeee",
"ffffffffffffffffffffffffffffff",
"gggggggggggggggggggggggggggggg",
"hhhhhhhhhhhhhhhhhhhhhhhhhhhhhh",
"hhhhhhhhhhhhhhhhhhhhhhhhhhhhhh",
"iiiiiiiiiiiiiiiiiiiiiiiiiiiiii",
"jjjjjjjjjjjjjjjjjjjjjjjjjjjjjj",
"jjjjjjjjjjjjjjjjjjjjjjjjjjjjjj",
"kkkkkkkkkkkkkkkkkkkkkkkkkkkkkk",
"lllllllllllllmnomlllllllllllll",
"llllllllllllpqrrspllllllllllll",
"tttttttttttuvrrrrwxttttttttttt",
"tttttttttttyrzrrzrAttttttttttt",
"BBBBBBBBBBBCDErrFGHBBBBBBBBBBB",
"BBBBBBBBBBBBBBrrBBBBBBBBBBBBBB",
"IIIIIIIIIIIIIIrrIIIIIIIIIIIIII",
"IIIIIIIIIIIIIIrrIIIIIIIIIIIIII",
"JJJJJJJJJJJJJJJJJJJJJJJJJJJJJJ",
"KKKKKKKKKKKKKKKKKKKKKKKKKKKKKK",
"KKKKKKKKKKKKKKKKKKKKKKKKKKKKKK",
"LLLLLLLLLLLLLLLLLLLLLLLLLLLLLL",
"MMMMMMMMMMMMMMMMMMMMMMMMMMMMMM",
"MMMMMMMMMMMMMMMMMMMMMMMMMMMMMM",
"NNNNNNNNNNNNNNNNNNNNNNNNNNNNNN",
"OOOOOOOOOOOOOOOOOOOOOOOOOOOOOO",
"PPPPPPPPPPPPPPPPPPPPPPPPPPPPPP",
"PPPPPPPPPPPPPPPPPPPPPPPPPPPPPP",
"PPPPPPPPPPPPPPPPPPPPPPPPPPPPPP",
"QQQQQQQQQQQQQQQQQQQQQQQQQQQQQQ",
"RRRRRRRRRRRRRRRRRRRRRRRRRRRRRR",
"RRRRRRRRRRRRRRRRRRRRRRRRRRRRRR",
"SSSSSSSSSSSSSSSSSSSSSSSSSSSSSS"};