/* XPM */
static char *shade_prelight_xpm[] = {
"30 38 135 2",
"aa c #000000",
"ab c #F9F8F8",
"ac c #E1DEDB",
"ad c #E1DDDA",
"ae c #E0DDDA",
"af c #DFDCD9",
"ag c #DEDBD8",
"ah c #DAD6D3",
"ai c #D6D1CD",
"aj c #D2CCC8",
"ak c #D0CBC5",
"al c #CEC8C3",
"am c #DEDBD7",
"an c #D3CEC9",
"ao c #D4CFCB",
"ap c #E2DFDC",
"aq c #F1EFEE",
"ar c #F7F6F5",
"as c #FDFDFC",
"at c #D3CECA",
"au c #E0DDD9",
"av c #DFDCD8",
"aw c #DDDBD7",
"ax c #D5D0CC",
"ay c #FEFEFE",
"az c #FCFCFB",
"aA c #FAFAF9",
"aB c #F9F9F8",
"aC c #F8F8F7",
"aD c #F0EFED",
"aE c #D5D1CD",
"aF c #E0DCD9",
"aG c #DFDBD8",
"aH c #DEDAD7",
"aI c #D1CBC7",
"aJ c #E8E5E3",
"aK c #FEFEFD",
"aL c #DDDAD7",
"aM c #F1F0EE",
"aN c #FBFBFA",
"aO c #D1CCC7",
"aP c #F1F0ED",
"aQ c #DCD9D5",
"aR c #DDD9D6",
"aS c #DEDAD6",
"aT c #DDDAD6",
"aU c #DCD8D5",
"aV c #F0EEEC",
"aW c #EFEEEB",
"aX c #DCD9D6",
"aY c #D8D5D1",
"aZ c #DBD8D4",
"a0 c #D4D0CB",
"a1 c #E2DFDB",
"a2 c #E6E6E6",
"a3 c #848484",
"a4 c #7C7C7C",
"a5 c #E2DEDB",
"a6 c #D0CCC7",
"a7 c #EEECEB",
"a8 c #E5E5E5",
"a9 c #6C6C6C",
"a_ c #2B3132",
"a? c #666666",
"a= c #CFC9C5",
"a) c #F3F2F0",
"a( c #E1E1E1",
"a/ c #5C5C5C",
"a& c #575757",
"a% c #DEDEDE",
"a+ c #D9D5D2",
"a^ c #CDC8C3",
"a! c #F7F7F5",
"ba c #545454",
"bb c #303233",
"bc c #555555",
"bd c #F6F6F5",
"be c #F6F6F4",
"bf c #AFAFAF",
"bg c #434343",
"bh c #B4B4B4",
"bi c #B7B7B7",
"bj c #444444",
"bk c #ACACAC",
"bl c #F5F5F4",
"bm c #F2F1EF",
"bn c #D8D4D1",
"bo c #EDEBE9",
"bp c #D0CBC6",
"bq c #E1DEDA",
"br c #D3CFCA",
"bs c #DAD6D2",
"bt c #D5D1CC",
"bu c #D9D6D2",
"bv c #D6D3CF",
"bw c #ECEBE8",
"bx c #DAD7D3",
"by c #DCD8D4",
"bz c #D6D1CC",
"bA c #DBD7D4",
"bB c #D5D1CE",
"bC c #D5D0CB",
"bD c #E6E3E0",
"bE c #E5E3E0",
"bF c #D6D2CF",
"bG c #DBD7D3",
"bH c #D8D4D0",
"bI c #EDECE9",
"bJ c #D8D3D0",
"bK c #D6D2CE",
"bL c #E9E8E5",
"bM c #D5D2CE",
"bN c #C4BEB7",
"bO c #C4BEB8",
"bP c #CAC5BE",
"bQ c #CBC5BE",
"bR c #E9E7E4",
"bS c #E8E7E4",
"bT c #D4D0CE",
"bU c #D9D5D1",
"bV c #D3CFCC",
"bW c #D4D0CC",
"bX c #C8C2BC",
"bY c #C8C2BB",
"bZ c #D8D5D0",
"b0 c #F4F3F2",
"b1 c #D8D4CF",
"b2 c #D7D3CF",
"b3 c #CFCAC7",
"b4 c #CAC5BF",
"b5 c #C6BFB9",
"b6 c #C3BCB6",
"b7 c #C0B9B2",
"b8 c #D2CFCB",
"b9 c #BFB8B1",
"aaaaaaaaaaaaaaaaaaaaaaaaaaaaaaaaaaaaaaaaaaaaaaaaaaaaaaaaaaaa",
"abababababababababababababababababababababababababababababab",
"acacacacacacacacacacacacacacacacacacacacacacacacacacacacacac",
"adadadadadadadadadadadadadadadadadadadadadadadadadadadadadad",
"aeaeaeaeaeaeaeaeaeafafafagagagagagagafafafaeaeaeaeaeaeaeaeae",
"aeaeaeaeaeaeaeafafagahaiajakalalakajaiahagafafaeaeaeaeaeaeae",
"aeaeaeaeaeafafagamanaoapaqarasasaraqapaoatamagafafaeaeaeaeae",
"auauauauavamawaxaiaqayazaAaBaCaCaBaAazayaDaiaEamamavauauauau",
"aFaFaFaGaHaHaIaJaKaAaCaCaCaCaCaCaCaCaCaCaAaKaJaIaHaHaGaFaFaF",
"afafagaLaLaIaMaNaCaCaCaCaCaCaCaCaCaCaCaCaCaCaNaMaIaLaLagafaf",
"afagaLaLaOaPaAaCaCaCaCaCaCaCaCaCaCaCaCaCaCaCaCaAaPaIaLaLagaf",
"avamaQaxaJaAaCaCaCaCaCaCaCaCaCaCaCaCaCaCaCaCaCaCaAaJaEaQamav",
"aHaRaSaiaNaCaCaCaCaCaCaCaCaCaCaCaCaCaCaCaCaCaCaCaCaNaiaTaRaH",
"aHaUataVaCaCaCaCaCaCaCaCaCaCaCaCaCaCaCaCaCaCaCaCaCaCaWataUaH",
"aXaYaoaAaCaCaCaCaCaCaCaCaCaCaCaCaCaCaCaCaCaCaCaCaCaCaAaoaYaX",
"aZa0a1aCaCaCaCaCaCaCaCaCaCa2a3a4a2aCaCaCaCaCaCaCaCaCaCa5a0aZ",
"aZa6a7aCaCaCaCaCaCaCaCaCa8a9a_a_a?a8aCaCaCaCaCaCaCaCaCa7aIaZ",
"aha=a)aCaCaCaCaCaCaCaCa(a/a_a_a_a_a&a%aCaCaCaCaCaCaCaCa)a=ah",
"a+a^a!aCaCaCaCaCaCaCaCbaa_bba_a_bba_bcaCaCaCaCaCaCaCaCbdala+",
"aYalbeaCaCaCaCaCaCaCaCbfbgbha_a_bibjbkaCaCaCaCaCaCaCaCblalaY",
"aYa=bmaCaCaCaCaCaCaCaCaCaCaCa_a_aCaCaCaCaCaCaCaCaCaCaCbma=aY",
"bnaIboaCaCaCaCaCaCaCaCaCaCaCa_a_aCaCaCaCaCaCaCaCaCaCaCbobpa+",
"a+atbqaCaCaCaCaCaCaCaCaCaCaCa_a_aCaCaCaCaCaCaCaCaCaCaCadbra+",
"bsbtaoaCaCaCaCaCaCaCaCaCaCaCaCaCaCaCaCaCaCaCaCaCaCaCaCaoaxbs",
"bubvatbwaCaCaCaCaCaCaCaCaCaCaCaCaCaCaCaCaCaCaCaCaCaCbwatbvbu",
"bxaYbybzaCaCaCaCaCaCaCaCaCaCaCaCaCaCaCaCaCaCaCaCaCaCbzbAaYbx",
"bAa+bBbCbDaCaCaCaCaCaCaCaCaCaCaCaCaCaCaCaCaCaCaCaCbEbtbFa+bA",
"bGbsbHbHaIbIaCaCaCaCaCaCaCaCaCaCaCaCaCaCaCaCaCaCbIaIbJbHbsbG",
"bybGa+bKa+brbLaCaCaCaCaCaCaCaCaCaCaCaCaCaCaCaCbLana+bKa+bGby",
"aZbxbuaYbMbMbNauaCaCaCaCaCaCaCaCaCaCaCaCaCaCavbObMbMaYbubxaZ",
"bAbAaha+bnbBbBbPbQbRaCaCaCaCaCaCaCaCaCaCbSbPbPbTbBbna+ahbAbA",
"bGbGbGbsbUbHaEbVbWbXbYbZaJa7b0b0a7aJb1bXbYaxbVaEbHbUbsbGbGbG",
"bGbGbGbGbsbUbnb2aEbVb3b4b5b6b7b7b6b5b4b3bVaEb2bnbUbsbGbGbGbG",
"bGbGbGbGbGbsbsbUbHb2aEbWbVb8b8b8b8bVbWaEb2bHbUbsbsbGbGbGbGbG",
"bxbxbxbxbxbxbxbxbxbxbxbxbxbxbxbxbxbxbxbxbxbxbxbxbxbxbxbxbxbx",
"bsbsbsbsbsbsbsbsbsbsbsbsbsbsbsbsbsbsbsbsbsbsbsbsbsbsbsbsbsbs",
"bsbsbsbsbsbsbsbsbsbsbsbsbsbsbsbsbsbsbsbsbsbsbsbsbsbsbsbsbsbs",
"b9b9b9b9b9b9b9b9b9b9b9b9b9b9b9b9b9b9b9b9b9b9b9b9b9b9b9b9b9b9"};