/* XPM */
static char *shade_pressed_xpm[] = {
"30 38 104 2",
"aa c #000000",
"ab c #F9F8F8",
"ac c #E1DEDB",
"ad c #E1DDDA",
"ae c #E0DDDA",
"af c #DFDCD9",
"ag c #DEDBD8",
"ah c #DCD9D5",
"ai c #D7D1CE",
"aj c #D2CCC8",
"ak c #D0CBC6",
"al c #CEC8C3",
"am c #D7D2CE",
"an c #D8D3CF",
"ao c #CEC8C4",
"ap c #D1CCC7",
"aq c #D4CECA",
"ar c #D4CFCB",
"as c #D6D1CC",
"at c #D8D3D0",
"au c #E0DDD9",
"av c #DDD9D5",
"aw c #CFCAC5",
"ax c #CFC9C4",
"ay c #D4CFCA",
"az c #D6D1CD",
"aA c #E0DCD9",
"aB c #DAD5D1",
"aC c #D2CDC8",
"aD c #D3CDC8",
"aE c #D9D5D1",
"aF c #DBD9D4",
"aG c #DCD7D6",
"aH c #DFDCD8",
"aI c #D6D2CF",
"aJ c #D2CDC9",
"aK c #D0CAC5",
"aL c #DEDAD7",
"aM c #DFDBD8",
"aN c #D7D3CF",
"aO c #D3CECA",
"aP c #DCD9D6",
"aQ c #DAD7D4",
"aR c #CFC9C3",
"aS c #DAD7D3",
"aT c #DBD8D4",
"aU c #D6D0CC",
"aV c #E6E6E6",
"aW c #848484",
"aX c #7C7C7C",
"aY c #D1CBC7",
"aZ c #D5D1CD",
"a0 c #E5E5E5",
"a1 c #6C6C6C",
"a2 c #2B3132",
"a3 c #666666",
"a4 c #D1CDC7",
"a5 c #DAD6D3",
"a6 c #CFC9C5",
"a7 c #D5D0CB",
"a8 c #E1E1E1",
"a9 c #5C5C5C",
"a_ c #575757",
"a? c #DEDEDE",
"a= c #D4CFCC",
"a) c #D9D5D2",
"a( c #D5D0CD",
"a/ c #545454",
"a& c #303233",
"a% c #555555",
"a+ c #D8D5D1",
"a^ c #AFAFAF",
"a! c #434343",
"ba c #B4B4B4",
"bb c #B7B7B7",
"bc c #444444",
"bd c #ACACAC",
"be c #D8D4D1",
"bf c #D1CBC8",
"bg c #D3CFCA",
"bh c #D5D0CC",
"bi c #D2CBC7",
"bj c #DAD6D2",
"bk c #CEC9C4",
"bl c #DAD5D2",
"bm c #D9D6D2",
"bn c #D6D2CD",
"bo c #DBD7D4",
"bp c #DCD8D5",
"bq c #DBD7D3",
"br c #DCD8D4",
"bs c #D9D6D1",
"bt c #D7D3CE",
"bu c #D6D3CF",
"bv c #DAD4D1",
"bw c #CFC9C6",
"bx c #D5CFCB",
"by c #D9D4D0",
"bz c #CDC7C3",
"bA c #D8D4D0",
"bB c #D4D0CC",
"bC c #D3CFCC",
"bD c #D2CFCB",
"bE c #BFB8B1",
"aaaaaaaaaaaaaaaaaaaaaaaaaaaaaaaaaaaaaaaaaaaaaaaaaaaaaaaaaaaa",
"abababababababababababababababababababababababababababababab",
"acacacacacacacacacacacacacacacacacacacacacacacacacacacacacac",
"adadadadadadadadadadadadadadadadadadadadadadadadadadadadadad",
"aeaeaeaeaeaeaeaeaeafafafagagagagagagafafafaeaeaeaeaeaeaeaeae",
"aeaeaeaeaeaeaeaeaeaeahaiajakalalakajamahaeaeaeaeaeaeaeaeaeae",
"aeaeaeaeaeaeaeaeanaoaoapaqarasasaraqapaoaoataeaeaeaeaeaeaeae",
"auauauauauauavawaxayazazazazazazazazazazaqaxawavauauauauauau",
"aAaAaAaAaAaBalaCazazazazazazazazazazazazazazaDalaEaAaAaAaAaA",
"afafafafaEalayazazazazazazazazazazazazazazazazaqalaEafafafaf",
"afafafaFalayazazazazazazazazazazazazazazazazazazayalaGafafaf",
"aHaHaHawaDazazazazazaIaIaIaIaIaIazazazazazazazazazaJaKaHaHaH",
"aLaManaxazazazazaIaIaIaIaIaIaIaIaIaIazazazazazazazazaxaNaMaL",
"aLaMaxaqazazazaIaIaIaIaIaIaIaIaIaIaIaIazazazazazazazaOaxaMaL",
"aPaQaRazazazazaIaIaIaIaIaIaIaIaIaIaIaIaIaIazazazazazazaoaSaP",
"aTaUapazazazazaIaIaIaIaIaIaVaWaXaVaIaIaIaIaIazazazazazaYaZaT",
"aTajaqazazazazaIaIaIaIaIa0a1a2a2a3a0aIaIaIaIazazazazazaOa4aT",
"a5a6a7azazazazaIaIaIaIa8a9a2a2a2a2a_a?aIaIaIaIazazazaza=a6a5",
"a)ala(azazazazaIaIaIaIa/a2a&a2a2a&a2a%aIaIaIaIazazazaza(ala)",
"a+ala(azazazazaIaIaIaIa^a!baa2a2bbbcbdaIaIaIaIazazazaza(ala+",
"a+a6a7azazazazaIaIaIaIaIaIaIa2a2aIaIaIaIaIaIaIazazazaza=aKa+",
"bebfaqazazazazaIaIaIaIaIaIaIa2a2aIaIaIaIaIaIaIazazazazbgapa)",
"a)bhapazazazazaIaIaIaIaIaIaIa2a2aIaIaIaIaIaIaIazazazazbibha)",
"bjaBaRazazazazazaIaIaIaIaIaIaIaIaIaIaIaIaIaIaIazazazazbkblbj",
"bmahaxaqazazazazazaIaIaIaIaIaIaIaIaIaIaIaIaIaIazazazbgaxahbm",
"aSahazaxazazazazazazazaIaIaIaIaIaIaIaIaIaIaIazazazazbkbnahaS",
"bobpbpaKaJazazazazazazazazazazazazazazazazazazazazaCaKbpbpbo",
"bqbrbraBalayazazazazazazazazazazazazazazazazazazaqalbsbrbrbq",
"brbrbrbrbtalaqazazazazazazazazazazazazazazazazaOalaNbrbrbrbr",
"aTaTaTaTaTbtalaJazazazazazazazazazazazazazazajalbuaTaTaTaTaT",
"bobobobobobobvawaxaOazazazazazazazazazazaOaxbwa+bobobobobobo",
"bqbqbqbqbqbqbqbqa(axaoapaOarasa(bxbgaYbkaoa(bqbqbqbqbqbqbqbq",
"bqbqbqbqbqbqbqbqbqbqbyaraYawbzbzawaYarbybqbqbqbqbqbqbqbqbqbq",
"bqbqbqbqbqbjbjaEbAaNaZbBbCbDbDbDbDbCbBaZaNbAaEbjbjbqbqbqbqbq",
"aSaSaSaSaSaSaSaSaSaSaSaSaSaSaSaSaSaSaSaSaSaSaSaSaSaSaSaSaSaS",
"bjbjbjbjbjbjbjbjbjbjbjbjbjbjbjbjbjbjbjbjbjbjbjbjbjbjbjbjbjbj",
"bjbjbjbjbjbjbjbjbjbjbjbjbjbjbjbjbjbjbjbjbjbjbjbjbjbjbjbjbjbj",
"bEbEbEbEbEbEbEbEbEbEbEbEbEbEbEbEbEbEbEbEbEbEbEbEbEbEbEbEbEbE"};