/* XPM */
static char *stick_pressed_xpm[] = {
"30 38 93 2",
"aa c #000000",
"ab c #F9F8F8",
"ac c #E1DEDB",
"ad c #E1DDDA",
"ae c #E0DDDA",
"af c #DFDCD9",
"ag c #DEDBD8",
"ah c #DCD9D5",
"ai c #D7D1CE",
"aj c #D2CCC8",
"ak c #D0CBC6",
"al c #CEC8C3",
"am c #D7D2CE",
"an c #D8D3CF",
"ao c #CEC8C4",
"ap c #D1CCC7",
"aq c #D4CECA",
"ar c #D4CFCB",
"as c #D6D1CC",
"at c #D8D3D0",
"au c #E0DDD9",
"av c #DDD9D5",
"aw c #CFCAC5",
"ax c #CFC9C4",
"ay c #D4CFCA",
"az c #D6D1CD",
"aA c #E0DCD9",
"aB c #DAD5D1",
"aC c #D2CDC8",
"aD c #D3CDC8",
"aE c #D9D5D1",
"aF c #DBD9D4",
"aG c #DCD7D6",
"aH c #DFDCD8",
"aI c #D6D2CF",
"aJ c #D2CDC9",
"aK c #D0CAC5",
"aL c #DEDAD7",
"aM c #DFDBD8",
"aN c #D7D3CF",
"aO c #D3CECA",
"aP c #DCD9D6",
"aQ c #DAD7D4",
"aR c #CFC9C3",
"aS c #DAD7D3",
"aT c #DBD8D4",
"aU c #D6D0CC",
"aV c #CCCCCC",
"aW c #666666",
"aX c #2B3132",
"aY c #636363",
"aZ c #D1CBC7",
"a0 c #D5D1CD",
"a1 c #D1CDC7",
"a2 c #DAD6D3",
"a3 c #CFC9C5",
"a4 c #D5D0CB",
"a5 c #D4CFCC",
"a6 c #D9D5D2",
"a7 c #D5D0CD",
"a8 c #D8D5D1",
"a9 c #585858",
"a_ c #5C5C5C",
"a? c #D8D4D1",
"a= c #D1CBC8",
"a) c #888888",
"a( c #D3CFCA",
"a/ c #D5D0CC",
"a& c #595959",
"a% c #5A5A5A",
"a+ c #D2CBC7",
"a^ c #DAD6D2",
"a! c #CEC9C4",
"ba c #DAD5D2",
"bb c #D9D6D2",
"bc c #D6D2CD",
"bd c #DBD7D4",
"be c #DCD8D5",
"bf c #DBD7D3",
"bg c #DCD8D4",
"bh c #D9D6D1",
"bi c #D7D3CE",
"bj c #D6D3CF",
"bk c #DAD4D1",
"bl c #CFC9C6",
"bm c #D5CFCB",
"bn c #D9D4D0",
"bo c #CDC7C3",
"bp c #D8D4D0",
"bq c #D4D0CC",
"br c #D3CFCC",
"bs c #D2CFCB",
"bt c #BFB8B1",
"aaaaaaaaaaaaaaaaaaaaaaaaaaaaaaaaaaaaaaaaaaaaaaaaaaaaaaaaaaaa",
"abababababababababababababababababababababababababababababab",
"acacacacacacacacacacacacacacacacacacacacacacacacacacacacacac",
"adadadadadadadadadadadadadadadadadadadadadadadadadadadadadad",
"aeaeaeaeaeaeaeaeaeafafafagagagagagagafafafaeaeaeaeaeaeaeaeae",
"aeaeaeaeaeaeaeaeaeaeahaiajakalalakajamahaeaeaeaeaeaeaeaeaeae",
"aeaeaeaeaeaeaeaeanaoaoapaqarasasaraqapaoaoataeaeaeaeaeaeaeae",
"auauauauauauavawaxayazazazazazazazazazazaqaxawavauauauauauau",
"aAaAaAaAaAaBalaCazazazazazazazazazazazazazazaDalaEaAaAaAaAaA",
"afafafafaEalayazazazazazazazazazazazazazazazazaqalaEafafafaf",
"afafafaFalayazazazazazazazazazazazazazazazazazazayalaGafafaf",
"aHaHaHawaDazazazazazaIaIaIaIaIaIazazazazazazazazazaJaKaHaHaH",
"aLaManaxazazazazaIaIaIaIaIaIaIaIaIaIazazazazazazazazaxaNaMaL",
"aLaMaxaqazazazaIaIaIaIaIaIaIaIaIaIaIaIazazazazazazazaOaxaMaL",
"aPaQaRazazazazaIaIaIaIaIaIaIaIaIaIaIaIaIaIazazazazazazaoaSaP",
"aTaUapazazazazaIaIaIaIaIaVaWaXaXaYaVaIaIaIaIazazazazazaZa0aT",
"aTajaqazazazazaIaIaIaIaVaXaXaXaXaXaXaVaIaIaIazazazazazaOa1aT",
"a2a3a4azazazazaIaIaIaIaWaXaXaXaXaXaXaWaIaIaIaIazazazaza5a3a2",
"a6ala7azazazazaIaIaIaIaXaXaXaXaXaXaXaXaIaIaIaIazazazaza7ala6",
"a8ala7azazazazaIaIaIaIaXaXaXaXaXaXaXaXaIaIaIaIazazazaza7ala8",
"a8a3a4azazazazaIaIaIaIa9aXaXaXaXaXaXa_aIaIaIaIazazazaza5aKa8",
"a?a=aqazazazazaIaIaIaIa)aXaXaXaXaXaXa)aIaIaIaIazazazaza(apa6",
"a6a/apazazazazaIaIaIaIaIa)a&aXaXa%a)aIaIaIaIaIazazazaza+a/a6",
"a^aBaRazazazazazaIaIaIaIaIaIaIaIaIaIaIaIaIaIaIazazazaza!baa^",
"bbahaxaqazazazazazaIaIaIaIaIaIaIaIaIaIaIaIaIaIazazaza(axahbb",
"aSahazaxazazazazazazazaIaIaIaIaIaIaIaIaIaIaIazazazaza!bcahaS",
"bdbebeaKaJazazazazazazazazazazazazazazazazazazazazaCaKbebebd",
"bfbgbgaBalayazazazazazazazazazazazazazazazazazazaqalbhbgbgbf",
"bgbgbgbgbialaqazazazazazazazazazazazazazazazazaOalaNbgbgbgbg",
"aTaTaTaTaTbialaJazazazazazazazazazazazazazazajalbjaTaTaTaTaT",
"bdbdbdbdbdbdbkawaxaOazazazazazazazazazazaOaxbla8bdbdbdbdbdbd",
"bfbfbfbfbfbfbfbfa7axaoapaOarasa7bma(aZa!aoa7bfbfbfbfbfbfbfbf",
"bfbfbfbfbfbfbfbfbfbfbnaraZawboboawaZarbnbfbfbfbfbfbfbfbfbfbf",
"bfbfbfbfbfa^a^aEbpaNa0bqbrbsbsbsbsbrbqa0aNbpaEa^a^bfbfbfbfbf",
"aSaSaSaSaSaSaSaSaSaSaSaSaSaSaSaSaSaSaSaSaSaSaSaSaSaSaSaSaSaS",
"a^a^a^a^a^a^a^a^a^a^a^a^a^a^a^a^a^a^a^a^a^a^a^a^a^a^a^a^a^a^",
"a^a^a^a^a^a^a^a^a^a^a^a^a^a^a^a^a^a^a^a^a^a^a^a^a^a^a^a^a^a^",
"btbtbtbtbtbtbtbtbtbtbtbtbtbtbtbtbtbtbtbtbtbtbtbtbtbtbtbtbtbt"};