/* XPM */
static char *stick_active_xpm[] = {
"30 38 34 1",
"a c #000000",
"b c #F9F8F8",
"c c #E1DEDB",
"d c #E1DDDA",
"e c #E0DDDA",
"f c #E0DDD9",
"g c #E0DCD9",
"h c #DFDCD9",
"i c #DFDCD8",
"j c #DFDBD8",
"k c #DEDBD8",
"l c #DEDBD7",
"m c #CCCCCC",
"n c #666666",
"o c #2B3132",
"p c #636363",
"q c #DEDAD7",
"r c #DDDAD6",
"s c #585858",
"t c #5C5C5C",
"u c #DDD9D6",
"v c #888888",
"w c #595959",
"x c #5A5A5A",
"y c #DDD9D5",
"z c #DCD9D5",
"A c #DCD8D5",
"B c #DCD8D4",
"C c #DBD8D4",
"D c #DBD7D4",
"E c #DBD7D3",
"F c #DAD7D3",
"G c #DAD6D2",
"H c #BFB8B1",
"aaaaaaaaaaaaaaaaaaaaaaaaaaaaaa",
"bbbbbbbbbbbbbbbbbbbbbbbbbbbbbb",
"cccccccccccccccccccccccccccccc",
"dddddddddddddddddddddddddddddd",
"eeeeeeeeeeeeeeeeeeeeeeeeeeeeee",
"eeeeeeeeeeeeeeeeeeeeeeeeeeeeee",
"eeeeeeeeeeeeeeeeeeeeeeeeeeeeee",
"ffffffffffffffffffffffffffffff",
"gggggggggggggggggggggggggggggg",
"hhhhhhhhhhhhhhhhhhhhhhhhhhhhhh",
"hhhhhhhhhhhhhhhhhhhhhhhhhhhhhh",
"iiiiiiiiiiiiiiiiiiiiiiiiiiiiii",
"jjjjjjjjjjjjjjjjjjjjjjjjjjjjjj",
"jjjjjjjjjjjjjjjjjjjjjjjjjjjjjj",
"kkkkkkkkkkkkkkkkkkkkkkkkkkkkkk",
"llllllllllllmnoopmllllllllllll",
"lllllllllllmoooooomlllllllllll",
"qqqqqqqqqqqnoooooonqqqqqqqqqqq",
"qqqqqqqqqqqooooooooqqqqqqqqqqq",
"rrrrrrrrrrroooooooorrrrrrrrrrr",
"rrrrrrrrrrrsooooootrrrrrrrrrrr",
"uuuuuuuuuuuvoooooovuuuuuuuuuuu",
"uuuuuuuuuuuuvwooxvuuuuuuuuuuuu",
"yyyyyyyyyyyyyyyyyyyyyyyyyyyyyy",
"zzzzzzzzzzzzzzzzzzzzzzzzzzzzzz",
"zzzzzzzzzzzzzzzzzzzzzzzzzzzzzz",
"AAAAAAAAAAAAAAAAAAAAAAAAAAAAAA",
"BBBBBBBBBBBBBBBBBBBBBBBBBBBBBB",
"BBBBBBBBBBBBBBBBBBBBBBBBBBBBBB",
"CCCCCCCCCCCCCCCCCCCCCCCCCCCCCC",
"DDDDDDDDDDDDDDDDDDDDDDDDDDDDDD",
"EEEEEEEEEEEEEEEEEEEEEEEEEEEEEE",
"EEEEEEEEEEEEEEEEEEEEEEEEEEEEEE",
"EEEEEEEEEEEEEEEEEEEEEEEEEEEEEE",
"FFFFFFFFFFFFFFFFFFFFFFFFFFFFFF",
"GGGGGGGGGGGGGGGGGGGGGGGGGGGGGG",
"GGGGGGGGGGGGGGGGGGGGGGGGGGGGGG",
"HHHHHHHHHHHHHHHHHHHHHHHHHHHHHH"};