/* XPM */
static char *stick_prelight_xpm[] = {
"30 38 124 2",
"aa c #000000",
"ab c #F9F8F8",
"ac c #E1DEDB",
"ad c #E1DDDA",
"ae c #E0DDDA",
"af c #DFDCD9",
"ag c #DEDBD8",
"ah c #DAD6D3",
"ai c #D6D1CD",
"aj c #D2CCC8",
"ak c #D0CBC5",
"al c #CEC8C3",
"am c #DEDBD7",
"an c #D3CEC9",
"ao c #D4CFCB",
"ap c #E2DFDC",
"aq c #F1EFEE",
"ar c #F7F6F5",
"as c #FDFDFC",
"at c #D3CECA",
"au c #E0DDD9",
"av c #DFDCD8",
"aw c #DDDBD7",
"ax c #D5D0CC",
"ay c #FEFEFE",
"az c #FCFCFB",
"aA c #FAFAF9",
"aB c #F9F9F8",
"aC c #F8F8F7",
"aD c #F0EFED",
"aE c #D5D1CD",
"aF c #E0DCD9",
"aG c #DFDBD8",
"aH c #DEDAD7",
"aI c #D1CBC7",
"aJ c #E8E5E3",
"aK c #FEFEFD",
"aL c #DDDAD7",
"aM c #F1F0EE",
"aN c #FBFBFA",
"aO c #D1CCC7",
"aP c #F1F0ED",
"aQ c #DCD9D5",
"aR c #DDD9D6",
"aS c #DEDAD6",
"aT c #DDDAD6",
"aU c #DCD8D5",
"aV c #F0EEEC",
"aW c #EFEEEB",
"aX c #DCD9D6",
"aY c #D8D5D1",
"aZ c #DBD8D4",
"a0 c #D4D0CB",
"a1 c #E2DFDB",
"a2 c #CCCCCC",
"a3 c #666666",
"a4 c #2B3132",
"a5 c #636363",
"a6 c #E2DEDB",
"a7 c #D0CCC7",
"a8 c #EEECEB",
"a9 c #CFC9C5",
"a_ c #F3F2F0",
"a? c #D9D5D2",
"a= c #CDC8C3",
"a) c #F7F7F5",
"a( c #F6F6F5",
"a/ c #F6F6F4",
"a& c #F5F5F4",
"a% c #F2F1EF",
"a+ c #585858",
"a^ c #5C5C5C",
"a! c #D8D4D1",
"ba c #EDEBE9",
"bb c #888888",
"bc c #D0CBC6",
"bd c #E1DEDA",
"be c #595959",
"bf c #5A5A5A",
"bg c #D3CFCA",
"bh c #DAD6D2",
"bi c #D5D1CC",
"bj c #D9D6D2",
"bk c #D6D3CF",
"bl c #ECEBE8",
"bm c #DAD7D3",
"bn c #DCD8D4",
"bo c #D6D1CC",
"bp c #DBD7D4",
"bq c #D5D1CE",
"br c #D5D0CB",
"bs c #E6E3E0",
"bt c #E5E3E0",
"bu c #D6D2CF",
"bv c #DBD7D3",
"bw c #D8D4D0",
"bx c #EDECE9",
"by c #D8D3D0",
"bz c #D6D2CE",
"bA c #E9E8E5",
"bB c #D5D2CE",
"bC c #C4BEB7",
"bD c #C4BEB8",
"bE c #CAC5BE",
"bF c #CBC5BE",
"bG c #E9E7E4",
"bH c #E8E7E4",
"bI c #D4D0CE",
"bJ c #D9D5D1",
"bK c #D3CFCC",
"bL c #D4D0CC",
"bM c #C8C2BC",
"bN c #C8C2BB",
"bO c #D8D5D0",
"bP c #F4F3F2",
"bQ c #D8D4CF",
"bR c #D7D3CF",
"bS c #CFCAC7",
"bT c #CAC5BF",
"bU c #C6BFB9",
"bV c #C3BCB6",
"bW c #C0B9B2",
"bX c #D2CFCB",
"bY c #BFB8B1",
"aaaaaaaaaaaaaaaaaaaaaaaaaaaaaaaaaaaaaaaaaaaaaaaaaaaaaaaaaaaa",
"abababababababababababababababababababababababababababababab",
"acacacacacacacacacacacacacacacacacacacacacacacacacacacacacac",
"adadadadadadadadadadadadadadadadadadadadadadadadadadadadadad",
"aeaeaeaeaeaeaeaeaeafafafagagagagagagafafafaeaeaeaeaeaeaeaeae",
"aeaeaeaeaeaeaeafafagahaiajakalalakajaiahagafafaeaeaeaeaeaeae",
"aeaeaeaeaeafafagamanaoapaqarasasaraqapaoatamagafafaeaeaeaeae",
"auauauauavamawaxaiaqayazaAaBaCaCaBaAazayaDaiaEamamavauauauau",
"aFaFaFaGaHaHaIaJaKaAaCaCaCaCaCaCaCaCaCaCaAaKaJaIaHaHaGaFaFaF",
"afafagaLaLaIaMaNaCaCaCaCaCaCaCaCaCaCaCaCaCaCaNaMaIaLaLagafaf",
"afagaLaLaOaPaAaCaCaCaCaCaCaCaCaCaCaCaCaCaCaCaCaAaPaIaLaLagaf",
"avamaQaxaJaAaCaCaCaCaCaCaCaCaCaCaCaCaCaCaCaCaCaCaAaJaEaQamav",
"aHaRaSaiaNaCaCaCaCaCaCaCaCaCaCaCaCaCaCaCaCaCaCaCaCaNaiaTaRaH",
"aHaUataVaCaCaCaCaCaCaCaCaCaCaCaCaCaCaCaCaCaCaCaCaCaCaWataUaH",
"aXaYaoaAaCaCaCaCaCaCaCaCaCaCaCaCaCaCaCaCaCaCaCaCaCaCaAaoaYaX",
"aZa0a1aCaCaCaCaCaCaCaCaCa2a3a4a4a5a2aCaCaCaCaCaCaCaCaCa6a0aZ",
"aZa7a8aCaCaCaCaCaCaCaCa2a4a4a4a4a4a4a2aCaCaCaCaCaCaCaCa8aIaZ",
"aha9a_aCaCaCaCaCaCaCaCa3a4a4a4a4a4a4a3aCaCaCaCaCaCaCaCa_a9ah",
"a?a=a)aCaCaCaCaCaCaCaCa4a4a4a4a4a4a4a4aCaCaCaCaCaCaCaCa(ala?",
"aYala/aCaCaCaCaCaCaCaCa4a4a4a4a4a4a4a4aCaCaCaCaCaCaCaCa&alaY",
"aYa9a%aCaCaCaCaCaCaCaCa+a4a4a4a4a4a4a^aCaCaCaCaCaCaCaCa%a9aY",
"a!aIbaaCaCaCaCaCaCaCaCbba4a4a4a4a4a4bbaCaCaCaCaCaCaCaCbabca?",
"a?atbdaCaCaCaCaCaCaCaCaCbbbea4a4bfbbaCaCaCaCaCaCaCaCaCadbga?",
"bhbiaoaCaCaCaCaCaCaCaCaCaCaCaCaCaCaCaCaCaCaCaCaCaCaCaCaoaxbh",
"bjbkatblaCaCaCaCaCaCaCaCaCaCaCaCaCaCaCaCaCaCaCaCaCaCblatbkbj",
"bmaYbnboaCaCaCaCaCaCaCaCaCaCaCaCaCaCaCaCaCaCaCaCaCaCbobpaYbm",
"bpa?bqbrbsaCaCaCaCaCaCaCaCaCaCaCaCaCaCaCaCaCaCaCaCbtbibua?bp",
"bvbhbwbwaIbxaCaCaCaCaCaCaCaCaCaCaCaCaCaCaCaCaCaCbxaIbybwbhbv",
"bnbva?bza?bgbAaCaCaCaCaCaCaCaCaCaCaCaCaCaCaCaCbAana?bza?bvbn",
"aZbmbjaYbBbBbCauaCaCaCaCaCaCaCaCaCaCaCaCaCaCavbDbBbBaYbjbmaZ",
"bpbpaha?a!bqbqbEbFbGaCaCaCaCaCaCaCaCaCaCbHbEbEbIbqa!a?ahbpbp",
"bvbvbvbhbJbwaEbKbLbMbNbOaJa8bPbPa8aJbQbMbNaxbKaEbwbJbhbvbvbv",
"bvbvbvbvbhbJa!bRaEbKbSbTbUbVbWbWbVbUbTbSbKaEbRa!bJbhbvbvbvbv",
"bvbvbvbvbvbhbhbJbwbRaEbLbKbXbXbXbXbKbLaEbRbwbJbhbhbvbvbvbvbv",
"bmbmbmbmbmbmbmbmbmbmbmbmbmbmbmbmbmbmbmbmbmbmbmbmbmbmbmbmbmbm",
"bhbhbhbhbhbhbhbhbhbhbhbhbhbhbhbhbhbhbhbhbhbhbhbhbhbhbhbhbhbh",
"bhbhbhbhbhbhbhbhbhbhbhbhbhbhbhbhbhbhbhbhbhbhbhbhbhbhbhbhbhbh",
"bYbYbYbYbYbYbYbYbYbYbYbYbYbYbYbYbYbYbYbYbYbYbYbYbYbYbYbYbYbY"};