/* XPM */
static char *stick_inactive_xpm[] = {
"30 38 8 1",
"a c #000000",
"b c #FDFDFD",
"c c #F6F5F4",
"d c #EDEDED",
"e c #888888",
"f c #949696",
"g c #CDCDCD",
"h c #D5D0CC",
"aaaaaaaaaaaaaaaaaaaaaaaaaaaaaa",
"bbbbbbbbbbbbbbbbbbbbbbbbbbbbbb",
"cccccccccccccccccccccccccccccc",
"cccccccccccccccccccccccccccccc",
"cccccccccccccccccccccccccccccc",
"cccccccccccccccccccccccccccccc",
"cccccccccccccccccccccccccccccc",
"cccccccccccccccccccccccccccccc",
"cccccccccccccccccccccccccccccc",
"cccccccccccccccccccccccccccccc",
"cccccccccccccccccccccccccccccc",
"cccccccccccccccccccccccccccccc",
"cccccccccccccccccccccccccccccc",
"cccccccccccccccccccccccccccccc",
"cccccccccccccccccccccccccccccc",
"ccccccccccccdeffedcccccccccccc",
"cccccccccccdffffffdccccccccccc",
"ccccccccccceffffffeccccccccccc",
"cccccccccccffffffffccccccccccc",
"cccccccccccffffffffccccccccccc",
"ccccccccccceffffffeccccccccccc",
"cccccccccccgffffffgccccccccccc",
"ccccccccccccgeffegcccccccccccc",
"cccccccccccccccccccccccccccccc",
"cccccccccccccccccccccccccccccc",
"cccccccccccccccccccccccccccccc",
"cccccccccccccccccccccccccccccc",
"cccccccccccccccccccccccccccccc",
"cccccccccccccccccccccccccccccc",
"cccccccccccccccccccccccccccccc",
"cccccccccccccccccccccccccccccc",
"cccccccccccccccccccccccccccccc",
"cccccccccccccccccccccccccccccc",
"cccccccccccccccccccccccccccccc",
"cccccccccccccccccccccccccccccc",
"cccccccccccccccccccccccccccccc",
"cccccccccccccccccccccccccccccc",
"hhhhhhhhhhhhhhhhhhhhhhhhhhhhhh"};