/* XPM */
static char *top_left_active_xpm[] = {
"9 38 44 1",
"a c None",
"b c #000000",
"c c #272626",
"d c #A7A5A5",
"e c #E6E5E4",
"f c #F5F4F4",
"g c #030303",
"h c #ACABAA",
"i c #F3F3F2",
"j c #ECEAE8",
"k c #E5E2E0",
"l c #E2DFDC",
"m c #040404",
"n c #D1CFCF",
"o c #EBE8E6",
"p c #E1DDDA",
"q c #A9A8A6",
"r c #E7E4E2",
"s c #E0DDDA",
"t c #262525",
"u c #E8E6E4",
"v c #959391",
"w c #C4C2C0",
"x c #E0DDD9",
"y c #D8D5D2",
"z c #E0DCD9",
"A c #DFDCD9",
"B c #DFDCD8",
"C c #DFDBD8",
"D c #DEDBD8",
"E c #DEDBD7",
"F c #DEDAD7",
"G c #DDDAD6",
"H c #DDD9D6",
"I c #DDD9D5",
"J c #DCD9D5",
"K c #DCD8D5",
"L c #DCD8D4",
"M c #DBD8D4",
"N c #DBD7D4",
"O c #DBD7D3",
"P c #DAD7D3",
"Q c #DAD6D2",
"R c #BFB8B1",
"aaaaaabbb",
"aaaabcdef",
"aaaghijkl",
"aamnopppp",
"abqrsssss",
"atussssss",
"bvsssssss",
"bwxxxxxxx",
"byzzzzzzz",
"bsAAAAAAA",
"bAAAAAAAA",
"bBBBBBBBB",
"bCCCCCCCC",
"bCCCCCCCC",
"bDDDDDDDD",
"bEEEEEEEE",
"bEEEEEEEE",
"bFFFFFFFF",
"bFFFFFFFF",
"bGGGGGGGG",
"bGGGGGGGG",
"bHHHHHHHH",
"bHHHHHHHH",
"bIIIIIIII",
"bJJJJJJJJ",
"bJJJJJJJJ",
"bKKKKKKKK",
"bLLLLLLLL",
"bLLLLLLLL",
"bMMMMMMMM",
"bNNNNNNNN",
"bOOOOOOOO",
"bOOOOOOOO",
"bOOOOOOOO",
"bPPPPPPPP",
"bQQQQQQQQ",
"bQQQQQQQQ",
"bRRRRRRRR"};