/* XPM */
static char *top_right_active_xpm[] = {
"9 38 44 1",
"a c #000000",
"b c None",
"c c #F5F4F4",
"d c #E6E5E4",
"e c #A7A5A5",
"f c #272626",
"g c #E2DFDC",
"h c #E5E2E0",
"i c #ECEAE8",
"j c #F3F3F2",
"k c #ACABAA",
"l c #030303",
"m c #E1DDDA",
"n c #EBE8E6",
"o c #D1CFCF",
"p c #040404",
"q c #E0DDDA",
"r c #E7E4E2",
"s c #A9A8A6",
"t c #E8E6E4",
"u c #262525",
"v c #959391",
"w c #E0DDD9",
"x c #C4C2C0",
"y c #E0DCD9",
"z c #D8D5D2",
"A c #DFDCD9",
"B c #DFDCD8",
"C c #DFDBD8",
"D c #DEDBD8",
"E c #DEDBD7",
"F c #DEDAD7",
"G c #DDDAD6",
"H c #DDD9D6",
"I c #DDD9D5",
"J c #DCD9D5",
"K c #DCD8D5",
"L c #DCD8D4",
"M c #DBD8D4",
"N c #DBD7D4",
"O c #DBD7D3",
"P c #DAD7D3",
"Q c #DAD6D2",
"R c #BFB8B1",
"aaabbbbbb",
"cdefabbbb",
"ghijklbbb",
"mmmmnopbb",
"qqqqqrsab",
"qqqqqqtub",
"qqqqqqqva",
"wwwwwwwxa",
"yyyyyyyza",
"AAAAAAAqa",
"AAAAAAAAa",
"BBBBBBBBa",
"CCCCCCCCa",
"CCCCCCCCa",
"DDDDDDDDa",
"EEEEEEEEa",
"EEEEEEEEa",
"FFFFFFFFa",
"FFFFFFFFa",
"GGGGGGGGa",
"GGGGGGGGa",
"HHHHHHHHa",
"HHHHHHHHa",
"IIIIIIIIa",
"JJJJJJJJa",
"JJJJJJJJa",
"KKKKKKKKa",
"LLLLLLLLa",
"LLLLLLLLa",
"MMMMMMMMa",
"NNNNNNNNa",
"OOOOOOOOa",
"OOOOOOOOa",
"OOOOOOOOa",
"PPPPPPPPa",
"QQQQQQQQa",
"QQQQQQQQa",
"RRRRRRRRa"};