/* XPM */
static char *top_right_inactive_xpm[] = {
"9 38 23 1",
"a c #000000",
"b c None",
"c c #F7F7F7",
"d c #E1E1E1",
"e c #949494",
"f c #1D1D1D",
"g c #F6F5F4",
"h c #F7F6F5",
"i c #F9F9F8",
"j c #FAF9F9",
"k c #9A9A9A",
"l c #020202",
"m c #F9F8F8",
"n c #C6C6C6",
"o c #030303",
"p c #F8F7F6",
"q c #969696",
"r c #F5F4F4",
"s c #1D1C1C",
"t c #7F7E7E",
"u c #BBBAB9",
"v c #E0E0DF",
"w c #D5D0CC",
"aaabbbbbb",
"cdefabbbb",
"ghijklbbb",
"ggggmnobb",
"gggggpqab",
"ggggggrsb",
"gggggggta",
"gggggggua",
"gggggggva",
"gggggggga",
"gggggggga",
"gggggggga",
"gggggggga",
"gggggggga",
"gggggggga",
"gggggggga",
"gggggggga",
"gggggggga",
"gggggggga",
"gggggggga",
"gggggggga",
"gggggggga",
"gggggggga",
"gggggggga",
"gggggggga",
"gggggggga",
"gggggggga",
"gggggggga",
"gggggggga",
"gggggggga",
"gggggggga",
"gggggggga",
"gggggggga",
"gggggggga",
"gggggggga",
"gggggggga",
"gggggggga",
"wwwwwwwwa"};