/* XPM */
static char *top_left_inactive_xpm[] = {
"9 38 23 1",
"a c None",
"b c #000000",
"c c #1D1D1D",
"d c #949494",
"e c #E1E1E1",
"f c #F7F7F7",
"g c #020202",
"h c #9A9A9A",
"i c #FAF9F9",
"j c #F9F9F8",
"k c #F7F6F5",
"l c #F6F5F4",
"m c #030303",
"n c #C6C6C6",
"o c #F9F8F8",
"p c #969696",
"q c #F8F7F6",
"r c #1D1C1C",
"s c #F5F4F4",
"t c #7F7E7E",
"u c #BBBAB9",
"v c #E0E0DF",
"w c #D5D0CC",
"aaaaaabbb",
"aaaabcdef",
"aaaghijkl",
"aamnollll",
"abpqlllll",
"arsllllll",
"btlllllll",
"bulllllll",
"bvlllllll",
"bllllllll",
"bllllllll",
"bllllllll",
"bllllllll",
"bllllllll",
"bllllllll",
"bllllllll",
"bllllllll",
"bllllllll",
"bllllllll",
"bllllllll",
"bllllllll",
"bllllllll",
"bllllllll",
"bllllllll",
"bllllllll",
"bllllllll",
"bllllllll",
"bllllllll",
"bllllllll",
"bllllllll",
"bllllllll",
"bllllllll",
"bllllllll",
"bllllllll",
"bllllllll",
"bllllllll",
"bllllllll",
"bwwwwwwww"};