/* XPM */
static char *close_prelight_xpm[] = {
"30 38 62 1",
"a c #161616",
"b c #383838",
"c c #2B2B2B",
"d c #2A2A2A",
"e c #272727",
"f c #232323",
"g c #1F1F1F",
"h c #1D1D1D",
"i c #1C1C1C",
"j c #282828",
"k c #202020",
"l c #292929",
"m c #323232",
"n c #353535",
"o c #393939",
"p c #3A3A3A",
"q c #373737",
"r c #313131",
"s c #212121",
"t c #2C2C2C",
"u c #1E1E1E",
"v c #2D2D2D",
"w c #252525",
"x c #0F0F0F",
"y c #0E0E0E",
"z c #262626",
"A c #0D0D0D",
"B c #222222",
"C c #BBBBB9",
"D c #BFBFBE",
"E c #212120",
"F c #C0C0BF",
"G c #B9B9B7",
"H c #303030",
"I c #C5C5C4",
"J c #EEEEEC",
"K c #C6C6C4",
"L c #C7C7C5",
"M c #343434",
"N c #3A3A39",
"O c #CCCCCA",
"P c #363636",
"Q c #373736",
"R c #CBCBC9",
"S c #1F1F1E",
"T c #C5C5C3",
"U c #CACAC8",
"V c #333333",
"W c #C2C2C1",
"X c #C1C1C0",
"Y c #2F2F2F",
"Z c #BFBFBD",
"0 c #C6C6C5",
"1 c #BEBEBD",
"2 c #242424",
"3 c #1A1A1A",
"4 c #0B0B0B",
"5 c #111111",
"6 c #101010",
"7 c #0C0C0C",
"8 c #090909",
"9 c #070707",
"aaaaaaaaaaaaaaaaaaaaaaaaaaaaaa",
"bbbbbbbbbbbbbbbbbbbbbbbbbbbbbb",
"cccccccccccccccccccccccccccccc",
"cccccccccccccccccccccccccccccc",
"cccccccccccccccccccccccccccccc",
"ddddddddddefghiihgfedddddddddd",
"ddddddddjgklmnoonmlkkjdddddddd",
"dddddddkkmpobbqqbboprssldddddd",
"dddddlhtpbqqqqqqqqqqbpthlddddd",
"ddddlumoqqqqqqqqqqqqqqomuldddd",
"dddlhrbqqqqqqqqqqqqqqqqbrhjddd",
"dddktbqqqqqqqqqqqqqqqqqqbvsddd",
"llekoqqqqqqqqqqqqqqqqqqqqosell",
"ljgrqqqqqqqqqqqqqqqqqqqqqqrkjl",
"lwkbqqqqqqqxyzqqzAxqqqqqqqbkwl",
"lBlqqqqqqqqCDEzzsFGqqqqqqqqlBl",
"juHqqqqqqqqIJKEELJIqqqqqqqqHgj",
"jhMqqqqqqqqNOJKKJONqqqqqqqqMhj",
"jiPqqqqqqqqqQKJJRbqqqqqqqqqPij",
"eiPqqqqqqqqwSTJJUBwqqqqqqqqnie",
"ehVqqqqqqqqELJRRJLEqqqqqqqqVhe",
"euHqqqqqqqqWJONNRJXqqqqqqqqYge",
"esjqqqqqqqqZ0oqqN01qqqqqqqqjse",
"e2kqqqqqqqqqqqqqqqqqqqqqqqqkwe",
"jegYqqqqqqqqqqqqqqqqqqqqqqYgej",
"jeekqqqqqqqqqqqqqqqqqqqqqqseej",
"ezzkcqqqqqqqqqqqqqqqqqqqqckzze",
"eezzhHqqqqqqqqqqqqqqqqqqHhzzee",
"eeezz3cqqqqqqqqqqqqqqqqc3ezeee",
"eeezzB4fqqqqqqqqqqqqqqB4Bzzeee",
"eeeezz255dqqqqqqqqqqd562zzeeee",
"eeeeezzzgyyijvmmvjiyygzzzeeeee",
"eeeeeeezzzkax7887xakzzzeeeeeee",
"zzzzzzzzwwwwwwwwwwwwwwzzzzzzzz",
"zzzzzzzzzzzwwwwwwwwzzzzzzzzzzz",
"zzzzzzzzzzzzzzzzzzzzzzzzzzzzzz",
"zzzzzzzzzzzzzzzzzzzzzzzzzzzzzz",
"999999999999999999999999999999"};