/* XPM */
static char *close_inactive_xpm[] = {
"30 38 16 1",
"a c #161616",
"b c #414141",
"c c #353535",
"d c #7C7C7B",
"e c #7F7F7E",
"f c #3D3D3C",
"g c #3D3D3D",
"h c #7B7B7A",
"i c #919190",
"j c #818180",
"k c #828281",
"l c #7E7E7E",
"m c #808080",
"n c #3E3E3E",
"o c #7B7B7B",
"p c #202020",
"aaaaaaaaaaaaaaaaaaaaaaaaaaaaaa",
"bbbbbbbbbbbbbbbbbbbbbbbbbbbbbb",
"cccccccccccccccccccccccccccccc",
"cccccccccccccccccccccccccccccc",
"cccccccccccccccccccccccccccccc",
"cccccccccccccccccccccccccccccc",
"cccccccccccccccccccccccccccccc",
"cccccccccccccccccccccccccccccc",
"cccccccccccccccccccccccccccccc",
"cccccccccccccccccccccccccccccc",
"cccccccccccccccccccccccccccccc",
"cccccccccccccccccccccccccccccc",
"cccccccccccccccccccccccccccccc",
"cccccccccccccccccccccccccccccc",
"cccccccccccccccccccccccccccccc",
"cccccccccccdefccgehccccccccccc",
"ccccccccccceijffkilccccccccccc",
"cccccccccccfkijjijfccccccccccc",
"ccccccccccccgmiikncccccccccccc",
"ccccccccccccgmiikncccccccccccc",
"cccccccccccfkijjikfccccccccccc",
"ccccccccccceikffjieccccccccccc",
"ccccccccccchegccfeoccccccccccc",
"cccccccccccccccccccccccccccccc",
"cccccccccccccccccccccccccccccc",
"cccccccccccccccccccccccccccccc",
"cccccccccccccccccccccccccccccc",
"cccccccccccccccccccccccccccccc",
"cccccccccccccccccccccccccccccc",
"cccccccccccccccccccccccccccccc",
"cccccccccccccccccccccccccccccc",
"cccccccccccccccccccccccccccccc",
"cccccccccccccccccccccccccccccc",
"cccccccccccccccccccccccccccccc",
"cccccccccccccccccccccccccccccc",
"cccccccccccccccccccccccccccccc",
"cccccccccccccccccccccccccccccc",
"pppppppppppppppppppppppppppppp"};