/* XPM */
static char *hide_pressed_xpm[] = {
"30 38 21 1",
"a c #161616",
"b c #383838",
"c c #2B2B2B",
"d c #2A2A2A",
"e c #272727",
"f c #232323",
"g c #1F1F1F",
"h c #1E1E1E",
"i c #1C1C1C",
"j c #1B1B1B",
"k c #1D1D1D",
"l c #242424",
"m c #252525",
"n c #292929",
"o c #222222",
"p c #262626",
"q c #282828",
"r c #090909",
"s c #EEEEEC",
"t c #212121",
"u c #070707",
"aaaaaaaaaaaaaaaaaaaaaaaaaaaaaa",
"bbbbbbbbbbbbbbbbbbbbbbbbbbbbbb",
"cccccccccccccccccccccccccccccc",
"cccccccccccccccccccccccccccccc",
"cccccccccccccccccccccccccccccc",
"ddddddddddefghiihgfedddddddddd",
"ddddddddfijikkhhkkkjildddddddd",
"ddddddeiikhhhhhhhhhhkiiedddddd",
"dddddmjihhhhhhhhhhhhhhkjlddddd",
"ddddljkhhhhhhhhhhhhhhhhkjldddd",
"dddejkhhhhhhhhhhhhhhhhhhkjeddd",
"dddikhhhhhhhhhhhhhhhhhhhhkkddd",
"nnoihhhhhhhhhhhhhhhhhhhhhhifnn",
"nnikhhhhhhhhhhhhhhhhhhhhhhkinn",
"npihhhhhhhhhhhhhhhhhhhhhhhhjpn",
"nokhhhhhhhhhhhhhhhhhhhhhhhhkon",
"qhkhhhhhhhhhhhhhhhhhhhhhhhhkgq",
"qkhhhhhhhhhhhhhhhhhhhhhhhhhkkq",
"qikhhhhhhhhhhhhhhhhhhhhhhhhkiq",
"eikhhhhhhhhhhhhhhhhhhhhhhhhkie",
"ekhhhhhhhhhrrrrrrrrhhhhhhhhkke",
"ehkhhhhhhhhsssssssshhhhhhhhkge",
"eokhhhhhhhhsssssssshhhhhhhhkte",
"emihhhhhhhhhhhhhhhhhhhhhhhhjme",
"qqikhhhhhhhhhhhhhhhhhhhhhhkiqq",
"qqoihhhhhhhhhhhhhhhhhhhhhhitqq",
"eeeikhhhhhhhhhhhhhhhhhhhhkkeee",
"eeeljkhhhhhhhhhhhhhhhhhhkjmeee",
"eeeeojkhhhhhhhhhhhhhhhhkjoeeee",
"eeeeeojkhhhhhhhhhhhhhhkjoeeeee",
"eeeeeeliikhhhhhhhhhhhikmeeeeee",
"eeeeeeeeoijkkkhkkkkjjoeeeeeeee",
"eeeeeeeeeemthkiikhtmeeeeeeeeee",
"ppppppppmmmmmmmmmmmmmmpppppppp",
"pppppppppppmmmmmmmmppppppppppp",
"pppppppppppppppppppppppppppppp",
"pppppppppppppppppppppppppppppp",
"uuuuuuuuuuuuuuuuuuuuuuuuuuuuuu"};