/* XPM */
static char *maximize_toggled_pressed_xpm[] = {
"30 38 27 1",
"a c #161616",
"b c #383838",
"c c #2B2B2B",
"d c #2A2A2A",
"e c #272727",
"f c #232323",
"g c #1F1F1F",
"h c #1E1E1E",
"i c #1C1C1C",
"j c #1B1B1B",
"k c #1D1D1D",
"l c #242424",
"m c #252525",
"n c #292929",
"o c #222222",
"p c #262626",
"q c #0F0F0F",
"r c #070707",
"s c #B9B9B8",
"t c #EEEEEC",
"u c #B9B9B7",
"v c #282828",
"w c #373737",
"x c #181818",
"y c #C0C0BE",
"z c #BFBFBD",
"A c #212121",
"aaaaaaaaaaaaaaaaaaaaaaaaaaaaaa",
"bbbbbbbbbbbbbbbbbbbbbbbbbbbbbb",
"cccccccccccccccccccccccccccccc",
"cccccccccccccccccccccccccccccc",
"cccccccccccccccccccccccccccccc",
"ddddddddddefghiihgfedddddddddd",
"ddddddddfijikkhhkkkjildddddddd",
"ddddddeiikhhhhhhhhhhkiiedddddd",
"dddddmjihhhhhhhhhhhhhhkjlddddd",
"ddddljkhhhhhhhhhhhhhhhhkjldddd",
"dddejkhhhhhhhhhhhhhhhhhhkjeddd",
"dddikhhhhhhhhhhhhhhhhhhhhkkddd",
"nnoihhhhhhhhhhhhhhhhhhhhhhifnn",
"nnikhhhhhhhhhhhhhhhhhhhhhhkinn",
"npihhhhhhhhqrrrrrrqhhhhhhhhjpn",
"nokhhhhhhhhsttttttuhhhhhhhhkon",
"vhkhhhhhhhhtttttttthhhhhhhhkgv",
"vkhhhhhhhhhtttttttthhhhhhhhkkv",
"vikhhhhhhhhttwnnbtthhhhhhhhkiv",
"eikhhhhhhhhttpvvptthhhhhhhhkie",
"ekhhhhhhhhhttxrrxtthhhhhhhhkke",
"ehkhhhhhhhhtttttttthhhhhhhhkge",
"eokhhhhhhhhyttttttzhhhhhhhhkAe",
"emihhhhhhhhhhhhhhhhhhhhhhhhjme",
"vvikhhhhhhhhhhhhhhhhhhhhhhkivv",
"vvoihhhhhhhhhhhhhhhhhhhhhhiAvv",
"eeeikhhhhhhhhhhhhhhhhhhhhkkeee",
"eeeljkhhhhhhhhhhhhhhhhhhkjmeee",
"eeeeojkhhhhhhhhhhhhhhhhkjoeeee",
"eeeeeojkhhhhhhhhhhhhhhkjoeeeee",
"eeeeeeliikhhhhhhhhhhhikmeeeeee",
"eeeeeeeeoijkkkhkkkkjjoeeeeeeee",
"eeeeeeeeeemAhkiikhAmeeeeeeeeee",
"ppppppppmmmmmmmmmmmmmmpppppppp",
"pppppppppppmmmmmmmmppppppppppp",
"pppppppppppppppppppppppppppppp",
"pppppppppppppppppppppppppppppp",
"rrrrrrrrrrrrrrrrrrrrrrrrrrrrrr"};