/* XPM */
static char *stick_pressed_xpm[] = {
"30 38 39 1",
"a c #161616",
"b c #383838",
"c c #2B2B2B",
"d c #2A2A2A",
"e c #272727",
"f c #232323",
"g c #1F1F1F",
"h c #1E1E1E",
"i c #1C1C1C",
"j c #1B1B1B",
"k c #1D1D1D",
"l c #242424",
"m c #252525",
"n c #292929",
"o c #222222",
"p c #262626",
"q c #2F2F2F",
"r c #171717",
"s c #0B0B0B",
"t c #2D2D2D",
"u c #999999",
"v c #D4D4D4",
"w c #9C9C9C",
"x c #282828",
"y c #D0D0D0",
"z c #DFDFDF",
"A c #D1D1D1",
"B c #D5D5D5",
"C c #D3D3D3",
"D c #A7A7A7",
"E c #A3A3A3",
"F c #4D4D4D",
"G c #454545",
"H c #464646",
"I c #A6A6A6",
"J c #D6D6D6",
"K c #A5A5A5",
"L c #212121",
"M c #070707",
"aaaaaaaaaaaaaaaaaaaaaaaaaaaaaa",
"bbbbbbbbbbbbbbbbbbbbbbbbbbbbbb",
"cccccccccccccccccccccccccccccc",
"cccccccccccccccccccccccccccccc",
"cccccccccccccccccccccccccccccc",
"ddddddddddefghiihgfedddddddddd",
"ddddddddfijikkhhkkkjildddddddd",
"ddddddeiikhhhhhhhhhhkiiedddddd",
"dddddmjihhhhhhhhhhhhhhkjlddddd",
"ddddljkhhhhhhhhhhhhhhhhkjldddd",
"dddejkhhhhhhhhhhhhhhhhhhkjeddd",
"dddikhhhhhhhhhhhhhhhhhhhhkkddd",
"nnoihhhhhhhhhhhhhhhhhhhhhhifnn",
"nnikhhhhhhhhhhhhhhhhhhhhhhkinn",
"npihhhhhhhhhqrssathhhhhhhhhjpn",
"nokhhhhhhhhqluvvwcqhhhhhhhhkon",
"xhkhhhhhhhhtyzzzzAthhhhhhhhkgx",
"xkhhhhhhhhhuzzzzzzuhhhhhhhhkkx",
"xikhhhhhhhhvzzzzzzvhhhhhhhhkix",
"eikhhhhhhhhBzzzzzzChhhhhhhhkie",
"ekhhhhhhhhhDzzzzzzEhhhhhhhhkke",
"ehkhhhhhhhhFCzzzzAGhhhhhhhhkge",
"eokhhhhhhhhhHIJJKGhhhhhhhhhkLe",
"emihhhhhhhhhhhhhhhhhhhhhhhhjme",
"xxikhhhhhhhhhhhhhhhhhhhhhhkixx",
"xxoihhhhhhhhhhhhhhhhhhhhhhiLxx",
"eeeikhhhhhhhhhhhhhhhhhhhhkkeee",
"eeeljkhhhhhhhhhhhhhhhhhhkjmeee",
"eeeeojkhhhhhhhhhhhhhhhhkjoeeee",
"eeeeeojkhhhhhhhhhhhhhhkjoeeeee",
"eeeeeeliikhhhhhhhhhhhikmeeeeee",
"eeeeeeeeoijkkkhkkkkjjoeeeeeeee",
"eeeeeeeeeemLhkiikhLmeeeeeeeeee",
"ppppppppmmmmmmmmmmmmmmpppppppp",
"pppppppppppmmmmmmmmppppppppppp",
"pppppppppppppppppppppppppppppp",
"pppppppppppppppppppppppppppppp",
"MMMMMMMMMMMMMMMMMMMMMMMMMMMMMM"};