/* XPM */
static char *close_active_xpm[] = {
"30 38 37 1",
"a c #161616",
"b c #383838",
"c c #2B2B2B",
"d c #2A2A2A",
"e c #292929",
"f c #0F0F0F",
"g c #0E0E0E",
"h c #262626",
"i c #0D0D0D",
"j c #BBBBB9",
"k c #BFBFBE",
"l c #212120",
"m c #212121",
"n c #C0C0BF",
"o c #B9B9B7",
"p c #C5C5C4",
"q c #EEEEEC",
"r c #C6C6C4",
"s c #C7C7C5",
"t c #3A3A39",
"u c #CCCCCA",
"v c #373736",
"w c #CBCBC9",
"x c #282828",
"y c #252525",
"z c #1F1F1E",
"A c #C5C5C3",
"B c #CACAC8",
"C c #222222",
"D c #C2C2C1",
"E c #C1C1C0",
"F c #BFBFBD",
"G c #C6C6C5",
"H c #393939",
"I c #BEBEBD",
"J c #272727",
"K c #070707",
"aaaaaaaaaaaaaaaaaaaaaaaaaaaaaa",
"bbbbbbbbbbbbbbbbbbbbbbbbbbbbbb",
"cccccccccccccccccccccccccccccc",
"cccccccccccccccccccccccccccccc",
"cccccccccccccccccccccccccccccc",
"dddddddddddddddddddddddddddddd",
"dddddddddddddddddddddddddddddd",
"dddddddddddddddddddddddddddddd",
"dddddddddddddddddddddddddddddd",
"dddddddddddddddddddddddddddddd",
"dddddddddddddddddddddddddddddd",
"dddddddddddddddddddddddddddddd",
"eeeeeeeeeeeeeeeeeeeeeeeeeeeeee",
"eeeeeeeeeeeeeeeeeeeeeeeeeeeeee",
"eeeeeeeeeeefgheehifeeeeeeeeeee",
"eeeeeeeeeeejklhhmnoeeeeeeeeeee",
"eeeeeeeeeeepqrllsqpeeeeeeeeeee",
"eeeeeeeeeeetuqrrquteeeeeeeeeee",
"eeeeeeeeeeeevrqqwbeeeeeeeeeeee",
"xxxxxxxxxxxyzAqqBCyxxxxxxxxxxx",
"xxxxxxxxxxxlsqwwqslxxxxxxxxxxx",
"xxxxxxxxxxxDquttwqExxxxxxxxxxx",
"xxxxxxxxxxxFGHxxtGIxxxxxxxxxxx",
"xxxxxxxxxxxxxxxxxxxxxxxxxxxxxx",
"xxxxxxxxxxxxxxxxxxxxxxxxxxxxxx",
"xxxxxxxxxxxxxxxxxxxxxxxxxxxxxx",
"JJJJJJJJJJJJJJJJJJJJJJJJJJJJJJ",
"JJJJJJJJJJJJJJJJJJJJJJJJJJJJJJ",
"JJJJJJJJJJJJJJJJJJJJJJJJJJJJJJ",
"JJJJJJJJJJJJJJJJJJJJJJJJJJJJJJ",
"JJJJJJJJJJJJJJJJJJJJJJJJJJJJJJ",
"JJJJJJJJJJJJJJJJJJJJJJJJJJJJJJ",
"JJJJJJJJJJJJJJJJJJJJJJJJJJJJJJ",
"hhhhhhhhhhhhhhhhhhhhhhhhhhhhhh",
"hhhhhhhhhhhhhhhhhhhhhhhhhhhhhh",
"hhhhhhhhhhhhhhhhhhhhhhhhhhhhhh",
"hhhhhhhhhhhhhhhhhhhhhhhhhhhhhh",
"KKKKKKKKKKKKKKKKKKKKKKKKKKKKKK"};
