/* XPM */
static char *close_pressed_xpm[] = {
"30 38 44 1",
"a c #161616",
"b c #383838",
"c c #2B2B2B",
"d c #2A2A2A",
"e c #272727",
"f c #232323",
"g c #1F1F1F",
"h c #1E1E1E",
"i c #1C1C1C",
"j c #1B1B1B",
"k c #1D1D1D",
"l c #242424",
"m c #252525",
"n c #292929",
"o c #222222",
"p c #262626",
"q c #0F0F0F",
"r c #0E0E0E",
"s c #0D0D0D",
"t c #BBBBB9",
"u c #BFBFBE",
"v c #212120",
"w c #212121",
"x c #C0C0BF",
"y c #B9B9B7",
"z c #282828",
"A c #C5C5C4",
"B c #EEEEEC",
"C c #C6C6C4",
"D c #C7C7C5",
"E c #3A3A39",
"F c #CCCCCA",
"G c #373736",
"H c #CBCBC9",
"I c #1F1F1E",
"J c #C5C5C3",
"K c #CACAC8",
"L c #C2C2C1",
"M c #C1C1C0",
"N c #BFBFBD",
"O c #C6C6C5",
"P c #393939",
"Q c #BEBEBD",
"R c #070707",
"aaaaaaaaaaaaaaaaaaaaaaaaaaaaaa",
"bbbbbbbbbbbbbbbbbbbbbbbbbbbbbb",
"cccccccccccccccccccccccccccccc",
"cccccccccccccccccccccccccccccc",
"cccccccccccccccccccccccccccccc",
"ddddddddddefghiihgfedddddddddd",
"ddddddddfijikkhhkkkjildddddddd",
"ddddddeiikhhhhhhhhhhkiiedddddd",
"dddddmjihhhhhhhhhhhhhhkjlddddd",
"ddddljkhhhhhhhhhhhhhhhhkjldddd",
"dddejkhhhhhhhhhhhhhhhhhhkjeddd",
"dddikhhhhhhhhhhhhhhhhhhhhkkddd",
"nnoihhhhhhhhhhhhhhhhhhhhhhifnn",
"nnikhhhhhhhhhhhhhhhhhhhhhhkinn",
"npihhhhhhhhqrphhpsqhhhhhhhhjpn",
"nokhhhhhhhhtuvppwxyhhhhhhhhkon",
"zhkhhhhhhhhABCvvDBAhhhhhhhhkgz",
"zkhhhhhhhhhEFBCCBFEhhhhhhhhkkz",
"zikhhhhhhhhhGCBBHbhhhhhhhhhkiz",
"eikhhhhhhhhmIJBBKomhhhhhhhhkie",
"ekhhhhhhhhhvDBHHBDvhhhhhhhhkke",
"ehkhhhhhhhhLBFEEHBMhhhhhhhhkge",
"eokhhhhhhhhNOPhhEOQhhhhhhhhkwe",
"emihhhhhhhhhhhhhhhhhhhhhhhhjme",
"zzikhhhhhhhhhhhhhhhhhhhhhhkizz",
"zzoihhhhhhhhhhhhhhhhhhhhhhiwzz",
"eeeikhhhhhhhhhhhhhhhhhhhhkkeee",
"eeeljkhhhhhhhhhhhhhhhhhhkjmeee",
"eeeeojkhhhhhhhhhhhhhhhhkjoeeee",
"eeeeeojkhhhhhhhhhhhhhhkjoeeeee",
"eeeeeeliikhhhhhhhhhhhikmeeeeee",
"eeeeeeeeoijkkkhkkkkjjoeeeeeeee",
"eeeeeeeeeemwhkiikhwmeeeeeeeeee",
"ppppppppmmmmmmmmmmmmmmpppppppp",
"pppppppppppmmmmmmmmppppppppppp",
"pppppppppppppppppppppppppppppp",
"pppppppppppppppppppppppppppppp",
"RRRRRRRRRRRRRRRRRRRRRRRRRRRRRR"};
