/* XPM */
static char *hide_prelight_xpm[] = {
"30 38 41 1",
"a c #161616",
"b c #383838",
"c c #2B2B2B",
"d c #2A2A2A",
"e c #272727",
"f c #232323",
"g c #1F1F1F",
"h c #1D1D1D",
"i c #1C1C1C",
"j c #282828",
"k c #202020",
"l c #292929",
"m c #323232",
"n c #353535",
"o c #393939",
"p c #3A3A3A",
"q c #373737",
"r c #313131",
"s c #212121",
"t c #2C2C2C",
"u c #1E1E1E",
"v c #2D2D2D",
"w c #252525",
"x c #222222",
"y c #303030",
"z c #343434",
"A c #363636",
"B c #333333",
"C c #090909",
"D c #EEEEEC",
"E c #2F2F2F",
"F c #242424",
"G c #262626",
"H c #1A1A1A",
"I c #0B0B0B",
"J c #111111",
"K c #101010",
"L c #0E0E0E",
"M c #0F0F0F",
"N c #0C0C0C",
"O c #070707",
"aaaaaaaaaaaaaaaaaaaaaaaaaaaaaa",
"bbbbbbbbbbbbbbbbbbbbbbbbbbbbbb",
"cccccccccccccccccccccccccccccc",
"cccccccccccccccccccccccccccccc",
"cccccccccccccccccccccccccccccc",
"ddddddddddefghiihgfedddddddddd",
"ddddddddjgklmnoonmlkkjdddddddd",
"dddddddkkmpobbqqbboprssldddddd",
"dddddlhtpbqqqqqqqqqqbpthlddddd",
"ddddlumoqqqqqqqqqqqqqqomuldddd",
"dddlhrbqqqqqqqqqqqqqqqqbrhjddd",
"dddktbqqqqqqqqqqqqqqqqqqbvsddd",
"llekoqqqqqqqqqqqqqqqqqqqqosell",
"ljgrqqqqqqqqqqqqqqqqqqqqqqrkjl",
"lwkbqqqqqqqqqqqqqqqqqqqqqqbkwl",
"lxlqqqqqqqqqqqqqqqqqqqqqqqqlxl",
"juyqqqqqqqqqqqqqqqqqqqqqqqqygj",
"jhzqqqqqqqqqqqqqqqqqqqqqqqqzhj",
"jiAqqqqqqqqqqqqqqqqqqqqqqqqAij",
"eiAqqqqqqqqqqqqqqqqqqqqqqqqnie",
"ehBqqqqqqqqCCCCCCCCqqqqqqqqBhe",
"euyqqqqqqqqDDDDDDDDqqqqqqqqEge",
"esjqqqqqqqqDDDDDDDDqqqqqqqqjse",
"eFkqqqqqqqqqqqqqqqqqqqqqqqqkwe",
"jegEqqqqqqqqqqqqqqqqqqqqqqEgej",
"jeekqqqqqqqqqqqqqqqqqqqqqqseej",
"eGGkcqqqqqqqqqqqqqqqqqqqqckGGe",
"eeGGhyqqqqqqqqqqqqqqqqqqyhGGee",
"eeeGGHcqqqqqqqqqqqqqqqqcHeGeee",
"eeeGGxIfqqqqqqqqqqqqqqxIxGGeee",
"eeeeGGFJJdqqqqqqqqqqdJKFGGeeee",
"eeeeeGGGgLLijvmmvjiLLgGGGeeeee",
"eeeeeeeGGGkaMNCCNMakGGGeeeeeee",
"GGGGGGGGwwwwwwwwwwwwwwGGGGGGGG",
"GGGGGGGGGGGwwwwwwwwGGGGGGGGGGG",
"GGGGGGGGGGGGGGGGGGGGGGGGGGGGGG",
"GGGGGGGGGGGGGGGGGGGGGGGGGGGGGG",
"OOOOOOOOOOOOOOOOOOOOOOOOOOOOOO"};
