/* XPM */
static char *maximize_active_xpm[] = {
"30 38 17 1",
"a c #161616",
"b c #383838",
"c c #2B2B2B",
"d c #2A2A2A",
"e c #292929",
"f c #0F0F0F",
"g c #070707",
"h c #B9B9B8",
"i c #EEEEEC",
"j c #B9B9B7",
"k c #373737",
"l c #282828",
"m c #262626",
"n c #181818",
"o c #C0C0BE",
"p c #BFBFBD",
"q c #272727",
"aaaaaaaaaaaaaaaaaaaaaaaaaaaaaa",
"bbbbbbbbbbbbbbbbbbbbbbbbbbbbbb",
"cccccccccccccccccccccccccccccc",
"cccccccccccccccccccccccccccccc",
"cccccccccccccccccccccccccccccc",
"dddddddddddddddddddddddddddddd",
"dddddddddddddddddddddddddddddd",
"dddddddddddddddddddddddddddddd",
"dddddddddddddddddddddddddddddd",
"dddddddddddddddddddddddddddddd",
"dddddddddddddddddddddddddddddd",
"dddddddddddddddddddddddddddddd",
"eeeeeeeeeeeeeeeeeeeeeeeeeeeeee",
"eeeeeeeeeeeeeeeeeeeeeeeeeeeeee",
"eeeeeeeeeeefggggggfeeeeeeeeeee",
"eeeeeeeeeeehiiiiiijeeeeeeeeeee",
"eeeeeeeeeeeiiiiiiiieeeeeeeeeee",
"eeeeeeeeeeeiikeebiieeeeeeeeeee",
"eeeeeeeeeeeiieeeeiieeeeeeeeeee",
"llllllllllliimllmiilllllllllll",
"llllllllllliinggniilllllllllll",
"llllllllllliiiiiiiilllllllllll",
"llllllllllloiiiiiiplllllllllll",
"llllllllllllllllllllllllllllll",
"llllllllllllllllllllllllllllll",
"llllllllllllllllllllllllllllll",
"qqqqqqqqqqqqqqqqqqqqqqqqqqqqqq",
"qqqqqqqqqqqqqqqqqqqqqqqqqqqqqq",
"qqqqqqqqqqqqqqqqqqqqqqqqqqqqqq",
"qqqqqqqqqqqqqqqqqqqqqqqqqqqqqq",
"qqqqqqqqqqqqqqqqqqqqqqqqqqqqqq",
"qqqqqqqqqqqqqqqqqqqqqqqqqqqqqq",
"qqqqqqqqqqqqqqqqqqqqqqqqqqqqqq",
"mmmmmmmmmmmmmmmmmmmmmmmmmmmmmm",
"mmmmmmmmmmmmmmmmmmmmmmmmmmmmmm",
"mmmmmmmmmmmmmmmmmmmmmmmmmmmmmm",
"mmmmmmmmmmmmmmmmmmmmmmmmmmmmmm",
"gggggggggggggggggggggggggggggg"};
