/* XPM */
static char *maximize_toggled_prelight_xpm[] = {
"30 38 46 1",
"a c #161616",
"b c #383838",
"c c #2B2B2B",
"d c #2A2A2A",
"e c #272727",
"f c #232323",
"g c #1F1F1F",
"h c #1D1D1D",
"i c #1C1C1C",
"j c #282828",
"k c #202020",
"l c #292929",
"m c #323232",
"n c #353535",
"o c #393939",
"p c #3A3A3A",
"q c #373737",
"r c #313131",
"s c #212121",
"t c #2C2C2C",
"u c #1E1E1E",
"v c #2D2D2D",
"w c #252525",
"x c #0F0F0F",
"y c #070707",
"z c #222222",
"A c #B9B9B8",
"B c #EEEEEC",
"C c #B9B9B7",
"D c #303030",
"E c #343434",
"F c #363636",
"G c #262626",
"H c #333333",
"I c #181818",
"J c #2F2F2F",
"K c #C0C0BE",
"L c #BFBFBD",
"M c #242424",
"N c #1A1A1A",
"O c #0B0B0B",
"P c #111111",
"Q c #101010",
"R c #0E0E0E",
"S c #0C0C0C",
"T c #090909",
"aaaaaaaaaaaaaaaaaaaaaaaaaaaaaa",
"bbbbbbbbbbbbbbbbbbbbbbbbbbbbbb",
"cccccccccccccccccccccccccccccc",
"cccccccccccccccccccccccccccccc",
"cccccccccccccccccccccccccccccc",
"ddddddddddefghiihgfedddddddddd",
"ddddddddjgklmnoonmlkkjdddddddd",
"dddddddkkmpobbqqbboprssldddddd",
"dddddlhtpbqqqqqqqqqqbpthlddddd",
"ddddlumoqqqqqqqqqqqqqqomuldddd",
"dddlhrbqqqqqqqqqqqqqqqqbrhjddd",
"dddktbqqqqqqqqqqqqqqqqqqbvsddd",
"llekoqqqqqqqqqqqqqqqqqqqqosell",
"ljgrqqqqqqqqqqqqqqqqqqqqqqrkjl",
"lwkbqqqqqqqxyyyyyyxqqqqqqqbkwl",
"lzlqqqqqqqqABBBBBBCqqqqqqqqlzl",
"juDqqqqqqqqBBBBBBBBqqqqqqqqDgj",
"jhEqqqqqqqqBBBBBBBBqqqqqqqqEhj",
"jiFqqqqqqqqBBqllbBBqqqqqqqqFij",
"eiFqqqqqqqqBBGjjGBBqqqqqqqqnie",
"ehHqqqqqqqqBBIyyIBBqqqqqqqqHhe",
"euDqqqqqqqqBBBBBBBBqqqqqqqqJge",
"esjqqqqqqqqKBBBBBBLqqqqqqqqjse",
"eMkqqqqqqqqqqqqqqqqqqqqqqqqkwe",
"jegJqqqqqqqqqqqqqqqqqqqqqqJgej",
"jeekqqqqqqqqqqqqqqqqqqqqqqseej",
"eGGkcqqqqqqqqqqqqqqqqqqqqckGGe",
"eeGGhDqqqqqqqqqqqqqqqqqqDhGGee",
"eeeGGNcqqqqqqqqqqqqqqqqcNeGeee",
"eeeGGzOfqqqqqqqqqqqqqqzOzGGeee",
"eeeeGGMPPdqqqqqqqqqqdPQMGGeeee",
"eeeeeGGGgRRijvmmvjiRRgGGGeeeee",
"eeeeeeeGGGkaxSTTSxakGGGeeeeeee",
"GGGGGGGGwwwwwwwwwwwwwwGGGGGGGG",
"GGGGGGGGGGGwwwwwwwwGGGGGGGGGGG",
"GGGGGGGGGGGGGGGGGGGGGGGGGGGGGG",
"GGGGGGGGGGGGGGGGGGGGGGGGGGGGGG",
"yyyyyyyyyyyyyyyyyyyyyyyyyyyyyy"};
