/* XPM */
static char *menu_active_xpm[] = {
"30 38 23 1",
"a c #161616",
"b c #383838",
"c c #2B2B2B",
"d c #2A2A2A",
"e c #292929",
"f c #090909",
"g c #A8A8A8",
"h c #DFDFDF",
"i c #474747",
"j c #D6D6D6",
"k c #7F7F7F",
"l c #353535",
"m c #BABABA",
"n c #282828",
"o c #565656",
"p c #DCDCDC",
"q c #929292",
"r c #3B3B3B",
"s c #CACACA",
"t c #696969",
"u c #272727",
"v c #262626",
"w c #070707",
"aaaaaaaaaaaaaaaaaaaaaaaaaaaaaa",
"bbbbbbbbbbbbbbbbbbbbbbbbbbbbbb",
"cccccccccccccccccccccccccccccc",
"cccccccccccccccccccccccccccccc",
"cccccccccccccccccccccccccccccc",
"dddddddddddddddddddddddddddddd",
"dddddddddddddddddddddddddddddd",
"dddddddddddddddddddddddddddddd",
"dddddddddddddddddddddddddddddd",
"dddddddddddddddddddddddddddddd",
"dddddddddddddddddddddddddddddd",
"dddddddddddddddddddddddddddddd",
"eeeeeeeeeeeeeeeeeeeeeeeeeeeeee",
"eeeeeeeeeeeeeeeeeeeeeeeeeeeeee",
"eeeeeeeeeeaffffffffaeeeeeeeeee",
"eeeeeeeeeeghhhhhhhhgeeeeeeeeee",
"eeeeeeeeeeijhhhhhhjieeeeeeeeee",
"eeeeeeeeeeekhhhhhhkeeeeeeeeeee",
"eeeeeeeeeeelmhhhhmleeeeeeeeeee",
"nnnnnnnnnnnnophhponnnnnnnnnnnn",
"nnnnnnnnnnnnnqhhqnnnnnnnnnnnnn",
"nnnnnnnnnnnnnrssrnnnnnnnnnnnnn",
"nnnnnnnnnnnnnnttnnnnnnnnnnnnnn",
"nnnnnnnnnnnnnnnnnnnnnnnnnnnnnn",
"nnnnnnnnnnnnnnnnnnnnnnnnnnnnnn",
"nnnnnnnnnnnnnnnnnnnnnnnnnnnnnn",
"uuuuuuuuuuuuuuuuuuuuuuuuuuuuuu",
"uuuuuuuuuuuuuuuuuuuuuuuuuuuuuu",
"uuuuuuuuuuuuuuuuuuuuuuuuuuuuuu",
"uuuuuuuuuuuuuuuuuuuuuuuuuuuuuu",
"uuuuuuuuuuuuuuuuuuuuuuuuuuuuuu",
"uuuuuuuuuuuuuuuuuuuuuuuuuuuuuu",
"uuuuuuuuuuuuuuuuuuuuuuuuuuuuuu",
"vvvvvvvvvvvvvvvvvvvvvvvvvvvvvv",
"vvvvvvvvvvvvvvvvvvvvvvvvvvvvvv",
"vvvvvvvvvvvvvvvvvvvvvvvvvvvvvv",
"vvvvvvvvvvvvvvvvvvvvvvvvvvvvvv",
"wwwwwwwwwwwwwwwwwwwwwwwwwwwwww"};
