/* XPM */
static char *shade_prelight_xpm[] = {
"30 38 58 1",
"a c #161616",
"b c #383838",
"c c #2B2B2B",
"d c #2A2A2A",
"e c #272727",
"f c #232323",
"g c #1F1F1F",
"h c #1D1D1D",
"i c #1C1C1C",
"j c #282828",
"k c #202020",
"l c #292929",
"m c #323232",
"n c #353535",
"o c #393939",
"p c #3A3A3A",
"q c #373737",
"r c #313131",
"s c #212121",
"t c #2C2C2C",
"u c #1E1E1E",
"v c #2D2D2D",
"w c #252525",
"x c #1B1B1B",
"y c #222222",
"z c #333333",
"A c #191919",
"B c #7B7B7B",
"C c #838383",
"D c #303030",
"E c #1A1A1A",
"F c #939393",
"G c #DFDFDF",
"H c #999999",
"I c #343434",
"J c #A3A3A3",
"K c #A8A8A8",
"L c #363636",
"M c #ABABAB",
"N c #CCCCCC",
"O c #AAAAAA",
"P c #505050",
"Q c #BCBCBC",
"R c #4B4B4B",
"S c #484848",
"T c #BBBBBB",
"U c #535353",
"V c #2F2F2F",
"W c #242424",
"X c #262626",
"Y c #0B0B0B",
"Z c #111111",
"0 c #101010",
"1 c #0E0E0E",
"2 c #0F0F0F",
"3 c #0C0C0C",
"4 c #090909",
"5 c #070707",
"aaaaaaaaaaaaaaaaaaaaaaaaaaaaaa",
"bbbbbbbbbbbbbbbbbbbbbbbbbbbbbb",
"cccccccccccccccccccccccccccccc",
"cccccccccccccccccccccccccccccc",
"cccccccccccccccccccccccccccccc",
"ddddddddddefghiihgfedddddddddd",
"ddddddddjgklmnoonmlkkjdddddddd",
"dddddddkkmpobbqqbboprssldddddd",
"dddddlhtpbqqqqqqqqqqbpthlddddd",
"ddddlumoqqqqqqqqqqqqqqomuldddd",
"dddlhrbqqqqqqqqqqqqqqqqbrhjddd",
"dddktbqqqqqqqqqqqqqqqqqqbvsddd",
"llekoqqqqqqqqqqqqqqqqqqqqosell",
"ljgrqqqqqqqqqqqqqqqqqqqqqqrkjl",
"lwkbqqqqqqqqqqhxqqqqqqqqqqbkwl",
"lylqqqqqqqqqzABCAzqqqqqqqqqlyl",
"juDqqqqqqqqmEFGGHErqqqqqqqqDgj",
"jhIqqqqqqqquJGGGGKsqqqqqqqqIhj",
"jiLqqqqqqqqMGNGGNGOqqqqqqqqLij",
"eiLqqqqqqqqPQRGGSTUqqqqqqqqnie",
"ehzqqqqqqqqqqqGGqqqqqqqqqqqzhe",
"euDqqqqqqqqqqqGGqqqqqqqqqqqVge",
"esjqqqqqqqqqqqGGqqqqqqqqqqqjse",
"eWkqqqqqqqqqqqqqqqqqqqqqqqqkwe",
"jegVqqqqqqqqqqqqqqqqqqqqqqVgej",
"jeekqqqqqqqqqqqqqqqqqqqqqqseej",
"eXXkcqqqqqqqqqqqqqqqqqqqqckXXe",
"eeXXhDqqqqqqqqqqqqqqqqqqDhXXee",
"eeeXXEcqqqqqqqqqqqqqqqqcEeXeee",
"eeeXXyYfqqqqqqqqqqqqqqyYyXXeee",
"eeeeXXWZZdqqqqqqqqqqdZ0WXXeeee",
"eeeeeXXXg11ijvmmvji11gXXXeeeee",
"eeeeeeeXXXka234432akXXXeeeeeee",
"XXXXXXXXwwwwwwwwwwwwwwXXXXXXXX",
"XXXXXXXXXXXwwwwwwwwXXXXXXXXXXX",
"XXXXXXXXXXXXXXXXXXXXXXXXXXXXXX",
"XXXXXXXXXXXXXXXXXXXXXXXXXXXXXX",
"555555555555555555555555555555"};
