/* XPM */
static char *stick_prelight_xpm[] = {
"30 38 57 1",
"a c #161616",
"b c #383838",
"c c #2B2B2B",
"d c #2A2A2A",
"e c #272727",
"f c #232323",
"g c #1F1F1F",
"h c #1D1D1D",
"i c #1C1C1C",
"j c #282828",
"k c #202020",
"l c #292929",
"m c #323232",
"n c #353535",
"o c #393939",
"p c #3A3A3A",
"q c #373737",
"r c #313131",
"s c #212121",
"t c #2C2C2C",
"u c #1E1E1E",
"v c #2D2D2D",
"w c #252525",
"x c #2F2F2F",
"y c #171717",
"z c #0B0B0B",
"A c #222222",
"B c #242424",
"C c #999999",
"D c #D4D4D4",
"E c #9C9C9C",
"F c #303030",
"G c #D0D0D0",
"H c #DFDFDF",
"I c #D1D1D1",
"J c #343434",
"K c #363636",
"L c #D5D5D5",
"M c #D3D3D3",
"N c #333333",
"O c #A7A7A7",
"P c #A3A3A3",
"Q c #4D4D4D",
"R c #454545",
"S c #464646",
"T c #A6A6A6",
"U c #D6D6D6",
"V c #A5A5A5",
"W c #262626",
"X c #1A1A1A",
"Y c #111111",
"Z c #101010",
"0 c #0E0E0E",
"1 c #0F0F0F",
"2 c #0C0C0C",
"3 c #090909",
"4 c #070707",
"aaaaaaaaaaaaaaaaaaaaaaaaaaaaaa",
"bbbbbbbbbbbbbbbbbbbbbbbbbbbbbb",
"cccccccccccccccccccccccccccccc",
"cccccccccccccccccccccccccccccc",
"cccccccccccccccccccccccccccccc",
"ddddddddddefghiihgfedddddddddd",
"ddddddddjgklmnoonmlkkjdddddddd",
"dddddddkkmpobbqqbboprssldddddd",
"dddddlhtpbqqqqqqqqqqbpthlddddd",
"ddddlumoqqqqqqqqqqqqqqomuldddd",
"dddlhrbqqqqqqqqqqqqqqqqbrhjddd",
"dddktbqqqqqqqqqqqqqqqqqqbvsddd",
"llekoqqqqqqqqqqqqqqqqqqqqosell",
"ljgrqqqqqqqqqqqqqqqqqqqqqqrkjl",
"lwkbqqqqqqqqxyzzavqqqqqqqqbkwl",
"lAlqqqqqqqqxBCDDEcxqqqqqqqqlAl",
"juFqqqqqqqqvGHHHHIvqqqqqqqqFgj",
"jhJqqqqqqqqCHHHHHHCqqqqqqqqJhj",
"jiKqqqqqqqqDHHHHHHDqqqqqqqqKij",
"eiKqqqqqqqqLHHHHHHMqqqqqqqqnie",
"ehNqqqqqqqqOHHHHHHPqqqqqqqqNhe",
"euFqqqqqqqqQMHHHHIRqqqqqqqqxge",
"esjqqqqqqqqqSTUUVRqqqqqqqqqjse",
"eBkqqqqqqqqqqqqqqqqqqqqqqqqkwe",
"jegxqqqqqqqqqqqqqqqqqqqqqqxgej",
"jeekqqqqqqqqqqqqqqqqqqqqqqseej",
"eWWkcqqqqqqqqqqqqqqqqqqqqckWWe",
"eeWWhFqqqqqqqqqqqqqqqqqqFhWWee",
"eeeWWXcqqqqqqqqqqqqqqqqcXeWeee",
"eeeWWAzfqqqqqqqqqqqqqqAzAWWeee",
"eeeeWWBYYdqqqqqqqqqqdYZBWWeeee",
"eeeeeWWWg00ijvmmvji00gWWWeeeee",
"eeeeeeeWWWka123321akWWWeeeeeee",
"WWWWWWWWwwwwwwwwwwwwwwWWWWWWWW",
"WWWWWWWWWWWwwwwwwwwWWWWWWWWWWW",
"WWWWWWWWWWWWWWWWWWWWWWWWWWWWWW",
"WWWWWWWWWWWWWWWWWWWWWWWWWWWWWW",
"444444444444444444444444444444"};
