/* XPM */
static char *top_left_inactive_xpm[] = {
"9 38 23 1",
"a c None",
"b c #080808",
"c c #0F0F0F",
"d c #141414",
"e c #0C0C0C",
"f c #171717",
"g c #202020",
"h c #313131",
"i c #3D3D3D",
"j c #131313",
"k c #3B3B3B",
"l c #373737",
"m c #363636",
"n c #121212",
"o c #282828",
"p c #353535",
"q c #1F1F1F",
"r c #383838",
"s c #393939",
"t c #1E1E1E",
"u c #292929",
"v c #323232",
"w c #161616",
"aaaaaabcd",
"aaaaefghi",
"aaajgiklm",
"aanokpppp",
"aeqrppppp",
"afspppppp",
"btppppppp",
"cuppppppp",
"dvppppppp",
"wmppppppp",
"wpppppppp",
"wpppppppp",
"wpppppppp",
"wpppppppp",
"wpppppppp",
"wpppppppp",
"wpppppppp",
"wpppppppp",
"wpppppppp",
"wpppppppp",
"wpppppppp",
"wpppppppp",
"wpppppppp",
"wpppppppp",
"wpppppppp",
"wpppppppp",
"wpppppppp",
"wpppppppp",
"wpppppppp",
"wpppppppp",
"wpppppppp",
"wpppppppp",
"wpppppppp",
"wpppppppp",
"wpppppppp",
"wpppppppp",
"wpppppppp",
"wgggggggg"};
