/* XPM */
static char *top_left_active_xpm[] = {
"9 38 24 1",
"a c None",
"b c #080808",
"c c #0F0F0F",
"d c #141414",
"e c #0C0C0C",
"f c #161616",
"g c #1F1F1F",
"h c #2C2C2C",
"i c #343434",
"j c #313131",
"k c #2D2D2D",
"l c #121212",
"m c #252525",
"n c #2B2B2B",
"o c #2E2E2E",
"p c #2F2F2F",
"q c #2A2A2A",
"r c #1B1B1B",
"s c #242424",
"t c #292929",
"u c #282828",
"v c #272727",
"w c #262626",
"x c #070707",
"aaaaaabcd",
"aaaaefghi",
"aaadgijkh",
"aalmjnnnn",
"aegonnnnn",
"afpqqqqqq",
"brqqqqqqq",
"csqqqqqqq",
"dtqqqqqqq",
"fnqqqqqqq",
"fqqqqqqqq",
"fqqqqqqqq",
"ftttttttt",
"ftttttttt",
"ftttttttt",
"ftttttttt",
"ftttttttt",
"ftttttttt",
"ftttttttt",
"fuuuuuuuu",
"fuuuuuuuu",
"fuuuuuuuu",
"fuuuuuuuu",
"fuuuuuuuu",
"fuuuuuuuu",
"fuuuuuuuu",
"fvvvvvvvv",
"fvvvvvvvv",
"fvvvvvvvv",
"fvvvvvvvv",
"fvvvvvvvv",
"fvvvvvvvv",
"fvvvvvvvv",
"fwwwwwwww",
"fwwwwwwww",
"fwwwwwwww",
"fwwwwwwww",
"fxxxxxxxx"};
