/* XPM */
static char *top_right_active_xpm[] = {
"9 38 24 1",
"a c #141414",
"b c #0F0F0F",
"c c #080808",
"d c None",
"e c #343434",
"f c #2C2C2C",
"g c #1F1F1F",
"h c #161616",
"i c #0C0C0C",
"j c #2D2D2D",
"k c #313131",
"l c #2B2B2B",
"m c #252525",
"n c #121212",
"o c #2E2E2E",
"p c #2A2A2A",
"q c #2F2F2F",
"r c #1B1B1B",
"s c #242424",
"t c #292929",
"u c #282828",
"v c #272727",
"w c #262626",
"x c #070707",
"abcdddddd",
"efghidddd",
"fjkegaddd",
"llllkmndd",
"lllllogid",
"ppppppqhd",
"ppppppprc",
"pppppppsb",
"pppppppta",
"ppppppplh",
"pppppppph",
"pppppppph",
"tttttttth",
"tttttttth",
"tttttttth",
"tttttttth",
"tttttttth",
"tttttttth",
"tttttttth",
"uuuuuuuuh",
"uuuuuuuuh",
"uuuuuuuuh",
"uuuuuuuuh",
"uuuuuuuuh",
"uuuuuuuuh",
"uuuuuuuuh",
"vvvvvvvvh",
"vvvvvvvvh",
"vvvvvvvvh",
"vvvvvvvvh",
"vvvvvvvvh",
"vvvvvvvvh",
"vvvvvvvvh",
"wwwwwwwwh",
"wwwwwwwwh",
"wwwwwwwwh",
"wwwwwwwwh",
"xxxxxxxxh"};
