/* XPM */
static char *hide_pressed_xpm[] = {
"32 48 22 1",
"a c #000000",
"b c #393939",
"c c #2B2B2B",
"d c #2A2A2A",
"e c #262626",
"f c #222222",
"g c #1E1E1E",
"h c #1C1C1C",
"i c #1B1B1B",
"j c #292929",
"k c #202020",
"l c #1D1D1D",
"m c #232323",
"n c #1F1F1F",
"o c #212121",
"p c #282828",
"q c #090909",
"r c #EEEEEC",
"s c #252525",
"t c #272727",
"u c #242424",
"v c #070707",
"aaaaaaaaaaaaaaaaaaaaaaaaaaaaaaaa",
"bbbbbbbbbbbbbbbbbbbbbbbbbbbbbbbb",
"cccccccccccccccccccccccccccccccc",
"cccccccccccccccccccccccccccccccc",
"cccccccccccccccccccccccccccccccc",
"dddddddddddddddddddddddddddddddd",
"dddddddddddddddddddddddddddddddd",
"dddddddddddddddddddddddddddddddd",
"dddddddddddddddddddddddddddddddd",
"dddddddddddefghiihgfeddddddddddd",
"ddddddddjkihllggggllhikjdddddddd",
"dddddddfihgggggggggggghimddddddd",
"ddddddnilgggggggggggggglindddddd",
"dddddlhgggggggggggggggggghgddddd",
"ddddnhgggggggggggggggggggghndddd",
"jjjfiggggggggggggggggggggggifjjj",
"jjjilgggggggggggggggggggggglijjj",
"jjkhgggggggggggggggggggggggghkjj",
"jjiggggggggggggggggggggggggggijj",
"jehgggggggggggggggggggggggggghej",
"jolgggggggggggggggggggggggggghoj",
"jglgggggggggggggggggggggggggglgj",
"jhgggggggggggggggggggggggggggghj",
"jiggggggggggggggggggggggggggggij",
"piggggggggggggggggggggggggggggip",
"phggggggggggqqqqqqqqgggggggggghp",
"pglgggggggggrrrrrrrrggggggggglgp",
"polgggggggggrrrrrrrrggggggggghop",
"pshgggggggggggggggggggggggggghsp",
"ppiggggggggggggggggggggggggggipp",
"ppnhgggggggggggggggggggggggghkpp",
"pppilgggggggggggggggggggggglhppp",
"pppfiggggggggggggggggggggggifppp",
"ttttghgggggggggggggggggggghntttt",
"tttttlhgggggggggggggggggghlttttt",
"ttttttgilgggggggggggggglintttttt",
"tttttttoihggggggggggglhiottttttt",
"tttttttttnihhlgggglhhinttttttttt",
"tttttttttttuoghiihgouttttttttttt",
"tttttttttttttttttttttttttttttttt",
"tttttttttttttttttttttttttttttttt",
"tttttttttttttttttttttttttttttttt",
"eeeeeeeeeeeeeeeeeeeeeeeeeeeeeeee",
"eeeeeeeeeeeeeeeeeeeeeeeeeeeeeeee",
"eeeeeeeeeeeeeeeeeeeeeeeeeeeeeeee",
"eeeeeeeeeeeeeeeeeeeeeeeeeeeeeeee",
"eeeeeeeeeeeeeeeeeeeeeeeeeeeeeeee",
"vvvvvvvvvvvvvvvvvvvvvvvvvvvvvvvv"};
