/* XPM */
static char *hide_prelight_xpm[] = {
"32 48 47 1",
"a c #000000",
"b c #393939",
"c c #2B2B2B",
"d c #2A2A2A",
"e c #262626",
"f c #222222",
"g c #1F1F1F",
"h c #1D1D1D",
"i c #1C1C1C",
"j c #292929",
"k c #212121",
"l c #323232",
"m c #353535",
"n c #3A3A3A",
"o c #282828",
"p c #1E1E1E",
"q c #252525",
"r c #383838",
"s c #373737",
"t c #242424",
"u c #333333",
"v c #232323",
"w c #272727",
"x c #343434",
"y c #313131",
"z c #303030",
"A c #363636",
"B c #1B1B1B",
"C c #090909",
"D c #EEEEEC",
"E c #202020",
"F c #131313",
"G c #0E0E0E",
"H c #2C2C2C",
"I c #1A1A1A",
"J c #0D0D0D",
"K c #171717",
"L c #2F2F2F",
"M c #0B0B0B",
"N c #101010",
"O c #2D2D2D",
"P c #0C0C0C",
"Q c #161616",
"R c #0F0F0F",
"S c #080808",
"T c #0A0A0A",
"U c #070707",
"aaaaaaaaaaaaaaaaaaaaaaaaaaaaaaaa",
"bbbbbbbbbbbbbbbbbbbbbbbbbbbbbbbb",
"cccccccccccccccccccccccccccccccc",
"cccccccccccccccccccccccccccccccc",
"cccccccccccccccccccccccccccccccc",
"dddddddddddddddddddddddddddddddd",
"dddddddddddddddddddddddddddddddd",
"dddddddddddddddddddddddddddddddd",
"dddddddddddddddddddddddddddddddd",
"dddddddddddefghiihgfeddddddddddd",
"ddddddddjehkdlmnnmldkhejdddddddd",
"dddddddopqmnbrrssrrbnmtpoddddddd",
"ddddddegunrssssssssssrnugedddddd",
"dddddvfrrssssssssssssssrrfvddddd",
"ddddefbssssssssssssssssssbfedddd",
"jjjwgssssssssssssssssssssssgwjjj",
"jjopussssssssssssssssssssssupojj",
"jjeqrssssssssssssssssssssssrtejj",
"johxssssssssssssssssssssssssxpoj",
"jqkrssssssssssssssssssssssssrkqj",
"okdssssssssssssssssssssssssssjko",
"ogysssssssssssssssssssssssssszgo",
"ohussssssssssssssssssssssssssuho",
"oiAssssssssssssssssssssssssssAio",
"wiAssssssssssssssssssssssssssABw",
"whusssssssssCCCCCCCCsssssssssuiw",
"wpzsssssssssDDDDDDDDssssssssszpw",
"wkjsssssssssDDDDDDDDsssssssssjkw",
"wtEssssssssssssssssssssssssssEtw",
"wwhusssssssssssssssssssssssslpww",
"owqtsssssssssssssssssssssssstewo",
"owopyssssssssssssssssssssssypwwo",
"oowegmssssssssssssssssssssmgwwoo",
"wweeqfssssssssssssssssssssfteeww",
"wwweegFussssssssssssssssuFgeewww",
"wwwweeBGHssssssssssssssHGIeewwww",
"wwwwweegJKLssssssssssLKJEeewwwww",
"wwwwwweeqiMNpoOllOopNPiqeewwwwww",
"wwwwwwweeeegQRPCSTRQgeeeewwwwwww",
"wwwwwwwwweeeeeqqqqeeeeewwwwwwwww",
"wwwwwwwwwwweeeeeeeeeewwwwwwwwwww",
"wwwwwwwwwwwwwwwwwwwwwwwwwwwwwwww",
"eeeeeeeeeeeeeeeeeeeeeeeeeeeeeeee",
"eeeeeeeeeeeeeeeeeeeeeeeeeeeeeeee",
"eeeeeeeeeeeeeeeeeeeeeeeeeeeeeeee",
"eeeeeeeeeeeeeeeeeeeeeeeeeeeeeeee",
"eeeeeeeeeeeeeeeeeeeeeeeeeeeeeeee",
"UUUUUUUUUUUUUUUUUUUUUUUUUUUUUUUU"};
