/* XPM */
static char *maximize_prelight_xpm[] = {
"32 48 52 1",
"a c #000000",
"b c #393939",
"c c #2B2B2B",
"d c #2A2A2A",
"e c #262626",
"f c #222222",
"g c #1F1F1F",
"h c #1D1D1D",
"i c #1C1C1C",
"j c #292929",
"k c #212121",
"l c #323232",
"m c #353535",
"n c #3A3A3A",
"o c #282828",
"p c #1E1E1E",
"q c #252525",
"r c #383838",
"s c #373737",
"t c #242424",
"u c #333333",
"v c #232323",
"w c #272727",
"x c #343434",
"y c #0F0F0F",
"z c #070707",
"A c #B9B9B8",
"B c #EEEEEC",
"C c #B9B9B7",
"D c #313131",
"E c #303030",
"F c #363636",
"G c #1B1B1B",
"H c #181818",
"I c #C0C0BE",
"J c #BFBFBD",
"K c #202020",
"L c #131313",
"M c #0E0E0E",
"N c #2C2C2C",
"O c #1A1A1A",
"P c #0D0D0D",
"Q c #171717",
"R c #2F2F2F",
"S c #0B0B0B",
"T c #101010",
"U c #2D2D2D",
"V c #0C0C0C",
"W c #161616",
"X c #090909",
"Y c #080808",
"Z c #0A0A0A",
"aaaaaaaaaaaaaaaaaaaaaaaaaaaaaaaa",
"bbbbbbbbbbbbbbbbbbbbbbbbbbbbbbbb",
"cccccccccccccccccccccccccccccccc",
"cccccccccccccccccccccccccccccccc",
"cccccccccccccccccccccccccccccccc",
"dddddddddddddddddddddddddddddddd",
"dddddddddddddddddddddddddddddddd",
"dddddddddddddddddddddddddddddddd",
"dddddddddddddddddddddddddddddddd",
"dddddddddddefghiihgfeddddddddddd",
"ddddddddjehkdlmnnmldkhejdddddddd",
"dddddddopqmnbrrssrrbnmtpoddddddd",
"ddddddegunrssssssssssrnugedddddd",
"dddddvfrrssssssssssssssrrfvddddd",
"ddddefbssssssssssssssssssbfedddd",
"jjjwgssssssssssssssssssssssgwjjj",
"jjopussssssssssssssssssssssupojj",
"jjeqrssssssssssssssssssssssrtejj",
"johxssssssssssssssssssssssssxpoj",
"jqkrssssssssyzzzzzzyssssssssrkqj",
"okdsssssssssABBBBBBCsssssssssjko",
"ogDsssssssssBBBBBBBBsssssssssEgo",
"ohusssssssssBBsssrBBsssssssssuho",
"oiFsssssssssBBssssBBsssssssssFio",
"wiFsssssssssBBesseBBsssssssssFGw",
"whusssssssssBBHzzHBBsssssssssuiw",
"wpEsssssssssBBBBBBBBsssssssssEpw",
"wkjsssssssssIBBBBBBJsssssssssjkw",
"wtKssssssssssssssssssssssssssKtw",
"wwhusssssssssssssssssssssssslpww",
"owqtsssssssssssssssssssssssstewo",
"owopDssssssssssssssssssssssDpwwo",
"oowegmssssssssssssssssssssmgwwoo",
"wweeqfssssssssssssssssssssfteeww",
"wwweegLussssssssssssssssuLgeewww",
"wwwweeGMNssssssssssssssNMOeewwww",
"wwwwweegPQRssssssssssRQPKeewwwww",
"wwwwwweeqiSTpoUllUopTViqeewwwwww",
"wwwwwwweeeegWyVXYZyWgeeeewwwwwww",
"wwwwwwwwweeeeeqqqqeeeeewwwwwwwww",
"wwwwwwwwwwweeeeeeeeeewwwwwwwwwww",
"wwwwwwwwwwwwwwwwwwwwwwwwwwwwwwww",
"eeeeeeeeeeeeeeeeeeeeeeeeeeeeeeee",
"eeeeeeeeeeeeeeeeeeeeeeeeeeeeeeee",
"eeeeeeeeeeeeeeeeeeeeeeeeeeeeeeee",
"eeeeeeeeeeeeeeeeeeeeeeeeeeeeeeee",
"eeeeeeeeeeeeeeeeeeeeeeeeeeeeeeee",
"zzzzzzzzzzzzzzzzzzzzzzzzzzzzzzzz"};
