/* XPM */
static char *shade_active_xpm[] = {
"32 48 34 1",
"a c #000000",
"b c #393939",
"c c #2B2B2B",
"d c #2A2A2A",
"e c #292929",
"f c #1D1D1D",
"g c #1B1B1B",
"h c #333333",
"i c #191919",
"j c #7B7B7B",
"k c #838383",
"l c #323232",
"m c #1A1A1A",
"n c #939393",
"o c #DFDFDF",
"p c #999999",
"q c #313131",
"r c #1E1E1E",
"s c #A3A3A3",
"t c #A8A8A8",
"u c #212121",
"v c #ABABAB",
"w c #CCCCCC",
"x c #AAAAAA",
"y c #282828",
"z c #505050",
"A c #BCBCBC",
"B c #4B4B4B",
"C c #484848",
"D c #BBBBBB",
"E c #535353",
"F c #272727",
"G c #262626",
"H c #070707",
"aaaaaaaaaaaaaaaaaaaaaaaaaaaaaaaa",
"bbbbbbbbbbbbbbbbbbbbbbbbbbbbbbbb",
"cccccccccccccccccccccccccccccccc",
"cccccccccccccccccccccccccccccccc",
"cccccccccccccccccccccccccccccccc",
"dddddddddddddddddddddddddddddddd",
"dddddddddddddddddddddddddddddddd",
"dddddddddddddddddddddddddddddddd",
"dddddddddddddddddddddddddddddddd",
"dddddddddddddddddddddddddddddddd",
"dddddddddddddddddddddddddddddddd",
"dddddddddddddddddddddddddddddddd",
"dddddddddddddddddddddddddddddddd",
"dddddddddddddddddddddddddddddddd",
"dddddddddddddddddddddddddddddddd",
"eeeeeeeeeeeeeeeeeeeeeeeeeeeeeeee",
"eeeeeeeeeeeeeeeeeeeeeeeeeeeeeeee",
"eeeeeeeeeeeeeeeeeeeeeeeeeeeeeeee",
"eeeeeeeeeeeeeeeeeeeeeeeeeeeeeeee",
"eeeeeeeeeeeeeeefgeeeeeeeeeeeeeee",
"eeeeeeeeeeeeehijkiheeeeeeeeeeeee",
"eeeeeeeeeeeelmnoopmqeeeeeeeeeeee",
"eeeeeeeeeeeersooootueeeeeeeeeeee",
"eeeeeeeeeeeevowoowoxeeeeeeeeeeee",
"yyyyyyyyyyyyzABooCDEyyyyyyyyyyyy",
"yyyyyyyyyyyyyyyooyyyyyyyyyyyyyyy",
"yyyyyyyyyyyyyyyooyyyyyyyyyyyyyyy",
"yyyyyyyyyyyyyyyooyyyyyyyyyyyyyyy",
"yyyyyyyyyyyyyyyyyyyyyyyyyyyyyyyy",
"yyyyyyyyyyyyyyyyyyyyyyyyyyyyyyyy",
"yyyyyyyyyyyyyyyyyyyyyyyyyyyyyyyy",
"yyyyyyyyyyyyyyyyyyyyyyyyyyyyyyyy",
"yyyyyyyyyyyyyyyyyyyyyyyyyyyyyyyy",
"FFFFFFFFFFFFFFFFFFFFFFFFFFFFFFFF",
"FFFFFFFFFFFFFFFFFFFFFFFFFFFFFFFF",
"FFFFFFFFFFFFFFFFFFFFFFFFFFFFFFFF",
"FFFFFFFFFFFFFFFFFFFFFFFFFFFFFFFF",
"FFFFFFFFFFFFFFFFFFFFFFFFFFFFFFFF",
"FFFFFFFFFFFFFFFFFFFFFFFFFFFFFFFF",
"FFFFFFFFFFFFFFFFFFFFFFFFFFFFFFFF",
"FFFFFFFFFFFFFFFFFFFFFFFFFFFFFFFF",
"FFFFFFFFFFFFFFFFFFFFFFFFFFFFFFFF",
"GGGGGGGGGGGGGGGGGGGGGGGGGGGGGGGG",
"GGGGGGGGGGGGGGGGGGGGGGGGGGGGGGGG",
"GGGGGGGGGGGGGGGGGGGGGGGGGGGGGGGG",
"GGGGGGGGGGGGGGGGGGGGGGGGGGGGGGGG",
"GGGGGGGGGGGGGGGGGGGGGGGGGGGGGGGG",
"HHHHHHHHHHHHHHHHHHHHHHHHHHHHHHHH"};
