/* XPM */
static char *stick_active_xpm[] = {
"32 48 31 1",
"a c #000000",
"b c #393939",
"c c #2B2B2B",
"d c #2A2A2A",
"e c #292929",
"f c #2F2F2F",
"g c #171717",
"h c #0B0B0B",
"i c #161616",
"j c #2D2D2D",
"k c #242424",
"l c #999999",
"m c #D4D4D4",
"n c #9C9C9C",
"o c #D0D0D0",
"p c #DFDFDF",
"q c #D1D1D1",
"r c #282828",
"s c #D5D5D5",
"t c #D3D3D3",
"u c #A7A7A7",
"v c #A3A3A3",
"w c #4D4D4D",
"x c #454545",
"y c #464646",
"z c #A6A6A6",
"A c #D6D6D6",
"B c #A5A5A5",
"C c #272727",
"D c #262626",
"E c #070707",
"aaaaaaaaaaaaaaaaaaaaaaaaaaaaaaaa",
"bbbbbbbbbbbbbbbbbbbbbbbbbbbbbbbb",
"cccccccccccccccccccccccccccccccc",
"cccccccccccccccccccccccccccccccc",
"cccccccccccccccccccccccccccccccc",
"dddddddddddddddddddddddddddddddd",
"dddddddddddddddddddddddddddddddd",
"dddddddddddddddddddddddddddddddd",
"dddddddddddddddddddddddddddddddd",
"dddddddddddddddddddddddddddddddd",
"dddddddddddddddddddddddddddddddd",
"dddddddddddddddddddddddddddddddd",
"dddddddddddddddddddddddddddddddd",
"dddddddddddddddddddddddddddddddd",
"dddddddddddddddddddddddddddddddd",
"eeeeeeeeeeeeeeeeeeeeeeeeeeeeeeee",
"eeeeeeeeeeeeeeeeeeeeeeeeeeeeeeee",
"eeeeeeeeeeeeeeeeeeeeeeeeeeeeeeee",
"eeeeeeeeeeeeeeeeeeeeeeeeeeeeeeee",
"eeeeeeeeeeeeefghhijeeeeeeeeeeeee",
"eeeeeeeeeeeefklmmncfeeeeeeeeeeee",
"eeeeeeeeeeeejoppppqjeeeeeeeeeeee",
"eeeeeeeeeeeelppppppleeeeeeeeeeee",
"eeeeeeeeeeeemppppppmeeeeeeeeeeee",
"rrrrrrrrrrrrspppppptrrrrrrrrrrrr",
"rrrrrrrrrrrruppppppvrrrrrrrrrrrr",
"rrrrrrrrrrrrwtppppqxrrrrrrrrrrrr",
"rrrrrrrrrrrrryzAABxrrrrrrrrrrrrr",
"rrrrrrrrrrrrrrrrrrrrrrrrrrrrrrrr",
"rrrrrrrrrrrrrrrrrrrrrrrrrrrrrrrr",
"rrrrrrrrrrrrrrrrrrrrrrrrrrrrrrrr",
"rrrrrrrrrrrrrrrrrrrrrrrrrrrrrrrr",
"rrrrrrrrrrrrrrrrrrrrrrrrrrrrrrrr",
"CCCCCCCCCCCCCCCCCCCCCCCCCCCCCCCC",
"CCCCCCCCCCCCCCCCCCCCCCCCCCCCCCCC",
"CCCCCCCCCCCCCCCCCCCCCCCCCCCCCCCC",
"CCCCCCCCCCCCCCCCCCCCCCCCCCCCCCCC",
"CCCCCCCCCCCCCCCCCCCCCCCCCCCCCCCC",
"CCCCCCCCCCCCCCCCCCCCCCCCCCCCCCCC",
"CCCCCCCCCCCCCCCCCCCCCCCCCCCCCCCC",
"CCCCCCCCCCCCCCCCCCCCCCCCCCCCCCCC",
"CCCCCCCCCCCCCCCCCCCCCCCCCCCCCCCC",
"DDDDDDDDDDDDDDDDDDDDDDDDDDDDDDDD",
"DDDDDDDDDDDDDDDDDDDDDDDDDDDDDDDD",
"DDDDDDDDDDDDDDDDDDDDDDDDDDDDDDDD",
"DDDDDDDDDDDDDDDDDDDDDDDDDDDDDDDD",
"DDDDDDDDDDDDDDDDDDDDDDDDDDDDDDDD",
"EEEEEEEEEEEEEEEEEEEEEEEEEEEEEEEE"};
