/* XPM */
static char *close_prelight_xpm[] = {
"32 48 67 1",
"a c #000000",
"b c #393939",
"c c #2B2B2B",
"d c #2A2A2A",
"e c #262626",
"f c #222222",
"g c #1F1F1F",
"h c #1D1D1D",
"i c #1C1C1C",
"j c #292929",
"k c #212121",
"l c #323232",
"m c #353535",
"n c #3A3A3A",
"o c #282828",
"p c #1E1E1E",
"q c #252525",
"r c #383838",
"s c #373737",
"t c #242424",
"u c #333333",
"v c #232323",
"w c #272727",
"x c #343434",
"y c #0F0F0F",
"z c #0E0E0E",
"A c #0D0D0D",
"B c #BBBBB9",
"C c #BFBFBE",
"D c #212120",
"E c #C0C0BF",
"F c #B9B9B7",
"G c #313131",
"H c #C5C5C4",
"I c #EEEEEC",
"J c #C6C6C4",
"K c #C7C7C5",
"L c #303030",
"M c #3A3A39",
"N c #CCCCCA",
"O c #363636",
"P c #373736",
"Q c #CBCBC9",
"R c #1F1F1E",
"S c #C5C5C3",
"T c #CACAC8",
"U c #1B1B1B",
"V c #C2C2C1",
"W c #C1C1C0",
"X c #BFBFBD",
"Y c #C6C6C5",
"Z c #BEBEBD",
"0 c #202020",
"1 c #131313",
"2 c #2C2C2C",
"3 c #1A1A1A",
"4 c #171717",
"5 c #2F2F2F",
"6 c #0B0B0B",
"7 c #101010",
"8 c #2D2D2D",
"9 c #0C0C0C",
"_ c #161616",
"? c #090909",
"= c #080808",
") c #0A0A0A",
"( c #070707",
"aaaaaaaaaaaaaaaaaaaaaaaaaaaaaaaa",
"bbbbbbbbbbbbbbbbbbbbbbbbbbbbbbbb",
"cccccccccccccccccccccccccccccccc",
"cccccccccccccccccccccccccccccccc",
"cccccccccccccccccccccccccccccccc",
"dddddddddddddddddddddddddddddddd",
"dddddddddddddddddddddddddddddddd",
"dddddddddddddddddddddddddddddddd",
"dddddddddddddddddddddddddddddddd",
"dddddddddddefghiihgfeddddddddddd",
"ddddddddjehkdlmnnmldkhejdddddddd",
"dddddddopqmnbrrssrrbnmtpoddddddd",
"ddddddegunrssssssssssrnugedddddd",
"dddddvfrrssssssssssssssrrfvddddd",
"ddddefbssssssssssssssssssbfedddd",
"jjjwgssssssssssssssssssssssgwjjj",
"jjopussssssssssssssssssssssupojj",
"jjeqrssssssssssssssssssssssrtejj",
"johxssssssssssssssssssssssssxpoj",
"jqkrssssssssyzesseAyssssssssrkqj",
"okdsssssssssBCDeekEFsssssssssjko",
"ogGsssssssssHIJDDKIHsssssssssLgo",
"ohusssssssssMNIJJINMsssssssssuho",
"oiOssssssssssPJIIQrssssssssssOio",
"wiOsssssssssqRSIITfqsssssssssOUw",
"whusssssssssDKIQQIKDsssssssssuiw",
"wpLsssssssssVINMMQIWsssssssssLpw",
"wkjsssssssssXYbssMYZsssssssssjkw",
"wt0ssssssssssssssssssssssssss0tw",
"wwhusssssssssssssssssssssssslpww",
"owqtsssssssssssssssssssssssstewo",
"owopGssssssssssssssssssssssGpwwo",
"oowegmssssssssssssssssssssmgwwoo",
"wweeqfssssssssssssssssssssfteeww",
"wwweeg1ussssssssssssssssu1geewww",
"wwwweeUz2ssssssssssssss2z3eewwww",
"wwwwweegA45ssssssssss54A0eewwwww",
"wwwwwweeqi67po8ll8op79iqeewwwwww",
"wwwwwwweeeeg_y9?=)y_geeeewwwwwww",
"wwwwwwwwweeeeeqqqqeeeeewwwwwwwww",
"wwwwwwwwwwweeeeeeeeeewwwwwwwwwww",
"wwwwwwwwwwwwwwwwwwwwwwwwwwwwwwww",
"eeeeeeeeeeeeeeeeeeeeeeeeeeeeeeee",
"eeeeeeeeeeeeeeeeeeeeeeeeeeeeeeee",
"eeeeeeeeeeeeeeeeeeeeeeeeeeeeeeee",
"eeeeeeeeeeeeeeeeeeeeeeeeeeeeeeee",
"eeeeeeeeeeeeeeeeeeeeeeeeeeeeeeee",
"(((((((((((((((((((((((((((((((("};