/* XPM */
static char *close_active_xpm[] = {
"32 48 37 1",
"a c #000000",
"b c #393939",
"c c #2B2B2B",
"d c #2A2A2A",
"e c #292929",
"f c #0F0F0F",
"g c #0E0E0E",
"h c #262626",
"i c #0D0D0D",
"j c #BBBBB9",
"k c #BFBFBE",
"l c #212120",
"m c #212121",
"n c #C0C0BF",
"o c #B9B9B7",
"p c #C5C5C4",
"q c #EEEEEC",
"r c #C6C6C4",
"s c #C7C7C5",
"t c #3A3A39",
"u c #CCCCCA",
"v c #373736",
"w c #CBCBC9",
"x c #383838",
"y c #282828",
"z c #252525",
"A c #1F1F1E",
"B c #C5C5C3",
"C c #CACAC8",
"D c #222222",
"E c #C2C2C1",
"F c #C1C1C0",
"G c #BFBFBD",
"H c #C6C6C5",
"I c #BEBEBD",
"J c #272727",
"K c #070707",
"aaaaaaaaaaaaaaaaaaaaaaaaaaaaaaaa",
"bbbbbbbbbbbbbbbbbbbbbbbbbbbbbbbb",
"cccccccccccccccccccccccccccccccc",
"cccccccccccccccccccccccccccccccc",
"cccccccccccccccccccccccccccccccc",
"dddddddddddddddddddddddddddddddd",
"dddddddddddddddddddddddddddddddd",
"dddddddddddddddddddddddddddddddd",
"dddddddddddddddddddddddddddddddd",
"dddddddddddddddddddddddddddddddd",
"dddddddddddddddddddddddddddddddd",
"dddddddddddddddddddddddddddddddd",
"dddddddddddddddddddddddddddddddd",
"dddddddddddddddddddddddddddddddd",
"dddddddddddddddddddddddddddddddd",
"eeeeeeeeeeeeeeeeeeeeeeeeeeeeeeee",
"eeeeeeeeeeeeeeeeeeeeeeeeeeeeeeee",
"eeeeeeeeeeeeeeeeeeeeeeeeeeeeeeee",
"eeeeeeeeeeeeeeeeeeeeeeeeeeeeeeee",
"eeeeeeeeeeeefgheehifeeeeeeeeeeee",
"eeeeeeeeeeeejklhhmnoeeeeeeeeeeee",
"eeeeeeeeeeeepqrllsqpeeeeeeeeeeee",
"eeeeeeeeeeeetuqrrquteeeeeeeeeeee",
"eeeeeeeeeeeeevrqqwxeeeeeeeeeeeee",
"yyyyyyyyyyyyzABqqCDzyyyyyyyyyyyy",
"yyyyyyyyyyyylsqwwqslyyyyyyyyyyyy",
"yyyyyyyyyyyyEquttwqFyyyyyyyyyyyy",
"yyyyyyyyyyyyGHbyytHIyyyyyyyyyyyy",
"yyyyyyyyyyyyyyyyyyyyyyyyyyyyyyyy",
"yyyyyyyyyyyyyyyyyyyyyyyyyyyyyyyy",
"yyyyyyyyyyyyyyyyyyyyyyyyyyyyyyyy",
"yyyyyyyyyyyyyyyyyyyyyyyyyyyyyyyy",
"yyyyyyyyyyyyyyyyyyyyyyyyyyyyyyyy",
"JJJJJJJJJJJJJJJJJJJJJJJJJJJJJJJJ",
"JJJJJJJJJJJJJJJJJJJJJJJJJJJJJJJJ",
"JJJJJJJJJJJJJJJJJJJJJJJJJJJJJJJJ",
"JJJJJJJJJJJJJJJJJJJJJJJJJJJJJJJJ",
"JJJJJJJJJJJJJJJJJJJJJJJJJJJJJJJJ",
"JJJJJJJJJJJJJJJJJJJJJJJJJJJJJJJJ",
"JJJJJJJJJJJJJJJJJJJJJJJJJJJJJJJJ",
"JJJJJJJJJJJJJJJJJJJJJJJJJJJJJJJJ",
"JJJJJJJJJJJJJJJJJJJJJJJJJJJJJJJJ",
"hhhhhhhhhhhhhhhhhhhhhhhhhhhhhhhh",
"hhhhhhhhhhhhhhhhhhhhhhhhhhhhhhhh",
"hhhhhhhhhhhhhhhhhhhhhhhhhhhhhhhh",
"hhhhhhhhhhhhhhhhhhhhhhhhhhhhhhhh",
"hhhhhhhhhhhhhhhhhhhhhhhhhhhhhhhh",
"KKKKKKKKKKKKKKKKKKKKKKKKKKKKKKKK"};