/* XPM */
static char *shade_pressed_xpm[] = {
"32 48 41 1",
"a c #000000",
"b c #393939",
"c c #2B2B2B",
"d c #2A2A2A",
"e c #262626",
"f c #222222",
"g c #1E1E1E",
"h c #1C1C1C",
"i c #1B1B1B",
"j c #292929",
"k c #202020",
"l c #1D1D1D",
"m c #232323",
"n c #1F1F1F",
"o c #212121",
"p c #333333",
"q c #191919",
"r c #7B7B7B",
"s c #838383",
"t c #323232",
"u c #1A1A1A",
"v c #939393",
"w c #DFDFDF",
"x c #999999",
"y c #313131",
"z c #A3A3A3",
"A c #A8A8A8",
"B c #ABABAB",
"C c #CCCCCC",
"D c #AAAAAA",
"E c #282828",
"F c #505050",
"G c #BCBCBC",
"H c #4B4B4B",
"I c #484848",
"J c #BBBBBB",
"K c #535353",
"L c #252525",
"M c #272727",
"N c #242424",
"O c #070707",
"aaaaaaaaaaaaaaaaaaaaaaaaaaaaaaaa",
"bbbbbbbbbbbbbbbbbbbbbbbbbbbbbbbb",
"cccccccccccccccccccccccccccccccc",
"cccccccccccccccccccccccccccccccc",
"cccccccccccccccccccccccccccccccc",
"dddddddddddddddddddddddddddddddd",
"dddddddddddddddddddddddddddddddd",
"dddddddddddddddddddddddddddddddd",
"dddddddddddddddddddddddddddddddd",
"dddddddddddefghiihgfeddddddddddd",
"ddddddddjkihllggggllhikjdddddddd",
"dddddddfihgggggggggggghimddddddd",
"ddddddnilgggggggggggggglindddddd",
"dddddlhgggggggggggggggggghgddddd",
"ddddnhgggggggggggggggggggghndddd",
"jjjfiggggggggggggggggggggggifjjj",
"jjjilgggggggggggggggggggggglijjj",
"jjkhgggggggggggggggggggggggghkjj",
"jjiggggggggggggggggggggggggggijj",
"jehggggggggggggligggggggggggghej",
"jolggggggggggpqrsqpgggggggggghoj",
"jglgggggggggtuvwwxuyggggggggglgj",
"jhgggggggggggzwwwwAogggggggggghj",
"jiggggggggggBwCwwCwDggggggggggij",
"EiggggggggggFGHwwIJKggggggggggiE",
"EhgggggggggggggwwggggggggggggghE",
"EglggggggggggggwwgggggggggggglgE",
"EolggggggggggggwwgggggggggggghoE",
"ELhgggggggggggggggggggggggggghLE",
"EEiggggggggggggggggggggggggggiEE",
"EEnhgggggggggggggggggggggggghkEE",
"EEEilgggggggggggggggggggggglhEEE",
"EEEfiggggggggggggggggggggggifEEE",
"MMMMghgggggggggggggggggggghnMMMM",
"MMMMMlhgggggggggggggggggghlMMMMM",
"MMMMMMgilgggggggggggggglinMMMMMM",
"MMMMMMMoihggggggggggglhioMMMMMMM",
"MMMMMMMMMnihhlgggglhhinMMMMMMMMM",
"MMMMMMMMMMMNoghiihgoNMMMMMMMMMMM",
"MMMMMMMMMMMMMMMMMMMMMMMMMMMMMMMM",
"MMMMMMMMMMMMMMMMMMMMMMMMMMMMMMMM",
"MMMMMMMMMMMMMMMMMMMMMMMMMMMMMMMM",
"eeeeeeeeeeeeeeeeeeeeeeeeeeeeeeee",
"eeeeeeeeeeeeeeeeeeeeeeeeeeeeeeee",
"eeeeeeeeeeeeeeeeeeeeeeeeeeeeeeee",
"eeeeeeeeeeeeeeeeeeeeeeeeeeeeeeee",
"eeeeeeeeeeeeeeeeeeeeeeeeeeeeeeee",
"OOOOOOOOOOOOOOOOOOOOOOOOOOOOOOOO"};