/* XPM */
static char *stick_pressed_xpm[] = {
"32 48 41 1",
"a c #000000",
"b c #393939",
"c c #2B2B2B",
"d c #2A2A2A",
"e c #262626",
"f c #222222",
"g c #1E1E1E",
"h c #1C1C1C",
"i c #1B1B1B",
"j c #292929",
"k c #202020",
"l c #1D1D1D",
"m c #232323",
"n c #1F1F1F",
"o c #2F2F2F",
"p c #171717",
"q c #0B0B0B",
"r c #161616",
"s c #2D2D2D",
"t c #212121",
"u c #242424",
"v c #999999",
"w c #D4D4D4",
"x c #9C9C9C",
"y c #D0D0D0",
"z c #DFDFDF",
"A c #D1D1D1",
"B c #282828",
"C c #D5D5D5",
"D c #D3D3D3",
"E c #A7A7A7",
"F c #A3A3A3",
"G c #4D4D4D",
"H c #454545",
"I c #464646",
"J c #A6A6A6",
"K c #D6D6D6",
"L c #A5A5A5",
"M c #252525",
"N c #272727",
"O c #070707",
"aaaaaaaaaaaaaaaaaaaaaaaaaaaaaaaa",
"bbbbbbbbbbbbbbbbbbbbbbbbbbbbbbbb",
"cccccccccccccccccccccccccccccccc",
"cccccccccccccccccccccccccccccccc",
"cccccccccccccccccccccccccccccccc",
"dddddddddddddddddddddddddddddddd",
"dddddddddddddddddddddddddddddddd",
"dddddddddddddddddddddddddddddddd",
"dddddddddddddddddddddddddddddddd",
"dddddddddddefghiihgfeddddddddddd",
"ddddddddjkihllggggllhikjdddddddd",
"dddddddfihgggggggggggghimddddddd",
"ddddddnilgggggggggggggglindddddd",
"dddddlhgggggggggggggggggghgddddd",
"ddddnhgggggggggggggggggggghndddd",
"jjjfiggggggggggggggggggggggifjjj",
"jjjilgggggggggggggggggggggglijjj",
"jjkhgggggggggggggggggggggggghkjj",
"jjiggggggggggggggggggggggggggijj",
"jehggggggggggopqqrsgggggggggghej",
"jtlgggggggggouvwwxcoggggggggghtj",
"jglgggggggggsyzzzzAsggggggggglgj",
"jhggggggggggvzzzzzzvgggggggggghj",
"jiggggggggggwzzzzzzwggggggggggij",
"BiggggggggggCzzzzzzDggggggggggiB",
"BhggggggggggEzzzzzzFgggggggggghB",
"BglgggggggggGDzzzzAHggggggggglgB",
"BtlggggggggggIJKKLHgggggggggghtB",
"BMhgggggggggggggggggggggggggghMB",
"BBiggggggggggggggggggggggggggiBB",
"BBnhgggggggggggggggggggggggghkBB",
"BBBilgggggggggggggggggggggglhBBB",
"BBBfiggggggggggggggggggggggifBBB",
"NNNNghgggggggggggggggggggghnNNNN",
"NNNNNlhgggggggggggggggggghlNNNNN",
"NNNNNNgilgggggggggggggglinNNNNNN",
"NNNNNNNtihggggggggggglhitNNNNNNN",
"NNNNNNNNNnihhlgggglhhinNNNNNNNNN",
"NNNNNNNNNNNutghiihgtuNNNNNNNNNNN",
"NNNNNNNNNNNNNNNNNNNNNNNNNNNNNNNN",
"NNNNNNNNNNNNNNNNNNNNNNNNNNNNNNNN",
"NNNNNNNNNNNNNNNNNNNNNNNNNNNNNNNN",
"eeeeeeeeeeeeeeeeeeeeeeeeeeeeeeee",
"eeeeeeeeeeeeeeeeeeeeeeeeeeeeeeee",
"eeeeeeeeeeeeeeeeeeeeeeeeeeeeeeee",
"eeeeeeeeeeeeeeeeeeeeeeeeeeeeeeee",
"eeeeeeeeeeeeeeeeeeeeeeeeeeeeeeee",
"OOOOOOOOOOOOOOOOOOOOOOOOOOOOOOOO"};