/* XPM */
static char *top_left_inactive_xpm[] = {
"8 48 25 1",
"a c None",
"b c #020102",
"c c #010101",
"d c #060606",
"e c #242323",
"f c #363636",
"g c #40403F",
"h c #171617",
"i c #3D3D3D",
"j c #3B3B3B",
"k c #373737",
"l c #171616",
"m c #3E3E3E",
"n c #353535",
"o c #070606",
"p c #3A3A3A",
"q c #222122",
"r c #030202",
"s c #2F2F2F",
"t c #020101",
"u c #343434",
"v c #010001",
"w c #010000",
"x c #000000",
"y c #202020",
"aaaaaabc",
"aaaadefg",
"aaahijkf",
"aalmfnnn",
"aopnnnnn",
"aqfnnnnn",
"rsnnnnnn",
"tunnnnnn",
"cfnnnnnn",
"cnnnnnnn",
"cnnnnnnn",
"cnnnnnnn",
"vnnnnnnn",
"vnnnnnnn",
"vnnnnnnn",
"wnnnnnnn",
"cnnnnnnn",
"cnnnnnnn",
"vnnnnnnn",
"vnnnnnnn",
"cnnnnnnn",
"cnnnnnnn",
"wnnnnnnn",
"xnnnnnnn",
"cnnnnnnn",
"cnnnnnnn",
"cnnnnnnn",
"vnnnnnnn",
"wnnnnnnn",
"vnnnnnnn",
"wnnnnnnn",
"wnnnnnnn",
"wnnnnnnn",
"vnnnnnnn",
"wnnnnnnn",
"wnnnnnnn",
"vnnnnnnn",
"cnnnnnnn",
"vnnnnnnn",
"wnnnnnnn",
"vnnnnnnn",
"vnnnnnnn",
"wnnnnnnn",
"wnnnnnnn",
"vnnnnnnn",
"vnnnnnnn",
"vnnnnnnn",
"cyyyyyyy"};