/* XPM */
static char *close_pressed_xpm[] = {
"32 48 45 1",
"a c #000000",
"b c #393939",
"c c #2B2B2B",
"d c #2A2A2A",
"e c #262626",
"f c #222222",
"g c #1E1E1E",
"h c #1C1C1C",
"i c #1B1B1B",
"j c #292929",
"k c #202020",
"l c #1D1D1D",
"m c #232323",
"n c #1F1F1F",
"o c #0F0F0F",
"p c #0E0E0E",
"q c #0D0D0D",
"r c #212121",
"s c #BBBBB9",
"t c #BFBFBE",
"u c #212120",
"v c #C0C0BF",
"w c #B9B9B7",
"x c #C5C5C4",
"y c #EEEEEC",
"z c #C6C6C4",
"A c #C7C7C5",
"B c #3A3A39",
"C c #CCCCCA",
"D c #373736",
"E c #CBCBC9",
"F c #383838",
"G c #282828",
"H c #252525",
"I c #1F1F1E",
"J c #C5C5C3",
"K c #CACAC8",
"L c #C2C2C1",
"M c #C1C1C0",
"N c #BFBFBD",
"O c #C6C6C5",
"P c #BEBEBD",
"Q c #272727",
"R c #242424",
"S c #070707",
"aaaaaaaaaaaaaaaaaaaaaaaaaaaaaaaa",
"bbbbbbbbbbbbbbbbbbbbbbbbbbbbbbbb",
"cccccccccccccccccccccccccccccccc",
"cccccccccccccccccccccccccccccccc",
"cccccccccccccccccccccccccccccccc",
"dddddddddddddddddddddddddddddddd",
"dddddddddddddddddddddddddddddddd",
"dddddddddddddddddddddddddddddddd",
"dddddddddddddddddddddddddddddddd",
"dddddddddddefghiihgfeddddddddddd",
"ddddddddjkihllggggllhikjdddddddd",
"dddddddfihgggggggggggghimddddddd",
"ddddddnilgggggggggggggglindddddd",
"dddddlhgggggggggggggggggghgddddd",
"ddddnhgggggggggggggggggggghndddd",
"jjjfiggggggggggggggggggggggifjjj",
"jjjilgggggggggggggggggggggglijjj",
"jjkhgggggggggggggggggggggggghkjj",
"jjiggggggggggggggggggggggggggijj",
"jehgggggggggopeggeqoggggggggghej",
"jrlgggggggggstueervwggggggggghrj",
"jglgggggggggxyzuuAyxggggggggglgj",
"jhggggggggggBCyzzyCBgggggggggghj",
"jigggggggggggDzyyEFgggggggggggij",
"GiggggggggggHIJyyKfHggggggggggiG",
"GhgggggggggguAyEEyAugggggggggghG",
"GglgggggggggLyCBBEyMggggggggglgG",
"GrlgggggggggNObggBOPggggggggghrG",
"GHhgggggggggggggggggggggggggghHG",
"GGiggggggggggggggggggggggggggiGG",
"GGnhgggggggggggggggggggggggghkGG",
"GGGilgggggggggggggggggggggglhGGG",
"GGGfiggggggggggggggggggggggifGGG",
"QQQQghgggggggggggggggggggghnQQQQ",
"QQQQQlhgggggggggggggggggghlQQQQQ",
"QQQQQQgilgggggggggggggglinQQQQQQ",
"QQQQQQQrihggggggggggglhirQQQQQQQ",
"QQQQQQQQQnihhlgggglhhinQQQQQQQQQ",
"QQQQQQQQQQQRrghiihgrRQQQQQQQQQQQ",
"QQQQQQQQQQQQQQQQQQQQQQQQQQQQQQQQ",
"QQQQQQQQQQQQQQQQQQQQQQQQQQQQQQQQ",
"QQQQQQQQQQQQQQQQQQQQQQQQQQQQQQQQ",
"eeeeeeeeeeeeeeeeeeeeeeeeeeeeeeee",
"eeeeeeeeeeeeeeeeeeeeeeeeeeeeeeee",
"eeeeeeeeeeeeeeeeeeeeeeeeeeeeeeee",
"eeeeeeeeeeeeeeeeeeeeeeeeeeeeeeee",
"eeeeeeeeeeeeeeeeeeeeeeeeeeeeeeee",
"SSSSSSSSSSSSSSSSSSSSSSSSSSSSSSSS"};
