/* XPM */
static char *maximize_toggled_pressed_xpm[] = {
"32 48 29 1",
"a c #000000",
"b c #393939",
"c c #2B2B2B",
"d c #2A2A2A",
"e c #262626",
"f c #222222",
"g c #1E1E1E",
"h c #1C1C1C",
"i c #1B1B1B",
"j c #292929",
"k c #202020",
"l c #1D1D1D",
"m c #232323",
"n c #1F1F1F",
"o c #0F0F0F",
"p c #070707",
"q c #212121",
"r c #B9B9B8",
"s c #EEEEEC",
"t c #B9B9B7",
"u c #373737",
"v c #383838",
"w c #282828",
"x c #181818",
"y c #C0C0BE",
"z c #BFBFBD",
"A c #252525",
"B c #272727",
"C c #242424",
"aaaaaaaaaaaaaaaaaaaaaaaaaaaaaaaa",
"bbbbbbbbbbbbbbbbbbbbbbbbbbbbbbbb",
"cccccccccccccccccccccccccccccccc",
"cccccccccccccccccccccccccccccccc",
"cccccccccccccccccccccccccccccccc",
"dddddddddddddddddddddddddddddddd",
"dddddddddddddddddddddddddddddddd",
"dddddddddddddddddddddddddddddddd",
"dddddddddddddddddddddddddddddddd",
"dddddddddddefghiihgfeddddddddddd",
"ddddddddjkihllggggllhikjdddddddd",
"dddddddfihgggggggggggghimddddddd",
"ddddddnilgggggggggggggglindddddd",
"dddddlhgggggggggggggggggghgddddd",
"ddddnhgggggggggggggggggggghndddd",
"jjjfiggggggggggggggggggggggifjjj",
"jjjilgggggggggggggggggggggglijjj",
"jjkhgggggggggggggggggggggggghkjj",
"jjiggggggggggggggggggggggggggijj",
"jehgggggggggoppppppoggggggggghej",
"jqlgggggggggrsssssstggggggggghqj",
"jglgggggggggssssssssggggggggglgj",
"jhggggggggggssssssssgggggggggghj",
"jiggggggggggssujjvssggggggggggij",
"wiggggggggggssewwessggggggggggiw",
"whggggggggggssxppxssgggggggggghw",
"wglgggggggggssssssssggggggggglgw",
"wqlgggggggggysssssszggggggggghqw",
"wAhgggggggggggggggggggggggggghAw",
"wwiggggggggggggggggggggggggggiww",
"wwnhgggggggggggggggggggggggghkww",
"wwwilgggggggggggggggggggggglhwww",
"wwwfiggggggggggggggggggggggifwww",
"BBBBghgggggggggggggggggggghnBBBB",
"BBBBBlhgggggggggggggggggghlBBBBB",
"BBBBBBgilgggggggggggggglinBBBBBB",
"BBBBBBBqihggggggggggglhiqBBBBBBB",
"BBBBBBBBBnihhlgggglhhinBBBBBBBBB",
"BBBBBBBBBBBCqghiihgqCBBBBBBBBBBB",
"BBBBBBBBBBBBBBBBBBBBBBBBBBBBBBBB",
"BBBBBBBBBBBBBBBBBBBBBBBBBBBBBBBB",
"BBBBBBBBBBBBBBBBBBBBBBBBBBBBBBBB",
"eeeeeeeeeeeeeeeeeeeeeeeeeeeeeeee",
"eeeeeeeeeeeeeeeeeeeeeeeeeeeeeeee",
"eeeeeeeeeeeeeeeeeeeeeeeeeeeeeeee",
"eeeeeeeeeeeeeeeeeeeeeeeeeeeeeeee",
"eeeeeeeeeeeeeeeeeeeeeeeeeeeeeeee",
"pppppppppppppppppppppppppppppppp"};
