/* XPM */
static char *menu_prelight_xpm[] = {
"32 48 58 1",
"a c #000000",
"b c #393939",
"c c #2B2B2B",
"d c #2A2A2A",
"e c #262626",
"f c #222222",
"g c #1F1F1F",
"h c #1D1D1D",
"i c #1C1C1C",
"j c #292929",
"k c #212121",
"l c #323232",
"m c #353535",
"n c #3A3A3A",
"o c #282828",
"p c #1E1E1E",
"q c #252525",
"r c #383838",
"s c #373737",
"t c #242424",
"u c #333333",
"v c #232323",
"w c #272727",
"x c #343434",
"y c #161616",
"z c #090909",
"A c #A8A8A8",
"B c #DFDFDF",
"C c #313131",
"D c #474747",
"E c #D6D6D6",
"F c #303030",
"G c #7F7F7F",
"H c #363636",
"I c #BABABA",
"J c #565656",
"K c #DCDCDC",
"L c #1B1B1B",
"M c #929292",
"N c #3B3B3B",
"O c #CACACA",
"P c #696969",
"Q c #202020",
"R c #131313",
"S c #0E0E0E",
"T c #2C2C2C",
"U c #1A1A1A",
"V c #0D0D0D",
"W c #171717",
"X c #2F2F2F",
"Y c #0B0B0B",
"Z c #101010",
"0 c #2D2D2D",
"1 c #0C0C0C",
"2 c #0F0F0F",
"3 c #080808",
"4 c #0A0A0A",
"5 c #070707",
"aaaaaaaaaaaaaaaaaaaaaaaaaaaaaaaa",
"bbbbbbbbbbbbbbbbbbbbbbbbbbbbbbbb",
"cccccccccccccccccccccccccccccccc",
"cccccccccccccccccccccccccccccccc",
"cccccccccccccccccccccccccccccccc",
"dddddddddddddddddddddddddddddddd",
"dddddddddddddddddddddddddddddddd",
"dddddddddddddddddddddddddddddddd",
"dddddddddddddddddddddddddddddddd",
"dddddddddddefghiihgfeddddddddddd",
"ddddddddjehkdlmnnmldkhejdddddddd",
"dddddddopqmnbrrssrrbnmtpoddddddd",
"ddddddegunrssssssssssrnugedddddd",
"dddddvfrrssssssssssssssrrfvddddd",
"ddddefbssssssssssssssssssbfedddd",
"jjjwgssssssssssssssssssssssgwjjj",
"jjopussssssssssssssssssssssupojj",
"jjeqrssssssssssssssssssssssrtejj",
"johxssssssssssssssssssssssssxpoj",
"jqkrsssssssyzzzzzzzzysssssssrkqj",
"okdssssssssABBBBBBBBAssssssssjko",
"ogCssssssssDEBBBBBBEDssssssssFgo",
"ohusssssssssGBBBBBBGsssssssssuho",
"oiHsssssssssmIBBBBImsssssssssHio",
"wiHssssssssssJKBBKJssssssssssHLw",
"whusssssssssssMBBMsssssssssssuiw",
"wpFsssssssssssNOONsssssssssssFpw",
"wkjssssssssssssPPssssssssssssjkw",
"wtQssssssssssssssssssssssssssQtw",
"wwhusssssssssssssssssssssssslpww",
"owqtsssssssssssssssssssssssstewo",
"owopCssssssssssssssssssssssCpwwo",
"oowegmssssssssssssssssssssmgwwoo",
"wweeqfssssssssssssssssssssfteeww",
"wwweegRussssssssssssssssuRgeewww",
"wwwweeLSTssssssssssssssTSUeewwww",
"wwwwweegVWXssssssssssXWVQeewwwww",
"wwwwwweeqiYZpo0ll0opZ1iqeewwwwww",
"wwwwwwweeeegy21z342ygeeeewwwwwww",
"wwwwwwwwweeeeeqqqqeeeeewwwwwwwww",
"wwwwwwwwwwweeeeeeeeeewwwwwwwwwww",
"wwwwwwwwwwwwwwwwwwwwwwwwwwwwwwww",
"eeeeeeeeeeeeeeeeeeeeeeeeeeeeeeee",
"eeeeeeeeeeeeeeeeeeeeeeeeeeeeeeee",
"eeeeeeeeeeeeeeeeeeeeeeeeeeeeeeee",
"eeeeeeeeeeeeeeeeeeeeeeeeeeeeeeee",
"eeeeeeeeeeeeeeeeeeeeeeeeeeeeeeee",
"55555555555555555555555555555555"};
