/* XPM */
static char *menu_pressed_xpm[] = {
"32 48 35 1",
"a c #000000",
"b c #393939",
"c c #2B2B2B",
"d c #2A2A2A",
"e c #262626",
"f c #222222",
"g c #1E1E1E",
"h c #1C1C1C",
"i c #1B1B1B",
"j c #292929",
"k c #202020",
"l c #1D1D1D",
"m c #232323",
"n c #1F1F1F",
"o c #161616",
"p c #090909",
"q c #212121",
"r c #A8A8A8",
"s c #DFDFDF",
"t c #474747",
"u c #D6D6D6",
"v c #7F7F7F",
"w c #353535",
"x c #BABABA",
"y c #282828",
"z c #565656",
"A c #DCDCDC",
"B c #929292",
"C c #3B3B3B",
"D c #CACACA",
"E c #696969",
"F c #252525",
"G c #272727",
"H c #242424",
"I c #070707",
"aaaaaaaaaaaaaaaaaaaaaaaaaaaaaaaa",
"bbbbbbbbbbbbbbbbbbbbbbbbbbbbbbbb",
"cccccccccccccccccccccccccccccccc",
"cccccccccccccccccccccccccccccccc",
"cccccccccccccccccccccccccccccccc",
"dddddddddddddddddddddddddddddddd",
"dddddddddddddddddddddddddddddddd",
"dddddddddddddddddddddddddddddddd",
"dddddddddddddddddddddddddddddddd",
"dddddddddddefghiihgfeddddddddddd",
"ddddddddjkihllggggllhikjdddddddd",
"dddddddfihgggggggggggghimddddddd",
"ddddddnilgggggggggggggglindddddd",
"dddddlhgggggggggggggggggghgddddd",
"ddddnhgggggggggggggggggggghndddd",
"jjjfiggggggggggggggggggggggifjjj",
"jjjilgggggggggggggggggggggglijjj",
"jjkhgggggggggggggggggggggggghkjj",
"jjiggggggggggggggggggggggggggijj",
"jehggggggggoppppppppogggggggghej",
"jqlggggggggrssssssssrgggggggghqj",
"jglggggggggtussssssutgggggggglgj",
"jhggggggggggvssssssvgggggggggghj",
"jiggggggggggwxssssxwggggggggggij",
"yigggggggggggzAssAzgggggggggggiy",
"yhggggggggggggBssBgggggggggggghy",
"yglgggggggggggCDDCggggggggggglgy",
"yqlggggggggggggEEgggggggggggghqy",
"yFhgggggggggggggggggggggggggghFy",
"yyiggggggggggggggggggggggggggiyy",
"yynhgggggggggggggggggggggggghkyy",
"yyyilgggggggggggggggggggggglhyyy",
"yyyfiggggggggggggggggggggggifyyy",
"GGGGghgggggggggggggggggggghnGGGG",
"GGGGGlhgggggggggggggggggghlGGGGG",
"GGGGGGgilgggggggggggggglinGGGGGG",
"GGGGGGGqihggggggggggglhiqGGGGGGG",
"GGGGGGGGGnihhlgggglhhinGGGGGGGGG",
"GGGGGGGGGGGHqghiihgqHGGGGGGGGGGG",
"GGGGGGGGGGGGGGGGGGGGGGGGGGGGGGGG",
"GGGGGGGGGGGGGGGGGGGGGGGGGGGGGGGG",
"GGGGGGGGGGGGGGGGGGGGGGGGGGGGGGGG",
"eeeeeeeeeeeeeeeeeeeeeeeeeeeeeeee",
"eeeeeeeeeeeeeeeeeeeeeeeeeeeeeeee",
"eeeeeeeeeeeeeeeeeeeeeeeeeeeeeeee",
"eeeeeeeeeeeeeeeeeeeeeeeeeeeeeeee",
"eeeeeeeeeeeeeeeeeeeeeeeeeeeeeeee",
"IIIIIIIIIIIIIIIIIIIIIIIIIIIIIIII"};
