/* XPM */
static char *shade_prelight_xpm[] = {
"32 48 63 1",
"a c #000000",
"b c #393939",
"c c #2B2B2B",
"d c #2A2A2A",
"e c #262626",
"f c #222222",
"g c #1F1F1F",
"h c #1D1D1D",
"i c #1C1C1C",
"j c #292929",
"k c #212121",
"l c #323232",
"m c #353535",
"n c #3A3A3A",
"o c #282828",
"p c #1E1E1E",
"q c #252525",
"r c #383838",
"s c #373737",
"t c #242424",
"u c #333333",
"v c #232323",
"w c #272727",
"x c #343434",
"y c #1B1B1B",
"z c #191919",
"A c #7B7B7B",
"B c #838383",
"C c #313131",
"D c #1A1A1A",
"E c #939393",
"F c #DFDFDF",
"G c #999999",
"H c #303030",
"I c #A3A3A3",
"J c #A8A8A8",
"K c #363636",
"L c #ABABAB",
"M c #CCCCCC",
"N c #AAAAAA",
"O c #505050",
"P c #BCBCBC",
"Q c #4B4B4B",
"R c #484848",
"S c #BBBBBB",
"T c #535353",
"U c #202020",
"V c #131313",
"W c #0E0E0E",
"X c #2C2C2C",
"Y c #0D0D0D",
"Z c #171717",
"0 c #2F2F2F",
"1 c #0B0B0B",
"2 c #101010",
"3 c #2D2D2D",
"4 c #0C0C0C",
"5 c #161616",
"6 c #0F0F0F",
"7 c #090909",
"8 c #080808",
"9 c #0A0A0A",
"_ c #070707",
"aaaaaaaaaaaaaaaaaaaaaaaaaaaaaaaa",
"bbbbbbbbbbbbbbbbbbbbbbbbbbbbbbbb",
"cccccccccccccccccccccccccccccccc",
"cccccccccccccccccccccccccccccccc",
"cccccccccccccccccccccccccccccccc",
"dddddddddddddddddddddddddddddddd",
"dddddddddddddddddddddddddddddddd",
"dddddddddddddddddddddddddddddddd",
"dddddddddddddddddddddddddddddddd",
"dddddddddddefghiihgfeddddddddddd",
"ddddddddjehkdlmnnmldkhejdddddddd",
"dddddddopqmnbrrssrrbnmtpoddddddd",
"ddddddegunrssssssssssrnugedddddd",
"dddddvfrrssssssssssssssrrfvddddd",
"ddddefbssssssssssssssssssbfedddd",
"jjjwgssssssssssssssssssssssgwjjj",
"jjopussssssssssssssssssssssupojj",
"jjeqrssssssssssssssssssssssrtejj",
"johxssssssssssssssssssssssssxpoj",
"jqkrssssssssssshysssssssssssrkqj",
"okdssssssssssuzABzussssssssssjko",
"ogCssssssssslDEFFGDCsssssssssHgo",
"ohussssssssspIFFFFJksssssssssuho",
"oiKsssssssssLFMFFMFNsssssssssKio",
"wiKsssssssssOPQFFRSTsssssssssKyw",
"whussssssssssssFFssssssssssssuiw",
"wpHssssssssssssFFssssssssssssHpw",
"wkjssssssssssssFFssssssssssssjkw",
"wtUssssssssssssssssssssssssssUtw",
"wwhusssssssssssssssssssssssslpww",
"owqtsssssssssssssssssssssssstewo",
"owopCssssssssssssssssssssssCpwwo",
"oowegmssssssssssssssssssssmgwwoo",
"wweeqfssssssssssssssssssssfteeww",
"wwweegVussssssssssssssssuVgeewww",
"wwwweeyWXssssssssssssssXWDeewwww",
"wwwwweegYZ0ssssssssss0ZYUeewwwww",
"wwwwwweeqi12po3ll3op24iqeewwwwww",
"wwwwwwweeeeg56478965geeeewwwwwww",
"wwwwwwwwweeeeeqqqqeeeeewwwwwwwww",
"wwwwwwwwwwweeeeeeeeeewwwwwwwwwww",
"wwwwwwwwwwwwwwwwwwwwwwwwwwwwwwww",
"eeeeeeeeeeeeeeeeeeeeeeeeeeeeeeee",
"eeeeeeeeeeeeeeeeeeeeeeeeeeeeeeee",
"eeeeeeeeeeeeeeeeeeeeeeeeeeeeeeee",
"eeeeeeeeeeeeeeeeeeeeeeeeeeeeeeee",
"eeeeeeeeeeeeeeeeeeeeeeeeeeeeeeee",
"________________________________"};
