/* XPM */
static char *stick_prelight_xpm[] = {
"32 48 62 1",
"a c #000000",
"b c #393939",
"c c #2B2B2B",
"d c #2A2A2A",
"e c #262626",
"f c #222222",
"g c #1F1F1F",
"h c #1D1D1D",
"i c #1C1C1C",
"j c #292929",
"k c #212121",
"l c #323232",
"m c #353535",
"n c #3A3A3A",
"o c #282828",
"p c #1E1E1E",
"q c #252525",
"r c #383838",
"s c #373737",
"t c #242424",
"u c #333333",
"v c #232323",
"w c #272727",
"x c #343434",
"y c #2F2F2F",
"z c #171717",
"A c #0B0B0B",
"B c #161616",
"C c #2D2D2D",
"D c #999999",
"E c #D4D4D4",
"F c #9C9C9C",
"G c #313131",
"H c #D0D0D0",
"I c #DFDFDF",
"J c #D1D1D1",
"K c #303030",
"L c #363636",
"M c #D5D5D5",
"N c #D3D3D3",
"O c #1B1B1B",
"P c #A7A7A7",
"Q c #A3A3A3",
"R c #4D4D4D",
"S c #454545",
"T c #464646",
"U c #A6A6A6",
"V c #D6D6D6",
"W c #A5A5A5",
"X c #202020",
"Y c #131313",
"Z c #0E0E0E",
"0 c #2C2C2C",
"1 c #1A1A1A",
"2 c #0D0D0D",
"3 c #101010",
"4 c #0C0C0C",
"5 c #0F0F0F",
"6 c #090909",
"7 c #080808",
"8 c #0A0A0A",
"9 c #070707",
"aaaaaaaaaaaaaaaaaaaaaaaaaaaaaaaa",
"bbbbbbbbbbbbbbbbbbbbbbbbbbbbbbbb",
"cccccccccccccccccccccccccccccccc",
"cccccccccccccccccccccccccccccccc",
"cccccccccccccccccccccccccccccccc",
"dddddddddddddddddddddddddddddddd",
"dddddddddddddddddddddddddddddddd",
"dddddddddddddddddddddddddddddddd",
"dddddddddddddddddddddddddddddddd",
"dddddddddddefghiihgfeddddddddddd",
"ddddddddjehkdlmnnmldkhejdddddddd",
"dddddddopqmnbrrssrrbnmtpoddddddd",
"ddddddegunrssssssssssrnugedddddd",
"dddddvfrrssssssssssssssrrfvddddd",
"ddddefbssssssssssssssssssbfedddd",
"jjjwgssssssssssssssssssssssgwjjj",
"jjopussssssssssssssssssssssupojj",
"jjeqrssssssssssssssssssssssrtejj",
"johxssssssssssssssssssssssssxpoj",
"jqkrsssssssssyzAABCsssssssssrkqj",
"okdsssssssssytDEEFcysssssssssjko",
"ogGsssssssssCHIIIIJCsssssssssKgo",
"ohusssssssssDIIIIIIDsssssssssuho",
"oiLsssssssssEIIIIIIEsssssssssLio",
"wiLsssssssssMIIIIIINsssssssssLOw",
"whusssssssssPIIIIIIQsssssssssuiw",
"wpKsssssssssRNIIIIJSsssssssssKpw",
"wkjssssssssssTUVVWSssssssssssjkw",
"wtXssssssssssssssssssssssssssXtw",
"wwhusssssssssssssssssssssssslpww",
"owqtsssssssssssssssssssssssstewo",
"owopGssssssssssssssssssssssGpwwo",
"oowegmssssssssssssssssssssmgwwoo",
"wweeqfssssssssssssssssssssfteeww",
"wwweegYussssssssssssssssuYgeewww",
"wwwweeOZ0ssssssssssssss0Z1eewwww",
"wwwwweeg2zyssssssssssyz2Xeewwwww",
"wwwwwweeqiA3poCllCop34iqeewwwwww",
"wwwwwwweeeegB546785Bgeeeewwwwwww",
"wwwwwwwwweeeeeqqqqeeeeewwwwwwwww",
"wwwwwwwwwwweeeeeeeeeewwwwwwwwwww",
"wwwwwwwwwwwwwwwwwwwwwwwwwwwwwwww",
"eeeeeeeeeeeeeeeeeeeeeeeeeeeeeeee",
"eeeeeeeeeeeeeeeeeeeeeeeeeeeeeeee",
"eeeeeeeeeeeeeeeeeeeeeeeeeeeeeeee",
"eeeeeeeeeeeeeeeeeeeeeeeeeeeeeeee",
"eeeeeeeeeeeeeeeeeeeeeeeeeeeeeeee",
"99999999999999999999999999999999"};
