/* XPM */
static char *top_left_active_xpm[] = {
"8 48 23 1",
"a c None",
"b c #020101",
"c c #010101",
"d c #080707",
"e c #252524",
"f c #323232",
"g c #373737",
"h c #191919",
"i c #363636",
"j c #2E2E2E",
"k c #2C2C2C",
"l c #343434",
"m c #2B2B2B",
"n c #070707",
"o c #333333",
"p c #222222",
"q c #2A2A2A",
"r c #010001",
"s c #292929",
"t c #010000",
"u c #282828",
"v c #272727",
"w c #262626",
"aaaaaabc",
"aaaadefg",
"aaahifjk",
"aahlkmmm",
"anommmmm",
"apmqqqqq",
"bqqqqqqq",
"cmqqqqqq",
"rmqqqqqq",
"rqqqqqqq",
"rqqqqqqq",
"rqqqqqqq",
"rqqqqqqq",
"rqqqqqqq",
"rqqqqqqq",
"rsssssss",
"csssssss",
"tsssssss",
"rsssssss",
"rsssssss",
"rsssssss",
"rsssssss",
"rsssssss",
"rsssssss",
"ruuuuuuu",
"ruuuuuuu",
"ruuuuuuu",
"ruuuuuuu",
"ruuuuuuu",
"ruuuuuuu",
"ruuuuuuu",
"ruuuuuuu",
"ruuuuuuu",
"rvvvvvvv",
"rvvvvvvv",
"rvvvvvvv",
"rvvvvvvv",
"rvvvvvvv",
"rvvvvvvv",
"rvvvvvvv",
"rvvvvvvv",
"tvvvvvvv",
"rwwwwwww",
"rwwwwwww",
"rwwwwwww",
"cwwwwwww",
"rwwwwwww",
"rnnnnnnn"};
