/* XPM */
static char *top_right_inactive_xpm[] = {
"8 48 25 1",
"a c #010101",
"b c #020102",
"c c None",
"d c #40403F",
"e c #363636",
"f c #242323",
"g c #060606",
"h c #373737",
"i c #3B3B3B",
"j c #3D3D3D",
"k c #171617",
"l c #353535",
"m c #3E3E3E",
"n c #171616",
"o c #3A3A3A",
"p c #070606",
"q c #222122",
"r c #2F2F2F",
"s c #030202",
"t c #343434",
"u c #020101",
"v c #010001",
"w c #010000",
"x c #000000",
"y c #202020",
"abcccccc",
"defgcccc",
"ehijkccc",
"lllemncc",
"lllllopc",
"llllleqc",
"llllllrs",
"lllllltu",
"llllllea",
"llllllla",
"llllllla",
"llllllla",
"lllllllv",
"lllllllv",
"lllllllv",
"lllllllw",
"llllllla",
"llllllla",
"lllllllv",
"lllllllv",
"llllllla",
"llllllla",
"lllllllw",
"lllllllx",
"llllllla",
"llllllla",
"llllllla",
"lllllllv",
"lllllllw",
"lllllllv",
"lllllllw",
"lllllllw",
"lllllllw",
"lllllllv",
"lllllllw",
"lllllllw",
"lllllllv",
"llllllla",
"lllllllv",
"lllllllw",
"lllllllv",
"lllllllv",
"lllllllw",
"lllllllw",
"lllllllv",
"lllllllv",
"lllllllv",
"yyyyyyya"};
