/* XPM */
static char *top_right_active_xpm[] = {
"8 48 23 1",
"a c #010101",
"b c #020101",
"c c None",
"d c #373737",
"e c #323232",
"f c #252524",
"g c #080707",
"h c #2C2C2C",
"i c #2E2E2E",
"j c #363636",
"k c #191919",
"l c #2B2B2B",
"m c #343434",
"n c #333333",
"o c #070707",
"p c #2A2A2A",
"q c #222222",
"r c #010001",
"s c #292929",
"t c #010000",
"u c #282828",
"v c #272727",
"w c #262626",
"abcccccc",
"defgcccc",
"hiejkccc",
"lllhmkcc",
"lllllnoc",
"ppppplqc",
"pppppppb",
"ppppppla",
"pppppplr",
"pppppppr",
"pppppppr",
"pppppppr",
"pppppppr",
"pppppppr",
"pppppppr",
"sssssssr",
"sssssssa",
"ssssssst",
"sssssssr",
"sssssssr",
"sssssssr",
"sssssssr",
"sssssssr",
"sssssssr",
"uuuuuuur",
"uuuuuuur",
"uuuuuuur",
"uuuuuuur",
"uuuuuuur",
"uuuuuuur",
"uuuuuuur",
"uuuuuuur",
"uuuuuuur",
"vvvvvvvr",
"vvvvvvvr",
"vvvvvvvr",
"vvvvvvvr",
"vvvvvvvr",
"vvvvvvvr",
"vvvvvvvr",
"vvvvvvvr",
"vvvvvvvt",
"wwwwwwwr",
"wwwwwwwr",
"wwwwwwwr",
"wwwwwwwa",
"wwwwwwwr",
"ooooooor"};
