/* XPM */
static char * bottom_left_xpm[] = {
"16 16 2 1",
" 	c None",
".	c #0F0F0F",
".               ",
".               ",
".               ",
".               ",
".               ",
".               ",
".               ",
".               ",
".               ",
".               ",
".               ",
".               ",
".               ",
".               ",
".               ",
"................"};
