/* XPM */
static char *close_prelight_xpm[] = {
"32 48 154 2",
"aa c #000000",
"ab c #F9F8F8",
"ac c #E1DEDB",
"ad c #E0DEDA",
"ae c #E0DDDA",
"af c #E0DDD9",
"ag c #DAD6D2",
"ah c #D5D0CC",
"ai c #D1CCC7",
"aj c #D0CAC6",
"ak c #CEC8C3",
"al c #DFDCD9",
"am c #DDDAD7",
"an c #DCD9D6",
"ao c #D1CBC6",
"ap c #D6D1CD",
"aq c #E5E2DF",
"ar c #F1EFEE",
"as c #F7F6F5",
"at c #FDFDFC",
"au c #D1CBC7",
"av c #DCD9D5",
"aw c #DEDAD7",
"ax c #D2CCC8",
"ay c #DCD8D5",
"az c #FEFEFD",
"aA c #FBFBFB",
"aB c #FAFAF9",
"aC c #F9F9F8",
"aD c #F8F8F7",
"aE c #F6F5F4",
"aF c #DCD8D4",
"aG c #D3CEC9",
"aH c #F3F2F1",
"aI c #F2F1F0",
"aJ c #DCD7D4",
"aK c #D8D4D0",
"aL c #FAFAF8",
"aM c #D8D3CF",
"aN c #DFDCD8",
"aO c #FCFCFC",
"aP c #DFDBD8",
"aQ c #DDD9D6",
"aR c #D3CECA",
"aS c #F9F9F7",
"aT c #F3F1F0",
"aU c #F2F1EF",
"aV c #DDD8D5",
"aW c #DEDBD8",
"aX c #DAD7D4",
"aY c #F5F4F2",
"aZ c #F4F3F2",
"a0 c #DEDBD7",
"a1 c #D7D3CF",
"a2 c #DBD8D4",
"a3 c #D3CFCA",
"a4 c #E4E1DE",
"a5 c #565A5B",
"a6 c #515656",
"a7 c #CFCCC9",
"a8 c #CECCC9",
"a9 c #515555",
"a_ c #575C5C",
"a? c #E3E0DD",
"a= c #D4CFCA",
"a) c #DAD6D3",
"a( c #EFEDEB",
"a/ c #555A5B",
"a& c #2E3436",
"a% c #4D5153",
"a+ c #CFCBC9",
"a^ c #4C5052",
"a! c #565A5C",
"ba c #EEEDEB",
"bb c #CFCAC5",
"bc c #F3F2F0",
"bd c #E1E0E0",
"be c #505557",
"bf c #515657",
"bg c #E1E0DF",
"bh c #F2F2F0",
"bi c #D9D5D2",
"bj c #F7F7F5",
"bk c #E3E2E1",
"bl c #525657",
"bm c #4E5355",
"bn c #E0E0DE",
"bo c #D8D5D1",
"bp c #F6F6F4",
"bq c #DDDAD6",
"br c #D1CECB",
"bs c #4D5254",
"bt c #CDC8C3",
"bu c #CECBC9",
"bv c #CEC9C4",
"bw c #EDECE9",
"bx c #515556",
"by c #E2E1E0",
"bz c #525656",
"bA c #EDEBE9",
"bB c #D0CBC6",
"bC c #D3CDC9",
"bD c #5C6061",
"bE c #565B5C",
"bF c #E2E0E0",
"bG c #5D6162",
"bH c #E2DFDC",
"bI c #D5D1CD",
"bJ c #D6D1CC",
"bK c #F2F0EF",
"bL c #F1F0EF",
"bM c #F1F0EE",
"bN c #D7D4D0",
"bO c #DBD7D3",
"bP c #DBD7D4",
"bQ c #D6D3CF",
"bR c #D7D3D0",
"bS c #F4F4F3",
"bT c #D6D2CF",
"bU c #D7D2CE",
"bV c #CDC8C2",
"bW c #F4F3F1",
"bX c #F3F3F1",
"bY c #D6D2CE",
"bZ c #C7C1BB",
"b0 c #EBEAE7",
"b1 c #C7C1BA",
"b2 c #D5D2CD",
"b3 c #C6BFB9",
"b4 c #D2CDC8",
"b5 c #EFEEEB",
"b6 c #D1CDC7",
"b7 c #D5D2CE",
"b8 c #D3D0CC",
"b9 c #D3CFCB",
"b_ c #C4BEB7",
"b? c #CAC4BE",
"b= c #E9E6E3",
"b) c #EEECEA",
"b( c #F5F3F2",
"b/ c #D8D4D1",
"b& c #D4D0CD",
"b% c #D3CFCC",
"b+ c #CFCAC7",
"b^ c #CAC4BF",
"b! c #C3BDB7",
"ca c #C0BAB3",
"cb c #C0B9B2",
"cc c #C2BBB4",
"cd c #C5BFB9",
"ce c #D4D0CC",
"cf c #D2CFCB",
"cg c #D2CECA",
"ch c #BFB8B1",
"aaaaaaaaaaaaaaaaaaaaaaaaaaaaaaaaaaaaaaaaaaaaaaaaaaaaaaaaaaaaaaaa",
"abababababababababababababababababababababababababababababababab",
"acacacacacacacacacacacacacacacacacacacacacacacacacacacacacacacac",
"adadadadadadadadadadadadadadadadadadadadadadadadadadadadadadadad",
"aeaeaeaeaeaeaeaeaeaeaeaeaeaeaeaeaeaeaeaeaeaeaeaeaeaeaeaeaeaeaeae",
"aeaeaeaeaeaeaeaeaeaeaeaeaeaeaeaeaeaeaeaeaeaeaeaeaeaeaeaeaeaeaeae",
"aeaeaeaeaeaeaeaeaeaeaeaeaeaeaeaeaeaeaeaeaeaeaeaeaeaeaeaeaeaeaeae",
"aeaeaeaeaeaeaeaeaeaeaeaeaeaeaeaeaeaeaeaeaeaeaeaeaeaeaeaeaeaeaeae",
"aeaeaeaeaeaeaeaeaeaeaeaeaeaeaeaeaeaeaeaeaeaeaeaeaeaeaeaeaeaeaeae",
"afafafafafafafafafafafagahaiajakakajaiahagafafafafafafafafafafaf",
"alalalalalalalalamanaoapaqarasatatasaraqapauavamalalalalalalalal",
"alalalalalalalawaxayasazaAaBaCaDaDaCaBaAazaEaFaxamalalalalalalal",
"alalalalalalaFaGaHataCaDaDaDaDaDaDaDaDaDaDaCataIaGaJalalalalalal",
"alalalalalaKaKaLaBaDaDaDaDaDaDaDaDaDaDaDaDaDaDaBaLaMaKalalalalal",
"aNaNaNaNaFaKaOaCaDaDaDaDaDaDaDaDaDaDaDaDaDaDaDaDaCaOaKaFaNaNaNaN",
"aPaPaPaQaRaSaDaDaDaDaDaDaDaDaDaDaDaDaDaDaDaDaDaDaDaDaSaGaQaPaPaP",
"aPaPayaiaTaCaDaDaDaDaDaDaDaDaDaDaDaDaDaDaDaDaDaDaDaDaCaUaxaVaPaP",
"aWaWayayaBaDaDaDaDaDaDaDaDaDaDaDaDaDaDaDaDaDaDaDaDaDaDaBaFayaWaW",
"aWaXaoaYaDaDaDaDaDaDaDaDaDaDaDaDaDaDaDaDaDaDaDaDaDaDaDaDaZauaXaW",
"a0a1apaCaDaDaDaDaDaDaDaDaDaDaDaDaDaDaDaDaDaDaDaDaDaDaDaDaCapa1a0",
"a2a3a4aDaDaDaDaDaDaDaDaDa5a6a7aDaDa8a9a_aDaDaDaDaDaDaDaDaDa?a=a2",
"a)aua(aDaDaDaDaDaDaDaDaDa/a&a%a+a+a^a&a!aDaDaDaDaDaDaDaDaDbaaua)",
"a)bbbcaDaDaDaDaDaDaDaDaDbdbea&a%a%a&bfbgaDaDaDaDaDaDaDaDaDbhbba)",
"biakbjaDaDaDaDaDaDaDaDaDaDbkbla&a&bmbnaDaDaDaDaDaDaDaDaDaDasakbi",
"boakbpaDaDaDaDaDaDaDaDaDbqbra6a&a&bsa8bqaDaDaDaDaDaDaDaDaDbpbtbo",
"bobbaUaDaDaDaDaDaDaDaDaDbua^a&bfbfa&a^buaDaDaDaDaDaDaDaDaDaUbvbo",
"boaubwaDaDaDaDaDaDaDaDaDbxa&bebybybfa&bzaDaDaDaDaDaDaDaDaDbAbBbo",
"bibCa?aDaDaDaDaDaDaDaDaDbDbEbgalalbFbEbGaDaDaDaDaDaDaDaDaDbHaRbi",
"bibIbJaDaDaDaDaDaDaDaDaDarbKalaDaDalbKaraDaDaDaDaDaDaDaDaDahbIbi",
"aga1aubLaDaDaDaDaDaDaDaDaDaDaDaDaDaDaDaDaDaDaDaDaDaDaDaDbMaua1ag",
"avbNbObPaDaDaDaDaDaDaDaDaDaDaDaDaDaDaDaDaDaDaDaDaDaDaDaDbObObNav",
"avbobQaxa(aDaDaDaDaDaDaDaDaDaDaDaDaDaDaDaDaDaDaDaDaDaDbaaxbQboav",
"ayaybRa)aGbSaDaDaDaDaDaDaDaDaDaDaDaDaDaDaDaDaDaDaDaDbSaGa)bRayay",
"ayaybibTa)aMasaDaDaDaDaDaDaDaDaDaDaDaDaDaDaDaDaDaDasaMagbTbiayay",
"aFaFaFaKbIbUbVbWaDaDaDaDaDaDaDaDaDaDaDaDaDaDaDaDbXbVbYbIaKaFaFaF",
"aFaFaFaFa1bIaGbZb0aDaDaDaDaDaDaDaDaDaDaDaDaDaDb0b1aRbIa1aFaFaFaF",
"aFaFaFaFaFbNbIb2b3b4b5aDaDaDaDaDaDaDaDaDaDbab6b3apbIa1aFaFaFaFaF",
"a2a2a2a2a2a2bNb7b8b9b_b?bOb=b)b(b(b)b=bOb?b_b9b8b7bNa2a2a2a2a2a2",
"bPbPbPbPbPbPbPb/bTb&b%b+b^b3b!cacbcccdb^b+b%b&bTb/bPbPbPbPbPbPbP",
"bObObObObObObObObObRbYbIceb9cfcgcgcfb9cebIbYa1bObObObObObObObObO",
"bObObObObObObObObObObOaKa1a1bYbYbYbYa1a1aKbObObObObObObObObObObO",
"bObObObObObObObObObObObObObObObObObObObObObObObObObObObObObObObO",
"bObObObObObObObObObObObObObObObObObObObObObObObObObObObObObObObO",
"bObObObObObObObObObObObObObObObObObObObObObObObObObObObObObObObO",
"agagagagagagagagagagagagagagagagagagagagagagagagagagagagagagagag",
"agagagagagagagagagagagagagagagagagagagagagagagagagagagagagagagag",
"agagagagagagagagagagagagagagagagagagagagagagagagagagagagagagagag",
"chchchchchchchchchchchchchchchchchchchchchchchchchchchchchchchch"};