/* XPM */
static char *close_prelight_xpm[] = {
"32 48 154 2",
"aa c #000000",
"ab c #F9F8F8",
"ac c #E1DEDB",
"ad c #E0DEDA",
"ae c #E0DDDA",
"af c #E0DDD9",
"ag c #DAD6D2",
"ah c #D5D0CC",
"ai c #D1CCC7",
"aj c #D0CAC6",
"ak c #CEC8C3",
"al c #DFDCD9",
"am c #DDDAD7",
"an c #DCD9D6",
"ao c #D1CBC6",
"ap c #D6D1CD",
"aq c #E5E2DF",
"ar c #F1EFEE",
"as c #F7F6F5",
"at c #FDFDFC",
"au c #D1CBC7",
"av c #DCD9D5",
"aw c #DEDAD7",
"ax c #D2CCC8",
"ay c #DCD8D5",
"az c #FEFEFD",
"aA c #FBFBFB",
"aB c #FAFAF9",
"aC c #F9F9F8",
"aD c #F8F8F7",
"aE c #F6F5F4",
"aF c #DCD8D4",
"aG c #D3CEC9",
"aH c #F3F2F1",
"aI c #F2F1F0",
"aJ c #DCD7D4",
"aK c #D8D4D0",
"aL c #FAFAF8",
"aM c #D8D3CF",
"aN c #DFDCD8",
"aO c #FCFCFC",
"aP c #DFDBD8",
"aQ c #DDD9D6",
"aR c #D3CECA",
"aS c #F9F9F7",
"aT c #F3F1F0",
"aU c #F2F1EF",
"aV c #DDD8D5",
"aW c #DEDBD8",
"aX c #DAD7D4",
"aY c #F5F4F2",
"aZ c #F4F3F2",
"a0 c #DEDBD7",
"a1 c #D7D3CF",
"a2 c #565A5B",
"a3 c #515656",
"a4 c #CFCCC9",
"a5 c #CECCC9",
"a6 c #515555",
"a7 c #575C5C",
"a8 c #DBD8D4",
"a9 c #D3CFCA",
"a_ c #E4E1DE",
"a? c #555A5B",
"a= c #2E3436",
"a) c #4D5153",
"a( c #CFCBC9",
"a/ c #4C5052",
"a& c #565A5C",
"a% c #E3E0DD",
"a+ c #D4CFCA",
"a^ c #DAD6D3",
"a! c #EFEDEB",
"ba c #E1E0E0",
"bb c #505557",
"bc c #515657",
"bd c #E1E0DF",
"be c #EEEDEB",
"bf c #CFCAC5",
"bg c #F3F2F0",
"bh c #E3E2E1",
"bi c #525657",
"bj c #4E5355",
"bk c #E0E0DE",
"bl c #F2F2F0",
"bm c #D9D5D2",
"bn c #F7F7F5",
"bo c #DDDAD6",
"bp c #D1CECB",
"bq c #4D5254",
"br c #D8D5D1",
"bs c #F6F6F4",
"bt c #CECBC9",
"bu c #CDC8C3",
"bv c #515556",
"bw c #E2E1E0",
"bx c #525656",
"by c #CEC9C4",
"bz c #EDECE9",
"bA c #5C6061",
"bB c #565B5C",
"bC c #E2E0E0",
"bD c #5D6162",
"bE c #EDEBE9",
"bF c #D0CBC6",
"bG c #D3CDC9",
"bH c #F2F0EF",
"bI c #E2DFDC",
"bJ c #D5D1CD",
"bK c #D6D1CC",
"bL c #F1F0EF",
"bM c #F1F0EE",
"bN c #D7D4D0",
"bO c #DBD7D3",
"bP c #DBD7D4",
"bQ c #D6D3CF",
"bR c #D7D3D0",
"bS c #F4F4F3",
"bT c #D6D2CF",
"bU c #D7D2CE",
"bV c #CDC8C2",
"bW c #F4F3F1",
"bX c #F3F3F1",
"bY c #D6D2CE",
"bZ c #C7C1BB",
"b0 c #EBEAE7",
"b1 c #C7C1BA",
"b2 c #D5D2CD",
"b3 c #C6BFB9",
"b4 c #D2CDC8",
"b5 c #EFEEEB",
"b6 c #D1CDC7",
"b7 c #D5D2CE",
"b8 c #D3D0CC",
"b9 c #D3CFCB",
"b_ c #C4BEB7",
"b? c #CAC4BE",
"b= c #E9E6E3",
"b) c #EEECEA",
"b( c #F5F3F2",
"b/ c #D8D4D1",
"b& c #D4D0CD",
"b% c #D3CFCC",
"b+ c #CFCAC7",
"b^ c #CAC4BF",
"b! c #C3BDB7",
"ca c #C0BAB3",
"cb c #C0B9B2",
"cc c #C2BBB4",
"cd c #C5BFB9",
"ce c #D4D0CC",
"cf c #D2CFCB",
"cg c #D2CECA",
"ch c #BFB8B1",
"aaaaaaaaaaaaaaaaaaaaaaaaaaaaaaaaaaaaaaaaaaaaaaaaaaaaaaaaaaaaaaaa",
"abababababababababababababababababababababababababababababababab",
"acacacacacacacacacacacacacacacacacacacacacacacacacacacacacacacac",
"adadadadadadadadadadadadadadadadadadadadadadadadadadadadadadadad",
"aeaeaeaeaeaeaeaeaeaeaeaeaeaeaeaeaeaeaeaeaeaeaeaeaeaeaeaeaeaeaeae",
"aeaeaeaeaeaeaeaeaeaeaeaeaeaeaeaeaeaeaeaeaeaeaeaeaeaeaeaeaeaeaeae",
"aeaeaeaeaeaeaeaeaeaeaeaeaeaeaeaeaeaeaeaeaeaeaeaeaeaeaeaeaeaeaeae",
"aeaeaeaeaeaeaeaeaeaeaeaeaeaeaeaeaeaeaeaeaeaeaeaeaeaeaeaeaeaeaeae",
"aeaeaeaeaeaeaeaeaeaeaeaeaeaeaeaeaeaeaeaeaeaeaeaeaeaeaeaeaeaeaeae",
"afafafafafafafafafafafagahaiajakakajaiahagafafafafafafafafafafaf",
"alalalalalalalalamanaoapaqarasatatasaraqapauavamalalalalalalalal",
"alalalalalalalawaxayasazaAaBaCaDaDaCaBaAazaEaFaxamalalalalalalal",
"alalalalalalaFaGaHataCaDaDaDaDaDaDaDaDaDaDaCataIaGaJalalalalalal",
"alalalalalaKaKaLaBaDaDaDaDaDaDaDaDaDaDaDaDaDaDaBaLaMaKalalalalal",
"aNaNaNaNaFaKaOaCaDaDaDaDaDaDaDaDaDaDaDaDaDaDaDaDaCaOaKaFaNaNaNaN",
"aPaPaPaQaRaSaDaDaDaDaDaDaDaDaDaDaDaDaDaDaDaDaDaDaDaDaSaGaQaPaPaP",
"aPaPayaiaTaCaDaDaDaDaDaDaDaDaDaDaDaDaDaDaDaDaDaDaDaDaCaUaxaVaPaP",
"aWaWayayaBaDaDaDaDaDaDaDaDaDaDaDaDaDaDaDaDaDaDaDaDaDaDaBaFayaWaW",
"aWaXaoaYaDaDaDaDaDaDaDaDaDaDaDaDaDaDaDaDaDaDaDaDaDaDaDaDaZauaXaW",
"a0a1apaCaDaDaDaDaDaDaDaDa2a3a4aDaDa5a6a7aDaDaDaDaDaDaDaDaCapa1a0",
"a8a9a_aDaDaDaDaDaDaDaDaDa?a=a)a(a(a/a=a&aDaDaDaDaDaDaDaDaDa%a+a8",
"a^aua!aDaDaDaDaDaDaDaDaDbabba=a)a)a=bcbdaDaDaDaDaDaDaDaDaDbeaua^",
"a^bfbgaDaDaDaDaDaDaDaDaDaDbhbia=a=bjbkaDaDaDaDaDaDaDaDaDaDblbfa^",
"bmakbnaDaDaDaDaDaDaDaDaDbobpa3a=a=bqa5boaDaDaDaDaDaDaDaDaDasakbm",
"brakbsaDaDaDaDaDaDaDaDaDbta/a=bcbca=a/btaDaDaDaDaDaDaDaDaDbsbubr",
"brbfaUaDaDaDaDaDaDaDaDaDbva=bbbwbwbca=bxaDaDaDaDaDaDaDaDaDaUbybr",
"braubzaDaDaDaDaDaDaDaDaDbAbBbdalalbCbBbDaDaDaDaDaDaDaDaDaDbEbFbr",
"bmbGa%aDaDaDaDaDaDaDaDaDarbHalaDaDalbHaraDaDaDaDaDaDaDaDaDbIaRbm",
"bmbJbKaDaDaDaDaDaDaDaDaDaDaDaDaDaDaDaDaDaDaDaDaDaDaDaDaDaDahbJbm",
"aga1aubLaDaDaDaDaDaDaDaDaDaDaDaDaDaDaDaDaDaDaDaDaDaDaDaDbMaua1ag",
"avbNbObPaDaDaDaDaDaDaDaDaDaDaDaDaDaDaDaDaDaDaDaDaDaDaDaDbObObNav",
"avbrbQaxa!aDaDaDaDaDaDaDaDaDaDaDaDaDaDaDaDaDaDaDaDaDaDbeaxbQbrav",
"ayaybRa^aGbSaDaDaDaDaDaDaDaDaDaDaDaDaDaDaDaDaDaDaDaDbSaGa^bRayay",
"ayaybmbTa^aMasaDaDaDaDaDaDaDaDaDaDaDaDaDaDaDaDaDaDasaMagbTbmayay",
"aFaFaFaKbJbUbVbWaDaDaDaDaDaDaDaDaDaDaDaDaDaDaDaDbXbVbYbJaKaFaFaF",
"aFaFaFaFa1bJaGbZb0aDaDaDaDaDaDaDaDaDaDaDaDaDaDb0b1aRbJa1aFaFaFaF",
"aFaFaFaFaFbNbJb2b3b4b5aDaDaDaDaDaDaDaDaDaDbeb6b3apbJa1aFaFaFaFaF",
"a8a8a8a8a8a8bNb7b8b9b_b?bOb=b)b(b(b)b=bOb?b_b9b8b7bNa8a8a8a8a8a8",
"bPbPbPbPbPbPbPb/bTb&b%b+b^b3b!cacbcccdb^b+b%b&bTb/bPbPbPbPbPbPbP",
"bObObObObObObObObObRbYbJceb9cfcgcgcfb9cebJbYa1bObObObObObObObObO",
"bObObObObObObObObObObOaKa1a1bYbYbYbYa1a1aKbObObObObObObObObObObO",
"bObObObObObObObObObObObObObObObObObObObObObObObObObObObObObObObO",
"bObObObObObObObObObObObObObObObObObObObObObObObObObObObObObObObO",
"bObObObObObObObObObObObObObObObObObObObObObObObObObObObObObObObO",
"agagagagagagagagagagagagagagagagagagagagagagagagagagagagagagagag",
"agagagagagagagagagagagagagagagagagagagagagagagagagagagagagagagag",
"agagagagagagagagagagagagagagagagagagagagagagagagagagagagagagagag",
"chchchchchchchchchchchchchchchchchchchchchchchchchchchchchchchch"};