/* XPM */
static char *close_pressed_xpm[] = {
"32 48 92 2",
"aa c #000000",
"ab c #F9F8F8",
"ac c #E1DEDB",
"ad c #E0DEDA",
"ae c #E0DDDA",
"af c #E0DDD9",
"ag c #DBD8D4",
"ah c #D6D1CC",
"ai c #D1CCC7",
"aj c #CFC9C4",
"ak c #CDC8C2",
"al c #DCD8D4",
"am c #DFDCD9",
"an c #DEDBD8",
"ao c #D5D0CB",
"ap c #CEC8C3",
"aq c #D2CCC8",
"ar c #D4CECA",
"as c #D5CFCB",
"at c #D6D1CD",
"au c #D5D0CC",
"av c #D7D2CF",
"aw c #D0CAC6",
"ax c #D7D3CF",
"ay c #D3CECA",
"az c #CEC8C4",
"aA c #D4CFCB",
"aB c #CFC9C5",
"aC c #DFDCD8",
"aD c #DFDBD8",
"aE c #D7D2CE",
"aF c #D7D3CE",
"aG c #DEDAD7",
"aH c #D4CFCA",
"aI c #DEDBD7",
"aJ c #DAD6D2",
"aK c #565A5B",
"aL c #515656",
"aM c #CFCCC9",
"aN c #CECCC9",
"aO c #515555",
"aP c #575C5C",
"aQ c #D1CBC7",
"aR c #D6D2CF",
"aS c #555A5B",
"aT c #2E3436",
"aU c #4D5153",
"aV c #CFCBC9",
"aW c #4C5052",
"aX c #565A5C",
"aY c #CEC9C4",
"aZ c #E1E0E0",
"a0 c #505557",
"a1 c #515657",
"a2 c #E1E0DF",
"a3 c #CDC7C3",
"a4 c #D6D0CC",
"a5 c #E3E2E1",
"a6 c #525657",
"a7 c #4E5355",
"a8 c #E0E0DE",
"a9 c #DDDAD6",
"a_ c #D1CECB",
"a? c #4D5254",
"a= c #CDC8C3",
"a) c #CECBC9",
"a( c #D1CBC6",
"a/ c #515556",
"a& c #E2E1E0",
"a% c #525656",
"a+ c #DDD9D6",
"a^ c #5C6061",
"a! c #565B5C",
"ba c #E2E0E0",
"bb c #5D6162",
"bc c #D9D5D1",
"bd c #F1EFEE",
"be c #F2F0EF",
"bf c #DDD9D5",
"bg c #DCD9D5",
"bh c #D0CAC5",
"bi c #DCD9D4",
"bj c #DCD8D5",
"bk c #D6D1CE",
"bl c #D3CDC9",
"bm c #DBD8D3",
"bn c #DBD7D4",
"bo c #D8D3D0",
"bp c #D0CBC6",
"bq c #CDC7C2",
"br c #DBD7D3",
"bs c #BFB8B1",
"aaaaaaaaaaaaaaaaaaaaaaaaaaaaaaaaaaaaaaaaaaaaaaaaaaaaaaaaaaaaaaaa",
"abababababababababababababababababababababababababababababababab",
"acacacacacacacacacacacacacacacacacacacacacacacacacacacacacacacac",
"adadadadadadadadadadadadadadadadadadadadadadadadadadadadadadadad",
"aeaeaeaeaeaeaeaeaeaeaeaeaeaeaeaeaeaeaeaeaeaeaeaeaeaeaeaeaeaeaeae",
"aeaeaeaeaeaeaeaeaeaeaeaeaeaeaeaeaeaeaeaeaeaeaeaeaeaeaeaeaeaeaeae",
"aeaeaeaeaeaeaeaeaeaeaeaeaeaeaeaeaeaeaeaeaeaeaeaeaeaeaeaeaeaeaeae",
"aeaeaeaeaeaeaeaeaeaeaeaeaeaeaeaeaeaeaeaeaeaeaeaeaeaeaeaeaeaeaeae",
"aeaeaeaeaeaeaeaeaeaeaeaeaeaeaeaeaeaeaeaeaeaeaeaeaeaeaeaeaeaeaeae",
"afafafafafafafafafafafagahaiajakakajaiahalafafafafafafafafafafaf",
"amamamamamamamamanaoapajaqarasatatasaraqajapauanamamamamamamamam",
"amamamamamamamavapawaoatatatatatatatatatataoawapaxamamamamamamam",
"amamamamamamayazaAatatatatatatatatatatatatatataAapayamamamamamam",
"amamamamamaiaBauatatatatatatatatatatatatatatatatauaBaiamamamamam",
"aCaCaCaCayaBatatatatatatatatatatatatatatatatatatatataBayaCaCaCaC",
"aDaDaDaEazauatatatatatatatatatatatatatatatatatatatatauapaFaDaDaD",
"aDaDaGapaAatatatatatatatatatatatatatatatatatatatatatataHapaGaDaD",
"ananaAawatatatatatatatatatatatatatatatatatatatatatatatatawaAanan",
"ananapasatatatatatatatatatatatatatatatatatatatatatatatatasapanan",
"aIaJajatatatatatatatatatatatatatatatatatatatatatatatatatatajaJaI",
"aIaoaqatatatatatatatatataKaLaMatataNaOaPatatatatatatatatataiauaI",
"aGaQaratatatatatataRaRaRaSaTaUaVaVaWaTaXaRatatatatatatatataraQaG",
"aGaYaoatatatatataRaRaRaRaZa0aTaUaUaTa1a2aRaRaRatatatatatataoaYaG",
"aGa3a4atatatataRaRaRaRaRaRa5a6aTaTa7a8aRaRaRaRaRatatatatata4apaG",
"a9a3a4atatatataRaRaRaRaRa9a_aLaTaTa?aNa9aRaRaRaRaRatatatata4a=a9",
"a9aYaoatatatataRaRaRaRaRa)aWaTa1a1aTaWa)aRaRaRaRaRaRatatatasaYa9",
"a9a(aratatatataRaRaRaRaRa/aTa0a&a&a1aTa%aRaRaRaRaRaRatatataraQa9",
"a+aAaqatatatataRaRaRaRaRa^a!a2amambaa!bbaRaRaRaRaRaRatatataiaAa+",
"a+bcajatatatataRaRaRaRaRbdbeamaRaRambebdaRaRaRaRaRaRatatatajbca+",
"bfbfapasatatataRaRaRaRaRaRaRaRaRaRaRaRaRaRaRaRaRaRaRatatasapbfbf",
"bgbgaHawatatataRaRaRaRaRaRaRaRaRaRaRaRaRaRaRaRaRaRaRatatbhaHbgbg",
"bgbgalapaHatataRaRaRaRaRaRaRaRaRaRaRaRaRaRaRaRaRaRatataHazbibgbg",
"bjbjbjatapauatataRaRaRaRaRaRaRaRaRaRaRaRaRaRatatatatauapbkbjbjbj",
"bjbjbjbjblaBatatatatatatatatatatatatatatatatatatatataBaybjbjbjbj",
"alalalalalaQaBauatatatatatatatatatatatatatatatatauaBaialalalalal",
"alalalalalalblapaAatatatatatatatatatatatatatataHapayalalalalalal",
"alalalalalalalatapawasatatatatatatatatatataAawapatalalalalalalal",
"agagagagagagagagbmaHapajaiarasatatasaraiajapaHagagagagagagagagag",
"bnbnbnbnbnbnbnbnbnbnbnboaybpazbqbqazbparbobnbnbnbnbnbnbnbnbnbnbn",
"brbrbrbrbrbrbrbrbrbrbrbrbrbrbrbrbrbrbrbrbrbrbrbrbrbrbrbrbrbrbrbr",
"brbrbrbrbrbrbrbrbrbrbrbrbrbrbrbrbrbrbrbrbrbrbrbrbrbrbrbrbrbrbrbr",
"brbrbrbrbrbrbrbrbrbrbrbrbrbrbrbrbrbrbrbrbrbrbrbrbrbrbrbrbrbrbrbr",
"brbrbrbrbrbrbrbrbrbrbrbrbrbrbrbrbrbrbrbrbrbrbrbrbrbrbrbrbrbrbrbr",
"brbrbrbrbrbrbrbrbrbrbrbrbrbrbrbrbrbrbrbrbrbrbrbrbrbrbrbrbrbrbrbr",
"aJaJaJaJaJaJaJaJaJaJaJaJaJaJaJaJaJaJaJaJaJaJaJaJaJaJaJaJaJaJaJaJ",
"aJaJaJaJaJaJaJaJaJaJaJaJaJaJaJaJaJaJaJaJaJaJaJaJaJaJaJaJaJaJaJaJ",
"aJaJaJaJaJaJaJaJaJaJaJaJaJaJaJaJaJaJaJaJaJaJaJaJaJaJaJaJaJaJaJaJ",
"bsbsbsbsbsbsbsbsbsbsbsbsbsbsbsbsbsbsbsbsbsbsbsbsbsbsbsbsbsbsbsbs"};