/* XPM */
static char *close_pressed_xpm[] = {
"32 48 92 2",
"aa c #000000",
"ab c #F9F8F8",
"ac c #E1DEDB",
"ad c #E0DEDA",
"ae c #E0DDDA",
"af c #E0DDD9",
"ag c #DBD8D4",
"ah c #D6D1CC",
"ai c #D1CCC7",
"aj c #CFC9C4",
"ak c #CDC8C2",
"al c #DCD8D4",
"am c #DFDCD9",
"an c #DEDBD8",
"ao c #D5D0CB",
"ap c #CEC8C3",
"aq c #D2CCC8",
"ar c #D4CECA",
"as c #D5CFCB",
"at c #D6D1CD",
"au c #D5D0CC",
"av c #D7D2CF",
"aw c #D0CAC6",
"ax c #D7D3CF",
"ay c #D3CECA",
"az c #CEC8C4",
"aA c #D4CFCB",
"aB c #CFC9C5",
"aC c #DFDCD8",
"aD c #DFDBD8",
"aE c #D7D2CE",
"aF c #D7D3CE",
"aG c #DEDAD7",
"aH c #D4CFCA",
"aI c #DEDBD7",
"aJ c #DAD6D2",
"aK c #565A5B",
"aL c #515656",
"aM c #CFCCC9",
"aN c #CECCC9",
"aO c #515555",
"aP c #575C5C",
"aQ c #555A5B",
"aR c #2E3436",
"aS c #4D5153",
"aT c #CFCBC9",
"aU c #4C5052",
"aV c #565A5C",
"aW c #D1CBC7",
"aX c #D6D2CF",
"aY c #E1E0E0",
"aZ c #505557",
"a0 c #515657",
"a1 c #E1E0DF",
"a2 c #CEC9C4",
"a3 c #E3E2E1",
"a4 c #525657",
"a5 c #4E5355",
"a6 c #E0E0DE",
"a7 c #CDC7C3",
"a8 c #D6D0CC",
"a9 c #DDDAD6",
"a_ c #D1CECB",
"a? c #4D5254",
"a= c #CECBC9",
"a) c #CDC8C3",
"a( c #515556",
"a/ c #E2E1E0",
"a& c #525656",
"a% c #D1CBC6",
"a+ c #5C6061",
"a^ c #565B5C",
"a! c #E2E0E0",
"ba c #5D6162",
"bb c #DDD9D6",
"bc c #F1EFEE",
"bd c #F2F0EF",
"be c #D9D5D1",
"bf c #DDD9D5",
"bg c #DCD9D5",
"bh c #D0CAC5",
"bi c #DCD9D4",
"bj c #DCD8D5",
"bk c #D6D1CE",
"bl c #D3CDC9",
"bm c #DBD8D3",
"bn c #DBD7D4",
"bo c #D8D3D0",
"bp c #D0CBC6",
"bq c #CDC7C2",
"br c #DBD7D3",
"bs c #BFB8B1",
"aaaaaaaaaaaaaaaaaaaaaaaaaaaaaaaaaaaaaaaaaaaaaaaaaaaaaaaaaaaaaaaa",
"abababababababababababababababababababababababababababababababab",
"acacacacacacacacacacacacacacacacacacacacacacacacacacacacacacacac",
"adadadadadadadadadadadadadadadadadadadadadadadadadadadadadadadad",
"aeaeaeaeaeaeaeaeaeaeaeaeaeaeaeaeaeaeaeaeaeaeaeaeaeaeaeaeaeaeaeae",
"aeaeaeaeaeaeaeaeaeaeaeaeaeaeaeaeaeaeaeaeaeaeaeaeaeaeaeaeaeaeaeae",
"aeaeaeaeaeaeaeaeaeaeaeaeaeaeaeaeaeaeaeaeaeaeaeaeaeaeaeaeaeaeaeae",
"aeaeaeaeaeaeaeaeaeaeaeaeaeaeaeaeaeaeaeaeaeaeaeaeaeaeaeaeaeaeaeae",
"aeaeaeaeaeaeaeaeaeaeaeaeaeaeaeaeaeaeaeaeaeaeaeaeaeaeaeaeaeaeaeae",
"afafafafafafafafafafafagahaiajakakajaiahalafafafafafafafafafafaf",
"amamamamamamamamanaoapajaqarasatatasaraqajapauanamamamamamamamam",
"amamamamamamamavapawaoatatatatatatatatatataoawapaxamamamamamamam",
"amamamamamamayazaAatatatatatatatatatatatatatataAapayamamamamamam",
"amamamamamaiaBauatatatatatatatatatatatatatatatatauaBaiamamamamam",
"aCaCaCaCayaBatatatatatatatatatatatatatatatatatatatataBayaCaCaCaC",
"aDaDaDaEazauatatatatatatatatatatatatatatatatatatatatauapaFaDaDaD",
"aDaDaGapaAatatatatatatatatatatatatatatatatatatatatatataHapaGaDaD",
"ananaAawatatatatatatatatatatatatatatatatatatatatatatatatawaAanan",
"ananapasatatatatatatatatatatatatatatatatatatatatatatatatasapanan",
"aIaJajatatatatatatatatataKaLaMatataNaOaPatatatatatatatatatajaJaI",
"aIaoaqatatatatatatatatataQaRaSaTaTaUaRaVatatatatatatatatataiauaI",
"aGaWaratatatatatataXaXaXaYaZaRaSaSaRa0a1aXatatatatatatatataraWaG",
"aGa2aoatatatatataXaXaXaXaXa3a4aRaRa5a6aXaXaXaXatatatatatataoa2aG",
"aGa7a8atatatataXaXaXaXaXa9a_aLaRaRa?aNa9aXaXaXaXatatatatata8apaG",
"a9a7a8atatatataXaXaXaXaXa=aUaRa0a0aRaUa=aXaXaXaXaXatatatata8a)a9",
"a9a2aoatatatataXaXaXaXaXa(aRaZa/a/a0aRa&aXaXaXaXaXaXatatatasa2a9",
"a9a%aratatatataXaXaXaXaXa+a^a1amama!a^baaXaXaXaXaXaXatatataraWa9",
"bbaAaqatatatataXaXaXaXaXbcbdamaXaXambdbcaXaXaXaXaXaXatatataiaAbb",
"bbbeajatatatataXaXaXaXaXaXaXaXaXaXaXaXaXaXaXaXaXaXaXatatatajbebb",
"bfbfapasatatataXaXaXaXaXaXaXaXaXaXaXaXaXaXaXaXaXaXaXatatasapbfbf",
"bgbgaHawatatataXaXaXaXaXaXaXaXaXaXaXaXaXaXaXaXaXaXaXatatbhaHbgbg",
"bgbgalapaHatataXaXaXaXaXaXaXaXaXaXaXaXaXaXaXaXaXaXatataHazbibgbg",
"bjbjbjatapauatataXaXaXaXaXaXaXaXaXaXaXaXaXaXatatatatauapbkbjbjbj",
"bjbjbjbjblaBatatatatatatatatatatatatatatatatatatatataBaybjbjbjbj",
"alalalalalaWaBauatatatatatatatatatatatatatatatatauaBaialalalalal",
"alalalalalalblapaAatatatatatatatatatatatatatataHapayalalalalalal",
"alalalalalalalatapawasatatatatatatatatatataAawapatalalalalalalal",
"agagagagagagagagbmaHapajaiarasatatasaraiajapaHagagagagagagagagag",
"bnbnbnbnbnbnbnbnbnbnbnboaybpazbqbqazbparbobnbnbnbnbnbnbnbnbnbnbn",
"brbrbrbrbrbrbrbrbrbrbrbrbrbrbrbrbrbrbrbrbrbrbrbrbrbrbrbrbrbrbrbr",
"brbrbrbrbrbrbrbrbrbrbrbrbrbrbrbrbrbrbrbrbrbrbrbrbrbrbrbrbrbrbrbr",
"brbrbrbrbrbrbrbrbrbrbrbrbrbrbrbrbrbrbrbrbrbrbrbrbrbrbrbrbrbrbrbr",
"brbrbrbrbrbrbrbrbrbrbrbrbrbrbrbrbrbrbrbrbrbrbrbrbrbrbrbrbrbrbrbr",
"brbrbrbrbrbrbrbrbrbrbrbrbrbrbrbrbrbrbrbrbrbrbrbrbrbrbrbrbrbrbrbr",
"aJaJaJaJaJaJaJaJaJaJaJaJaJaJaJaJaJaJaJaJaJaJaJaJaJaJaJaJaJaJaJaJ",
"aJaJaJaJaJaJaJaJaJaJaJaJaJaJaJaJaJaJaJaJaJaJaJaJaJaJaJaJaJaJaJaJ",
"aJaJaJaJaJaJaJaJaJaJaJaJaJaJaJaJaJaJaJaJaJaJaJaJaJaJaJaJaJaJaJaJ",
"bsbsbsbsbsbsbsbsbsbsbsbsbsbsbsbsbsbsbsbsbsbsbsbsbsbsbsbsbsbsbsbs"};