/* XPM */
static char *close_active_xpm[] = {
"32 48 55 1",
"a c #000000",
"b c #F9F8F8",
"c c #E1DEDB",
"d c #E0DEDA",
"e c #E0DDDA",
"f c #E0DDD9",
"g c #DFDCD9",
"h c #DFDCD8",
"i c #DFDBD8",
"j c #DEDBD8",
"k c #DEDBD7",
"l c #565A5B",
"m c #515656",
"n c #CFCCC9",
"o c #CECCC9",
"p c #515555",
"q c #575C5C",
"r c #DEDAD7",
"s c #555A5B",
"t c #2E3436",
"u c #4D5153",
"v c #CFCBC9",
"w c #4C5052",
"x c #565A5C",
"y c #E1E0E0",
"z c #505557",
"A c #515657",
"B c #E1E0DF",
"C c #E3E2E1",
"D c #525657",
"E c #4E5355",
"F c #E0E0DE",
"G c #DDDAD6",
"H c #D1CECB",
"I c #4D5254",
"J c #CECBC9",
"K c #515556",
"L c #E2E1E0",
"M c #525656",
"N c #DDD9D6",
"O c #5C6061",
"P c #565B5C",
"Q c #E2E0E0",
"R c #5D6162",
"S c #F1EFEE",
"T c #F2F0EF",
"U c #DDD9D5",
"V c #DCD9D5",
"W c #DCD8D5",
"X c #DCD8D4",
"Y c #DBD8D4",
"Z c #DBD7D4",
"0 c #DBD7D3",
"1 c #DAD6D2",
"2 c #BFB8B1",
"aaaaaaaaaaaaaaaaaaaaaaaaaaaaaaaa",
"bbbbbbbbbbbbbbbbbbbbbbbbbbbbbbbb",
"cccccccccccccccccccccccccccccccc",
"dddddddddddddddddddddddddddddddd",
"eeeeeeeeeeeeeeeeeeeeeeeeeeeeeeee",
"eeeeeeeeeeeeeeeeeeeeeeeeeeeeeeee",
"eeeeeeeeeeeeeeeeeeeeeeeeeeeeeeee",
"eeeeeeeeeeeeeeeeeeeeeeeeeeeeeeee",
"eeeeeeeeeeeeeeeeeeeeeeeeeeeeeeee",
"ffffffffffffffffffffffffffffffff",
"gggggggggggggggggggggggggggggggg",
"gggggggggggggggggggggggggggggggg",
"gggggggggggggggggggggggggggggggg",
"gggggggggggggggggggggggggggggggg",
"hhhhhhhhhhhhhhhhhhhhhhhhhhhhhhhh",
"iiiiiiiiiiiiiiiiiiiiiiiiiiiiiiii",
"iiiiiiiiiiiiiiiiiiiiiiiiiiiiiiii",
"jjjjjjjjjjjjjjjjjjjjjjjjjjjjjjjj",
"jjjjjjjjjjjjjjjjjjjjjjjjjjjjjjjj",
"kkkkkkkkkkkkkkkkkkkkkkkkkkkkkkkk",
"kkkkkkkkkkkklmnkkopqkkkkkkkkkkkk",
"rrrrrrrrrrrrstuvvwtxrrrrrrrrrrrr",
"rrrrrrrrrrrryztuutABrrrrrrrrrrrr",
"rrrrrrrrrrrrrCDttEFrrrrrrrrrrrrr",
"GGGGGGGGGGGGGHmttIoGGGGGGGGGGGGG",
"GGGGGGGGGGGGJwtAAtwJGGGGGGGGGGGG",
"GGGGGGGGGGGGKtzLLAtMGGGGGGGGGGGG",
"NNNNNNNNNNNNOPBggQPRNNNNNNNNNNNN",
"NNNNNNNNNNNNSTgNNgTSNNNNNNNNNNNN",
"UUUUUUUUUUUUUUUUUUUUUUUUUUUUUUUU",
"VVVVVVVVVVVVVVVVVVVVVVVVVVVVVVVV",
"VVVVVVVVVVVVVVVVVVVVVVVVVVVVVVVV",
"WWWWWWWWWWWWWWWWWWWWWWWWWWWWWWWW",
"WWWWWWWWWWWWWWWWWWWWWWWWWWWWWWWW",
"XXXXXXXXXXXXXXXXXXXXXXXXXXXXXXXX",
"XXXXXXXXXXXXXXXXXXXXXXXXXXXXXXXX",
"XXXXXXXXXXXXXXXXXXXXXXXXXXXXXXXX",
"YYYYYYYYYYYYYYYYYYYYYYYYYYYYYYYY",
"ZZZZZZZZZZZZZZZZZZZZZZZZZZZZZZZZ",
"00000000000000000000000000000000",
"00000000000000000000000000000000",
"00000000000000000000000000000000",
"00000000000000000000000000000000",
"00000000000000000000000000000000",
"11111111111111111111111111111111",
"11111111111111111111111111111111",
"11111111111111111111111111111111",
"22222222222222222222222222222222"};