/* XPM */
static char *hide_pressed_xpm[] = {
"32 48 62 1",
"a c #000000",
"b c #F9F8F8",
"c c #E1DEDB",
"d c #E0DEDA",
"e c #E0DDDA",
"f c #E0DDD9",
"g c #DBD8D4",
"h c #D6D1CC",
"i c #D1CCC7",
"j c #CFC9C4",
"k c #CDC8C2",
"l c #DCD8D4",
"m c #DFDCD9",
"n c #DEDBD8",
"o c #D5D0CB",
"p c #CEC8C3",
"q c #D2CCC8",
"r c #D4CECA",
"s c #D5CFCB",
"t c #D6D1CD",
"u c #D5D0CC",
"v c #D7D2CF",
"w c #D0CAC6",
"x c #D7D3CF",
"y c #D3CECA",
"z c #CEC8C4",
"A c #D4CFCB",
"B c #CFC9C5",
"C c #DFDCD8",
"D c #DFDBD8",
"E c #D7D2CE",
"F c #D7D3CE",
"G c #DEDAD7",
"H c #D4CFCA",
"I c #DEDBD7",
"J c #DAD6D2",
"K c #D1CBC7",
"L c #D6D2CF",
"M c #CEC9C4",
"N c #CDC7C3",
"O c #D6D0CC",
"P c #DDDAD6",
"Q c #CDC8C3",
"R c #D1CBC6",
"S c #2E3436",
"T c #DDD9D6",
"U c #D9D5D1",
"V c #FDFDFD",
"W c #DDD9D5",
"X c #DCD9D5",
"Y c #D0CAC5",
"Z c #DCD9D4",
"0 c #DCD8D5",
"1 c #D6D1CE",
"2 c #D3CDC9",
"3 c #DBD8D3",
"4 c #DBD7D4",
"5 c #D8D3D0",
"6 c #D0CBC6",
"7 c #CDC7C2",
"8 c #DBD7D3",
"9 c #BFB8B1",
"aaaaaaaaaaaaaaaaaaaaaaaaaaaaaaaa",
"bbbbbbbbbbbbbbbbbbbbbbbbbbbbbbbb",
"cccccccccccccccccccccccccccccccc",
"dddddddddddddddddddddddddddddddd",
"eeeeeeeeeeeeeeeeeeeeeeeeeeeeeeee",
"eeeeeeeeeeeeeeeeeeeeeeeeeeeeeeee",
"eeeeeeeeeeeeeeeeeeeeeeeeeeeeeeee",
"eeeeeeeeeeeeeeeeeeeeeeeeeeeeeeee",
"eeeeeeeeeeeeeeeeeeeeeeeeeeeeeeee",
"fffffffffffghijkkjihlfffffffffff",
"mmmmmmmmnopjqrsttsrqjpunmmmmmmmm",
"mmmmmmmvpwottttttttttowpxmmmmmmm",
"mmmmmmyzAttttttttttttttApymmmmmm",
"mmmmmiButtttttttttttttttuBimmmmm",
"CCCCyBttttttttttttttttttttByCCCC",
"DDDEzuttttttttttttttttttttupFDDD",
"DDGpAttttttttttttttttttttttHpGDD",
"nnAwttttttttttttttttttttttttwAnn",
"nnpsttttttttttttttttttttttttspnn",
"IJjttttttttttttttttttttttttttjJI",
"IoqttttttttttttttttttttttttttiuI",
"GKrttttttLLLLLLLLLLLLttttttttrKG",
"GMotttttLLLLLLLLLLLLLLLttttttoMG",
"GNOttttLLLLLLLLLLLLLLLLLtttttOpG",
"PNOttttLLLLLLLLLLLLLLLLLLttttOQP",
"PMottttLLLLLLLLLLLLLLLLLLLtttsMP",
"PRrttttLLLLLSSSSSSSSLLLLLLtttrKP",
"TAqttttLLLLLSSSSSSSSLLLLLLtttiAT",
"TUjttttLLLLLVVVVVVVVLLLLLLtttjUT",
"WWpstttLLLLLLLLLLLLLLLLLLLttspWW",
"XXHwtttLLLLLLLLLLLLLLLLLLLttYHXX",
"XXlpHttLLLLLLLLLLLLLLLLLLttHzZXX",
"000tputtLLLLLLLLLLLLLLttttup1000",
"00002BttttttttttttttttttttBy0000",
"lllllKButtttttttttttttttuBilllll",
"llllll2pAttttttttttttttHpyllllll",
"llllllltpwsttttttttttAwptlllllll",
"gggggggg3HpjirsttsrijpHggggggggg",
"444444444445y6z77z6r544444444444",
"88888888888888888888888888888888",
"88888888888888888888888888888888",
"88888888888888888888888888888888",
"88888888888888888888888888888888",
"88888888888888888888888888888888",
"JJJJJJJJJJJJJJJJJJJJJJJJJJJJJJJJ",
"JJJJJJJJJJJJJJJJJJJJJJJJJJJJJJJJ",
"JJJJJJJJJJJJJJJJJJJJJJJJJJJJJJJJ",
"99999999999999999999999999999999"};