/* XPM */
static char *hide_prelight_xpm[] = {
"32 48 124 2",
"aa c #000000",
"ab c #F9F8F8",
"ac c #E1DEDB",
"ad c #E0DEDA",
"ae c #E0DDDA",
"af c #E0DDD9",
"ag c #DAD6D2",
"ah c #D5D0CC",
"ai c #D1CCC7",
"aj c #D0CAC6",
"ak c #CEC8C3",
"al c #DFDCD9",
"am c #DDDAD7",
"an c #DCD9D6",
"ao c #D1CBC6",
"ap c #D6D1CD",
"aq c #E5E2DF",
"ar c #F1EFEE",
"as c #F7F6F5",
"at c #FDFDFC",
"au c #D1CBC7",
"av c #DCD9D5",
"aw c #DEDAD7",
"ax c #D2CCC8",
"ay c #DCD8D5",
"az c #FEFEFD",
"aA c #FBFBFB",
"aB c #FAFAF9",
"aC c #F9F9F8",
"aD c #F8F8F7",
"aE c #F6F5F4",
"aF c #DCD8D4",
"aG c #D3CEC9",
"aH c #F3F2F1",
"aI c #F2F1F0",
"aJ c #DCD7D4",
"aK c #D8D4D0",
"aL c #FAFAF8",
"aM c #D8D3CF",
"aN c #DFDCD8",
"aO c #FCFCFC",
"aP c #DFDBD8",
"aQ c #DDD9D6",
"aR c #D3CECA",
"aS c #F9F9F7",
"aT c #F3F1F0",
"aU c #F2F1EF",
"aV c #DDD8D5",
"aW c #DEDBD8",
"aX c #DAD7D4",
"aY c #F5F4F2",
"aZ c #F4F3F2",
"a0 c #DEDBD7",
"a1 c #D7D3CF",
"a2 c #DBD8D4",
"a3 c #D3CFCA",
"a4 c #E4E1DE",
"a5 c #E3E0DD",
"a6 c #D4CFCA",
"a7 c #DAD6D3",
"a8 c #EFEDEB",
"a9 c #EEEDEB",
"a_ c #CFCAC5",
"a? c #F3F2F0",
"a= c #F2F2F0",
"a) c #D9D5D2",
"a( c #F7F7F5",
"a/ c #D8D5D1",
"a& c #F6F6F4",
"a% c #CDC8C3",
"a+ c #2E3436",
"a^ c #CEC9C4",
"a! c #EDECE9",
"ba c #EDEBE9",
"bb c #D0CBC6",
"bc c #D3CDC9",
"bd c #FDFDFD",
"be c #E2DFDC",
"bf c #D5D1CD",
"bg c #D6D1CC",
"bh c #F1F0EF",
"bi c #F1F0EE",
"bj c #D7D4D0",
"bk c #DBD7D3",
"bl c #DBD7D4",
"bm c #D6D3CF",
"bn c #D7D3D0",
"bo c #F4F4F3",
"bp c #D6D2CF",
"bq c #D7D2CE",
"br c #CDC8C2",
"bs c #F4F3F1",
"bt c #F3F3F1",
"bu c #D6D2CE",
"bv c #C7C1BB",
"bw c #EBEAE7",
"bx c #C7C1BA",
"by c #D5D2CD",
"bz c #C6BFB9",
"bA c #D2CDC8",
"bB c #EFEEEB",
"bC c #D1CDC7",
"bD c #D5D2CE",
"bE c #D3D0CC",
"bF c #D3CFCB",
"bG c #C4BEB7",
"bH c #CAC4BE",
"bI c #E9E6E3",
"bJ c #EEECEA",
"bK c #F5F3F2",
"bL c #D8D4D1",
"bM c #D4D0CD",
"bN c #D3CFCC",
"bO c #CFCAC7",
"bP c #CAC4BF",
"bQ c #C3BDB7",
"bR c #C0BAB3",
"bS c #C0B9B2",
"bT c #C2BBB4",
"bU c #C5BFB9",
"bV c #D4D0CC",
"bW c #D2CFCB",
"bX c #D2CECA",
"bY c #BFB8B1",
"aaaaaaaaaaaaaaaaaaaaaaaaaaaaaaaaaaaaaaaaaaaaaaaaaaaaaaaaaaaaaaaa",
"abababababababababababababababababababababababababababababababab",
"acacacacacacacacacacacacacacacacacacacacacacacacacacacacacacacac",
"adadadadadadadadadadadadadadadadadadadadadadadadadadadadadadadad",
"aeaeaeaeaeaeaeaeaeaeaeaeaeaeaeaeaeaeaeaeaeaeaeaeaeaeaeaeaeaeaeae",
"aeaeaeaeaeaeaeaeaeaeaeaeaeaeaeaeaeaeaeaeaeaeaeaeaeaeaeaeaeaeaeae",
"aeaeaeaeaeaeaeaeaeaeaeaeaeaeaeaeaeaeaeaeaeaeaeaeaeaeaeaeaeaeaeae",
"aeaeaeaeaeaeaeaeaeaeaeaeaeaeaeaeaeaeaeaeaeaeaeaeaeaeaeaeaeaeaeae",
"aeaeaeaeaeaeaeaeaeaeaeaeaeaeaeaeaeaeaeaeaeaeaeaeaeaeaeaeaeaeaeae",
"afafafafafafafafafafafagahaiajakakajaiahagafafafafafafafafafafaf",
"alalalalalalalalamanaoapaqarasatatasaraqapauavamalalalalalalalal",
"alalalalalalalawaxayasazaAaBaCaDaDaCaBaAazaEaFaxamalalalalalalal",
"alalalalalalaFaGaHataCaDaDaDaDaDaDaDaDaDaDaCataIaGaJalalalalalal",
"alalalalalaKaKaLaBaDaDaDaDaDaDaDaDaDaDaDaDaDaDaBaLaMaKalalalalal",
"aNaNaNaNaFaKaOaCaDaDaDaDaDaDaDaDaDaDaDaDaDaDaDaDaCaOaKaFaNaNaNaN",
"aPaPaPaQaRaSaDaDaDaDaDaDaDaDaDaDaDaDaDaDaDaDaDaDaDaDaSaGaQaPaPaP",
"aPaPayaiaTaCaDaDaDaDaDaDaDaDaDaDaDaDaDaDaDaDaDaDaDaDaCaUaxaVaPaP",
"aWaWayayaBaDaDaDaDaDaDaDaDaDaDaDaDaDaDaDaDaDaDaDaDaDaDaBaFayaWaW",
"aWaXaoaYaDaDaDaDaDaDaDaDaDaDaDaDaDaDaDaDaDaDaDaDaDaDaDaDaZauaXaW",
"a0a1apaCaDaDaDaDaDaDaDaDaDaDaDaDaDaDaDaDaDaDaDaDaDaDaDaDaCapa1a0",
"a2a3a4aDaDaDaDaDaDaDaDaDaDaDaDaDaDaDaDaDaDaDaDaDaDaDaDaDaDa5a6a2",
"a7aua8aDaDaDaDaDaDaDaDaDaDaDaDaDaDaDaDaDaDaDaDaDaDaDaDaDaDa9aua7",
"a7a_a?aDaDaDaDaDaDaDaDaDaDaDaDaDaDaDaDaDaDaDaDaDaDaDaDaDaDa=a_a7",
"a)aka(aDaDaDaDaDaDaDaDaDaDaDaDaDaDaDaDaDaDaDaDaDaDaDaDaDaDasaka)",
"a/aka&aDaDaDaDaDaDaDaDaDaDaDaDaDaDaDaDaDaDaDaDaDaDaDaDaDaDa&a%a/",
"a/a_aUaDaDaDaDaDaDaDaDaDa+a+a+a+a+a+a+a+aDaDaDaDaDaDaDaDaDaUa^a/",
"a/aua!aDaDaDaDaDaDaDaDaDa+a+a+a+a+a+a+a+aDaDaDaDaDaDaDaDaDbabba/",
"a)bca5aDaDaDaDaDaDaDaDaDbdbdbdbdbdbdbdbdaDaDaDaDaDaDaDaDaDbeaRa)",
"a)bfbgaDaDaDaDaDaDaDaDaDaDaDaDaDaDaDaDaDaDaDaDaDaDaDaDaDaDahbfa)",
"aga1aubhaDaDaDaDaDaDaDaDaDaDaDaDaDaDaDaDaDaDaDaDaDaDaDaDbiaua1ag",
"avbjbkblaDaDaDaDaDaDaDaDaDaDaDaDaDaDaDaDaDaDaDaDaDaDaDaDbkbkbjav",
"ava/bmaxa8aDaDaDaDaDaDaDaDaDaDaDaDaDaDaDaDaDaDaDaDaDaDa9axbma/av",
"ayaybna7aGboaDaDaDaDaDaDaDaDaDaDaDaDaDaDaDaDaDaDaDaDboaGa7bnayay",
"ayaya)bpa7aMasaDaDaDaDaDaDaDaDaDaDaDaDaDaDaDaDaDaDasaMagbpa)ayay",
"aFaFaFaKbfbqbrbsaDaDaDaDaDaDaDaDaDaDaDaDaDaDaDaDbtbrbubfaKaFaFaF",
"aFaFaFaFa1bfaGbvbwaDaDaDaDaDaDaDaDaDaDaDaDaDaDbwbxaRbfa1aFaFaFaF",
"aFaFaFaFaFbjbfbybzbAbBaDaDaDaDaDaDaDaDaDaDa9bCbzapbfa1aFaFaFaFaF",
"a2a2a2a2a2a2bjbDbEbFbGbHbkbIbJbKbKbJbIbkbHbGbFbEbDbja2a2a2a2a2a2",
"blblblblblblblbLbpbMbNbObPbzbQbRbSbTbUbPbObNbMbpbLblblblblblblbl",
"bkbkbkbkbkbkbkbkbkbnbubfbVbFbWbXbXbWbFbVbfbua1bkbkbkbkbkbkbkbkbk",
"bkbkbkbkbkbkbkbkbkbkbkaKa1a1bubububua1a1aKbkbkbkbkbkbkbkbkbkbkbk",
"bkbkbkbkbkbkbkbkbkbkbkbkbkbkbkbkbkbkbkbkbkbkbkbkbkbkbkbkbkbkbkbk",
"bkbkbkbkbkbkbkbkbkbkbkbkbkbkbkbkbkbkbkbkbkbkbkbkbkbkbkbkbkbkbkbk",
"bkbkbkbkbkbkbkbkbkbkbkbkbkbkbkbkbkbkbkbkbkbkbkbkbkbkbkbkbkbkbkbk",
"agagagagagagagagagagagagagagagagagagagagagagagagagagagagagagagag",
"agagagagagagagagagagagagagagagagagagagagagagagagagagagagagagagag",
"agagagagagagagagagagagagagagagagagagagagagagagagagagagagagagagag",
"bYbYbYbYbYbYbYbYbYbYbYbYbYbYbYbYbYbYbYbYbYbYbYbYbYbYbYbYbYbYbYbY"};