/* XPM */
static char *maximize_toggled_prelight_xpm[] = {
"32 48 132 2",
"aa c #000000",
"ab c #F9F8F8",
"ac c #E1DEDB",
"ad c #E0DEDA",
"ae c #E0DDDA",
"af c #E0DDD9",
"ag c #DAD6D2",
"ah c #D5D0CC",
"ai c #D1CCC7",
"aj c #D0CAC6",
"ak c #CEC8C3",
"al c #DFDCD9",
"am c #DDDAD7",
"an c #DCD9D6",
"ao c #D1CBC6",
"ap c #D6D1CD",
"aq c #E5E2DF",
"ar c #F1EFEE",
"as c #F7F6F5",
"at c #FDFDFC",
"au c #D1CBC7",
"av c #DCD9D5",
"aw c #DEDAD7",
"ax c #D2CCC8",
"ay c #DCD8D5",
"az c #FEFEFD",
"aA c #FBFBFB",
"aB c #FAFAF9",
"aC c #F9F9F8",
"aD c #F8F8F7",
"aE c #F6F5F4",
"aF c #DCD8D4",
"aG c #D3CEC9",
"aH c #F3F2F1",
"aI c #F2F1F0",
"aJ c #DCD7D4",
"aK c #D8D4D0",
"aL c #FAFAF8",
"aM c #D8D3CF",
"aN c #DFDCD8",
"aO c #FCFCFC",
"aP c #DFDBD8",
"aQ c #DDD9D6",
"aR c #D3CECA",
"aS c #F9F9F7",
"aT c #F3F1F0",
"aU c #F2F1EF",
"aV c #DDD8D5",
"aW c #DEDBD8",
"aX c #DAD7D4",
"aY c #F5F4F2",
"aZ c #F4F3F2",
"a0 c #DEDBD7",
"a1 c #D7D3CF",
"a2 c #DBD8D4",
"a3 c #D3CFCA",
"a4 c #E4E1DE",
"a5 c #565A5B",
"a6 c #2E3436",
"a7 c #565B5C",
"a8 c #E3E0DD",
"a9 c #D4CFCA",
"a_ c #DAD6D3",
"a? c #EFEDEB",
"a= c #EEEDEB",
"a) c #CFCAC5",
"a( c #F3F2F0",
"a/ c #F2F2F0",
"a& c #D9D5D2",
"a% c #F7F7F5",
"a+ c #E9E9E9",
"a^ c #F7F6F6",
"a! c #E8E8E8",
"ba c #D8D5D1",
"bb c #F6F6F4",
"bc c #DDDAD6",
"bd c #CDC8C3",
"be c #D0CECA",
"bf c #CEC9C4",
"bg c #EDECE9",
"bh c #EDEBE9",
"bi c #D0CBC6",
"bj c #D3CDC9",
"bk c #5C6163",
"bl c #5D6263",
"bm c #E2DFDC",
"bn c #D5D1CD",
"bo c #D6D1CC",
"bp c #F1F0EF",
"bq c #F1F0EE",
"br c #D7D4D0",
"bs c #DBD7D3",
"bt c #DBD7D4",
"bu c #D6D3CF",
"bv c #D7D3D0",
"bw c #F4F4F3",
"bx c #D6D2CF",
"by c #D7D2CE",
"bz c #CDC8C2",
"bA c #F4F3F1",
"bB c #F3F3F1",
"bC c #D6D2CE",
"bD c #C7C1BB",
"bE c #EBEAE7",
"bF c #C7C1BA",
"bG c #D5D2CD",
"bH c #C6BFB9",
"bI c #D2CDC8",
"bJ c #EFEEEB",
"bK c #D1CDC7",
"bL c #D5D2CE",
"bM c #D3D0CC",
"bN c #D3CFCB",
"bO c #C4BEB7",
"bP c #CAC4BE",
"bQ c #E9E6E3",
"bR c #EEECEA",
"bS c #F5F3F2",
"bT c #D8D4D1",
"bU c #D4D0CD",
"bV c #D3CFCC",
"bW c #CFCAC7",
"bX c #CAC4BF",
"bY c #C3BDB7",
"bZ c #C0BAB3",
"b0 c #C0B9B2",
"b1 c #C2BBB4",
"b2 c #C5BFB9",
"b3 c #D4D0CC",
"b4 c #D2CFCB",
"b5 c #D2CECA",
"b6 c #BFB8B1",
"aaaaaaaaaaaaaaaaaaaaaaaaaaaaaaaaaaaaaaaaaaaaaaaaaaaaaaaaaaaaaaaa",
"abababababababababababababababababababababababababababababababab",
"acacacacacacacacacacacacacacacacacacacacacacacacacacacacacacacac",
"adadadadadadadadadadadadadadadadadadadadadadadadadadadadadadadad",
"aeaeaeaeaeaeaeaeaeaeaeaeaeaeaeaeaeaeaeaeaeaeaeaeaeaeaeaeaeaeaeae",
"aeaeaeaeaeaeaeaeaeaeaeaeaeaeaeaeaeaeaeaeaeaeaeaeaeaeaeaeaeaeaeae",
"aeaeaeaeaeaeaeaeaeaeaeaeaeaeaeaeaeaeaeaeaeaeaeaeaeaeaeaeaeaeaeae",
"aeaeaeaeaeaeaeaeaeaeaeaeaeaeaeaeaeaeaeaeaeaeaeaeaeaeaeaeaeaeaeae",
"aeaeaeaeaeaeaeaeaeaeaeaeaeaeaeaeaeaeaeaeaeaeaeaeaeaeaeaeaeaeaeae",
"afafafafafafafafafafafagahaiajakakajaiahagafafafafafafafafafafaf",
"alalalalalalalalamanaoapaqarasatatasaraqapauavamalalalalalalalal",
"alalalalalalalawaxayasazaAaBaCaDaDaCaBaAazaEaFaxamalalalalalalal",
"alalalalalalaFaGaHataCaDaDaDaDaDaDaDaDaDaDaCataIaGaJalalalalalal",
"alalalalalaKaKaLaBaDaDaDaDaDaDaDaDaDaDaDaDaDaDaBaLaMaKalalalalal",
"aNaNaNaNaFaKaOaCaDaDaDaDaDaDaDaDaDaDaDaDaDaDaDaDaCaOaKaFaNaNaNaN",
"aPaPaPaQaRaSaDaDaDaDaDaDaDaDaDaDaDaDaDaDaDaDaDaDaDaDaSaGaQaPaPaP",
"aPaPayaiaTaCaDaDaDaDaDaDaDaDaDaDaDaDaDaDaDaDaDaDaDaDaCaUaxaVaPaP",
"aWaWayayaBaDaDaDaDaDaDaDaDaDaDaDaDaDaDaDaDaDaDaDaDaDaDaBaFayaWaW",
"aWaXaoaYaDaDaDaDaDaDaDaDaDaDaDaDaDaDaDaDaDaDaDaDaDaDaDaDaZauaXaW",
"a0a1apaCaDaDaDaDaDaDaDaDaDaDaDaDaDaDaDaDaDaDaDaDaDaDaDaDaCapa1a0",
"a2a3a4aDaDaDaDaDaDaDaDaDa5a6a6a6a6a6a6a7aDaDaDaDaDaDaDaDaDa8a9a2",
"a_aua?aDaDaDaDaDaDaDaDaDa6a6a6a6a6a6a6a6aDaDaDaDaDaDaDaDaDa=aua_",
"a_a)a(aDaDaDaDaDaDaDaDaDa6a6a6a6a6a6a6a6aDaDaDaDaDaDaDaDaDa/a)a_",
"a&aka%aDaDaDaDaDaDaDaDaDa6a6a+a^a^a!a6a6aDaDaDaDaDaDaDaDaDasaka&",
"baakbbaDaDaDaDaDaDaDaDaDa6a6aNbcbcaNa6a6aDaDaDaDaDaDaDaDaDbbbdba",
"baa)aUaDaDaDaDaDaDaDaDaDa6a6bebcbcbea6a6aDaDaDaDaDaDaDaDaDaUbfba",
"baaubgaDaDaDaDaDaDaDaDaDa6a6a6a6a6a6a6a6aDaDaDaDaDaDaDaDaDbhbiba",
"a&bja8aDaDaDaDaDaDaDaDaDbka6a6a6a6a6a6blaDaDaDaDaDaDaDaDaDbmaRa&",
"a&bnboaDaDaDaDaDaDaDaDaDara^a^a^a^a^a^araDaDaDaDaDaDaDaDaDahbna&",
"aga1aubpaDaDaDaDaDaDaDaDaDaDaDaDaDaDaDaDaDaDaDaDaDaDaDaDbqaua1ag",
"avbrbsbtaDaDaDaDaDaDaDaDaDaDaDaDaDaDaDaDaDaDaDaDaDaDaDaDbsbsbrav",
"avbabuaxa?aDaDaDaDaDaDaDaDaDaDaDaDaDaDaDaDaDaDaDaDaDaDa=axbubaav",
"ayaybva_aGbwaDaDaDaDaDaDaDaDaDaDaDaDaDaDaDaDaDaDaDaDbwaGa_bvayay",
"ayaya&bxa_aMasaDaDaDaDaDaDaDaDaDaDaDaDaDaDaDaDaDaDasaMagbxa&ayay",
"aFaFaFaKbnbybzbAaDaDaDaDaDaDaDaDaDaDaDaDaDaDaDaDbBbzbCbnaKaFaFaF",
"aFaFaFaFa1bnaGbDbEaDaDaDaDaDaDaDaDaDaDaDaDaDaDbEbFaRbna1aFaFaFaF",
"aFaFaFaFaFbrbnbGbHbIbJaDaDaDaDaDaDaDaDaDaDa=bKbHapbna1aFaFaFaFaF",
"a2a2a2a2a2a2brbLbMbNbObPbsbQbRbSbSbRbQbsbPbObNbMbLbra2a2a2a2a2a2",
"btbtbtbtbtbtbtbTbxbUbVbWbXbHbYbZb0b1b2bXbWbVbUbxbTbtbtbtbtbtbtbt",
"bsbsbsbsbsbsbsbsbsbvbCbnb3bNb4b5b5b4bNb3bnbCa1bsbsbsbsbsbsbsbsbs",
"bsbsbsbsbsbsbsbsbsbsbsaKa1a1bCbCbCbCa1a1aKbsbsbsbsbsbsbsbsbsbsbs",
"bsbsbsbsbsbsbsbsbsbsbsbsbsbsbsbsbsbsbsbsbsbsbsbsbsbsbsbsbsbsbsbs",
"bsbsbsbsbsbsbsbsbsbsbsbsbsbsbsbsbsbsbsbsbsbsbsbsbsbsbsbsbsbsbsbs",
"bsbsbsbsbsbsbsbsbsbsbsbsbsbsbsbsbsbsbsbsbsbsbsbsbsbsbsbsbsbsbsbs",
"agagagagagagagagagagagagagagagagagagagagagagagagagagagagagagagag",
"agagagagagagagagagagagagagagagagagagagagagagagagagagagagagagagag",
"agagagagagagagagagagagagagagagagagagagagagagagagagagagagagagagag",
"b6b6b6b6b6b6b6b6b6b6b6b6b6b6b6b6b6b6b6b6b6b6b6b6b6b6b6b6b6b6b6b6"};