/* XPM */
static char *maximize_pressed_xpm[] = {
"32 48 70 1",
"a c #000000",
"b c #F9F8F8",
"c c #E1DEDB",
"d c #E0DEDA",
"e c #E0DDDA",
"f c #E0DDD9",
"g c #DBD8D4",
"h c #D6D1CC",
"i c #D1CCC7",
"j c #CFC9C4",
"k c #CDC8C2",
"l c #DCD8D4",
"m c #DFDCD9",
"n c #DEDBD8",
"o c #D5D0CB",
"p c #CEC8C3",
"q c #D2CCC8",
"r c #D4CECA",
"s c #D5CFCB",
"t c #D6D1CD",
"u c #D5D0CC",
"v c #D7D2CF",
"w c #D0CAC6",
"x c #D7D3CF",
"y c #D3CECA",
"z c #CEC8C4",
"A c #D4CFCB",
"B c #CFC9C5",
"C c #DFDCD8",
"D c #DFDBD8",
"E c #D7D2CE",
"F c #D7D3CE",
"G c #DEDAD7",
"H c #D4CFCA",
"I c #DEDBD7",
"J c #DAD6D2",
"K c #565A5B",
"L c #2E3436",
"M c #565B5C",
"N c #D1CBC7",
"O c #D6D2CF",
"P c #CEC9C4",
"Q c #E9E9E9",
"R c #F7F6F6",
"S c #E8E8E8",
"T c #CDC7C3",
"U c #D6D0CC",
"V c #DDDAD6",
"W c #CDC8C3",
"X c #D0CECA",
"Y c #D1CBC6",
"Z c #DDD9D6",
"0 c #5C6163",
"1 c #5D6263",
"2 c #D9D5D1",
"3 c #F1EFEE",
"4 c #DDD9D5",
"5 c #DCD9D5",
"6 c #D0CAC5",
"7 c #DCD9D4",
"8 c #DCD8D5",
"9 c #D6D1CE",
"_ c #D3CDC9",
"? c #DBD8D3",
"= c #DBD7D4",
") c #D8D3D0",
"( c #D0CBC6",
"/ c #CDC7C2",
"& c #DBD7D3",
"% c #BFB8B1",
"aaaaaaaaaaaaaaaaaaaaaaaaaaaaaaaa",
"bbbbbbbbbbbbbbbbbbbbbbbbbbbbbbbb",
"cccccccccccccccccccccccccccccccc",
"dddddddddddddddddddddddddddddddd",
"eeeeeeeeeeeeeeeeeeeeeeeeeeeeeeee",
"eeeeeeeeeeeeeeeeeeeeeeeeeeeeeeee",
"eeeeeeeeeeeeeeeeeeeeeeeeeeeeeeee",
"eeeeeeeeeeeeeeeeeeeeeeeeeeeeeeee",
"eeeeeeeeeeeeeeeeeeeeeeeeeeeeeeee",
"fffffffffffghijkkjihlfffffffffff",
"mmmmmmmmnopjqrsttsrqjpunmmmmmmmm",
"mmmmmmmvpwottttttttttowpxmmmmmmm",
"mmmmmmyzAttttttttttttttApymmmmmm",
"mmmmmiButtttttttttttttttuBimmmmm",
"CCCCyBttttttttttttttttttttByCCCC",
"DDDEzuttttttttttttttttttttupFDDD",
"DDGpAttttttttttttttttttttttHpGDD",
"nnAwttttttttttttttttttttttttwAnn",
"nnpsttttttttttttttttttttttttspnn",
"IJjttttttttttttttttttttttttttjJI",
"IoqtttttttttKLLLLLLMtttttttttiuI",
"GNrttttttOOOLLLLLLLLOttttttttrNG",
"GPotttttOOOOLLQRRSLLOOOttttttoPG",
"GTUttttOOOOOLLOOOOLLOOOOtttttUpG",
"VTUttttOOOOOLLVOOVLLOOOOOttttUWV",
"VPottttOOOOOLLXVVXLLOOOOOOtttsPV",
"VYrttttOOOOOLLLLLLLLOOOOOOtttrNV",
"ZAqttttOOOOO0LLLLLL1OOOOOOtttiAZ",
"Z2jttttOOOOO3RRRRRR3OOOOOOtttj2Z",
"44pstttOOOOOOOOOOOOOOOOOOOttsp44",
"55HwtttOOOOOOOOOOOOOOOOOOOtt6H55",
"55lpHttOOOOOOOOOOOOOOOOOOttHz755",
"888tputtOOOOOOOOOOOOOOttttup9888",
"8888_BttttttttttttttttttttBy8888",
"lllllNButtttttttttttttttuBilllll",
"llllll_pAttttttttttttttHpyllllll",
"llllllltpwsttttttttttAwptlllllll",
"gggggggg?HpjirsttsrijpHggggggggg",
"===========)y(z//z(r)===========",
"&&&&&&&&&&&&&&&&&&&&&&&&&&&&&&&&",
"&&&&&&&&&&&&&&&&&&&&&&&&&&&&&&&&",
"&&&&&&&&&&&&&&&&&&&&&&&&&&&&&&&&",
"&&&&&&&&&&&&&&&&&&&&&&&&&&&&&&&&",
"&&&&&&&&&&&&&&&&&&&&&&&&&&&&&&&&",
"JJJJJJJJJJJJJJJJJJJJJJJJJJJJJJJJ",
"JJJJJJJJJJJJJJJJJJJJJJJJJJJJJJJJ",
"JJJJJJJJJJJJJJJJJJJJJJJJJJJJJJJJ",
"%%%%%%%%%%%%%%%%%%%%%%%%%%%%%%%%"};