/* XPM */
static char *maximize_toggled_active_xpm[] = {
"32 48 33 1",
"a c #000000",
"b c #F9F8F8",
"c c #E1DEDB",
"d c #E0DEDA",
"e c #E0DDDA",
"f c #E0DDD9",
"g c #DFDCD9",
"h c #DFDCD8",
"i c #DFDBD8",
"j c #DEDBD8",
"k c #DEDBD7",
"l c #565A5B",
"m c #2E3436",
"n c #565B5C",
"o c #DEDAD7",
"p c #E9E9E9",
"q c #F7F6F6",
"r c #E8E8E8",
"s c #DDDAD6",
"t c #D0CECA",
"u c #DDD9D6",
"v c #5C6163",
"w c #5D6263",
"x c #F1EFEE",
"y c #DDD9D5",
"z c #DCD9D5",
"A c #DCD8D5",
"B c #DCD8D4",
"C c #DBD8D4",
"D c #DBD7D4",
"E c #DBD7D3",
"F c #DAD6D2",
"G c #BFB8B1",
"aaaaaaaaaaaaaaaaaaaaaaaaaaaaaaaa",
"bbbbbbbbbbbbbbbbbbbbbbbbbbbbbbbb",
"cccccccccccccccccccccccccccccccc",
"dddddddddddddddddddddddddddddddd",
"eeeeeeeeeeeeeeeeeeeeeeeeeeeeeeee",
"eeeeeeeeeeeeeeeeeeeeeeeeeeeeeeee",
"eeeeeeeeeeeeeeeeeeeeeeeeeeeeeeee",
"eeeeeeeeeeeeeeeeeeeeeeeeeeeeeeee",
"eeeeeeeeeeeeeeeeeeeeeeeeeeeeeeee",
"ffffffffffffffffffffffffffffffff",
"gggggggggggggggggggggggggggggggg",
"gggggggggggggggggggggggggggggggg",
"gggggggggggggggggggggggggggggggg",
"gggggggggggggggggggggggggggggggg",
"hhhhhhhhhhhhhhhhhhhhhhhhhhhhhhhh",
"iiiiiiiiiiiiiiiiiiiiiiiiiiiiiiii",
"iiiiiiiiiiiiiiiiiiiiiiiiiiiiiiii",
"jjjjjjjjjjjjjjjjjjjjjjjjjjjjjjjj",
"jjjjjjjjjjjjjjjjjjjjjjjjjjjjjjjj",
"kkkkkkkkkkkkkkkkkkkkkkkkkkkkkkkk",
"kkkkkkkkkkkklmmmmmmnkkkkkkkkkkkk",
"oooooooooooommmmmmmmoooooooooooo",
"oooooooooooommmmmmmmoooooooooooo",
"oooooooooooommpqqrmmoooooooooooo",
"ssssssssssssmmhsshmmssssssssssss",
"ssssssssssssmmtsstmmssssssssssss",
"ssssssssssssmmmmmmmmssssssssssss",
"uuuuuuuuuuuuvmmmmmmwuuuuuuuuuuuu",
"uuuuuuuuuuuuxqqqqqqxuuuuuuuuuuuu",
"yyyyyyyyyyyyyyyyyyyyyyyyyyyyyyyy",
"zzzzzzzzzzzzzzzzzzzzzzzzzzzzzzzz",
"zzzzzzzzzzzzzzzzzzzzzzzzzzzzzzzz",
"AAAAAAAAAAAAAAAAAAAAAAAAAAAAAAAA",
"AAAAAAAAAAAAAAAAAAAAAAAAAAAAAAAA",
"BBBBBBBBBBBBBBBBBBBBBBBBBBBBBBBB",
"BBBBBBBBBBBBBBBBBBBBBBBBBBBBBBBB",
"BBBBBBBBBBBBBBBBBBBBBBBBBBBBBBBB",
"CCCCCCCCCCCCCCCCCCCCCCCCCCCCCCCC",
"DDDDDDDDDDDDDDDDDDDDDDDDDDDDDDDD",
"EEEEEEEEEEEEEEEEEEEEEEEEEEEEEEEE",
"EEEEEEEEEEEEEEEEEEEEEEEEEEEEEEEE",
"EEEEEEEEEEEEEEEEEEEEEEEEEEEEEEEE",
"EEEEEEEEEEEEEEEEEEEEEEEEEEEEEEEE",
"EEEEEEEEEEEEEEEEEEEEEEEEEEEEEEEE",
"FFFFFFFFFFFFFFFFFFFFFFFFFFFFFFFF",
"FFFFFFFFFFFFFFFFFFFFFFFFFFFFFFFF",
"FFFFFFFFFFFFFFFFFFFFFFFFFFFFFFFF",
"GGGGGGGGGGGGGGGGGGGGGGGGGGGGGGGG"};