/* XPM */
static char *menu_inactive_xpm[] = {
"32 48 11 1",
"a c #000000",
"b c #FDFDFD",
"c c #F6F5F4",
"d c #B8B8B8",
"e c #949696",
"f c #808080",
"g c #CACACA",
"h c #A9A9A9",
"i c #C4C4C4",
"j c #AFAFAF",
"k c #D5D0CC",
"aaaaaaaaaaaaaaaaaaaaaaaaaaaaaaaa",
"bbbbbbbbbbbbbbbbbbbbbbbbbbbbbbbb",
"cccccccccccccccccccccccccccccccc",
"cccccccccccccccccccccccccccccccc",
"cccccccccccccccccccccccccccccccc",
"cccccccccccccccccccccccccccccccc",
"cccccccccccccccccccccccccccccccc",
"cccccccccccccccccccccccccccccccc",
"cccccccccccccccccccccccccccccccc",
"cccccccccccccccccccccccccccccccc",
"cccccccccccccccccccccccccccccccc",
"cccccccccccccccccccccccccccccccc",
"cccccccccccccccccccccccccccccccc",
"cccccccccccccccccccccccccccccccc",
"cccccccccccccccccccccccccccccccc",
"cccccccccccccccccccccccccccccccc",
"cccccccccccccccccccccccccccccccc",
"cccccccccccccccccccccccccccccccc",
"cccccccccccccccccccccccccccccccc",
"cccccccccccccccccccccccccccccccc",
"cccccccccccddddddddddccccccccccc",
"cccccccccccdeeeeeeeedccccccccccc",
"cccccccccccdeeeeeeeedccccccccccc",
"ccccccccccccfeeeeeefcccccccccccc",
"ccccccccccccgfeeeefgcccccccccccc",
"cccccccccccccheeeehccccccccccccc",
"ccccccccccccccheehcccccccccccccc",
"ccccccccccccccieeicccccccccccccc",
"cccccccccccccccjjccccccccccccccc",
"cccccccccccccccccccccccccccccccc",
"cccccccccccccccccccccccccccccccc",
"cccccccccccccccccccccccccccccccc",
"cccccccccccccccccccccccccccccccc",
"cccccccccccccccccccccccccccccccc",
"cccccccccccccccccccccccccccccccc",
"cccccccccccccccccccccccccccccccc",
"cccccccccccccccccccccccccccccccc",
"cccccccccccccccccccccccccccccccc",
"cccccccccccccccccccccccccccccccc",
"cccccccccccccccccccccccccccccccc",
"cccccccccccccccccccccccccccccccc",
"cccccccccccccccccccccccccccccccc",
"cccccccccccccccccccccccccccccccc",
"cccccccccccccccccccccccccccccccc",
"cccccccccccccccccccccccccccccccc",
"cccccccccccccccccccccccccccccccc",
"cccccccccccccccccccccccccccccccc",
"kkkkkkkkkkkkkkkkkkkkkkkkkkkkkkkk"};