/* XPM */
static char *menu_pressed_xpm[] = {
"32 48 71 1",
"a c #000000",
"b c #F9F8F8",
"c c #E1DEDB",
"d c #E0DEDA",
"e c #E0DDDA",
"f c #E0DDD9",
"g c #DBD8D4",
"h c #D6D1CC",
"i c #D1CCC7",
"j c #CFC9C4",
"k c #CDC8C2",
"l c #DCD8D4",
"m c #DFDCD9",
"n c #DEDBD8",
"o c #D5D0CB",
"p c #CEC8C3",
"q c #D2CCC8",
"r c #D4CECA",
"s c #D5CFCB",
"t c #D6D1CD",
"u c #D5D0CC",
"v c #D7D2CF",
"w c #D0CAC6",
"x c #D7D3CF",
"y c #D3CECA",
"z c #CEC8C4",
"A c #D4CFCB",
"B c #CFC9C5",
"C c #DFDCD8",
"D c #DFDBD8",
"E c #D7D2CE",
"F c #D7D3CE",
"G c #DEDAD7",
"H c #D4CFCA",
"I c #DEDBD7",
"J c #DAD6D2",
"K c #575757",
"L c #D1CBC7",
"M c #D6D2CF",
"N c #2B3132",
"O c #CEC9C4",
"P c #B8B8B8",
"Q c #CDC7C3",
"R c #D6D0CC",
"S c #808080",
"T c #DDDAD6",
"U c #CACACA",
"V c #454545",
"W c #CDC8C3",
"X c #A9A9A9",
"Y c #D1CBC6",
"Z c #6D6D6D",
"0 c #DDD9D6",
"1 c #C4C4C4",
"2 c #333435",
"3 c #D9D5D1",
"4 c #969696",
"5 c #DDD9D5",
"6 c #DCD9D5",
"7 c #D0CAC5",
"8 c #DCD9D4",
"9 c #DCD8D5",
"_ c #D6D1CE",
"? c #D3CDC9",
"= c #DBD8D3",
") c #DBD7D4",
"( c #D8D3D0",
"/ c #D0CBC6",
"& c #CDC7C2",
"% c #DBD7D3",
"+ c #BFB8B1",
"aaaaaaaaaaaaaaaaaaaaaaaaaaaaaaaa",
"bbbbbbbbbbbbbbbbbbbbbbbbbbbbbbbb",
"cccccccccccccccccccccccccccccccc",
"dddddddddddddddddddddddddddddddd",
"eeeeeeeeeeeeeeeeeeeeeeeeeeeeeeee",
"eeeeeeeeeeeeeeeeeeeeeeeeeeeeeeee",
"eeeeeeeeeeeeeeeeeeeeeeeeeeeeeeee",
"eeeeeeeeeeeeeeeeeeeeeeeeeeeeeeee",
"eeeeeeeeeeeeeeeeeeeeeeeeeeeeeeee",
"fffffffffffghijkkjihlfffffffffff",
"mmmmmmmmnopjqrsttsrqjpunmmmmmmmm",
"mmmmmmmvpwottttttttttowpxmmmmmmm",
"mmmmmmyzAttttttttttttttApymmmmmm",
"mmmmmiButtttttttttttttttuBimmmmm",
"CCCCyBttttttttttttttttttttByCCCC",
"DDDEzuttttttttttttttttttttupFDDD",
"DDGpAttttttttttttttttttttttHpGDD",
"nnAwttttttttttttttttttttttttwAnn",
"nnpsttttttttttttttttttttttttspnn",
"IJjttttttttttttttttttttttttttjJI",
"IoqttttttttKKKKKKKKKKttttttttiuI",
"GLrttttttMMKNNNNNNNNKttttttttrLG",
"GOotttttMMMPNNNNNNNNPMMttttttoOG",
"GQRttttMMMMMSNNNNNNSMMMMtttttRpG",
"TQRttttMMMMMUVNNNNVUMMMMMttttRWT",
"TOottttMMMMMMXNNNNXMMMMMMMtttsOT",
"TYrttttMMMMMMMZNNZMMMMMMMMtttrLT",
"0AqttttMMMMMMM1221MMMMMMMMtttiA0",
"03jttttMMMMMMMM44MMMMMMMMMtttj30",
"55pstttMMMMMMMMMMMMMMMMMMMttsp55",
"66HwtttMMMMMMMMMMMMMMMMMMMtt7H66",
"66lpHttMMMMMMMMMMMMMMMMMMttHz866",
"999tputtMMMMMMMMMMMMMMttttup_999",
"9999?BttttttttttttttttttttBy9999",
"lllllLButtttttttttttttttuBilllll",
"llllll?pAttttttttttttttHpyllllll",
"llllllltpwsttttttttttAwptlllllll",
"gggggggg=HpjirsttsrijpHggggggggg",
")))))))))))(y/z&&z/r()))))))))))",
"%%%%%%%%%%%%%%%%%%%%%%%%%%%%%%%%",
"%%%%%%%%%%%%%%%%%%%%%%%%%%%%%%%%",
"%%%%%%%%%%%%%%%%%%%%%%%%%%%%%%%%",
"%%%%%%%%%%%%%%%%%%%%%%%%%%%%%%%%",
"%%%%%%%%%%%%%%%%%%%%%%%%%%%%%%%%",
"JJJJJJJJJJJJJJJJJJJJJJJJJJJJJJJJ",
"JJJJJJJJJJJJJJJJJJJJJJJJJJJJJJJJ",
"JJJJJJJJJJJJJJJJJJJJJJJJJJJJJJJJ",
"++++++++++++++++++++++++++++++++"};