/* XPM */
static char *menu_prelight_xpm[] = {
"32 48 133 2",
"aa c #000000",
"ab c #F9F8F8",
"ac c #E1DEDB",
"ad c #E0DEDA",
"ae c #E0DDDA",
"af c #E0DDD9",
"ag c #DAD6D2",
"ah c #D5D0CC",
"ai c #D1CCC7",
"aj c #D0CAC6",
"ak c #CEC8C3",
"al c #DFDCD9",
"am c #DDDAD7",
"an c #DCD9D6",
"ao c #D1CBC6",
"ap c #D6D1CD",
"aq c #E5E2DF",
"ar c #F1EFEE",
"as c #F7F6F5",
"at c #FDFDFC",
"au c #D1CBC7",
"av c #DCD9D5",
"aw c #DEDAD7",
"ax c #D2CCC8",
"ay c #DCD8D5",
"az c #FEFEFD",
"aA c #FBFBFB",
"aB c #FAFAF9",
"aC c #F9F9F8",
"aD c #F8F8F7",
"aE c #F6F5F4",
"aF c #DCD8D4",
"aG c #D3CEC9",
"aH c #F3F2F1",
"aI c #F2F1F0",
"aJ c #DCD7D4",
"aK c #D8D4D0",
"aL c #FAFAF8",
"aM c #D8D3CF",
"aN c #DFDCD8",
"aO c #FCFCFC",
"aP c #DFDBD8",
"aQ c #DDD9D6",
"aR c #D3CECA",
"aS c #F9F9F7",
"aT c #F3F1F0",
"aU c #F2F1EF",
"aV c #DDD8D5",
"aW c #DEDBD8",
"aX c #DAD7D4",
"aY c #F5F4F2",
"aZ c #F4F3F2",
"a0 c #DEDBD7",
"a1 c #D7D3CF",
"a2 c #DBD8D4",
"a3 c #D3CFCA",
"a4 c #E4E1DE",
"a5 c #575757",
"a6 c #E3E0DD",
"a7 c #D4CFCA",
"a8 c #DAD6D3",
"a9 c #EFEDEB",
"a_ c #2B3132",
"a? c #EEEDEB",
"a= c #CFCAC5",
"a) c #F3F2F0",
"a( c #B8B8B8",
"a/ c #F2F2F0",
"a& c #D9D5D2",
"a% c #F7F7F5",
"a+ c #808080",
"a^ c #D8D5D1",
"a! c #F6F6F4",
"ba c #CACACA",
"bb c #454545",
"bc c #CDC8C3",
"bd c #A9A9A9",
"be c #CEC9C4",
"bf c #EDECE9",
"bg c #6D6D6D",
"bh c #EDEBE9",
"bi c #D0CBC6",
"bj c #D3CDC9",
"bk c #C4C4C4",
"bl c #333435",
"bm c #E2DFDC",
"bn c #D5D1CD",
"bo c #D6D1CC",
"bp c #969696",
"bq c #F1F0EF",
"br c #F1F0EE",
"bs c #D7D4D0",
"bt c #DBD7D3",
"bu c #DBD7D4",
"bv c #D6D3CF",
"bw c #D7D3D0",
"bx c #F4F4F3",
"by c #D6D2CF",
"bz c #D7D2CE",
"bA c #CDC8C2",
"bB c #F4F3F1",
"bC c #F3F3F1",
"bD c #D6D2CE",
"bE c #C7C1BB",
"bF c #EBEAE7",
"bG c #C7C1BA",
"bH c #D5D2CD",
"bI c #C6BFB9",
"bJ c #D2CDC8",
"bK c #EFEEEB",
"bL c #D1CDC7",
"bM c #D5D2CE",
"bN c #D3D0CC",
"bO c #D3CFCB",
"bP c #C4BEB7",
"bQ c #CAC4BE",
"bR c #E9E6E3",
"bS c #EEECEA",
"bT c #F5F3F2",
"bU c #D8D4D1",
"bV c #D4D0CD",
"bW c #D3CFCC",
"bX c #CFCAC7",
"bY c #CAC4BF",
"bZ c #C3BDB7",
"b0 c #C0BAB3",
"b1 c #C0B9B2",
"b2 c #C2BBB4",
"b3 c #C5BFB9",
"b4 c #D4D0CC",
"b5 c #D2CFCB",
"b6 c #D2CECA",
"b7 c #BFB8B1",
"aaaaaaaaaaaaaaaaaaaaaaaaaaaaaaaaaaaaaaaaaaaaaaaaaaaaaaaaaaaaaaaa",
"abababababababababababababababababababababababababababababababab",
"acacacacacacacacacacacacacacacacacacacacacacacacacacacacacacacac",
"adadadadadadadadadadadadadadadadadadadadadadadadadadadadadadadad",
"aeaeaeaeaeaeaeaeaeaeaeaeaeaeaeaeaeaeaeaeaeaeaeaeaeaeaeaeaeaeaeae",
"aeaeaeaeaeaeaeaeaeaeaeaeaeaeaeaeaeaeaeaeaeaeaeaeaeaeaeaeaeaeaeae",
"aeaeaeaeaeaeaeaeaeaeaeaeaeaeaeaeaeaeaeaeaeaeaeaeaeaeaeaeaeaeaeae",
"aeaeaeaeaeaeaeaeaeaeaeaeaeaeaeaeaeaeaeaeaeaeaeaeaeaeaeaeaeaeaeae",
"aeaeaeaeaeaeaeaeaeaeaeaeaeaeaeaeaeaeaeaeaeaeaeaeaeaeaeaeaeaeaeae",
"afafafafafafafafafafafagahaiajakakajaiahagafafafafafafafafafafaf",
"alalalalalalalalamanaoapaqarasatatasaraqapauavamalalalalalalalal",
"alalalalalalalawaxayasazaAaBaCaDaDaCaBaAazaEaFaxamalalalalalalal",
"alalalalalalaFaGaHataCaDaDaDaDaDaDaDaDaDaDaCataIaGaJalalalalalal",
"alalalalalaKaKaLaBaDaDaDaDaDaDaDaDaDaDaDaDaDaDaBaLaMaKalalalalal",
"aNaNaNaNaFaKaOaCaDaDaDaDaDaDaDaDaDaDaDaDaDaDaDaDaCaOaKaFaNaNaNaN",
"aPaPaPaQaRaSaDaDaDaDaDaDaDaDaDaDaDaDaDaDaDaDaDaDaDaDaSaGaQaPaPaP",
"aPaPayaiaTaCaDaDaDaDaDaDaDaDaDaDaDaDaDaDaDaDaDaDaDaDaCaUaxaVaPaP",
"aWaWayayaBaDaDaDaDaDaDaDaDaDaDaDaDaDaDaDaDaDaDaDaDaDaDaBaFayaWaW",
"aWaXaoaYaDaDaDaDaDaDaDaDaDaDaDaDaDaDaDaDaDaDaDaDaDaDaDaDaZauaXaW",
"a0a1apaCaDaDaDaDaDaDaDaDaDaDaDaDaDaDaDaDaDaDaDaDaDaDaDaDaCapa1a0",
"a2a3a4aDaDaDaDaDaDaDaDa5a5a5a5a5a5a5a5a5a5aDaDaDaDaDaDaDaDa6a7a2",
"a8aua9aDaDaDaDaDaDaDaDa5a_a_a_a_a_a_a_a_a5aDaDaDaDaDaDaDaDa?aua8",
"a8a=a)aDaDaDaDaDaDaDaDa(a_a_a_a_a_a_a_a_a(aDaDaDaDaDaDaDaDa/a=a8",
"a&aka%aDaDaDaDaDaDaDaDaDa+a_a_a_a_a_a_a+aDaDaDaDaDaDaDaDaDasaka&",
"a^aka!aDaDaDaDaDaDaDaDaDbabba_a_a_a_bbbaaDaDaDaDaDaDaDaDaDa!bca^",
"a^a=aUaDaDaDaDaDaDaDaDaDaDbda_a_a_a_bdaDaDaDaDaDaDaDaDaDaDaUbea^",
"a^aubfaDaDaDaDaDaDaDaDaDaDaDbga_a_bgaDaDaDaDaDaDaDaDaDaDaDbhbia^",
"a&bja6aDaDaDaDaDaDaDaDaDaDaDbkblblbkaDaDaDaDaDaDaDaDaDaDaDbmaRa&",
"a&bnboaDaDaDaDaDaDaDaDaDaDaDaDbpbpaDaDaDaDaDaDaDaDaDaDaDaDahbna&",
"aga1aubqaDaDaDaDaDaDaDaDaDaDaDaDaDaDaDaDaDaDaDaDaDaDaDaDbraua1ag",
"avbsbtbuaDaDaDaDaDaDaDaDaDaDaDaDaDaDaDaDaDaDaDaDaDaDaDaDbtbtbsav",
"ava^bvaxa9aDaDaDaDaDaDaDaDaDaDaDaDaDaDaDaDaDaDaDaDaDaDa?axbva^av",
"ayaybwa8aGbxaDaDaDaDaDaDaDaDaDaDaDaDaDaDaDaDaDaDaDaDbxaGa8bwayay",
"ayaya&bya8aMasaDaDaDaDaDaDaDaDaDaDaDaDaDaDaDaDaDaDasaMagbya&ayay",
"aFaFaFaKbnbzbAbBaDaDaDaDaDaDaDaDaDaDaDaDaDaDaDaDbCbAbDbnaKaFaFaF",
"aFaFaFaFa1bnaGbEbFaDaDaDaDaDaDaDaDaDaDaDaDaDaDbFbGaRbna1aFaFaFaF",
"aFaFaFaFaFbsbnbHbIbJbKaDaDaDaDaDaDaDaDaDaDa?bLbIapbna1aFaFaFaFaF",
"a2a2a2a2a2a2bsbMbNbObPbQbtbRbSbTbTbSbRbtbQbPbObNbMbsa2a2a2a2a2a2",
"bubububububububUbybVbWbXbYbIbZb0b1b2b3bYbXbWbVbybUbububububububu",
"btbtbtbtbtbtbtbtbtbwbDbnb4bOb5b6b6b5bOb4bnbDa1btbtbtbtbtbtbtbtbt",
"btbtbtbtbtbtbtbtbtbtbtaKa1a1bDbDbDbDa1a1aKbtbtbtbtbtbtbtbtbtbtbt",
"btbtbtbtbtbtbtbtbtbtbtbtbtbtbtbtbtbtbtbtbtbtbtbtbtbtbtbtbtbtbtbt",
"btbtbtbtbtbtbtbtbtbtbtbtbtbtbtbtbtbtbtbtbtbtbtbtbtbtbtbtbtbtbtbt",
"btbtbtbtbtbtbtbtbtbtbtbtbtbtbtbtbtbtbtbtbtbtbtbtbtbtbtbtbtbtbtbt",
"agagagagagagagagagagagagagagagagagagagagagagagagagagagagagagagag",
"agagagagagagagagagagagagagagagagagagagagagagagagagagagagagagagag",
"agagagagagagagagagagagagagagagagagagagagagagagagagagagagagagagag",
"b7b7b7b7b7b7b7b7b7b7b7b7b7b7b7b7b7b7b7b7b7b7b7b7b7b7b7b7b7b7b7b7"};