/* XPM */
static char *shade_pressed_xpm[] = {
"32 48 80 2",
"aa c #000000",
"ab c #F9F8F8",
"ac c #E1DEDB",
"ad c #E0DEDA",
"ae c #E0DDDA",
"af c #E0DDD9",
"ag c #DBD8D4",
"ah c #D6D1CC",
"ai c #D1CCC7",
"aj c #CFC9C4",
"ak c #CDC8C2",
"al c #DCD8D4",
"am c #DFDCD9",
"an c #DEDBD8",
"ao c #D5D0CB",
"ap c #CEC8C3",
"aq c #D2CCC8",
"ar c #D4CECA",
"as c #D5CFCB",
"at c #D6D1CD",
"au c #D5D0CC",
"av c #D7D2CF",
"aw c #D0CAC6",
"ax c #D7D3CF",
"ay c #D3CECA",
"az c #CEC8C4",
"aA c #D4CFCB",
"aB c #CFC9C5",
"aC c #DFDCD8",
"aD c #DFDBD8",
"aE c #D7D2CE",
"aF c #D7D3CE",
"aG c #DEDAD7",
"aH c #D4CFCA",
"aI c #DEDBD7",
"aJ c #DAD6D2",
"aK c #E6E6E6",
"aL c #848484",
"aM c #7C7C7C",
"aN c #D1CBC7",
"aO c #D6D2CF",
"aP c #E5E5E5",
"aQ c #6C6C6C",
"aR c #2B3132",
"aS c #666666",
"aT c #CEC9C4",
"aU c #E1E1E1",
"aV c #5C5C5C",
"aW c #575757",
"aX c #DEDEDE",
"aY c #CDC7C3",
"aZ c #D6D0CC",
"a0 c #545454",
"a1 c #303233",
"a2 c #555555",
"a3 c #DDDAD6",
"a4 c #AFAFAF",
"a5 c #434343",
"a6 c #B4B4B4",
"a7 c #B7B7B7",
"a8 c #444444",
"a9 c #ACACAC",
"a_ c #CDC8C3",
"a? c #D1CBC6",
"a= c #DDD9D6",
"a) c #D9D5D1",
"a( c #DDD9D5",
"a/ c #DCD9D5",
"a& c #D0CAC5",
"a% c #DCD9D4",
"a+ c #DCD8D5",
"a^ c #D6D1CE",
"a! c #D3CDC9",
"ba c #DBD8D3",
"bb c #DBD7D4",
"bc c #D8D3D0",
"bd c #D0CBC6",
"be c #CDC7C2",
"bf c #DBD7D3",
"bg c #BFB8B1",
"aaaaaaaaaaaaaaaaaaaaaaaaaaaaaaaaaaaaaaaaaaaaaaaaaaaaaaaaaaaaaaaa",
"abababababababababababababababababababababababababababababababab",
"acacacacacacacacacacacacacacacacacacacacacacacacacacacacacacacac",
"adadadadadadadadadadadadadadadadadadadadadadadadadadadadadadadad",
"aeaeaeaeaeaeaeaeaeaeaeaeaeaeaeaeaeaeaeaeaeaeaeaeaeaeaeaeaeaeaeae",
"aeaeaeaeaeaeaeaeaeaeaeaeaeaeaeaeaeaeaeaeaeaeaeaeaeaeaeaeaeaeaeae",
"aeaeaeaeaeaeaeaeaeaeaeaeaeaeaeaeaeaeaeaeaeaeaeaeaeaeaeaeaeaeaeae",
"aeaeaeaeaeaeaeaeaeaeaeaeaeaeaeaeaeaeaeaeaeaeaeaeaeaeaeaeaeaeaeae",
"aeaeaeaeaeaeaeaeaeaeaeaeaeaeaeaeaeaeaeaeaeaeaeaeaeaeaeaeaeaeaeae",
"afafafafafafafafafafafagahaiajakakajaiahalafafafafafafafafafafaf",
"amamamamamamamamanaoapajaqarasatatasaraqajapauanamamamamamamamam",
"amamamamamamamavapawaoatatatatatatatatatataoawapaxamamamamamamam",
"amamamamamamayazaAatatatatatatatatatatatatatataAapayamamamamamam",
"amamamamamaiaBauatatatatatatatatatatatatatatatatauaBaiamamamamam",
"aCaCaCaCayaBatatatatatatatatatatatatatatatatatatatataBayaCaCaCaC",
"aDaDaDaEazauatatatatatatatatatatatatatatatatatatatatauapaFaDaDaD",
"aDaDaGapaAatatatatatatatatatatatatatatatatatatatatatataHapaGaDaD",
"ananaAawatatatatatatatatatatatatatatatatatatatatatatatatawaAanan",
"ananapasatatatatatatatatatatatatatatatatatatatatatatatatasapanan",
"aIaJajatatatatatatatatatatatatatatatatatatatatatatatatatatajaJaI",
"aIaoaqatatatatatatatatatatataKaLaMaKatatatatatatatatatatataiauaI",
"aGaNaratatatatatataOaOaOaOaPaQaRaRaSaPaOaOatatatatatatatataraNaG",
"aGaTaoatatatatataOaOaOaOaUaVaRaRaRaRaWaXaOaOaOatatatatatataoaTaG",
"aGaYaZatatatataOaOaOaOaOa0aRa1aRaRa1aRa2aOaOaOaOatatatatataZapaG",
"a3aYaZatatatataOaOaOaOaOa4a5a6aRaRa7a8a9aOaOaOaOaOatatatataZa_a3",
"a3aTaoatatatataOaOaOaOaOaOaOaOaRaRaOaOaOaOaOaOaOaOaOatatatasaTa3",
"a3a?aratatatataOaOaOaOaOaOaOaOaRaRaOaOaOaOaOaOaOaOaOatatataraNa3",
"a=aAaqatatatataOaOaOaOaOaOaOaOaRaRaOaOaOaOaOaOaOaOaOatatataiaAa=",
"a=a)ajatatatataOaOaOaOaOaOaOaOaOaOaOaOaOaOaOaOaOaOaOatatataja)a=",
"a(a(apasatatataOaOaOaOaOaOaOaOaOaOaOaOaOaOaOaOaOaOaOatatasapa(a(",
"a/a/aHawatatataOaOaOaOaOaOaOaOaOaOaOaOaOaOaOaOaOaOaOatata&aHa/a/",
"a/a/alapaHatataOaOaOaOaOaOaOaOaOaOaOaOaOaOaOaOaOaOatataHaza%a/a/",
"a+a+a+atapauatataOaOaOaOaOaOaOaOaOaOaOaOaOaOatatatatauapa^a+a+a+",
"a+a+a+a+a!aBatatatatatatatatatatatatatatatatatatatataBaya+a+a+a+",
"alalalalalaNaBauatatatatatatatatatatatatatatatatauaBaialalalalal",
"alalalalalala!apaAatatatatatatatatatatatatatataHapayalalalalalal",
"alalalalalalalatapawasatatatatatatatatatataAawapatalalalalalalal",
"agagagagagagagagbaaHapajaiarasatatasaraiajapaHagagagagagagagagag",
"bbbbbbbbbbbbbbbbbbbbbbbcaybdazbebeazbdarbcbbbbbbbbbbbbbbbbbbbbbb",
"bfbfbfbfbfbfbfbfbfbfbfbfbfbfbfbfbfbfbfbfbfbfbfbfbfbfbfbfbfbfbfbf",
"bfbfbfbfbfbfbfbfbfbfbfbfbfbfbfbfbfbfbfbfbfbfbfbfbfbfbfbfbfbfbfbf",
"bfbfbfbfbfbfbfbfbfbfbfbfbfbfbfbfbfbfbfbfbfbfbfbfbfbfbfbfbfbfbfbf",
"bfbfbfbfbfbfbfbfbfbfbfbfbfbfbfbfbfbfbfbfbfbfbfbfbfbfbfbfbfbfbfbf",
"bfbfbfbfbfbfbfbfbfbfbfbfbfbfbfbfbfbfbfbfbfbfbfbfbfbfbfbfbfbfbfbf",
"aJaJaJaJaJaJaJaJaJaJaJaJaJaJaJaJaJaJaJaJaJaJaJaJaJaJaJaJaJaJaJaJ",
"aJaJaJaJaJaJaJaJaJaJaJaJaJaJaJaJaJaJaJaJaJaJaJaJaJaJaJaJaJaJaJaJ",
"aJaJaJaJaJaJaJaJaJaJaJaJaJaJaJaJaJaJaJaJaJaJaJaJaJaJaJaJaJaJaJaJ",
"bgbgbgbgbgbgbgbgbgbgbgbgbgbgbgbgbgbgbgbgbgbgbgbgbgbgbgbgbgbgbgbg"};