/* XPM */
static char *shade_prelight_xpm[] = {
"32 48 142 2",
"aa c #000000",
"ab c #F9F8F8",
"ac c #E1DEDB",
"ad c #E0DEDA",
"ae c #E0DDDA",
"af c #E0DDD9",
"ag c #DAD6D2",
"ah c #D5D0CC",
"ai c #D1CCC7",
"aj c #D0CAC6",
"ak c #CEC8C3",
"al c #DFDCD9",
"am c #DDDAD7",
"an c #DCD9D6",
"ao c #D1CBC6",
"ap c #D6D1CD",
"aq c #E5E2DF",
"ar c #F1EFEE",
"as c #F7F6F5",
"at c #FDFDFC",
"au c #D1CBC7",
"av c #DCD9D5",
"aw c #DEDAD7",
"ax c #D2CCC8",
"ay c #DCD8D5",
"az c #FEFEFD",
"aA c #FBFBFB",
"aB c #FAFAF9",
"aC c #F9F9F8",
"aD c #F8F8F7",
"aE c #F6F5F4",
"aF c #DCD8D4",
"aG c #D3CEC9",
"aH c #F3F2F1",
"aI c #F2F1F0",
"aJ c #DCD7D4",
"aK c #D8D4D0",
"aL c #FAFAF8",
"aM c #D8D3CF",
"aN c #DFDCD8",
"aO c #FCFCFC",
"aP c #DFDBD8",
"aQ c #DDD9D6",
"aR c #D3CECA",
"aS c #F9F9F7",
"aT c #F3F1F0",
"aU c #F2F1EF",
"aV c #DDD8D5",
"aW c #DEDBD8",
"aX c #DAD7D4",
"aY c #F5F4F2",
"aZ c #F4F3F2",
"a0 c #DEDBD7",
"a1 c #D7D3CF",
"a2 c #DBD8D4",
"a3 c #D3CFCA",
"a4 c #E4E1DE",
"a5 c #E6E6E6",
"a6 c #848484",
"a7 c #7C7C7C",
"a8 c #E3E0DD",
"a9 c #D4CFCA",
"a_ c #DAD6D3",
"a? c #EFEDEB",
"a= c #E5E5E5",
"a) c #6C6C6C",
"a( c #2B3132",
"a/ c #666666",
"a& c #EEEDEB",
"a% c #CFCAC5",
"a+ c #F3F2F0",
"a^ c #E1E1E1",
"a! c #5C5C5C",
"ba c #575757",
"bb c #DEDEDE",
"bc c #F2F2F0",
"bd c #D9D5D2",
"be c #F7F7F5",
"bf c #545454",
"bg c #303233",
"bh c #555555",
"bi c #D8D5D1",
"bj c #F6F6F4",
"bk c #AFAFAF",
"bl c #434343",
"bm c #B4B4B4",
"bn c #B7B7B7",
"bo c #444444",
"bp c #ACACAC",
"bq c #CDC8C3",
"br c #CEC9C4",
"bs c #EDECE9",
"bt c #EDEBE9",
"bu c #D0CBC6",
"bv c #D3CDC9",
"bw c #E2DFDC",
"bx c #D5D1CD",
"by c #D6D1CC",
"bz c #F1F0EF",
"bA c #F1F0EE",
"bB c #D7D4D0",
"bC c #DBD7D3",
"bD c #DBD7D4",
"bE c #D6D3CF",
"bF c #D7D3D0",
"bG c #F4F4F3",
"bH c #D6D2CF",
"bI c #D7D2CE",
"bJ c #CDC8C2",
"bK c #F4F3F1",
"bL c #F3F3F1",
"bM c #D6D2CE",
"bN c #C7C1BB",
"bO c #EBEAE7",
"bP c #C7C1BA",
"bQ c #D5D2CD",
"bR c #C6BFB9",
"bS c #D2CDC8",
"bT c #EFEEEB",
"bU c #D1CDC7",
"bV c #D5D2CE",
"bW c #D3D0CC",
"bX c #D3CFCB",
"bY c #C4BEB7",
"bZ c #CAC4BE",
"b0 c #E9E6E3",
"b1 c #EEECEA",
"b2 c #F5F3F2",
"b3 c #D8D4D1",
"b4 c #D4D0CD",
"b5 c #D3CFCC",
"b6 c #CFCAC7",
"b7 c #CAC4BF",
"b8 c #C3BDB7",
"b9 c #C0BAB3",
"b_ c #C0B9B2",
"b? c #C2BBB4",
"b= c #C5BFB9",
"b) c #D4D0CC",
"b( c #D2CFCB",
"b/ c #D2CECA",
"b& c #BFB8B1",
"aaaaaaaaaaaaaaaaaaaaaaaaaaaaaaaaaaaaaaaaaaaaaaaaaaaaaaaaaaaaaaaa",
"abababababababababababababababababababababababababababababababab",
"acacacacacacacacacacacacacacacacacacacacacacacacacacacacacacacac",
"adadadadadadadadadadadadadadadadadadadadadadadadadadadadadadadad",
"aeaeaeaeaeaeaeaeaeaeaeaeaeaeaeaeaeaeaeaeaeaeaeaeaeaeaeaeaeaeaeae",
"aeaeaeaeaeaeaeaeaeaeaeaeaeaeaeaeaeaeaeaeaeaeaeaeaeaeaeaeaeaeaeae",
"aeaeaeaeaeaeaeaeaeaeaeaeaeaeaeaeaeaeaeaeaeaeaeaeaeaeaeaeaeaeaeae",
"aeaeaeaeaeaeaeaeaeaeaeaeaeaeaeaeaeaeaeaeaeaeaeaeaeaeaeaeaeaeaeae",
"aeaeaeaeaeaeaeaeaeaeaeaeaeaeaeaeaeaeaeaeaeaeaeaeaeaeaeaeaeaeaeae",
"afafafafafafafafafafafagahaiajakakajaiahagafafafafafafafafafafaf",
"alalalalalalalalamanaoapaqarasatatasaraqapauavamalalalalalalalal",
"alalalalalalalawaxayasazaAaBaCaDaDaCaBaAazaEaFaxamalalalalalalal",
"alalalalalalaFaGaHataCaDaDaDaDaDaDaDaDaDaDaCataIaGaJalalalalalal",
"alalalalalaKaKaLaBaDaDaDaDaDaDaDaDaDaDaDaDaDaDaBaLaMaKalalalalal",
"aNaNaNaNaFaKaOaCaDaDaDaDaDaDaDaDaDaDaDaDaDaDaDaDaCaOaKaFaNaNaNaN",
"aPaPaPaQaRaSaDaDaDaDaDaDaDaDaDaDaDaDaDaDaDaDaDaDaDaDaSaGaQaPaPaP",
"aPaPayaiaTaCaDaDaDaDaDaDaDaDaDaDaDaDaDaDaDaDaDaDaDaDaCaUaxaVaPaP",
"aWaWayayaBaDaDaDaDaDaDaDaDaDaDaDaDaDaDaDaDaDaDaDaDaDaDaBaFayaWaW",
"aWaXaoaYaDaDaDaDaDaDaDaDaDaDaDaDaDaDaDaDaDaDaDaDaDaDaDaDaZauaXaW",
"a0a1apaCaDaDaDaDaDaDaDaDaDaDaDaDaDaDaDaDaDaDaDaDaDaDaDaDaCapa1a0",
"a2a3a4aDaDaDaDaDaDaDaDaDaDaDa5a6a7a5aDaDaDaDaDaDaDaDaDaDaDa8a9a2",
"a_aua?aDaDaDaDaDaDaDaDaDaDa=a)a(a(a/a=aDaDaDaDaDaDaDaDaDaDa&aua_",
"a_a%a+aDaDaDaDaDaDaDaDaDa^a!a(a(a(a(babbaDaDaDaDaDaDaDaDaDbca%a_",
"bdakbeaDaDaDaDaDaDaDaDaDbfa(bga(a(bga(bhaDaDaDaDaDaDaDaDaDasakbd",
"biakbjaDaDaDaDaDaDaDaDaDbkblbma(a(bnbobpaDaDaDaDaDaDaDaDaDbjbqbi",
"bia%aUaDaDaDaDaDaDaDaDaDaDaDaDa(a(aDaDaDaDaDaDaDaDaDaDaDaDaUbrbi",
"biaubsaDaDaDaDaDaDaDaDaDaDaDaDa(a(aDaDaDaDaDaDaDaDaDaDaDaDbtbubi",
"bdbva8aDaDaDaDaDaDaDaDaDaDaDaDa(a(aDaDaDaDaDaDaDaDaDaDaDaDbwaRbd",
"bdbxbyaDaDaDaDaDaDaDaDaDaDaDaDaDaDaDaDaDaDaDaDaDaDaDaDaDaDahbxbd",
"aga1aubzaDaDaDaDaDaDaDaDaDaDaDaDaDaDaDaDaDaDaDaDaDaDaDaDbAaua1ag",
"avbBbCbDaDaDaDaDaDaDaDaDaDaDaDaDaDaDaDaDaDaDaDaDaDaDaDaDbCbCbBav",
"avbibEaxa?aDaDaDaDaDaDaDaDaDaDaDaDaDaDaDaDaDaDaDaDaDaDa&axbEbiav",
"ayaybFa_aGbGaDaDaDaDaDaDaDaDaDaDaDaDaDaDaDaDaDaDaDaDbGaGa_bFayay",
"ayaybdbHa_aMasaDaDaDaDaDaDaDaDaDaDaDaDaDaDaDaDaDaDasaMagbHbdayay",
"aFaFaFaKbxbIbJbKaDaDaDaDaDaDaDaDaDaDaDaDaDaDaDaDbLbJbMbxaKaFaFaF",
"aFaFaFaFa1bxaGbNbOaDaDaDaDaDaDaDaDaDaDaDaDaDaDbObPaRbxa1aFaFaFaF",
"aFaFaFaFaFbBbxbQbRbSbTaDaDaDaDaDaDaDaDaDaDa&bUbRapbxa1aFaFaFaFaF",
"a2a2a2a2a2a2bBbVbWbXbYbZbCb0b1b2b2b1b0bCbZbYbXbWbVbBa2a2a2a2a2a2",
"bDbDbDbDbDbDbDb3bHb4b5b6b7bRb8b9b_b?b=b7b6b5b4bHb3bDbDbDbDbDbDbD",
"bCbCbCbCbCbCbCbCbCbFbMbxb)bXb(b/b/b(bXb)bxbMa1bCbCbCbCbCbCbCbCbC",
"bCbCbCbCbCbCbCbCbCbCbCaKa1a1bMbMbMbMa1a1aKbCbCbCbCbCbCbCbCbCbCbC",
"bCbCbCbCbCbCbCbCbCbCbCbCbCbCbCbCbCbCbCbCbCbCbCbCbCbCbCbCbCbCbCbC",
"bCbCbCbCbCbCbCbCbCbCbCbCbCbCbCbCbCbCbCbCbCbCbCbCbCbCbCbCbCbCbCbC",
"bCbCbCbCbCbCbCbCbCbCbCbCbCbCbCbCbCbCbCbCbCbCbCbCbCbCbCbCbCbCbCbC",
"agagagagagagagagagagagagagagagagagagagagagagagagagagagagagagagag",
"agagagagagagagagagagagagagagagagagagagagagagagagagagagagagagagag",
"agagagagagagagagagagagagagagagagagagagagagagagagagagagagagagagag",
"b&b&b&b&b&b&b&b&b&b&b&b&b&b&b&b&b&b&b&b&b&b&b&b&b&b&b&b&b&b&b&b&"};