/* XPM */
static char *shade_active_xpm[] = {
"32 48 43 1",
"a c #000000",
"b c #F9F8F8",
"c c #E1DEDB",
"d c #E0DEDA",
"e c #E0DDDA",
"f c #E0DDD9",
"g c #DFDCD9",
"h c #DFDCD8",
"i c #DFDBD8",
"j c #DEDBD8",
"k c #DEDBD7",
"l c #E6E6E6",
"m c #848484",
"n c #7C7C7C",
"o c #DEDAD7",
"p c #E5E5E5",
"q c #6C6C6C",
"r c #2B3132",
"s c #666666",
"t c #E1E1E1",
"u c #5C5C5C",
"v c #575757",
"w c #DEDEDE",
"x c #545454",
"y c #303233",
"z c #555555",
"A c #DDDAD6",
"B c #AFAFAF",
"C c #434343",
"D c #B4B4B4",
"E c #B7B7B7",
"F c #444444",
"G c #ACACAC",
"H c #DDD9D6",
"I c #DDD9D5",
"J c #DCD9D5",
"K c #DCD8D5",
"L c #DCD8D4",
"M c #DBD8D4",
"N c #DBD7D4",
"O c #DBD7D3",
"P c #DAD6D2",
"Q c #BFB8B1",
"aaaaaaaaaaaaaaaaaaaaaaaaaaaaaaaa",
"bbbbbbbbbbbbbbbbbbbbbbbbbbbbbbbb",
"cccccccccccccccccccccccccccccccc",
"dddddddddddddddddddddddddddddddd",
"eeeeeeeeeeeeeeeeeeeeeeeeeeeeeeee",
"eeeeeeeeeeeeeeeeeeeeeeeeeeeeeeee",
"eeeeeeeeeeeeeeeeeeeeeeeeeeeeeeee",
"eeeeeeeeeeeeeeeeeeeeeeeeeeeeeeee",
"eeeeeeeeeeeeeeeeeeeeeeeeeeeeeeee",
"ffffffffffffffffffffffffffffffff",
"gggggggggggggggggggggggggggggggg",
"gggggggggggggggggggggggggggggggg",
"gggggggggggggggggggggggggggggggg",
"gggggggggggggggggggggggggggggggg",
"hhhhhhhhhhhhhhhhhhhhhhhhhhhhhhhh",
"iiiiiiiiiiiiiiiiiiiiiiiiiiiiiiii",
"iiiiiiiiiiiiiiiiiiiiiiiiiiiiiiii",
"jjjjjjjjjjjjjjjjjjjjjjjjjjjjjjjj",
"jjjjjjjjjjjjjjjjjjjjjjjjjjjjjjjj",
"kkkkkkkkkkkkkkkkkkkkkkkkkkkkkkkk",
"kkkkkkkkkkkkkklmnlkkkkkkkkkkkkkk",
"ooooooooooooopqrrspooooooooooooo",
"ooooooooooooturrrrvwoooooooooooo",
"ooooooooooooxryrryrzoooooooooooo",
"AAAAAAAAAAAABCDrrEFGAAAAAAAAAAAA",
"AAAAAAAAAAAAAAArrAAAAAAAAAAAAAAA",
"AAAAAAAAAAAAAAArrAAAAAAAAAAAAAAA",
"HHHHHHHHHHHHHHHrrHHHHHHHHHHHHHHH",
"HHHHHHHHHHHHHHHHHHHHHHHHHHHHHHHH",
"IIIIIIIIIIIIIIIIIIIIIIIIIIIIIIII",
"JJJJJJJJJJJJJJJJJJJJJJJJJJJJJJJJ",
"JJJJJJJJJJJJJJJJJJJJJJJJJJJJJJJJ",
"KKKKKKKKKKKKKKKKKKKKKKKKKKKKKKKK",
"KKKKKKKKKKKKKKKKKKKKKKKKKKKKKKKK",
"LLLLLLLLLLLLLLLLLLLLLLLLLLLLLLLL",
"LLLLLLLLLLLLLLLLLLLLLLLLLLLLLLLL",
"LLLLLLLLLLLLLLLLLLLLLLLLLLLLLLLL",
"MMMMMMMMMMMMMMMMMMMMMMMMMMMMMMMM",
"NNNNNNNNNNNNNNNNNNNNNNNNNNNNNNNN",
"OOOOOOOOOOOOOOOOOOOOOOOOOOOOOOOO",
"OOOOOOOOOOOOOOOOOOOOOOOOOOOOOOOO",
"OOOOOOOOOOOOOOOOOOOOOOOOOOOOOOOO",
"OOOOOOOOOOOOOOOOOOOOOOOOOOOOOOOO",
"OOOOOOOOOOOOOOOOOOOOOOOOOOOOOOOO",
"PPPPPPPPPPPPPPPPPPPPPPPPPPPPPPPP",
"PPPPPPPPPPPPPPPPPPPPPPPPPPPPPPPP",
"PPPPPPPPPPPPPPPPPPPPPPPPPPPPPPPP",
"QQQQQQQQQQQQQQQQQQQQQQQQQQQQQQQQ"};