/* XPM */
static char *shade_inactive_xpm[] = {
"32 48 14 1",
"a c #000000",
"b c #FDFDFD",
"c c #F6F5F4",
"d c #E6E6E6",
"e c #E5E5E5",
"f c #D0D0D0",
"g c #929595",
"h c #E1E1E1",
"i c #DEDEDE",
"j c #AFAFAF",
"k c #B4B4B4",
"l c #B7B7B7",
"m c #ACACAC",
"n c #D5D0CC",
"aaaaaaaaaaaaaaaaaaaaaaaaaaaaaaaa",
"bbbbbbbbbbbbbbbbbbbbbbbbbbbbbbbb",
"cccccccccccccccccccccccccccccccc",
"cccccccccccccccccccccccccccccccc",
"cccccccccccccccccccccccccccccccc",
"cccccccccccccccccccccccccccccccc",
"cccccccccccccccccccccccccccccccc",
"cccccccccccccccccccccccccccccccc",
"cccccccccccccccccccccccccccccccc",
"cccccccccccccccccccccccccccccccc",
"cccccccccccccccccccccccccccccccc",
"cccccccccccccccccccccccccccccccc",
"cccccccccccccccccccccccccccccccc",
"cccccccccccccccccccccccccccccccc",
"cccccccccccccccccccccccccccccccc",
"cccccccccccccccccccccccccccccccc",
"cccccccccccccccccccccccccccccccc",
"cccccccccccccccccccccccccccccccc",
"cccccccccccccccccccccccccccccccc",
"cccccccccccccccccccccccccccccccc",
"ccccccccccccccddddcccccccccccccc",
"cccccccccccccefggfeccccccccccccc",
"cccccccccccchfggggficccccccccccc",
"ccccccccccccfggggggfcccccccccccc",
"ccccccccccccjkkgglkmcccccccccccc",
"cccccccccccccccggccccccccccccccc",
"cccccccccccccccggccccccccccccccc",
"cccccccccccccccggccccccccccccccc",
"cccccccccccccccccccccccccccccccc",
"cccccccccccccccccccccccccccccccc",
"cccccccccccccccccccccccccccccccc",
"cccccccccccccccccccccccccccccccc",
"cccccccccccccccccccccccccccccccc",
"cccccccccccccccccccccccccccccccc",
"cccccccccccccccccccccccccccccccc",
"cccccccccccccccccccccccccccccccc",
"cccccccccccccccccccccccccccccccc",
"cccccccccccccccccccccccccccccccc",
"cccccccccccccccccccccccccccccccc",
"cccccccccccccccccccccccccccccccc",
"cccccccccccccccccccccccccccccccc",
"cccccccccccccccccccccccccccccccc",
"cccccccccccccccccccccccccccccccc",
"cccccccccccccccccccccccccccccccc",
"cccccccccccccccccccccccccccccccc",
"cccccccccccccccccccccccccccccccc",
"cccccccccccccccccccccccccccccccc",
"nnnnnnnnnnnnnnnnnnnnnnnnnnnnnnnn"};