/* XPM */
static char *stick_pressed_xpm[] = {
"32 48 69 1",
"a c #000000",
"b c #F9F8F8",
"c c #E1DEDB",
"d c #E0DEDA",
"e c #E0DDDA",
"f c #E0DDD9",
"g c #DBD8D4",
"h c #D6D1CC",
"i c #D1CCC7",
"j c #CFC9C4",
"k c #CDC8C2",
"l c #DCD8D4",
"m c #DFDCD9",
"n c #DEDBD8",
"o c #D5D0CB",
"p c #CEC8C3",
"q c #D2CCC8",
"r c #D4CECA",
"s c #D5CFCB",
"t c #D6D1CD",
"u c #D5D0CC",
"v c #D7D2CF",
"w c #D0CAC6",
"x c #D7D3CF",
"y c #D3CECA",
"z c #CEC8C4",
"A c #D4CFCB",
"B c #CFC9C5",
"C c #DFDCD8",
"D c #DFDBD8",
"E c #D7D2CE",
"F c #D7D3CE",
"G c #DEDAD7",
"H c #D4CFCA",
"I c #DEDBD7",
"J c #DAD6D2",
"K c #CCCCCC",
"L c #666666",
"M c #2B3132",
"N c #636363",
"O c #D1CBC7",
"P c #D6D2CF",
"Q c #CEC9C4",
"R c #CDC7C3",
"S c #D6D0CC",
"T c #DDDAD6",
"U c #CDC8C3",
"V c #585858",
"W c #5C5C5C",
"X c #D1CBC6",
"Y c #888888",
"Z c #DDD9D6",
"0 c #595959",
"1 c #5A5A5A",
"2 c #D9D5D1",
"3 c #DDD9D5",
"4 c #DCD9D5",
"5 c #D0CAC5",
"6 c #DCD9D4",
"7 c #DCD8D5",
"8 c #D6D1CE",
"9 c #D3CDC9",
"_ c #DBD8D3",
"? c #DBD7D4",
"= c #D8D3D0",
") c #D0CBC6",
"( c #CDC7C2",
"/ c #DBD7D3",
"& c #BFB8B1",
"aaaaaaaaaaaaaaaaaaaaaaaaaaaaaaaa",
"bbbbbbbbbbbbbbbbbbbbbbbbbbbbbbbb",
"cccccccccccccccccccccccccccccccc",
"dddddddddddddddddddddddddddddddd",
"eeeeeeeeeeeeeeeeeeeeeeeeeeeeeeee",
"eeeeeeeeeeeeeeeeeeeeeeeeeeeeeeee",
"eeeeeeeeeeeeeeeeeeeeeeeeeeeeeeee",
"eeeeeeeeeeeeeeeeeeeeeeeeeeeeeeee",
"eeeeeeeeeeeeeeeeeeeeeeeeeeeeeeee",
"fffffffffffghijkkjihlfffffffffff",
"mmmmmmmmnopjqrsttsrqjpunmmmmmmmm",
"mmmmmmmvpwottttttttttowpxmmmmmmm",
"mmmmmmyzAttttttttttttttApymmmmmm",
"mmmmmiButtttttttttttttttuBimmmmm",
"CCCCyBttttttttttttttttttttByCCCC",
"DDDEzuttttttttttttttttttttupFDDD",
"DDGpAttttttttttttttttttttttHpGDD",
"nnAwttttttttttttttttttttttttwAnn",
"nnpsttttttttttttttttttttttttspnn",
"IJjttttttttttttttttttttttttttjJI",
"IoqttttttttttKLMMNKttttttttttiuI",
"GOrttttttPPPKMMMMMMKPttttttttrOG",
"GQotttttPPPPLMMMMMMLPPPttttttoQG",
"GRSttttPPPPPMMMMMMMMPPPPtttttSpG",
"TRSttttPPPPPMMMMMMMMPPPPPttttSUT",
"TQottttPPPPPVMMMMMMWPPPPPPtttsQT",
"TXrttttPPPPPYMMMMMMYPPPPPPtttrOT",
"ZAqttttPPPPPPY0MM1YPPPPPPPtttiAZ",
"Z2jttttPPPPPPPPPPPPPPPPPPPtttj2Z",
"33pstttPPPPPPPPPPPPPPPPPPPttsp33",
"44HwtttPPPPPPPPPPPPPPPPPPPtt5H44",
"44lpHttPPPPPPPPPPPPPPPPPPttHz644",
"777tputtPPPPPPPPPPPPPPttttup8777",
"77779BttttttttttttttttttttBy7777",
"lllllOButtttttttttttttttuBilllll",
"llllll9pAttttttttttttttHpyllllll",
"llllllltpwsttttttttttAwptlllllll",
"gggggggg_HpjirsttsrijpHggggggggg",
"???????????=y)z((z)r=???????????",
"////////////////////////////////",
"////////////////////////////////",
"////////////////////////////////",
"////////////////////////////////",
"////////////////////////////////",
"JJJJJJJJJJJJJJJJJJJJJJJJJJJJJJJJ",
"JJJJJJJJJJJJJJJJJJJJJJJJJJJJJJJJ",
"JJJJJJJJJJJJJJJJJJJJJJJJJJJJJJJJ",
"&&&&&&&&&&&&&&&&&&&&&&&&&&&&&&&&"};