/* XPM */
static char *stick_prelight_xpm[] = {
"32 48 131 2",
"aa c #000000",
"ab c #F9F8F8",
"ac c #E1DEDB",
"ad c #E0DEDA",
"ae c #E0DDDA",
"af c #E0DDD9",
"ag c #DAD6D2",
"ah c #D5D0CC",
"ai c #D1CCC7",
"aj c #D0CAC6",
"ak c #CEC8C3",
"al c #DFDCD9",
"am c #DDDAD7",
"an c #DCD9D6",
"ao c #D1CBC6",
"ap c #D6D1CD",
"aq c #E5E2DF",
"ar c #F1EFEE",
"as c #F7F6F5",
"at c #FDFDFC",
"au c #D1CBC7",
"av c #DCD9D5",
"aw c #DEDAD7",
"ax c #D2CCC8",
"ay c #DCD8D5",
"az c #FEFEFD",
"aA c #FBFBFB",
"aB c #FAFAF9",
"aC c #F9F9F8",
"aD c #F8F8F7",
"aE c #F6F5F4",
"aF c #DCD8D4",
"aG c #D3CEC9",
"aH c #F3F2F1",
"aI c #F2F1F0",
"aJ c #DCD7D4",
"aK c #D8D4D0",
"aL c #FAFAF8",
"aM c #D8D3CF",
"aN c #DFDCD8",
"aO c #FCFCFC",
"aP c #DFDBD8",
"aQ c #DDD9D6",
"aR c #D3CECA",
"aS c #F9F9F7",
"aT c #F3F1F0",
"aU c #F2F1EF",
"aV c #DDD8D5",
"aW c #DEDBD8",
"aX c #DAD7D4",
"aY c #F5F4F2",
"aZ c #F4F3F2",
"a0 c #DEDBD7",
"a1 c #D7D3CF",
"a2 c #DBD8D4",
"a3 c #D3CFCA",
"a4 c #E4E1DE",
"a5 c #CCCCCC",
"a6 c #666666",
"a7 c #2B3132",
"a8 c #636363",
"a9 c #E3E0DD",
"a_ c #D4CFCA",
"a? c #DAD6D3",
"a= c #EFEDEB",
"a) c #EEEDEB",
"a( c #CFCAC5",
"a/ c #F3F2F0",
"a& c #F2F2F0",
"a% c #D9D5D2",
"a+ c #F7F7F5",
"a^ c #D8D5D1",
"a! c #F6F6F4",
"ba c #CDC8C3",
"bb c #585858",
"bc c #5C5C5C",
"bd c #CEC9C4",
"be c #EDECE9",
"bf c #888888",
"bg c #EDEBE9",
"bh c #D0CBC6",
"bi c #D3CDC9",
"bj c #595959",
"bk c #5A5A5A",
"bl c #E2DFDC",
"bm c #D5D1CD",
"bn c #D6D1CC",
"bo c #F1F0EF",
"bp c #F1F0EE",
"bq c #D7D4D0",
"br c #DBD7D3",
"bs c #DBD7D4",
"bt c #D6D3CF",
"bu c #D7D3D0",
"bv c #F4F4F3",
"bw c #D6D2CF",
"bx c #D7D2CE",
"by c #CDC8C2",
"bz c #F4F3F1",
"bA c #F3F3F1",
"bB c #D6D2CE",
"bC c #C7C1BB",
"bD c #EBEAE7",
"bE c #C7C1BA",
"bF c #D5D2CD",
"bG c #C6BFB9",
"bH c #D2CDC8",
"bI c #EFEEEB",
"bJ c #D1CDC7",
"bK c #D5D2CE",
"bL c #D3D0CC",
"bM c #D3CFCB",
"bN c #C4BEB7",
"bO c #CAC4BE",
"bP c #E9E6E3",
"bQ c #EEECEA",
"bR c #F5F3F2",
"bS c #D8D4D1",
"bT c #D4D0CD",
"bU c #D3CFCC",
"bV c #CFCAC7",
"bW c #CAC4BF",
"bX c #C3BDB7",
"bY c #C0BAB3",
"bZ c #C0B9B2",
"b0 c #C2BBB4",
"b1 c #C5BFB9",
"b2 c #D4D0CC",
"b3 c #D2CFCB",
"b4 c #D2CECA",
"b5 c #BFB8B1",
"aaaaaaaaaaaaaaaaaaaaaaaaaaaaaaaaaaaaaaaaaaaaaaaaaaaaaaaaaaaaaaaa",
"abababababababababababababababababababababababababababababababab",
"acacacacacacacacacacacacacacacacacacacacacacacacacacacacacacacac",
"adadadadadadadadadadadadadadadadadadadadadadadadadadadadadadadad",
"aeaeaeaeaeaeaeaeaeaeaeaeaeaeaeaeaeaeaeaeaeaeaeaeaeaeaeaeaeaeaeae",
"aeaeaeaeaeaeaeaeaeaeaeaeaeaeaeaeaeaeaeaeaeaeaeaeaeaeaeaeaeaeaeae",
"aeaeaeaeaeaeaeaeaeaeaeaeaeaeaeaeaeaeaeaeaeaeaeaeaeaeaeaeaeaeaeae",
"aeaeaeaeaeaeaeaeaeaeaeaeaeaeaeaeaeaeaeaeaeaeaeaeaeaeaeaeaeaeaeae",
"aeaeaeaeaeaeaeaeaeaeaeaeaeaeaeaeaeaeaeaeaeaeaeaeaeaeaeaeaeaeaeae",
"afafafafafafafafafafafagahaiajakakajaiahagafafafafafafafafafafaf",
"alalalalalalalalamanaoapaqarasatatasaraqapauavamalalalalalalalal",
"alalalalalalalawaxayasazaAaBaCaDaDaCaBaAazaEaFaxamalalalalalalal",
"alalalalalalaFaGaHataCaDaDaDaDaDaDaDaDaDaDaCataIaGaJalalalalalal",
"alalalalalaKaKaLaBaDaDaDaDaDaDaDaDaDaDaDaDaDaDaBaLaMaKalalalalal",
"aNaNaNaNaFaKaOaCaDaDaDaDaDaDaDaDaDaDaDaDaDaDaDaDaCaOaKaFaNaNaNaN",
"aPaPaPaQaRaSaDaDaDaDaDaDaDaDaDaDaDaDaDaDaDaDaDaDaDaDaSaGaQaPaPaP",
"aPaPayaiaTaCaDaDaDaDaDaDaDaDaDaDaDaDaDaDaDaDaDaDaDaDaCaUaxaVaPaP",
"aWaWayayaBaDaDaDaDaDaDaDaDaDaDaDaDaDaDaDaDaDaDaDaDaDaDaBaFayaWaW",
"aWaXaoaYaDaDaDaDaDaDaDaDaDaDaDaDaDaDaDaDaDaDaDaDaDaDaDaDaZauaXaW",
"a0a1apaCaDaDaDaDaDaDaDaDaDaDaDaDaDaDaDaDaDaDaDaDaDaDaDaDaCapa1a0",
"a2a3a4aDaDaDaDaDaDaDaDaDaDa5a6a7a7a8a5aDaDaDaDaDaDaDaDaDaDa9a_a2",
"a?aua=aDaDaDaDaDaDaDaDaDa5a7a7a7a7a7a7a5aDaDaDaDaDaDaDaDaDa)aua?",
"a?a(a/aDaDaDaDaDaDaDaDaDa6a7a7a7a7a7a7a6aDaDaDaDaDaDaDaDaDa&a(a?",
"a%aka+aDaDaDaDaDaDaDaDaDa7a7a7a7a7a7a7a7aDaDaDaDaDaDaDaDaDasaka%",
"a^aka!aDaDaDaDaDaDaDaDaDa7a7a7a7a7a7a7a7aDaDaDaDaDaDaDaDaDa!baa^",
"a^a(aUaDaDaDaDaDaDaDaDaDbba7a7a7a7a7a7bcaDaDaDaDaDaDaDaDaDaUbda^",
"a^aubeaDaDaDaDaDaDaDaDaDbfa7a7a7a7a7a7bfaDaDaDaDaDaDaDaDaDbgbha^",
"a%bia9aDaDaDaDaDaDaDaDaDaDbfbja7a7bkbfaDaDaDaDaDaDaDaDaDaDblaRa%",
"a%bmbnaDaDaDaDaDaDaDaDaDaDaDaDaDaDaDaDaDaDaDaDaDaDaDaDaDaDahbma%",
"aga1auboaDaDaDaDaDaDaDaDaDaDaDaDaDaDaDaDaDaDaDaDaDaDaDaDbpaua1ag",
"avbqbrbsaDaDaDaDaDaDaDaDaDaDaDaDaDaDaDaDaDaDaDaDaDaDaDaDbrbrbqav",
"ava^btaxa=aDaDaDaDaDaDaDaDaDaDaDaDaDaDaDaDaDaDaDaDaDaDa)axbta^av",
"ayaybua?aGbvaDaDaDaDaDaDaDaDaDaDaDaDaDaDaDaDaDaDaDaDbvaGa?buayay",
"ayaya%bwa?aMasaDaDaDaDaDaDaDaDaDaDaDaDaDaDaDaDaDaDasaMagbwa%ayay",
"aFaFaFaKbmbxbybzaDaDaDaDaDaDaDaDaDaDaDaDaDaDaDaDbAbybBbmaKaFaFaF",
"aFaFaFaFa1bmaGbCbDaDaDaDaDaDaDaDaDaDaDaDaDaDaDbDbEaRbma1aFaFaFaF",
"aFaFaFaFaFbqbmbFbGbHbIaDaDaDaDaDaDaDaDaDaDa)bJbGapbma1aFaFaFaFaF",
"a2a2a2a2a2a2bqbKbLbMbNbObrbPbQbRbRbQbPbrbObNbMbLbKbqa2a2a2a2a2a2",
"bsbsbsbsbsbsbsbSbwbTbUbVbWbGbXbYbZb0b1bWbVbUbTbwbSbsbsbsbsbsbsbs",
"brbrbrbrbrbrbrbrbrbubBbmb2bMb3b4b4b3bMb2bmbBa1brbrbrbrbrbrbrbrbr",
"brbrbrbrbrbrbrbrbrbrbraKa1a1bBbBbBbBa1a1aKbrbrbrbrbrbrbrbrbrbrbr",
"brbrbrbrbrbrbrbrbrbrbrbrbrbrbrbrbrbrbrbrbrbrbrbrbrbrbrbrbrbrbrbr",
"brbrbrbrbrbrbrbrbrbrbrbrbrbrbrbrbrbrbrbrbrbrbrbrbrbrbrbrbrbrbrbr",
"brbrbrbrbrbrbrbrbrbrbrbrbrbrbrbrbrbrbrbrbrbrbrbrbrbrbrbrbrbrbrbr",
"agagagagagagagagagagagagagagagagagagagagagagagagagagagagagagagag",
"agagagagagagagagagagagagagagagagagagagagagagagagagagagagagagagag",
"agagagagagagagagagagagagagagagagagagagagagagagagagagagagagagagag",
"b5b5b5b5b5b5b5b5b5b5b5b5b5b5b5b5b5b5b5b5b5b5b5b5b5b5b5b5b5b5b5b5"};