/* XPM */
static char *top_right_inactive_xpm[] = {
"8 48 17 1",
"a c #000000",
"b c None",
"c c #FAFAFA",
"d c #EBEBEA",
"e c #B3B3B2",
"f c #222222",
"g c #F6F5F4",
"h c #F7F7F6",
"i c #F9F9F8",
"j c #F8F7F7",
"k c #7C7C7C",
"l c #FAFAF9",
"m c #7B7B7A",
"n c #F4F3F3",
"o c #A9A9A8",
"p c #D5D5D4",
"q c #D5D0CC",
"aabbbbbb",
"cdefbbbb",
"ghijkbbb",
"gggglmbb",
"gggggnfb",
"ggggggob",
"ggggggpa",
"ggggggda",
"ggggggga",
"ggggggga",
"ggggggga",
"ggggggga",
"ggggggga",
"ggggggga",
"ggggggga",
"ggggggga",
"ggggggga",
"ggggggga",
"ggggggga",
"ggggggga",
"ggggggga",
"ggggggga",
"ggggggga",
"ggggggga",
"ggggggga",
"ggggggga",
"ggggggga",
"ggggggga",
"ggggggga",
"ggggggga",
"ggggggga",
"ggggggga",
"ggggggga",
"ggggggga",
"ggggggga",
"ggggggga",
"ggggggga",
"ggggggga",
"ggggggga",
"ggggggga",
"ggggggga",
"ggggggga",
"ggggggga",
"ggggggga",
"ggggggga",
"ggggggga",
"ggggggga",
"qqqqqqqa"};