/* XPM */
static char *top_left_inactive_xpm[] = {
"8 48 17 1",
"a c None",
"b c #000000",
"c c #222222",
"d c #B3B3B2",
"e c #EBEBEA",
"f c #FAFAFA",
"g c #7C7C7C",
"h c #F8F7F7",
"i c #F9F9F8",
"j c #F7F7F6",
"k c #F6F5F4",
"l c #7B7B7A",
"m c #FAFAF9",
"n c #F4F3F3",
"o c #A9A9A8",
"p c #D5D5D4",
"q c #D5D0CC",
"aaaaaabb",
"aaaacdef",
"aaaghijk",
"aalmkkkk",
"acnkkkkk",
"aokkkkkk",
"bpkkkkkk",
"bekkkkkk",
"bkkkkkkk",
"bkkkkkkk",
"bkkkkkkk",
"bkkkkkkk",
"bkkkkkkk",
"bkkkkkkk",
"bkkkkkkk",
"bkkkkkkk",
"bkkkkkkk",
"bkkkkkkk",
"bkkkkkkk",
"bkkkkkkk",
"bkkkkkkk",
"bkkkkkkk",
"bkkkkkkk",
"bkkkkkkk",
"bkkkkkkk",
"bkkkkkkk",
"bkkkkkkk",
"bkkkkkkk",
"bkkkkkkk",
"bkkkkkkk",
"bkkkkkkk",
"bkkkkkkk",
"bkkkkkkk",
"bkkkkkkk",
"bkkkkkkk",
"bkkkkkkk",
"bkkkkkkk",
"bkkkkkkk",
"bkkkkkkk",
"bkkkkkkk",
"bkkkkkkk",
"bkkkkkkk",
"bkkkkkkk",
"bkkkkkkk",
"bkkkkkkk",
"bkkkkkkk",
"bkkkkkkk",
"bqqqqqqq"};