/* XPM */
static char *top_left_active_xpm[] = {
"8 48 40 1",
"a c None",
"b c #000000",
"c c #2F2F2F",
"d c #CECCCB",
"e c #F1F0EF",
"f c #F8F7F6",
"g c #9B9B98",
"h c #F5F4F4",
"i c #EDEBE9",
"j c #E6E3E1",
"k c #E2DFDC",
"l c #9A9997",
"m c #F1F0EE",
"n c #E1E0DC",
"o c #E0DEDA",
"p c #EFEEEC",
"q c #E0DDDA",
"r c #C6C5C3",
"s c #E1DFDC",
"t c #E2DFDD",
"u c #E3E0DD",
"v c #E1DEDC",
"w c #E0DDD9",
"x c #DFDCD9",
"y c #DFDCD8",
"z c #DFDBD8",
"A c #DEDBD8",
"B c #DEDBD7",
"C c #DEDAD7",
"D c #DDDAD6",
"E c #DDD9D6",
"F c #DDD9D5",
"G c #DCD9D5",
"H c #DCD8D5",
"I c #DCD8D4",
"J c #DBD8D4",
"K c #DBD7D4",
"L c #DBD7D3",
"M c #DAD6D2",
"N c #BFB8B1",
"aaaaaabb",
"aaaacdef",
"aaaghijk",
"aalmnooo",
"acpqqqqq",
"arsqqqqq",
"btqqqqqq",
"buqqqqqq",
"bvqqqqqq",
"bwwwwwww",
"bxxxxxxx",
"bxxxxxxx",
"bxxxxxxx",
"bxxxxxxx",
"byyyyyyy",
"bzzzzzzz",
"bzzzzzzz",
"bAAAAAAA",
"bAAAAAAA",
"bBBBBBBB",
"bBBBBBBB",
"bCCCCCCC",
"bCCCCCCC",
"bCCCCCCC",
"bDDDDDDD",
"bDDDDDDD",
"bDDDDDDD",
"bEEEEEEE",
"bEEEEEEE",
"bFFFFFFF",
"bGGGGGGG",
"bGGGGGGG",
"bHHHHHHH",
"bHHHHHHH",
"bIIIIIII",
"bIIIIIII",
"bIIIIIII",
"bJJJJJJJ",
"bKKKKKKK",
"bLLLLLLL",
"bLLLLLLL",
"bLLLLLLL",
"bLLLLLLL",
"bLLLLLLL",
"bMMMMMMM",
"bMMMMMMM",
"bMMMMMMM",
"bNNNNNNN"};