/* XPM */
static char *top_right_active_xpm[] = {
"8 48 40 1",
"a c #000000",
"b c None",
"c c #F8F7F6",
"d c #F1F0EF",
"e c #CECCCB",
"f c #2F2F2F",
"g c #E2DFDC",
"h c #E6E3E1",
"i c #EDEBE9",
"j c #F5F4F4",
"k c #9B9B98",
"l c #E0DEDA",
"m c #E1E0DC",
"n c #F1F0EE",
"o c #9A9997",
"p c #E0DDDA",
"q c #EFEEEC",
"r c #E1DFDC",
"s c #C6C5C3",
"t c #E2DFDD",
"u c #E3E0DD",
"v c #E1DEDC",
"w c #E0DDD9",
"x c #DFDCD9",
"y c #DFDCD8",
"z c #DFDBD8",
"A c #DEDBD8",
"B c #DEDBD7",
"C c #DEDAD7",
"D c #DDDAD6",
"E c #DDD9D6",
"F c #DDD9D5",
"G c #DCD9D5",
"H c #DCD8D5",
"I c #DCD8D4",
"J c #DBD8D4",
"K c #DBD7D4",
"L c #DBD7D3",
"M c #DAD6D2",
"N c #BFB8B1",
"aabbbbbb",
"cdefbbbb",
"ghijkbbb",
"lllmnobb",
"pppppqfb",
"ppppprsb",
"ppppppta",
"ppppppua",
"ppppppva",
"wwwwwwwa",
"xxxxxxxa",
"xxxxxxxa",
"xxxxxxxa",
"xxxxxxxa",
"yyyyyyya",
"zzzzzzza",
"zzzzzzza",
"AAAAAAAa",
"AAAAAAAa",
"BBBBBBBa",
"BBBBBBBa",
"CCCCCCCa",
"CCCCCCCa",
"CCCCCCCa",
"DDDDDDDa",
"DDDDDDDa",
"DDDDDDDa",
"EEEEEEEa",
"EEEEEEEa",
"FFFFFFFa",
"GGGGGGGa",
"GGGGGGGa",
"HHHHHHHa",
"HHHHHHHa",
"IIIIIIIa",
"IIIIIIIa",
"IIIIIIIa",
"JJJJJJJa",
"KKKKKKKa",
"LLLLLLLa",
"LLLLLLLa",
"LLLLLLLa",
"LLLLLLLa",
"LLLLLLLa",
"MMMMMMMa",
"MMMMMMMa",
"MMMMMMMa",
"NNNNNNNa"};