/* XPM */
static char * close_prelight_xpm[] = {
"32 32 68 1",
" 	c #2A2A2A",
".	c #262626",
"+	c #222222",
"@	c #1F1F1F",
"#	c #1D1D1D",
"$	c #1C1C1C",
"%	c #292929",
"&	c #212121",
"*	c #323232",
"=	c #353535",
"-	c #3A3A3A",
";	c #282828",
">	c #1E1E1E",
",	c #252525",
"'	c #393939",
")	c #383838",
"!	c #373737",
"~	c #242424",
"{	c #333333",
"]	c #232323",
"^	c #272727",
"/	c #343434",
"(	c #141414",
"_	c #121212",
":	c #BCBCBA",
"<	c #C0C0BF",
"[	c #252524",
"}	c #C1C1C0",
"|	c #BABAB8",
"1	c #313131",
"2	c #C8C8C7",
"3	c #EEEEEC",
"4	c #C7C7C5",
"5	c #C7C7C6",
"6	c #303030",
"7	c #474746",
"8	c #CFCFCD",
"9	c #CECECC",
"0	c #363636",
"a	c #434342",
"b	c #CBCBC9",
"c	c #444444",
"d	c #242423",
"e	c #C6C6C4",
"f	c #CACAC8",
"g	c #1B1B1B",
"h	c #C3C3C2",
"i	c #C2C2C1",
"j	c #C3C3C1",
"k	c #C9C9C8",
"l	c #474747",
"m	c #202020",
"n	c #131313",
"o	c #1A1A1A",
"p	c #0E0E0E",
"q	c #2C2C2C",
"r	c #0D0D0D",
"s	c #171717",
"t	c #2F2F2F",
"u	c #161616",
"v	c #0B0B0B",
"w	c #101010",
"x	c #2D2D2D",
"y	c #0F0F0F",
"z	c #0C0C0C",
"A	c #090909",
"B	c #080808",
"C	c #0A0A0A",
"                                ",
"           .+@#$$#@+.           ",
"        %.#& *=--=* &#.%        ",
"       ;>,=-'))!!))'-=~>;       ",
"      .@{-)!!!!!!!!!!)-{@.      ",
"     ]+))!!!!!!!!!!!!!!))+]     ",
"    .+'!!!!!!!!!!!!!!!!!!'+.    ",
"%%%^@!!!!!!!!!!!!!!!!!!!!!!@^%%%",
"%%;>{!!!!!!!!!!!!!!!!!!!!!!{>;%%",
"%%.,)!!!!!!!!!!!!!!!!!!!!!!)~.%%",
"%;#/!!!!!!!!!!!!!!!!!!!!!!!!/>;%",
"%,&)!!!!!!!!(_{!!{_(!!!!!!!!)&,%",
";& !!!!!!!!!:<[{{~}|!!!!!!!!!%&;",
";@1!!!!!!!!!234[[535!!!!!!!!!6@;",
";#{!!!!!!!!!78344397!!!!!!!!!{#;",
";$0!!!!!!!!!!a433bc!!!!!!!!!!0$;",
"^$0!!!!!!!!!{de33f.{!!!!!!!!!0g^",
"^#{!!!!!!!!![539935[!!!!!!!!!{$^",
"^>6!!!!!!!!!h387793i!!!!!!!!!6>^",
"^&%!!!!!!!!!jkl!!7ki!!!!!!!!!%&^",
"^~m!!!!!!!!!!!!!!!!!!!!!!!!!!m~^",
"^^#{!!!!!!!!!!!!!!!!!!!!!!!!*>^^",
";^,~!!!!!!!!!!!!!!!!!!!!!!!!~.^;",
";^;>1!!!!!!!!!!!!!!!!!!!!!!1>^^;",
";;^.@=!!!!!!!!!!!!!!!!!!!!=@^^;;",
"^^..,+!!!!!!!!!!!!!!!!!!!!+~..^^",
"^^^..@n{!!!!!!!!!!!!!!!!{n>..^^^",
"^^^^..opq!!!!!!!!!!!!!!qro..^^^^",
"^^^^^..@rst!!!!!!!!!!turm..^^^^^",
"^^^^^^..,gvw#;x**x;#wvg,..^^^^^^",
"^^^^^^^....@uyzABCyu@....^^^^^^^",
"^^^^^^^^^.....,,,,.....^^^^^^^^^"};
