/* XPM */
static char * close_pressed_xpm[] = {
"32 32 40 1",
" 	c #2A2A2A",
".	c #262626",
"+	c #222222",
"@	c #1E1E1E",
"#	c #1C1C1C",
"$	c #1B1B1B",
"%	c #292929",
"&	c #202020",
"*	c #1D1D1D",
"=	c #232323",
"-	c #1F1F1F",
";	c #0B0B0B",
">	c #0A0A0A",
",	c #212121",
"'	c #BABAB8",
")	c #BFBFBE",
"!	c #1D1D1C",
"~	c #C0C0BF",
"{	c #B8B8B6",
"]	c #C3C3C2",
"^	c #EEEEEC",
"/	c #C6C6C4",
"(	c #C7C7C5",
"_	c #30302F",
":	c #CBCBC9",
"<	c #CACAC8",
"[	c #2E2E2D",
"}	c #2F2F2F",
"|	c #282828",
"1	c #1C1C1B",
"2	c #C5C5C3",
"3	c #1E1E1D",
"4	c #C1C1C0",
"5	c #BDBDBB",
"6	c #C4C4C3",
"7	c #303030",
"8	c #BCBCBB",
"9	c #252525",
"0	c #272727",
"a	c #242424",
"                                ",
"           .+@#$$#@+.           ",
"        %&$#**@@@@*##$&%        ",
"       +$#@@@@@@@@@@@@#$=       ",
"      -$*@@@@@@@@@@@@@@*$-      ",
"     *#@@@@@@@@@@@@@@@@@@#@     ",
"    -#@@@@@@@@@@@@@@@@@@@@#-    ",
"%%%+$@@@@@@@@@@@@@@@@@@@@@@$+%%%",
"%%%$*@@@@@@@@@@@@@@@@@@@@@@*$%%%",
"%%&#@@@@@@@@@@@@@@@@@@@@@@@@#&%%",
"%%$@@@@@@@@@@@@@@@@@@@@@@@@@@$%%",
"%.#@@@@@@@@@;>#@@#>;@@@@@@@@@#.%",
"%,*@@@@@@@@@')!##*~{@@@@@@@@@#,%",
"%@*@@@@@@@@@]^/!!(^]@@@@@@@@@*@%",
"%#@@@@@@@@@@_:^//^<_@@@@@@@@@@#%",
"%$@@@@@@@@@@@[/^^<}@@@@@@@@@@@$%",
"|$@@@@@@@@@@#12^^<-#@@@@@@@@@@$|",
"|#@@@@@@@@@@3(^<<^(3@@@@@@@@@@#|",
"|@*@@@@@@@@@4^:__<^~@@@@@@@@@*@|",
"|,#@@@@@@@@@567@@_68@@@@@@@@@#,|",
"|9#@@@@@@@@@@@@@@@@@@@@@@@@@@#9|",
"||$@@@@@@@@@@@@@@@@@@@@@@@@@@$||",
"||-#@@@@@@@@@@@@@@@@@@@@@@@@#&||",
"|||$*@@@@@@@@@@@@@@@@@@@@@@*$|||",
"|||+$@@@@@@@@@@@@@@@@@@@@@@$+|||",
"0000@#@@@@@@@@@@@@@@@@@@@@#-0000",
"00000*#@@@@@@@@@@@@@@@@@@#*00000",
"000000@$*@@@@@@@@@@@@@@*$-000000",
"0000000,$#@@@@@@@@@@@*#$,0000000",
"000000000-$##*@@@@*##$-000000000",
"00000000000a,@#$$#@,a00000000000",
"00000000000000000000000000000000"};
