/* XPM */
static char * close_inactive_xpm[] = {
"32 32 13 1",
" 	c #353535",
".	c #7C7C7B",
"+	c #7F7F7E",
"@	c #3D3D3C",
"#	c #3D3D3D",
"$	c #7B7B7A",
"%	c #919190",
"&	c #818180",
"*	c #828281",
"=	c #7E7E7E",
"-	c #808080",
";	c #3E3E3E",
">	c #7B7B7B",
"                                ",
"                                ",
"                                ",
"                                ",
"                                ",
"                                ",
"                                ",
"                                ",
"                                ",
"                                ",
"                                ",
"                                ",
"            .+@  #+$            ",
"            +%&@@*%=            ",
"            @*%&&%&@            ",
"             #-%%*;             ",
"             #-%%*;             ",
"            @*%&&%*@            ",
"            +%*@@&%+            ",
"            $+#  @+>            ",
"                                ",
"                                ",
"                                ",
"                                ",
"                                ",
"                                ",
"                                ",
"                                ",
"                                ",
"                                ",
"                                ",
"                                "};
