/* XPM */
static char * close_active_xpm[] = {
"32 32 34 1",
" 	c #2A2A2A",
".	c #292929",
"+	c #0F0F0F",
"@	c #0E0E0E",
"#	c #262626",
"$	c #0D0D0D",
"%	c #BBBBB9",
"&	c #BFBFBE",
"*	c #212120",
"=	c #212121",
"-	c #C0C0BF",
";	c #B9B9B7",
">	c #C5C5C4",
",	c #EEEEEC",
"'	c #C6C6C4",
")	c #C7C7C5",
"!	c #3A3A39",
"~	c #CCCCCA",
"{	c #373736",
"]	c #CBCBC9",
"^	c #383838",
"/	c #282828",
"(	c #252525",
"_	c #1F1F1E",
":	c #C5C5C3",
"<	c #CACAC8",
"[	c #222222",
"}	c #C2C2C1",
"|	c #C1C1C0",
"1	c #BFBFBD",
"2	c #C6C6C5",
"3	c #393939",
"4	c #BEBEBD",
"5	c #272727",
"                                ",
"                                ",
"                                ",
"                                ",
"                                ",
"                                ",
"                                ",
"................................",
"................................",
"................................",
"................................",
"............+@#..#$+............",
"............%&*##=-;............",
"............>,'**),>............",
"............!~,'',~!............",
".............{',,]^.............",
"////////////(_:,,<[(////////////",
"////////////*),]],)*////////////",
"////////////},~!!],|////////////",
"////////////123//!24////////////",
"////////////////////////////////",
"////////////////////////////////",
"////////////////////////////////",
"////////////////////////////////",
"////////////////////////////////",
"55555555555555555555555555555555",
"55555555555555555555555555555555",
"55555555555555555555555555555555",
"55555555555555555555555555555555",
"55555555555555555555555555555555",
"55555555555555555555555555555555",
"55555555555555555555555555555555"};
