/* XPM */
static char * hide_inactive_xpm[] = {
"32 32 44 1",
" 	c #2A2A2A",
".	c #262626",
"+	c #222222",
"@	c #1F1F1F",
"#	c #1D1D1D",
"$	c #1C1C1C",
"%	c #292929",
"&	c #212121",
"*	c #323232",
"=	c #353535",
"-	c #3A3A3A",
";	c #282828",
">	c #1E1E1E",
",	c #252525",
"'	c #393939",
")	c #383838",
"!	c #373737",
"~	c #242424",
"{	c #333333",
"]	c #232323",
"^	c #272727",
"/	c #343434",
"(	c #313131",
"_	c #303030",
":	c #363636",
"<	c #1B1B1B",
"[	c #090909",
"}	c #EEEEEC",
"|	c #202020",
"1	c #131313",
"2	c #1A1A1A",
"3	c #0E0E0E",
"4	c #2C2C2C",
"5	c #0D0D0D",
"6	c #171717",
"7	c #2F2F2F",
"8	c #161616",
"9	c #0B0B0B",
"0	c #101010",
"a	c #2D2D2D",
"b	c #0F0F0F",
"c	c #0C0C0C",
"d	c #080808",
"e	c #0A0A0A",
"                                ",
"           .+@#$$#@+.           ",
"        %.#& *=--=* &#.%        ",
"       ;>,=-'))!!))'-=~>;       ",
"      .@{-)!!!!!!!!!!)-{@.      ",
"     ]+))!!!!!!!!!!!!!!))+]     ",
"    .+'!!!!!!!!!!!!!!!!!!'+.    ",
"%%%^@!!!!!!!!!!!!!!!!!!!!!!@^%%%",
"%%;>{!!!!!!!!!!!!!!!!!!!!!!{>;%%",
"%%.,)!!!!!!!!!!!!!!!!!!!!!!)~.%%",
"%;#/!!!!!!!!!!!!!!!!!!!!!!!!/>;%",
"%,&)!!!!!!!!!!!!!!!!!!!!!!!!)&,%",
";& !!!!!!!!!!!!!!!!!!!!!!!!!!%&;",
";@(!!!!!!!!!!!!!!!!!!!!!!!!!!_@;",
";#{!!!!!!!!!!!!!!!!!!!!!!!!!!{#;",
";$:!!!!!!!!!!!!!!!!!!!!!!!!!!:$;",
"^$:!!!!!!!!!!!!!!!!!!!!!!!!!!:<^",
"^#{!!!!!!!!![[[[[[[[!!!!!!!!!{$^",
"^>_!!!!!!!!!}}}}}}}}!!!!!!!!!_>^",
"^&%!!!!!!!!!}}}}}}}}!!!!!!!!!%&^",
"^~|!!!!!!!!!!!!!!!!!!!!!!!!!!|~^",
"^^#{!!!!!!!!!!!!!!!!!!!!!!!!*>^^",
";^,~!!!!!!!!!!!!!!!!!!!!!!!!~.^;",
";^;>(!!!!!!!!!!!!!!!!!!!!!!(>^^;",
";;^.@=!!!!!!!!!!!!!!!!!!!!=@^^;;",
"^^..,+!!!!!!!!!!!!!!!!!!!!+~..^^",
"^^^..@1{!!!!!!!!!!!!!!!!{1>..^^^",
"^^^^..234!!!!!!!!!!!!!!452..^^^^",
"^^^^^..@567!!!!!!!!!!785|..^^^^^",
"^^^^^^..,<90#;a**a;#09<,..^^^^^^",
"^^^^^^^....@8bc[deb8@....^^^^^^^",
"^^^^^^^^^.....,,,,.....^^^^^^^^^"};
