/* XPM */
static char * hide_pressed_xpm[] = {
"32 32 18 1",
" 	c #2A2A2A",
".	c #262626",
"+	c #222222",
"@	c #1E1E1E",
"#	c #1C1C1C",
"$	c #1B1B1B",
"%	c #292929",
"&	c #202020",
"*	c #1D1D1D",
"=	c #232323",
"-	c #1F1F1F",
";	c #212121",
">	c #282828",
",	c #050505",
"'	c #EEEEEC",
")	c #252525",
"!	c #272727",
"~	c #242424",
"                                ",
"           .+@#$$#@+.           ",
"        %&$#**@@@@**#$&%        ",
"       +$#@@@@@@@@@@@@#$=       ",
"      -$*@@@@@@@@@@@@@@*$-      ",
"     *#@@@@@@@@@@@@@@@@@@#@     ",
"    -#@@@@@@@@@@@@@@@@@@@@#-    ",
"%%%+$@@@@@@@@@@@@@@@@@@@@@@$+%%%",
"%%%$*@@@@@@@@@@@@@@@@@@@@@@*$%%%",
"%%&#@@@@@@@@@@@@@@@@@@@@@@@@#&%%",
"%%$@@@@@@@@@@@@@@@@@@@@@@@@@@$%%",
"%.#@@@@@@@@@@@@@@@@@@@@@@@@@@#.%",
"%;*@@@@@@@@@@@@@@@@@@@@@@@@@@#;%",
"%@*@@@@@@@@@@@@@@@@@@@@@@@@@@*@%",
"%#@@@@@@@@@@@@@@@@@@@@@@@@@@@@#%",
"%$@@@@@@@@@@@@@@@@@@@@@@@@@@@@$%",
">$@@@@@@@@@@@@@@@@@@@@@@@@@@@@$>",
">#@@@@@@@@@@,,,,,,,,@@@@@@@@@@#>",
">@*@@@@@@@@@''''''''@@@@@@@@@*@>",
">;*@@@@@@@@@''''''''@@@@@@@@@#;>",
">)#@@@@@@@@@@@@@@@@@@@@@@@@@@#)>",
">>$@@@@@@@@@@@@@@@@@@@@@@@@@@$>>",
">>-#@@@@@@@@@@@@@@@@@@@@@@@@#&>>",
">>>$*@@@@@@@@@@@@@@@@@@@@@@*#>>>",
">>>+$@@@@@@@@@@@@@@@@@@@@@@$+>>>",
"!!!!@#@@@@@@@@@@@@@@@@@@@@#-!!!!",
"!!!!!*#@@@@@@@@@@@@@@@@@@#*!!!!!",
"!!!!!!@$*@@@@@@@@@@@@@@*$-!!!!!!",
"!!!!!!!;$#@@@@@@@@@@@*#$;!!!!!!!",
"!!!!!!!!!-$##*@@@@*##$-!!!!!!!!!",
"!!!!!!!!!!!~;@#$$#@;~!!!!!!!!!!!",
"!!!!!!!!!!!!!!!!!!!!!!!!!!!!!!!!"};
