/* XPM */
static char * maximize_inactive_xpm[] = {
"32 32 7 1",
" 	c #353535",
".	c #7C7C7B",
"+	c #919190",
"@	c #7B7B7B",
"#	c #3B3B3B",
"$	c #3C3C3C",
"%	c #7B7B7A",
"                                ",
"                                ",
"                                ",
"                                ",
"                                ",
"                                ",
"                                ",
"                                ",
"                                ",
"                                ",
"                                ",
"                                ",
"            .++++++@            ",
"            ++++++++            ",
"            ++#  $++            ",
"            ++    ++            ",
"            ++    ++            ",
"            ++$  $++            ",
"            ++++++++            ",
"            @++++++%            ",
"                                ",
"                                ",
"                                ",
"                                ",
"                                ",
"                                ",
"                                ",
"                                ",
"                                ",
"                                ",
"                                ",
"                                "};
