/* XPM */
static char * maximize_prelight_xpm[] = {
"32 32 51 1",
" 	c #2A2A2A",
".	c #262626",
"+	c #222222",
"@	c #1F1F1F",
"#	c #1D1D1D",
"$	c #1C1C1C",
"%	c #292929",
"&	c #212121",
"*	c #323232",
"=	c #353535",
"-	c #3A3A3A",
";	c #282828",
">	c #1E1E1E",
",	c #252525",
"'	c #393939",
")	c #383838",
"!	c #373737",
"~	c #242424",
"{	c #333333",
"]	c #232323",
"^	c #272727",
"/	c #343434",
"(	c #141414",
"_	c #090909",
":	c #BABAB8",
"<	c #EEEEEC",
"[	c #B9B9B7",
"}	c #313131",
"|	c #303030",
"1	c #444444",
"2	c #454545",
"3	c #363636",
"4	c #1B1B1B",
"5	c #1A1A1A",
"6	c #C4C4C2",
"7	c #C3C3C1",
"8	c #202020",
"9	c #131313",
"0	c #0E0E0E",
"a	c #2C2C2C",
"b	c #0D0D0D",
"c	c #171717",
"d	c #2F2F2F",
"e	c #161616",
"f	c #0B0B0B",
"g	c #101010",
"h	c #2D2D2D",
"i	c #0F0F0F",
"j	c #0C0C0C",
"k	c #080808",
"l	c #0A0A0A",
"                                ",
"           .+@#$$#@+.           ",
"        %.#& *=--=* &#.%        ",
"       ;>,=-'))!!))'-=~>;       ",
"      .@{-)!!!!!!!!!!)-{@.      ",
"     ]+))!!!!!!!!!!!!!!))+]     ",
"    .+'!!!!!!!!!!!!!!!!!!'+.    ",
"%%%^@!!!!!!!!!!!!!!!!!!!!!!@^%%%",
"%%;>{!!!!!!!!!!!!!!!!!!!!!!{>;%%",
"%%.,)!!!!!!!!!!!!!!!!!!!!!!)~.%%",
"%;#/!!!!!!!!!!!!!!!!!!!!!!!!/>;%",
"%,&)!!!!!!!!(______(!!!!!!!!)&,%",
";& !!!!!!!!!:<<<<<<[!!!!!!!!!%&;",
";@}!!!!!!!!!<<<<<<<<!!!!!!!!!|@;",
";#{!!!!!!!!!<<1!!2<<!!!!!!!!!{#;",
";$3!!!!!!!!!<<!!!!<<!!!!!!!!!3$;",
"^$3!!!!!!!!!<</!!/<<!!!!!!!!!34^",
"^#{!!!!!!!!!<<5__5<<!!!!!!!!!{$^",
"^>|!!!!!!!!!<<<<<<<<!!!!!!!!!|>^",
"^&%!!!!!!!!!6<<<<<<7!!!!!!!!!%&^",
"^~&!!!!!!!!!!!!!!!!!!!!!!!!!!8~^",
"^^#{!!!!!!!!!!!!!!!!!!!!!!!!*>^^",
";^,~!!!!!!!!!!!!!!!!!!!!!!!!~.^;",
";^;>}!!!!!!!!!!!!!!!!!!!!!!}>^^;",
";;^.@=!!!!!!!!!!!!!!!!!!!!=@^^;;",
"^^..,+!!!!!!!!!!!!!!!!!!!!+~..^^",
"^^^..@9{!!!!!!!!!!!!!!!!{9>..^^^",
"^^^^..50a!!!!!!!!!!!!!!ab5..^^^^",
"^^^^^..@bcd!!!!!!!!!!deb8..^^^^^",
"^^^^^^..,4fg#;h**h;#gf4,..^^^^^^",
"^^^^^^^....@eijkkl0e@....^^^^^^^",
"^^^^^^^^^.....,,,,.....^^^^^^^^^"};
