/* XPM */
static char * maximize_active_xpm[] = {
"32 32 15 1",
" 	c #2A2A2A",
".	c #292929",
"+	c #0F0F0F",
"@	c #070707",
"#	c #B9B9B8",
"$	c #EEEEEC",
"%	c #B9B9B7",
"&	c #373737",
"*	c #383838",
"=	c #282828",
"-	c #262626",
";	c #181818",
">	c #C0C0BE",
",	c #BFBFBD",
"'	c #272727",
"                                ",
"                                ",
"                                ",
"                                ",
"                                ",
"                                ",
"                                ",
"................................",
"................................",
"................................",
"................................",
"............+@@@@@@+............",
"............#$$$$$$%............",
"............$$$$$$$$............",
"............$$&..*$$............",
"............$$....$$............",
"============$$-==-$$============",
"============$$;@@;$$============",
"============$$$$$$$$============",
"============>$$$$$$,============",
"================================",
"================================",
"================================",
"================================",
"================================",
"''''''''''''''''''''''''''''''''",
"''''''''''''''''''''''''''''''''",
"''''''''''''''''''''''''''''''''",
"''''''''''''''''''''''''''''''''",
"''''''''''''''''''''''''''''''''",
"''''''''''''''''''''''''''''''''",
"''''''''''''''''''''''''''''''''"};
