/* XPM */
static char * menu_prelight_xpm[] = {
"32 32 55 1",
" 	c #2A2A2A",
".	c #262626",
"+	c #222222",
"@	c #1F1F1F",
"#	c #1D1D1D",
"$	c #1C1C1C",
"%	c #292929",
"&	c #212121",
"*	c #323232",
"=	c #353535",
"-	c #3A3A3A",
";	c #282828",
">	c #1E1E1E",
",	c #252525",
"'	c #393939",
")	c #383838",
"!	c #373737",
"~	c #242424",
"{	c #333333",
"]	c #232323",
"^	c #272727",
"/	c #343434",
"(	c #161616",
"_	c #090909",
":	c #313131",
"<	c #A8A8A8",
"[	c #DFDFDF",
"}	c #303030",
"|	c #474747",
"1	c #D6D6D6",
"2	c #363636",
"3	c #7F7F7F",
"4	c #BABABA",
"5	c #1B1B1B",
"6	c #565656",
"7	c #DCDCDC",
"8	c #929292",
"9	c #3B3B3B",
"0	c #CACACA",
"a	c #202020",
"b	c #696969",
"c	c #131313",
"d	c #1A1A1A",
"e	c #0E0E0E",
"f	c #2C2C2C",
"g	c #0D0D0D",
"h	c #171717",
"i	c #2F2F2F",
"j	c #0B0B0B",
"k	c #101010",
"l	c #2D2D2D",
"m	c #0F0F0F",
"n	c #0C0C0C",
"o	c #080808",
"p	c #0A0A0A",
"                                ",
"           .+@#$$#@+.           ",
"        %.#& *=--=* &#.%        ",
"       ;>,=-'))!!))'-=~>;       ",
"      .@{-)!!!!!!!!!!)-{@.      ",
"     ]+))!!!!!!!!!!!!!!))+]     ",
"    .+'!!!!!!!!!!!!!!!!!!'+.    ",
"%%%^@!!!!!!!!!!!!!!!!!!!!!!@^%%%",
"%%;>{!!!!!!!!!!!!!!!!!!!!!!{>;%%",
"%%.,)!!!!!!!!!!!!!!!!!!!!!!)~.%%",
"%;#/!!!!!!!!!!!!!!!!!!!!!!!!/>;%",
"%,&)!!!!!!!!!!!!!!!!!!!!!!!!)&,%",
";& !!!!!!!!(________(!!!!!!!!%&;",
";@:!!!!!!!!<[[[[[[[[<!!!!!!!!}@;",
";#{!!!!!!!!|1[[[[[[1|!!!!!!!!{#;",
";$2!!!!!!!!!3[[[[[[3!!!!!!!!!2$;",
"^$2!!!!!!!!!=4[[[[4=!!!!!!!!!25^",
"^#{!!!!!!!!!!67[[76!!!!!!!!!!{$^",
"^>}!!!!!!!!!!!8[[8!!!!!!!!!!!}>^",
"^&%!!!!!!!!!!!9009!!!!!!!!!!!%&^",
"^~a!!!!!!!!!!!!bb!!!!!!!!!!!!a~^",
"^^#{!!!!!!!!!!!!!!!!!!!!!!!!*>^^",
";^,~!!!!!!!!!!!!!!!!!!!!!!!!~.^;",
";^;>:!!!!!!!!!!!!!!!!!!!!!!:>^^;",
";;^.@=!!!!!!!!!!!!!!!!!!!!=@^^;;",
"^^..,+!!!!!!!!!!!!!!!!!!!!+~..^^",
"^^^..@c{!!!!!!!!!!!!!!!!{c>..^^^",
"^^^^..def!!!!!!!!!!!!!!fgd..^^^^",
"^^^^^..@ghi!!!!!!!!!!i(ga..^^^^^",
"^^^^^^..,5jk#;l**l;#kj5,..^^^^^^",
"^^^^^^^....@(mn_opm(@....^^^^^^^",
"^^^^^^^^^.....,,,,.....^^^^^^^^^"};
