/* XPM */
static char * menu_inactive_xpm[] = {
"32 32 10 1",
" 	c #353535",
".	c #161616",
"+	c #090909",
"@	c #919190",
"#	c #474747",
"$	c #7F7F7F",
"%	c #565656",
"&	c #929292",
"*	c #3B3B3B",
"=	c #696969",
"                                ",
"                                ",
"                                ",
"                                ",
"                                ",
"                                ",
"                                ",
"                                ",
"                                ",
"                                ",
"                                ",
"                                ",
"           .++++++++.           ",
"           @@@@@@@@@@           ",
"           #@@@@@@@@#           ",
"            $@@@@@@$            ",
"             @@@@@@             ",
"             %@@@@%             ",
"              &@@&              ",
"              *@@*              ",
"               ==               ",
"                                ",
"                                ",
"                                ",
"                                ",
"                                ",
"                                ",
"                                ",
"                                ",
"                                ",
"                                ",
"                                "};
