/* XPM */
static char * menu_pressed_xpm[] = {
"32 32 32 1",
" 	c #2A2A2A",
".	c #262626",
"+	c #222222",
"@	c #1E1E1E",
"#	c #1C1C1C",
"$	c #1B1B1B",
"%	c #292929",
"&	c #202020",
"*	c #1D1D1D",
"=	c #232323",
"-	c #1F1F1F",
";	c #212121",
">	c #161616",
",	c #090909",
"'	c #A8A8A8",
")	c #DFDFDF",
"!	c #474747",
"~	c #D6D6D6",
"{	c #373737",
"]	c #7F7F7F",
"^	c #282828",
"/	c #353535",
"(	c #BABABA",
"_	c #565656",
":	c #DCDCDC",
"<	c #929292",
"[	c #3B3B3B",
"}	c #CACACA",
"|	c #252525",
"1	c #696969",
"2	c #272727",
"3	c #242424",
"                                ",
"           .+@#$$#@+.           ",
"        %&$#**@@@@**#$&%        ",
"       +$#@@@@@@@@@@@@#$=       ",
"      -$*@@@@@@@@@@@@@@*$-      ",
"     *#@@@@@@@@@@@@@@@@@@#@     ",
"    -#@@@@@@@@@@@@@@@@@@@@#-    ",
"%%%+$@@@@@@@@@@@@@@@@@@@@@@$+%%%",
"%%%$*@@@@@@@@@@@@@@@@@@@@@@*$%%%",
"%%&#@@@@@@@@@@@@@@@@@@@@@@@@#&%%",
"%%$@@@@@@@@@@@@@@@@@@@@@@@@@@$%%",
"%.#@@@@@@@@@@@@@@@@@@@@@@@@@@#.%",
"%;*@@@@@@@@>,,,,,,,,>@@@@@@@@#;%",
"%@*@@@@@@@@'))))))))'@@@@@@@@*@%",
"%#@@@@@@@@@!~))))))~!@@@@@@@@@#%",
"%$@@@@@@@@@{]))))))]{@@@@@@@@@$%",
"^$@@@@@@@@@@/())))(/@@@@@@@@@@$^",
"^#@@@@@@@@@@@_:)):_@@@@@@@@@@@#^",
"^@*@@@@@@@@@@@<))<@@@@@@@@@@@*@^",
"^;*@@@@@@@@@@@[}}[@@@@@@@@@@@#;^",
"^|#@@@@@@@@@@@@11@@@@@@@@@@@@#|^",
"^^$@@@@@@@@@@@@@@@@@@@@@@@@@@$^^",
"^^-#@@@@@@@@@@@@@@@@@@@@@@@@#&^^",
"^^^$*@@@@@@@@@@@@@@@@@@@@@@*#^^^",
"^^^+$@@@@@@@@@@@@@@@@@@@@@@$+^^^",
"2222@#@@@@@@@@@@@@@@@@@@@@#-2222",
"22222*#@@@@@@@@@@@@@@@@@@#*22222",
"222222@$*@@@@@@@@@@@@@@*$-222222",
"2222222;$#@@@@@@@@@@@*#$;2222222",
"222222222-$##*@@@@*##$-222222222",
"222222222223;@#$$#@;322222222222",
"22222222222222222222222222222222"};
