/* XPM */
static char * menu_active_xpm[] = {
"32 32 19 1",
" 	c #2A2A2A",
".	c #292929",
"+	c #161616",
"@	c #090909",
"#	c #A8A8A8",
"$	c #DFDFDF",
"%	c #474747",
"&	c #D6D6D6",
"*	c #7F7F7F",
"=	c #282828",
"-	c #353535",
";	c #BABABA",
">	c #565656",
",	c #DCDCDC",
"'	c #929292",
")	c #3B3B3B",
"!	c #CACACA",
"~	c #696969",
"{	c #272727",
"                                ",
"                                ",
"                                ",
"                                ",
"                                ",
"                                ",
"                                ",
"................................",
"................................",
"................................",
"................................",
"................................",
"...........+@@@@@@@@+...........",
"...........#$$$$$$$$#...........",
"...........%&$$$$$$&%...........",
"............*$$$$$$*............",
"============-;$$$$;-============",
"=============>,$$,>=============",
"=============='$$'==============",
"==============)!!)==============",
"===============~~===============",
"================================",
"================================",
"================================",
"================================",
"{{{{{{{{{{{{{{{{{{{{{{{{{{{{{{{{",
"{{{{{{{{{{{{{{{{{{{{{{{{{{{{{{{{",
"{{{{{{{{{{{{{{{{{{{{{{{{{{{{{{{{",
"{{{{{{{{{{{{{{{{{{{{{{{{{{{{{{{{",
"{{{{{{{{{{{{{{{{{{{{{{{{{{{{{{{{",
"{{{{{{{{{{{{{{{{{{{{{{{{{{{{{{{{",
"{{{{{{{{{{{{{{{{{{{{{{{{{{{{{{{{"};
