/* XPM */
static char * shade_pressed_xpm[] = {
"32 32 35 1",
" 	c #2A2A2A",
".	c #262626",
"+	c #222222",
"@	c #1E1E1E",
"#	c #1C1C1C",
"$	c #1B1B1B",
"%	c #292929",
"&	c #202020",
"*	c #1D1D1D",
"=	c #232323",
"-	c #1F1F1F",
";	c #212121",
">	c #191919",
",	c #7B7B7B",
"'	c #838383",
")	c #1A1A1A",
"!	c #939393",
"~	c #DFDFDF",
"{	c #999999",
"]	c #A3A3A3",
"^	c #A8A8A8",
"/	c #ABABAB",
"(	c #CCCCCC",
"_	c #AAAAAA",
":	c #282828",
"<	c #505050",
"[	c #BCBCBC",
"}	c #4B4B4B",
"|	c #484848",
"1	c #BBBBBB",
"2	c #535353",
"3	c #DEDEDE",
"4	c #252525",
"5	c #272727",
"6	c #242424",
"                                ",
"           .+@#$$#@+.           ",
"        %&$#**@@@@**#$&%        ",
"       +$#@@@@@@@@@@@@#$=       ",
"      -$*@@@@@@@@@@@@@@*$-      ",
"     *#@@@@@@@@@@@@@@@@@@#@     ",
"    -#@@@@@@@@@@@@@@@@@@@@#-    ",
"%%%+$@@@@@@@@@@@@@@@@@@@@@@$+%%%",
"%%%$*@@@@@@@@@@@@@@@@@@@@@@*$%%%",
"%%&#@@@@@@@@@@@@@@@@@@@@@@@@#&%%",
"%%$@@@@@@@@@@@@@@@@@@@@@@@@@@$%%",
"%.#@@@@@@@@@@-&*$@&@@@@@@@@@@#.%",
"%;*@@@@@@@@@@ >,'> @@@@@@@@@@#;%",
"%@*@@@@@@@@@ )!~~{) @@@@@@@@@*@%",
"%#@@@@@@@@@@@]~~~~^;@@@@@@@@@@#%",
"%$@@@@@@@@@@/~(~~(~_@@@@@@@@@@$%",
":$@@@@@@@@@@<[}~~|12@@@@@@@@@@$:",
":#@@@@@@@@@@@-;~~@@@@@@@@@@@@@#:",
":@*@@@@@@@@@@@-~~@@@@@@@@@@@@*@:",
":;*@@@@@@@@@@@@~3@@@@@@@@@@@@#;:",
":4#@@@@@@@@@@@@@@@@@@@@@@@@@@#4:",
"::$@@@@@@@@@@@@@@@@@@@@@@@@@@$::",
"::-#@@@@@@@@@@@@@@@@@@@@@@@@#&::",
":::$*@@@@@@@@@@@@@@@@@@@@@@*#:::",
":::+$@@@@@@@@@@@@@@@@@@@@@@$+:::",
"5555@#@@@@@@@@@@@@@@@@@@@@#-5555",
"55555*#@@@@@@@@@@@@@@@@@@#*55555",
"555555@$*@@@@@@@@@@@@@@*$-555555",
"5555555;$#@@@@@@@@@@@*#$;5555555",
"555555555-$##*@@@@*##$-555555555",
"555555555556;@#$$#@;655555555555",
"55555555555555555555555555555555"};
