/* XPM */
static char * shade_active_xpm[] = {
"32 32 27 1",
" 	c #2A2A2A",
".	c #292929",
"+	c #1D1D1D",
"@	c #1B1B1B",
"#	c #191919",
"$	c #7B7B7B",
"%	c #838383",
"&	c #1A1A1A",
"*	c #939393",
"=	c #DFDFDF",
"-	c #999999",
";	c #1E1E1E",
">	c #A3A3A3",
",	c #A8A8A8",
"'	c #212121",
")	c #ABABAB",
"!	c #CCCCCC",
"~	c #AAAAAA",
"{	c #282828",
"]	c #505050",
"^	c #BCBCBC",
"/	c #4B4B4B",
"(	c #484848",
"_	c #BBBBBB",
":	c #535353",
"<	c #DEDEDE",
"[	c #272727",
"                                ",
"                                ",
"                                ",
"                                ",
"                                ",
"                                ",
"                                ",
"................................",
"................................",
"................................",
"................................",
".............. +@. .............",
"............. #$%# .............",
"............ &*==-& ............",
"............;>====,'............",
"............)=!==!=~............",
"{{{{{{{{{{{{]^/==(_:{{{{{{{{{{{{",
"{{{{{{{{{{{{{{.=={{{{{{{{{{{{{{{",
"{{{{{{{{{{{{{{{=={{{{{{{{{{{{{{{",
"{{{{{{{{{{{{{{{=<{{{{{{{{{{{{{{{",
"{{{{{{{{{{{{{{{{{{{{{{{{{{{{{{{{",
"{{{{{{{{{{{{{{{{{{{{{{{{{{{{{{{{",
"{{{{{{{{{{{{{{{{{{{{{{{{{{{{{{{{",
"{{{{{{{{{{{{{{{{{{{{{{{{{{{{{{{{",
"{{{{{{{{{{{{{{{{{{{{{{{{{{{{{{{{",
"[[[[[[[[[[[[[[[[[[[[[[[[[[[[[[[[",
"[[[[[[[[[[[[[[[[[[[[[[[[[[[[[[[[",
"[[[[[[[[[[[[[[[[[[[[[[[[[[[[[[[[",
"[[[[[[[[[[[[[[[[[[[[[[[[[[[[[[[[",
"[[[[[[[[[[[[[[[[[[[[[[[[[[[[[[[[",
"[[[[[[[[[[[[[[[[[[[[[[[[[[[[[[[[",
"[[[[[[[[[[[[[[[[[[[[[[[[[[[[[[[["};
