/* XPM */
static char * shade_prelight_xpm[] = {
"32 32 61 1",
" 	c #2A2A2A",
".	c #262626",
"+	c #222222",
"@	c #1F1F1F",
"#	c #1D1D1D",
"$	c #1C1C1C",
"%	c #292929",
"&	c #212121",
"*	c #323232",
"=	c #353535",
"-	c #3A3A3A",
";	c #282828",
">	c #1E1E1E",
",	c #252525",
"'	c #393939",
")	c #383838",
"!	c #373737",
"~	c #242424",
"{	c #333333",
"]	c #232323",
"^	c #272727",
"/	c #343434",
"(	c #1B1B1B",
"_	c #191919",
":	c #7B7B7B",
"<	c #838383",
"[	c #313131",
"}	c #1A1A1A",
"|	c #939393",
"1	c #DFDFDF",
"2	c #999999",
"3	c #303030",
"4	c #A3A3A3",
"5	c #A8A8A8",
"6	c #363636",
"7	c #ABABAB",
"8	c #CCCCCC",
"9	c #AAAAAA",
"0	c #505050",
"a	c #BCBCBC",
"b	c #4B4B4B",
"c	c #484848",
"d	c #BBBBBB",
"e	c #535353",
"f	c #DEDEDE",
"g	c #202020",
"h	c #131313",
"i	c #0E0E0E",
"j	c #2C2C2C",
"k	c #0D0D0D",
"l	c #171717",
"m	c #2F2F2F",
"n	c #161616",
"o	c #0B0B0B",
"p	c #101010",
"q	c #2D2D2D",
"r	c #0F0F0F",
"s	c #0C0C0C",
"t	c #090909",
"u	c #080808",
"v	c #0A0A0A",
"                                ",
"           .+@#$$#@+.           ",
"        %.#& *=--=* &#.%        ",
"       ;>,=-'))!!))'-=~>;       ",
"      .@{-)!!!!!!!!!!)-{@.      ",
"     ]+))!!!!!!!!!!!!!!))+]     ",
"    .+'!!!!!!!!!!!!!!!!!!'+.    ",
"%%%^@!!!!!!!!!!!!!!!!!!!!!!@^%%%",
"%%;>{!!!!!!!!!!!!!!!!!!!!!!{>;%%",
"%%.,)!!!!!!!!!!!!!!!!!!!!!!)~.%%",
"%;#/!!!!!!!!!!!!!!!!!!!!!!!!/>;%",
"%,&)!!!!!!!!!!!#(!!!!!!!!!!!)&,%",
";& !!!!!!!!!! _:<_ !!!!!!!!!!%&;",
";@[!!!!!!!!! }|112} !!!!!!!!!3@;",
";#{!!!!!!!!!>411115&!!!!!!!!!{#;",
";$6!!!!!!!!!71811819!!!!!!!!!6$;",
"^$6!!!!!!!!!0ab11cde!!!!!!!!!6(^",
"^#{!!!!!!!!!!!!11!!!!!!!!!!!!{$^",
"^>3!!!!!!!!!!!!11!!!!!!!!!!!!3>^",
"^&%!!!!!!!!!!!!1f!!!!!!!!!!!!%&^",
"^~g!!!!!!!!!!!!!!!!!!!!!!!!!!g~^",
"^^#{!!!!!!!!!!!!!!!!!!!!!!!!*>^^",
";^,~!!!!!!!!!!!!!!!!!!!!!!!!~.^;",
";^;>[!!!!!!!!!!!!!!!!!!!!!![>^^;",
";;^.@=!!!!!!!!!!!!!!!!!!!!=@^^;;",
"^^..,+!!!!!!!!!!!!!!!!!!!!+~..^^",
"^^^..@h{!!!!!!!!!!!!!!!!{h>..^^^",
"^^^^..}ij!!!!!!!!!!!!!!jk}..^^^^",
"^^^^^..@klm!!!!!!!!!!mnkg..^^^^^",
"^^^^^^..,(op#;q**q;#po(,..^^^^^^",
"^^^^^^^....@nrstuvrn@....^^^^^^^",
"^^^^^^^^^.....,,,,.....^^^^^^^^^"};
