/* XPM */
static char * shade_inactive_xpm[] = {
"32 32 21 1",
" 	c #353535",
".	c #1D1D1D",
"+	c #1B1B1B",
"@	c #2A2A2A",
"#	c #191919",
"$	c #7B7B7B",
"%	c #838383",
"&	c #1A1A1A",
"*	c #939393",
"=	c #919190",
"-	c #999999",
";	c #1E1E1E",
">	c #A3A3A3",
",	c #A8A8A8",
"'	c #212121",
")	c #ABABAB",
"!	c #AAAAAA",
"~	c #505050",
"{	c #4B4B4B",
"]	c #484848",
"^	c #535353",
"                                ",
"                                ",
"                                ",
"                                ",
"                                ",
"                                ",
"                                ",
"                                ",
"                                ",
"                                ",
"                                ",
"               .+               ",
"             @#$%#@             ",
"            @&*==-&@            ",
"            ;>====,'            ",
"            )======!            ",
"            ~{{==]{^            ",
"               ==               ",
"               ==               ",
"               ==               ",
"                                ",
"                                ",
"                                ",
"                                ",
"                                ",
"                                ",
"                                ",
"                                ",
"                                ",
"                                ",
"                                ",
"                                "};
