/* XPM */
static char * stick_active_xpm[] = {
"32 32 27 1",
" 	c #2A2A2A",
".	c #292929",
"+	c #2F2F2F",
"@	c #171717",
"#	c #0B0B0B",
"$	c #161616",
"%	c #2D2D2D",
"&	c #242424",
"*	c #999999",
"=	c #D4D4D4",
"-	c #9C9C9C",
";	c #2B2B2B",
">	c #D0D0D0",
",	c #DFDFDF",
"'	c #D1D1D1",
")	c #282828",
"!	c #D5D5D5",
"~	c #D3D3D3",
"{	c #A7A7A7",
"]	c #A3A3A3",
"^	c #4D4D4D",
"/	c #454545",
"(	c #464646",
"_	c #A6A6A6",
":	c #D6D6D6",
"<	c #A5A5A5",
"[	c #272727",
"                                ",
"                                ",
"                                ",
"                                ",
"                                ",
"                                ",
"                                ",
"................................",
"................................",
"................................",
"................................",
".............+@##$%.............",
"............+&*==-;+............",
"............%>,,,,'%............",
"............*,,,,,,*............",
"............=,,,,,,=............",
"))))))))))))!,,,,,,~))))))))))))",
")))))))))))){,,,,,,]))))))))))))",
"))))))))))))^~,,,,'/))))))))))))",
")))))))))))))(_::</)))))))))))))",
"))))))))))))))))))))))))))))))))",
"))))))))))))))))))))))))))))))))",
"))))))))))))))))))))))))))))))))",
"))))))))))))))))))))))))))))))))",
"))))))))))))))))))))))))))))))))",
"[[[[[[[[[[[[[[[[[[[[[[[[[[[[[[[[",
"[[[[[[[[[[[[[[[[[[[[[[[[[[[[[[[[",
"[[[[[[[[[[[[[[[[[[[[[[[[[[[[[[[[",
"[[[[[[[[[[[[[[[[[[[[[[[[[[[[[[[[",
"[[[[[[[[[[[[[[[[[[[[[[[[[[[[[[[[",
"[[[[[[[[[[[[[[[[[[[[[[[[[[[[[[[[",
"[[[[[[[[[[[[[[[[[[[[[[[[[[[[[[[["};
