/* XPM */
static char * stick_prelight_xpm[] = {
"32 32 60 1",
" 	c #2A2A2A",
".	c #262626",
"+	c #222222",
"@	c #1F1F1F",
"#	c #1D1D1D",
"$	c #1C1C1C",
"%	c #292929",
"&	c #212121",
"*	c #323232",
"=	c #353535",
"-	c #3A3A3A",
";	c #282828",
">	c #1E1E1E",
",	c #252525",
"'	c #393939",
")	c #383838",
"!	c #373737",
"~	c #242424",
"{	c #333333",
"]	c #232323",
"^	c #272727",
"/	c #343434",
"(	c #2F2F2F",
"_	c #171717",
":	c #0B0B0B",
"<	c #161616",
"[	c #2D2D2D",
"}	c #999999",
"|	c #D4D4D4",
"1	c #9C9C9C",
"2	c #2B2B2B",
"3	c #313131",
"4	c #D0D0D0",
"5	c #DFDFDF",
"6	c #D1D1D1",
"7	c #303030",
"8	c #363636",
"9	c #D5D5D5",
"0	c #D3D3D3",
"a	c #1B1B1B",
"b	c #A7A7A7",
"c	c #A3A3A3",
"d	c #4D4D4D",
"e	c #454545",
"f	c #464646",
"g	c #A6A6A6",
"h	c #D6D6D6",
"i	c #A5A5A5",
"j	c #202020",
"k	c #131313",
"l	c #1A1A1A",
"m	c #0E0E0E",
"n	c #2C2C2C",
"o	c #0D0D0D",
"p	c #101010",
"q	c #0F0F0F",
"r	c #0C0C0C",
"s	c #090909",
"t	c #080808",
"u	c #0A0A0A",
"                                ",
"           .+@#$$#@+.           ",
"        %.#& *=--=* &#.%        ",
"       ;>,=-'))!!))'-=~>;       ",
"      .@{-)!!!!!!!!!!)-{@.      ",
"     ]+))!!!!!!!!!!!!!!))+]     ",
"    .+'!!!!!!!!!!!!!!!!!!'+.    ",
"%%%^@!!!!!!!!!!!!!!!!!!!!!!@^%%%",
"%%;>{!!!!!!!!!!!!!!!!!!!!!!{>;%%",
"%%.,)!!!!!!!!!!!!!!!!!!!!!!)~.%%",
"%;#/!!!!!!!!!!!!!!!!!!!!!!!!/>;%",
"%,&)!!!!!!!!!(_::<[!!!!!!!!!)&,%",
";& !!!!!!!!!(~}||12(!!!!!!!!!%&;",
";@3!!!!!!!!![455556[!!!!!!!!!7@;",
";#{!!!!!!!!!}555555}!!!!!!!!!{#;",
";$8!!!!!!!!!|555555|!!!!!!!!!8$;",
"^$8!!!!!!!!!95555550!!!!!!!!!8a^",
"^#{!!!!!!!!!b555555c!!!!!!!!!{$^",
"^>7!!!!!!!!!d055556e!!!!!!!!!7>^",
"^&%!!!!!!!!!!fghhie!!!!!!!!!!%&^",
"^~j!!!!!!!!!!!!!!!!!!!!!!!!!!j~^",
"^^#{!!!!!!!!!!!!!!!!!!!!!!!!*>^^",
";^,~!!!!!!!!!!!!!!!!!!!!!!!!~.^;",
";^;>3!!!!!!!!!!!!!!!!!!!!!!3>^^;",
";;^.@=!!!!!!!!!!!!!!!!!!!!=@^^;;",
"^^..,+!!!!!!!!!!!!!!!!!!!!+~..^^",
"^^^..@k{!!!!!!!!!!!!!!!!{k>..^^^",
"^^^^..lmn!!!!!!!!!!!!!!nol..^^^^",
"^^^^^..@o_(!!!!!!!!!!(<oj..^^^^^",
"^^^^^^..,a:p#;[**[;#p:a,..^^^^^^",
"^^^^^^^....@<qrstuq<@....^^^^^^^",
"^^^^^^^^^.....,,,,.....^^^^^^^^^"};
