/* XPM */
static char * stick_inactive_xpm[] = {
"32 32 18 1",
" 	c #353535",
".	c #2F2F2F",
"+	c #171717",
"@	c #0B0B0B",
"#	c #161616",
"$	c #2D2D2D",
"%	c #242424",
"&	c #999999",
"*	c #919190",
"=	c #9C9C9C",
"-	c #2B2B2B",
";	c #A7A7A7",
">	c #A3A3A3",
",	c #4D4D4D",
"'	c #454545",
")	c #464646",
"!	c #A6A6A6",
"~	c #A5A5A5",
"                                ",
"                                ",
"                                ",
"                                ",
"                                ",
"                                ",
"                                ",
"                                ",
"                                ",
"                                ",
"                                ",
"             .+@@#$             ",
"            .%&**=-.            ",
"            $&****&$            ",
"            &******&            ",
"            ********            ",
"            ********            ",
"            ;******>            ",
"            ,;****>'            ",
"             )!**~'             ",
"                                ",
"                                ",
"                                ",
"                                ",
"                                ",
"                                ",
"                                ",
"                                ",
"                                ",
"                                ",
"                                ",
"                                "};
