/* XPM */
static char * stick_pressed_xpm[] = {
"32 32 34 1",
" 	c #2A2A2A",
".	c #262626",
"+	c #222222",
"@	c #1E1E1E",
"#	c #1C1C1C",
"$	c #1B1B1B",
"%	c #292929",
"&	c #202020",
"*	c #1D1D1D",
"=	c #232323",
"-	c #1F1F1F",
";	c #171717",
">	c #0B0B0B",
",	c #161616",
"'	c #212121",
")	c #242424",
"!	c #999999",
"~	c #D4D4D4",
"{	c #9C9C9C",
"]	c #2B2B2B",
"^	c #2D2D2D",
"/	c #D0D0D0",
"(	c #DFDFDF",
"_	c #D1D1D1",
":	c #282828",
"<	c #D5D5D5",
"[	c #D3D3D3",
"}	c #A7A7A7",
"|	c #A3A3A3",
"1	c #A6A6A6",
"2	c #D6D6D6",
"3	c #A5A5A5",
"4	c #252525",
"5	c #272727",
"                                ",
"           .+@#$$#@+.           ",
"        %&$#**@@@@**#$&%        ",
"       +$#@@@@@@@@@@@@#$=       ",
"      -$*@@@@@@@@@@@@@@*$-      ",
"     *#@@@@@@@@@@@@@@@@@@#@     ",
"    -#@@@@@@@@@@@@@@@@@@@@#-    ",
"%%%+$@@@@@@@@@@@@@@@@@@@@@@$+%%%",
"%%%$*@@@@@@@@@@@@@@@@@@@@@@*$%%%",
"%%&#@@@@@@@@@@@@@@@@@@@@@@@@#&%%",
"%%$@@@@@@@@@@@@@@@@@@@@@@@@@@$%%",
"%.#@@@@@@@@@@@;>>,@@@@@@@@@@@#.%",
"%'*@@@@@@@@@@)!~~{]@@@@@@@@@@#'%",
"%@*@@@@@@@@@^/((((_^@@@@@@@@@*@%",
"%#@@@@@@@@@@!((((((!@@@@@@@@@@#%",
"%$@@@@@@@@@@~((((((~@@@@@@@@@@$%",
":$@@@@@@@@@@<(((((([@@@@@@@@@@$:",
":#@@@@@@@@@@}((((((|@@@@@@@@@@#:",
":@*@@@@@@@@@@[((((_@@@@@@@@@@*@:",
":'*@@@@@@@@@@@1223@@@@@@@@@@@#':",
":4#@@@@@@@@@@@@@@@@@@@@@@@@@@#4:",
"::$@@@@@@@@@@@@@@@@@@@@@@@@@@$::",
"::-#@@@@@@@@@@@@@@@@@@@@@@@@#&::",
":::$*@@@@@@@@@@@@@@@@@@@@@@*#:::",
":::+$@@@@@@@@@@@@@@@@@@@@@@$+:::",
"5555@#@@@@@@@@@@@@@@@@@@@@#-5555",
"55555*#@@@@@@@@@@@@@@@@@@#*55555",
"555555@$*@@@@@@@@@@@@@@*$-555555",
"5555555'$#@@@@@@@@@@@*#$'5555555",
"555555555-$##*@@@@*##$-555555555",
"55555555555)'@#$$#@')55555555555",
"55555555555555555555555555555555"};
