/* XPM */
static char * top_left_active_xpm[] = {
"9 48 26 1",
" 	c None",
".	c #212121",
"+	c #161616",
"@	c #111111",
"#	c #1C1C1C",
"$	c #2A2A29",
"%	c #343434",
"&	c #373737",
"*	c #393939",
"=	c #363636",
"-	c #323232",
";	c #2E2E2E",
">	c #2C2C2C",
",	c #2B2B2B",
"'	c #222222",
")	c #333333",
"!	c #272727",
"~	c #2A2A2A",
"{	c #202020",
"]	c #151515",
"^	c #0E0E0E",
"/	c #0D0D0D",
"(	c #292929",
"_	c #282828",
":	c #262626",
"<	c #070707",
"      .+@",
"    #$%&*",
"   .=-;>,",
"  '%>,,,,",
" #),,,,,,",
" !,~~~~~~",
"{>~~~~~~~",
"],~~~~~~~",
"@,~~~~~~~",
"^~~~~~~~~",
"^~~~~~~~~",
"^~~~~~~~~",
"^~~~~~~~~",
"^~~~~~~~~",
"/~~~~~~~~",
"/((((((((",
"/((((((((",
"/((((((((",
"/((((((((",
"/((((((((",
"/((((((((",
"/((((((((",
"/((((((((",
"/((((((((",
"/________",
"/________",
"/________",
"/________",
"/________",
"/________",
"/________",
"/________",
"/________",
"/!!!!!!!!",
"/!!!!!!!!",
"/!!!!!!!!",
"/!!!!!!!!",
"/!!!!!!!!",
"/!!!!!!!!",
"/!!!!!!!!",
"/!!!!!!!!",
"/!!!!!!!!",
"/::::::::",
"/::::::::",
"/::::::::",
"/::::::::",
"/::::::::",
"/<<<<<<<<"};
