/* XPM */
static char * top_right_inactive_xpm[] = {
"9 48 20 1",
" 	c None",
".	c #121212",
"+	c #181818",
"@	c #232323",
"#	c #424242",
"$	c #424241",
"%	c #3E3E3E",
"&	c #2E2E2E",
"*	c #1F1F1F",
"=	c #353535",
"-	c #363636",
";	c #373737",
">	c #3B3B3B",
",	c #3F3F3F",
"'	c #242424",
")	c #3C3C3C",
"!	c #2C2C2C",
"~	c #171717",
"{	c #0F0F0F",
"]	c #202020",
".+@      ",
"#$%&*    ",
"=-;>,'   ",
"====-%'  ",
"======)* ",
"======-! ",
"=======;@",
"=======;~",
"=======-.",
"========{",
"========{",
"========{",
"========{",
"========{",
"========{",
"========{",
"========{",
"========{",
"========{",
"========{",
"========{",
"========{",
"========{",
"========{",
"========{",
"========{",
"========{",
"========{",
"========{",
"========{",
"========{",
"========{",
"========{",
"========{",
"========{",
"========{",
"========{",
"========{",
"========{",
"========{",
"========{",
"========{",
"========{",
"========{",
"========{",
"========{",
"========{",
"]]]]]]]]{"};
