/* XPM */
static char * top_right_inactive_xpm[] = {
"9 48 24 1",
" 	c None",
".	c #121212",
"+	c #181818",
"@	c #232323",
"#	c #333333",
"$	c #424242",
"%	c #424241",
"&	c #3E3E3E",
"*	c #2E2E2E",
"=	c #1F1F1F",
"-	c #3A3A3A",
";	c #353535",
">	c #363636",
",	c #373737",
"'	c #3B3B3B",
")	c #3F3F3F",
"!	c #242424",
"~	c #393939",
"{	c #3C3C3C",
"]	c #404040",
"^	c #2C2C2C",
"/	c #171717",
"(	c #0F0F0F",
"_	c #202020",
".+@#     ",
"$%&*=-   ",
";>,')!;  ",
";;;;>&!~ ",
";;;;;;{=]",
";;;;;;>^#",
";;;;;;;,@",
";;;;;;;,/",
";;;;;;;>.",
";;;;;;;;(",
";;;;;;;;(",
";;;;;;;;(",
";;;;;;;;(",
";;;;;;;;(",
";;;;;;;;(",
";;;;;;;;(",
";;;;;;;;(",
";;;;;;;;(",
";;;;;;;;(",
";;;;;;;;(",
";;;;;;;;(",
";;;;;;;;(",
";;;;;;;;(",
";;;;;;;;(",
";;;;;;;;(",
";;;;;;;;(",
";;;;;;;;(",
";;;;;;;;(",
";;;;;;;;(",
";;;;;;;;(",
";;;;;;;;(",
";;;;;;;;(",
";;;;;;;;(",
";;;;;;;;(",
";;;;;;;;(",
";;;;;;;;(",
";;;;;;;;(",
";;;;;;;;(",
";;;;;;;;(",
";;;;;;;;(",
";;;;;;;;(",
";;;;;;;;(",
";;;;;;;;(",
";;;;;;;;(",
";;;;;;;;(",
";;;;;;;;(",
";;;;;;;;(",
"________("};
