/* XPM */
static char * top_right_active_xpm[] = {
"9 48 29 1",
" 	c None",
".	c #111111",
"+	c #161616",
"@	c #212121",
"#	c #303030",
"$	c #393939",
"%	c #373737",
"&	c #343434",
"*	c #2A2A29",
"=	c #1C1C1C",
"-	c #363636",
";	c #2B2B2B",
">	c #2C2C2C",
",	c #2E2E2E",
"'	c #323232",
")	c #313131",
"!	c #222222",
"~	c #333333",
"{	c #3C3C3C",
"]	c #2A2A2A",
"^	c #272727",
"/	c #202020",
"(	c #151515",
"_	c #0E0E0E",
":	c #0D0D0D",
"<	c #292929",
"[	c #282828",
"}	c #262626",
"|	c #070707",
".+@#     ",
"$%&*=-   ",
";>,'-@)  ",
";;;;>&!- ",
";;;;;;~={",
"]]]]]];^#",
"]]]]]]]>/",
"]]]]]]];(",
"]]]]]]];.",
"]]]]]]]]_",
"]]]]]]]]_",
"]]]]]]]]_",
"]]]]]]]]_",
"]]]]]]]]_",
"]]]]]]]]:",
"<<<<<<<<:",
"<<<<<<<<:",
"<<<<<<<<:",
"<<<<<<<<:",
"<<<<<<<<:",
"<<<<<<<<:",
"<<<<<<<<:",
"<<<<<<<<:",
"<<<<<<<<:",
"[[[[[[[[:",
"[[[[[[[[:",
"[[[[[[[[:",
"[[[[[[[[:",
"[[[[[[[[:",
"[[[[[[[[:",
"[[[[[[[[:",
"[[[[[[[[:",
"[[[[[[[[:",
"^^^^^^^^:",
"^^^^^^^^:",
"^^^^^^^^:",
"^^^^^^^^:",
"^^^^^^^^:",
"^^^^^^^^:",
"^^^^^^^^:",
"^^^^^^^^:",
"^^^^^^^^:",
"}}}}}}}}:",
"}}}}}}}}:",
"}}}}}}}}:",
"}}}}}}}}:",
"}}}}}}}}:",
"||||||||:"};
